<svg width="531" height="454" viewBox="0 0 531 454" fill="none" xmlns="http://www.w3.org/2000/svg">
<g style="mix-blend-mode:hard-light" filter="url(#filter0_f_1_904)">
<mask id="path-1-outside-1_1_904" maskUnits="userSpaceOnUse" x="66" y="66" width="399" height="322" fill="black">
<rect fill="white" x="66" y="66" width="399" height="322"/>
<path d="M462.576 225.381C461.175 220.16 456.336 216.594 450.987 216.594H349.237L397.756 84.1526C400.048 77.9126 396.865 71.0358 390.625 68.7435C384.385 66.4513 377.508 69.635 375.216 75.875L320.711 224.489C319.31 228.182 319.947 232.258 322.112 235.441C324.404 238.625 328.097 240.535 331.918 240.535H408.453L237.298 345.851L329.371 83.8979C329.498 83.5158 329.625 83.1338 329.625 82.8791C329.625 82.7518 329.625 82.6244 329.753 82.4971C329.753 82.2424 329.88 81.9877 329.88 81.733C329.88 81.6056 329.88 81.4783 329.88 81.3509C329.88 81.0962 329.88 80.8415 329.88 80.7142C329.88 80.5869 329.88 80.4595 329.88 80.3322C329.88 79.9501 329.88 79.6954 329.88 79.3134C329.88 79.186 329.88 79.0587 329.88 78.9313C329.88 78.6766 329.88 78.5493 329.753 78.2946C329.753 78.1673 329.753 78.0399 329.625 77.9126C329.625 77.6579 329.498 77.5305 329.498 77.2758C329.498 77.1485 329.498 77.0211 329.371 76.8938C329.243 76.6391 329.243 76.3844 329.116 76.1297V76.0023C328.989 75.6203 328.861 75.3656 328.734 74.9836C328.734 74.8562 328.607 74.8562 328.607 74.7289C328.479 74.4742 328.352 74.3468 328.225 74.0921C328.225 73.9648 328.097 73.8374 327.97 73.8374C327.842 73.5827 327.715 73.4554 327.588 73.2007C327.46 73.0734 327.46 72.946 327.333 72.946C327.206 72.6913 326.951 72.564 326.824 72.3093C326.696 72.1819 326.696 72.0546 326.569 72.0546C326.314 71.7999 326.187 71.6725 325.932 71.4178C325.805 71.2905 325.678 71.1631 325.55 71.0358C325.423 70.9085 325.423 70.9085 325.296 70.7811C325.296 70.7811 325.296 70.7811 325.168 70.7811C324.659 70.3991 324.277 70.1444 323.767 69.7623C323.64 69.7623 323.64 69.635 323.513 69.635C323.131 69.3803 322.621 69.2529 322.239 68.9982C322.112 68.9982 321.984 68.8709 321.857 68.8709C321.857 68.8709 321.73 68.8709 321.73 68.7435C321.22 68.6162 320.838 68.4888 320.329 68.3615C320.202 68.3615 320.074 68.3615 320.074 68.3615C319.565 68.2342 319.055 68.2342 318.673 68.1068C318.546 68.1068 318.546 68.1068 318.419 68.1068C317.909 68.1068 317.273 68.1068 316.763 68.1068C316.636 68.1068 316.636 68.1068 316.509 68.1068C315.999 68.1068 315.49 68.2342 314.98 68.3615H314.853C314.344 68.4888 313.834 68.6162 313.325 68.8709C313.198 68.8709 313.07 68.9982 312.943 68.9982C312.433 69.2529 311.924 69.5076 311.542 69.7623L73.6571 218.504C69.0726 221.306 67.0351 226.909 68.4359 232.003C69.964 237.097 74.6759 240.663 80.0245 240.663H178.846L132.619 369.92C130.327 376.16 133.638 383.037 139.878 385.329C141.279 385.839 142.552 386.093 143.953 386.093C148.919 386.093 153.504 383.037 155.287 378.07L207.372 232.767C208.645 229.074 208.136 224.999 205.844 221.815C203.551 218.631 199.986 216.721 196.038 216.721H122.049L295.496 108.476L203.551 370.047C203.424 370.43 203.297 370.812 203.297 371.066C203.297 371.194 203.297 371.321 203.169 371.448C203.169 371.703 203.042 371.958 203.042 372.212C203.042 372.34 203.042 372.467 203.042 372.594C203.042 372.849 203.042 373.104 203.042 373.358C203.042 373.486 203.042 373.613 203.042 373.741C203.042 374.123 203.042 374.377 203.042 374.759C203.042 374.887 203.042 375.014 203.042 375.141C203.042 375.396 203.042 375.523 203.169 375.778C203.169 375.905 203.169 376.033 203.297 376.16C203.297 376.415 203.424 376.542 203.424 376.797C203.424 376.924 203.424 377.052 203.551 377.179C203.679 377.434 203.679 377.816 203.806 378.07V378.198C203.933 378.58 204.061 378.834 204.188 379.216C204.188 379.344 204.316 379.344 204.316 379.471C204.443 379.726 204.57 379.981 204.698 380.108C204.698 380.235 204.825 380.363 204.825 380.363C204.952 380.617 205.08 380.745 205.207 380.999C205.334 381.127 205.334 381.127 205.462 381.254C205.589 381.509 205.844 381.763 205.971 381.891C206.098 382.018 206.098 382.145 206.226 382.145C206.353 382.273 206.608 382.528 206.735 382.655C206.862 382.782 206.99 382.91 207.117 383.037C207.245 383.164 207.245 383.164 207.372 383.292C207.372 383.292 207.499 383.292 207.499 383.419C208.009 383.801 208.391 384.056 208.9 384.438C209.027 384.438 209.027 384.565 209.155 384.565C209.537 384.82 210.046 384.947 210.428 385.202C210.556 385.202 210.683 385.329 210.81 385.329C210.938 385.329 210.938 385.329 211.065 385.457C211.447 385.584 211.956 385.711 212.338 385.839C212.466 385.839 212.466 385.839 212.593 385.839C213.102 385.966 213.612 385.966 214.249 386.093H214.376C214.631 386.093 214.758 386.093 215.013 386.093C215.395 386.093 215.649 386.093 216.031 386.093C216.031 386.093 216.031 386.093 216.159 386.093C216.668 386.093 217.305 385.966 217.814 385.839H217.942C218.451 385.711 219.088 385.584 219.597 385.329C219.597 385.329 219.725 385.329 219.725 385.202C220.234 384.947 220.743 384.692 221.253 384.438L457.482 239.134C461.812 236.078 463.977 230.602 462.576 225.381Z"/>
</mask>
<path d="M462.576 225.381C461.175 220.16 456.336 216.594 450.987 216.594H349.237L397.756 84.1526C400.048 77.9126 396.865 71.0358 390.625 68.7435C384.385 66.4513 377.508 69.635 375.216 75.875L320.711 224.489C319.31 228.182 319.947 232.258 322.112 235.441C324.404 238.625 328.097 240.535 331.918 240.535H408.453L237.298 345.851L329.371 83.8979C329.498 83.5158 329.625 83.1338 329.625 82.8791C329.625 82.7518 329.625 82.6244 329.753 82.4971C329.753 82.2424 329.88 81.9877 329.88 81.733C329.88 81.6056 329.88 81.4783 329.88 81.3509C329.88 81.0962 329.88 80.8415 329.88 80.7142C329.88 80.5869 329.88 80.4595 329.88 80.3322C329.88 79.9501 329.88 79.6954 329.88 79.3134C329.88 79.186 329.88 79.0587 329.88 78.9313C329.88 78.6766 329.88 78.5493 329.753 78.2946C329.753 78.1673 329.753 78.0399 329.625 77.9126C329.625 77.6579 329.498 77.5305 329.498 77.2758C329.498 77.1485 329.498 77.0211 329.371 76.8938C329.243 76.6391 329.243 76.3844 329.116 76.1297V76.0023C328.989 75.6203 328.861 75.3656 328.734 74.9836C328.734 74.8562 328.607 74.8562 328.607 74.7289C328.479 74.4742 328.352 74.3468 328.225 74.0921C328.225 73.9648 328.097 73.8374 327.97 73.8374C327.842 73.5827 327.715 73.4554 327.588 73.2007C327.46 73.0734 327.46 72.946 327.333 72.946C327.206 72.6913 326.951 72.564 326.824 72.3093C326.696 72.1819 326.696 72.0546 326.569 72.0546C326.314 71.7999 326.187 71.6725 325.932 71.4178C325.805 71.2905 325.678 71.1631 325.55 71.0358C325.423 70.9085 325.423 70.9085 325.296 70.7811C325.296 70.7811 325.296 70.7811 325.168 70.7811C324.659 70.3991 324.277 70.1444 323.767 69.7623C323.64 69.7623 323.64 69.635 323.513 69.635C323.131 69.3803 322.621 69.2529 322.239 68.9982C322.112 68.9982 321.984 68.8709 321.857 68.8709C321.857 68.8709 321.73 68.8709 321.73 68.7435C321.22 68.6162 320.838 68.4888 320.329 68.3615C320.202 68.3615 320.074 68.3615 320.074 68.3615C319.565 68.2342 319.055 68.2342 318.673 68.1068C318.546 68.1068 318.546 68.1068 318.419 68.1068C317.909 68.1068 317.273 68.1068 316.763 68.1068C316.636 68.1068 316.636 68.1068 316.509 68.1068C315.999 68.1068 315.49 68.2342 314.98 68.3615H314.853C314.344 68.4888 313.834 68.6162 313.325 68.8709C313.198 68.8709 313.07 68.9982 312.943 68.9982C312.433 69.2529 311.924 69.5076 311.542 69.7623L73.6571 218.504C69.0726 221.306 67.0351 226.909 68.4359 232.003C69.964 237.097 74.6759 240.663 80.0245 240.663H178.846L132.619 369.92C130.327 376.16 133.638 383.037 139.878 385.329C141.279 385.839 142.552 386.093 143.953 386.093C148.919 386.093 153.504 383.037 155.287 378.07L207.372 232.767C208.645 229.074 208.136 224.999 205.844 221.815C203.551 218.631 199.986 216.721 196.038 216.721H122.049L295.496 108.476L203.551 370.047C203.424 370.43 203.297 370.812 203.297 371.066C203.297 371.194 203.297 371.321 203.169 371.448C203.169 371.703 203.042 371.958 203.042 372.212C203.042 372.34 203.042 372.467 203.042 372.594C203.042 372.849 203.042 373.104 203.042 373.358C203.042 373.486 203.042 373.613 203.042 373.741C203.042 374.123 203.042 374.377 203.042 374.759C203.042 374.887 203.042 375.014 203.042 375.141C203.042 375.396 203.042 375.523 203.169 375.778C203.169 375.905 203.169 376.033 203.297 376.16C203.297 376.415 203.424 376.542 203.424 376.797C203.424 376.924 203.424 377.052 203.551 377.179C203.679 377.434 203.679 377.816 203.806 378.07V378.198C203.933 378.58 204.061 378.834 204.188 379.216C204.188 379.344 204.316 379.344 204.316 379.471C204.443 379.726 204.57 379.981 204.698 380.108C204.698 380.235 204.825 380.363 204.825 380.363C204.952 380.617 205.08 380.745 205.207 380.999C205.334 381.127 205.334 381.127 205.462 381.254C205.589 381.509 205.844 381.763 205.971 381.891C206.098 382.018 206.098 382.145 206.226 382.145C206.353 382.273 206.608 382.528 206.735 382.655C206.862 382.782 206.99 382.91 207.117 383.037C207.245 383.164 207.245 383.164 207.372 383.292C207.372 383.292 207.499 383.292 207.499 383.419C208.009 383.801 208.391 384.056 208.9 384.438C209.027 384.438 209.027 384.565 209.155 384.565C209.537 384.82 210.046 384.947 210.428 385.202C210.556 385.202 210.683 385.329 210.81 385.329C210.938 385.329 210.938 385.329 211.065 385.457C211.447 385.584 211.956 385.711 212.338 385.839C212.466 385.839 212.466 385.839 212.593 385.839C213.102 385.966 213.612 385.966 214.249 386.093H214.376C214.631 386.093 214.758 386.093 215.013 386.093C215.395 386.093 215.649 386.093 216.031 386.093C216.031 386.093 216.031 386.093 216.159 386.093C216.668 386.093 217.305 385.966 217.814 385.839H217.942C218.451 385.711 219.088 385.584 219.597 385.329C219.597 385.329 219.725 385.329 219.725 385.202C220.234 384.947 220.743 384.692 221.253 384.438L457.482 239.134C461.812 236.078 463.977 230.602 462.576 225.381Z" stroke="#02A9F7" stroke-width="3.56745" mask="url(#path-1-outside-1_1_904)"/>
</g>
<g style="mix-blend-mode:hard-light" filter="url(#filter1_f_1_904)">
<mask id="path-2-outside-2_1_904" maskUnits="userSpaceOnUse" x="65" y="65" width="401" height="324" fill="black">
<rect fill="white" x="65" y="65" width="401" height="324"/>
<path d="M462.576 225.381C461.175 220.16 456.336 216.594 450.987 216.594H349.237L397.756 84.1526C400.048 77.9126 396.865 71.0358 390.625 68.7435C384.385 66.4513 377.508 69.635 375.216 75.875L320.711 224.489C319.31 228.182 319.947 232.258 322.112 235.441C324.404 238.625 328.097 240.535 331.918 240.535H408.453L237.298 345.851L329.371 83.8979C329.498 83.5158 329.625 83.1338 329.625 82.8791C329.625 82.7518 329.625 82.6244 329.753 82.4971C329.753 82.2424 329.88 81.9877 329.88 81.733C329.88 81.6056 329.88 81.4783 329.88 81.3509C329.88 81.0962 329.88 80.8415 329.88 80.7142C329.88 80.5869 329.88 80.4595 329.88 80.3322C329.88 79.9501 329.88 79.6954 329.88 79.3134C329.88 79.186 329.88 79.0587 329.88 78.9313C329.88 78.6766 329.88 78.5493 329.753 78.2946C329.753 78.1673 329.753 78.0399 329.625 77.9126C329.625 77.6579 329.498 77.5305 329.498 77.2758C329.498 77.1485 329.498 77.0211 329.371 76.8938C329.243 76.6391 329.243 76.3844 329.116 76.1297V76.0023C328.989 75.6203 328.861 75.3656 328.734 74.9836C328.734 74.8562 328.607 74.8562 328.607 74.7289C328.479 74.4742 328.352 74.3468 328.225 74.0921C328.225 73.9648 328.097 73.8374 327.97 73.8374C327.842 73.5827 327.715 73.4554 327.588 73.2007C327.46 73.0734 327.46 72.946 327.333 72.946C327.206 72.6913 326.951 72.564 326.824 72.3093C326.696 72.1819 326.696 72.0546 326.569 72.0546C326.314 71.7999 326.187 71.6725 325.932 71.4178C325.805 71.2905 325.678 71.1631 325.55 71.0358C325.423 70.9085 325.423 70.9085 325.296 70.7811C325.296 70.7811 325.296 70.7811 325.168 70.7811C324.659 70.3991 324.277 70.1444 323.767 69.7623C323.64 69.7623 323.64 69.635 323.513 69.635C323.131 69.3803 322.621 69.2529 322.239 68.9982C322.112 68.9982 321.984 68.8709 321.857 68.8709C321.857 68.8709 321.73 68.8709 321.73 68.7435C321.22 68.6162 320.838 68.4888 320.329 68.3615C320.202 68.3615 320.074 68.3615 320.074 68.3615C319.565 68.2342 319.055 68.2342 318.673 68.1068C318.546 68.1068 318.546 68.1068 318.419 68.1068C317.909 68.1068 317.273 68.1068 316.763 68.1068C316.636 68.1068 316.636 68.1068 316.509 68.1068C315.999 68.1068 315.49 68.2342 314.98 68.3615H314.853C314.344 68.4888 313.834 68.6162 313.325 68.8709C313.198 68.8709 313.07 68.9982 312.943 68.9982C312.433 69.2529 311.924 69.5076 311.542 69.7623L73.6571 218.504C69.0726 221.306 67.0351 226.909 68.4359 232.003C69.964 237.097 74.6759 240.663 80.0245 240.663H178.846L132.619 369.92C130.327 376.16 133.638 383.037 139.878 385.329C141.279 385.839 142.552 386.093 143.953 386.093C148.919 386.093 153.504 383.037 155.287 378.07L207.372 232.767C208.645 229.074 208.136 224.999 205.844 221.815C203.551 218.631 199.986 216.721 196.038 216.721H122.049L295.496 108.476L203.551 370.047C203.424 370.43 203.297 370.812 203.297 371.066C203.297 371.194 203.297 371.321 203.169 371.448C203.169 371.703 203.042 371.958 203.042 372.212C203.042 372.34 203.042 372.467 203.042 372.594C203.042 372.849 203.042 373.104 203.042 373.358C203.042 373.486 203.042 373.613 203.042 373.741C203.042 374.123 203.042 374.377 203.042 374.759C203.042 374.887 203.042 375.014 203.042 375.141C203.042 375.396 203.042 375.523 203.169 375.778C203.169 375.905 203.169 376.033 203.297 376.16C203.297 376.415 203.424 376.542 203.424 376.797C203.424 376.924 203.424 377.052 203.551 377.179C203.679 377.434 203.679 377.816 203.806 378.07V378.198C203.933 378.58 204.061 378.834 204.188 379.216C204.188 379.344 204.316 379.344 204.316 379.471C204.443 379.726 204.57 379.981 204.698 380.108C204.698 380.235 204.825 380.363 204.825 380.363C204.952 380.617 205.08 380.745 205.207 380.999C205.334 381.127 205.334 381.127 205.462 381.254C205.589 381.509 205.844 381.763 205.971 381.891C206.098 382.018 206.098 382.145 206.226 382.145C206.353 382.273 206.608 382.528 206.735 382.655C206.862 382.782 206.99 382.91 207.117 383.037C207.245 383.164 207.245 383.164 207.372 383.292C207.372 383.292 207.499 383.292 207.499 383.419C208.009 383.801 208.391 384.056 208.9 384.438C209.027 384.438 209.027 384.565 209.155 384.565C209.537 384.82 210.046 384.947 210.428 385.202C210.556 385.202 210.683 385.329 210.81 385.329C210.938 385.329 210.938 385.329 211.065 385.457C211.447 385.584 211.956 385.711 212.338 385.839C212.466 385.839 212.466 385.839 212.593 385.839C213.102 385.966 213.612 385.966 214.249 386.093H214.376C214.631 386.093 214.758 386.093 215.013 386.093C215.395 386.093 215.649 386.093 216.031 386.093C216.031 386.093 216.031 386.093 216.159 386.093C216.668 386.093 217.305 385.966 217.814 385.839H217.942C218.451 385.711 219.088 385.584 219.597 385.329C219.597 385.329 219.725 385.329 219.725 385.202C220.234 384.947 220.743 384.692 221.253 384.438L457.482 239.134C461.812 236.078 463.977 230.602 462.576 225.381Z"/>
</mask>
<path d="M462.576 225.381C461.175 220.16 456.336 216.594 450.987 216.594H349.237L397.756 84.1526C400.048 77.9126 396.865 71.0358 390.625 68.7435C384.385 66.4513 377.508 69.635 375.216 75.875L320.711 224.489C319.31 228.182 319.947 232.258 322.112 235.441C324.404 238.625 328.097 240.535 331.918 240.535H408.453L237.298 345.851L329.371 83.8979C329.498 83.5158 329.625 83.1338 329.625 82.8791C329.625 82.7518 329.625 82.6244 329.753 82.4971C329.753 82.2424 329.88 81.9877 329.88 81.733C329.88 81.6056 329.88 81.4783 329.88 81.3509C329.88 81.0962 329.88 80.8415 329.88 80.7142C329.88 80.5869 329.88 80.4595 329.88 80.3322C329.88 79.9501 329.88 79.6954 329.88 79.3134C329.88 79.186 329.88 79.0587 329.88 78.9313C329.88 78.6766 329.88 78.5493 329.753 78.2946C329.753 78.1673 329.753 78.0399 329.625 77.9126C329.625 77.6579 329.498 77.5305 329.498 77.2758C329.498 77.1485 329.498 77.0211 329.371 76.8938C329.243 76.6391 329.243 76.3844 329.116 76.1297V76.0023C328.989 75.6203 328.861 75.3656 328.734 74.9836C328.734 74.8562 328.607 74.8562 328.607 74.7289C328.479 74.4742 328.352 74.3468 328.225 74.0921C328.225 73.9648 328.097 73.8374 327.97 73.8374C327.842 73.5827 327.715 73.4554 327.588 73.2007C327.46 73.0734 327.46 72.946 327.333 72.946C327.206 72.6913 326.951 72.564 326.824 72.3093C326.696 72.1819 326.696 72.0546 326.569 72.0546C326.314 71.7999 326.187 71.6725 325.932 71.4178C325.805 71.2905 325.678 71.1631 325.55 71.0358C325.423 70.9085 325.423 70.9085 325.296 70.7811C325.296 70.7811 325.296 70.7811 325.168 70.7811C324.659 70.3991 324.277 70.1444 323.767 69.7623C323.64 69.7623 323.64 69.635 323.513 69.635C323.131 69.3803 322.621 69.2529 322.239 68.9982C322.112 68.9982 321.984 68.8709 321.857 68.8709C321.857 68.8709 321.73 68.8709 321.73 68.7435C321.22 68.6162 320.838 68.4888 320.329 68.3615C320.202 68.3615 320.074 68.3615 320.074 68.3615C319.565 68.2342 319.055 68.2342 318.673 68.1068C318.546 68.1068 318.546 68.1068 318.419 68.1068C317.909 68.1068 317.273 68.1068 316.763 68.1068C316.636 68.1068 316.636 68.1068 316.509 68.1068C315.999 68.1068 315.49 68.2342 314.98 68.3615H314.853C314.344 68.4888 313.834 68.6162 313.325 68.8709C313.198 68.8709 313.07 68.9982 312.943 68.9982C312.433 69.2529 311.924 69.5076 311.542 69.7623L73.6571 218.504C69.0726 221.306 67.0351 226.909 68.4359 232.003C69.964 237.097 74.6759 240.663 80.0245 240.663H178.846L132.619 369.92C130.327 376.16 133.638 383.037 139.878 385.329C141.279 385.839 142.552 386.093 143.953 386.093C148.919 386.093 153.504 383.037 155.287 378.07L207.372 232.767C208.645 229.074 208.136 224.999 205.844 221.815C203.551 218.631 199.986 216.721 196.038 216.721H122.049L295.496 108.476L203.551 370.047C203.424 370.43 203.297 370.812 203.297 371.066C203.297 371.194 203.297 371.321 203.169 371.448C203.169 371.703 203.042 371.958 203.042 372.212C203.042 372.34 203.042 372.467 203.042 372.594C203.042 372.849 203.042 373.104 203.042 373.358C203.042 373.486 203.042 373.613 203.042 373.741C203.042 374.123 203.042 374.377 203.042 374.759C203.042 374.887 203.042 375.014 203.042 375.141C203.042 375.396 203.042 375.523 203.169 375.778C203.169 375.905 203.169 376.033 203.297 376.16C203.297 376.415 203.424 376.542 203.424 376.797C203.424 376.924 203.424 377.052 203.551 377.179C203.679 377.434 203.679 377.816 203.806 378.07V378.198C203.933 378.58 204.061 378.834 204.188 379.216C204.188 379.344 204.316 379.344 204.316 379.471C204.443 379.726 204.57 379.981 204.698 380.108C204.698 380.235 204.825 380.363 204.825 380.363C204.952 380.617 205.08 380.745 205.207 380.999C205.334 381.127 205.334 381.127 205.462 381.254C205.589 381.509 205.844 381.763 205.971 381.891C206.098 382.018 206.098 382.145 206.226 382.145C206.353 382.273 206.608 382.528 206.735 382.655C206.862 382.782 206.99 382.91 207.117 383.037C207.245 383.164 207.245 383.164 207.372 383.292C207.372 383.292 207.499 383.292 207.499 383.419C208.009 383.801 208.391 384.056 208.9 384.438C209.027 384.438 209.027 384.565 209.155 384.565C209.537 384.82 210.046 384.947 210.428 385.202C210.556 385.202 210.683 385.329 210.81 385.329C210.938 385.329 210.938 385.329 211.065 385.457C211.447 385.584 211.956 385.711 212.338 385.839C212.466 385.839 212.466 385.839 212.593 385.839C213.102 385.966 213.612 385.966 214.249 386.093H214.376C214.631 386.093 214.758 386.093 215.013 386.093C215.395 386.093 215.649 386.093 216.031 386.093C216.031 386.093 216.031 386.093 216.159 386.093C216.668 386.093 217.305 385.966 217.814 385.839H217.942C218.451 385.711 219.088 385.584 219.597 385.329C219.597 385.329 219.725 385.329 219.725 385.202C220.234 384.947 220.743 384.692 221.253 384.438L457.482 239.134C461.812 236.078 463.977 230.602 462.576 225.381Z" stroke="#02A9F7" stroke-width="4.66513" mask="url(#path-2-outside-2_1_904)"/>
</g>
<g style="mix-blend-mode:hard-light" filter="url(#filter2_ddi_1_904)">
<mask id="path-3-outside-3_1_904" maskUnits="userSpaceOnUse" x="66" y="66" width="399" height="322" fill="black">
<rect fill="white" x="66" y="66" width="399" height="322"/>
<path d="M462.576 225.381C461.175 220.16 456.336 216.594 450.987 216.594H349.237L397.756 84.1526C400.048 77.9126 396.865 71.0358 390.625 68.7435C384.385 66.4513 377.508 69.635 375.216 75.875L320.711 224.489C319.31 228.182 319.947 232.258 322.112 235.441C324.404 238.625 328.097 240.535 331.918 240.535H408.453L237.298 345.851L329.371 83.8979C329.498 83.5158 329.625 83.1338 329.625 82.8791C329.625 82.7518 329.625 82.6244 329.753 82.4971C329.753 82.2424 329.88 81.9877 329.88 81.733C329.88 81.6056 329.88 81.4783 329.88 81.3509C329.88 81.0962 329.88 80.8415 329.88 80.7142C329.88 80.5869 329.88 80.4595 329.88 80.3322C329.88 79.9501 329.88 79.6954 329.88 79.3134C329.88 79.186 329.88 79.0587 329.88 78.9313C329.88 78.6766 329.88 78.5493 329.753 78.2946C329.753 78.1673 329.753 78.0399 329.625 77.9126C329.625 77.6579 329.498 77.5305 329.498 77.2758C329.498 77.1485 329.498 77.0211 329.371 76.8938C329.243 76.6391 329.243 76.3844 329.116 76.1297V76.0023C328.989 75.6203 328.861 75.3656 328.734 74.9836C328.734 74.8562 328.607 74.8562 328.607 74.7289C328.479 74.4742 328.352 74.3468 328.225 74.0921C328.225 73.9648 328.097 73.8374 327.97 73.8374C327.842 73.5827 327.715 73.4554 327.588 73.2007C327.46 73.0734 327.46 72.946 327.333 72.946C327.206 72.6913 326.951 72.564 326.824 72.3093C326.696 72.1819 326.696 72.0546 326.569 72.0546C326.314 71.7999 326.187 71.6725 325.932 71.4178C325.805 71.2905 325.678 71.1631 325.55 71.0358C325.423 70.9085 325.423 70.9085 325.296 70.7811C325.296 70.7811 325.296 70.7811 325.168 70.7811C324.659 70.3991 324.277 70.1444 323.767 69.7623C323.64 69.7623 323.64 69.635 323.513 69.635C323.131 69.3803 322.621 69.2529 322.239 68.9982C322.112 68.9982 321.984 68.8709 321.857 68.8709C321.857 68.8709 321.73 68.8709 321.73 68.7435C321.22 68.6162 320.838 68.4888 320.329 68.3615C320.202 68.3615 320.074 68.3615 320.074 68.3615C319.565 68.2342 319.055 68.2342 318.673 68.1068C318.546 68.1068 318.546 68.1068 318.419 68.1068C317.909 68.1068 317.273 68.1068 316.763 68.1068C316.636 68.1068 316.636 68.1068 316.509 68.1068C315.999 68.1068 315.49 68.2342 314.98 68.3615H314.853C314.344 68.4888 313.834 68.6162 313.325 68.8709C313.198 68.8709 313.07 68.9982 312.943 68.9982C312.433 69.2529 311.924 69.5076 311.542 69.7623L73.6571 218.504C69.0726 221.306 67.0351 226.909 68.4359 232.003C69.964 237.097 74.6759 240.663 80.0245 240.663H178.846L132.619 369.92C130.327 376.16 133.638 383.037 139.878 385.329C141.279 385.839 142.552 386.093 143.953 386.093C148.919 386.093 153.504 383.037 155.287 378.07L207.372 232.767C208.645 229.074 208.136 224.999 205.844 221.815C203.551 218.631 199.986 216.721 196.038 216.721H122.049L295.496 108.476L203.551 370.047C203.424 370.43 203.297 370.812 203.297 371.066C203.297 371.194 203.297 371.321 203.169 371.448C203.169 371.703 203.042 371.958 203.042 372.212C203.042 372.34 203.042 372.467 203.042 372.594C203.042 372.849 203.042 373.104 203.042 373.358C203.042 373.486 203.042 373.613 203.042 373.741C203.042 374.123 203.042 374.377 203.042 374.759C203.042 374.887 203.042 375.014 203.042 375.141C203.042 375.396 203.042 375.523 203.169 375.778C203.169 375.905 203.169 376.033 203.297 376.16C203.297 376.415 203.424 376.542 203.424 376.797C203.424 376.924 203.424 377.052 203.551 377.179C203.679 377.434 203.679 377.816 203.806 378.07V378.198C203.933 378.58 204.061 378.834 204.188 379.216C204.188 379.344 204.316 379.344 204.316 379.471C204.443 379.726 204.57 379.981 204.698 380.108C204.698 380.235 204.825 380.363 204.825 380.363C204.952 380.617 205.08 380.745 205.207 380.999C205.334 381.127 205.334 381.127 205.462 381.254C205.589 381.509 205.844 381.763 205.971 381.891C206.098 382.018 206.098 382.145 206.226 382.145C206.353 382.273 206.608 382.528 206.735 382.655C206.862 382.782 206.99 382.91 207.117 383.037C207.245 383.164 207.245 383.164 207.372 383.292C207.372 383.292 207.499 383.292 207.499 383.419C208.009 383.801 208.391 384.056 208.9 384.438C209.027 384.438 209.027 384.565 209.155 384.565C209.537 384.82 210.046 384.947 210.428 385.202C210.556 385.202 210.683 385.329 210.81 385.329C210.938 385.329 210.938 385.329 211.065 385.457C211.447 385.584 211.956 385.711 212.338 385.839C212.466 385.839 212.466 385.839 212.593 385.839C213.102 385.966 213.612 385.966 214.249 386.093H214.376C214.631 386.093 214.758 386.093 215.013 386.093C215.395 386.093 215.649 386.093 216.031 386.093C216.031 386.093 216.031 386.093 216.159 386.093C216.668 386.093 217.305 385.966 217.814 385.839H217.942C218.451 385.711 219.088 385.584 219.597 385.329C219.597 385.329 219.725 385.329 219.725 385.202C220.234 384.947 220.743 384.692 221.253 384.438L457.482 239.134C461.812 236.078 463.977 230.602 462.576 225.381Z"/>
</mask>
<path d="M462.576 225.381C461.175 220.16 456.336 216.594 450.987 216.594H349.237L397.756 84.1526C400.048 77.9126 396.865 71.0358 390.625 68.7435C384.385 66.4513 377.508 69.635 375.216 75.875L320.711 224.489C319.31 228.182 319.947 232.258 322.112 235.441C324.404 238.625 328.097 240.535 331.918 240.535H408.453L237.298 345.851L329.371 83.8979C329.498 83.5158 329.625 83.1338 329.625 82.8791C329.625 82.7518 329.625 82.6244 329.753 82.4971C329.753 82.2424 329.88 81.9877 329.88 81.733C329.88 81.6056 329.88 81.4783 329.88 81.3509C329.88 81.0962 329.88 80.8415 329.88 80.7142C329.88 80.5869 329.88 80.4595 329.88 80.3322C329.88 79.9501 329.88 79.6954 329.88 79.3134C329.88 79.186 329.88 79.0587 329.88 78.9313C329.88 78.6766 329.88 78.5493 329.753 78.2946C329.753 78.1673 329.753 78.0399 329.625 77.9126C329.625 77.6579 329.498 77.5305 329.498 77.2758C329.498 77.1485 329.498 77.0211 329.371 76.8938C329.243 76.6391 329.243 76.3844 329.116 76.1297V76.0023C328.989 75.6203 328.861 75.3656 328.734 74.9836C328.734 74.8562 328.607 74.8562 328.607 74.7289C328.479 74.4742 328.352 74.3468 328.225 74.0921C328.225 73.9648 328.097 73.8374 327.97 73.8374C327.842 73.5827 327.715 73.4554 327.588 73.2007C327.46 73.0734 327.46 72.946 327.333 72.946C327.206 72.6913 326.951 72.564 326.824 72.3093C326.696 72.1819 326.696 72.0546 326.569 72.0546C326.314 71.7999 326.187 71.6725 325.932 71.4178C325.805 71.2905 325.678 71.1631 325.55 71.0358C325.423 70.9085 325.423 70.9085 325.296 70.7811C325.296 70.7811 325.296 70.7811 325.168 70.7811C324.659 70.3991 324.277 70.1444 323.767 69.7623C323.64 69.7623 323.64 69.635 323.513 69.635C323.131 69.3803 322.621 69.2529 322.239 68.9982C322.112 68.9982 321.984 68.8709 321.857 68.8709C321.857 68.8709 321.73 68.8709 321.73 68.7435C321.22 68.6162 320.838 68.4888 320.329 68.3615C320.202 68.3615 320.074 68.3615 320.074 68.3615C319.565 68.2342 319.055 68.2342 318.673 68.1068C318.546 68.1068 318.546 68.1068 318.419 68.1068C317.909 68.1068 317.273 68.1068 316.763 68.1068C316.636 68.1068 316.636 68.1068 316.509 68.1068C315.999 68.1068 315.49 68.2342 314.98 68.3615H314.853C314.344 68.4888 313.834 68.6162 313.325 68.8709C313.198 68.8709 313.07 68.9982 312.943 68.9982C312.433 69.2529 311.924 69.5076 311.542 69.7623L73.6571 218.504C69.0726 221.306 67.0351 226.909 68.4359 232.003C69.964 237.097 74.6759 240.663 80.0245 240.663H178.846L132.619 369.92C130.327 376.16 133.638 383.037 139.878 385.329C141.279 385.839 142.552 386.093 143.953 386.093C148.919 386.093 153.504 383.037 155.287 378.07L207.372 232.767C208.645 229.074 208.136 224.999 205.844 221.815C203.551 218.631 199.986 216.721 196.038 216.721H122.049L295.496 108.476L203.551 370.047C203.424 370.43 203.297 370.812 203.297 371.066C203.297 371.194 203.297 371.321 203.169 371.448C203.169 371.703 203.042 371.958 203.042 372.212C203.042 372.34 203.042 372.467 203.042 372.594C203.042 372.849 203.042 373.104 203.042 373.358C203.042 373.486 203.042 373.613 203.042 373.741C203.042 374.123 203.042 374.377 203.042 374.759C203.042 374.887 203.042 375.014 203.042 375.141C203.042 375.396 203.042 375.523 203.169 375.778C203.169 375.905 203.169 376.033 203.297 376.16C203.297 376.415 203.424 376.542 203.424 376.797C203.424 376.924 203.424 377.052 203.551 377.179C203.679 377.434 203.679 377.816 203.806 378.07V378.198C203.933 378.58 204.061 378.834 204.188 379.216C204.188 379.344 204.316 379.344 204.316 379.471C204.443 379.726 204.57 379.981 204.698 380.108C204.698 380.235 204.825 380.363 204.825 380.363C204.952 380.617 205.08 380.745 205.207 380.999C205.334 381.127 205.334 381.127 205.462 381.254C205.589 381.509 205.844 381.763 205.971 381.891C206.098 382.018 206.098 382.145 206.226 382.145C206.353 382.273 206.608 382.528 206.735 382.655C206.862 382.782 206.99 382.91 207.117 383.037C207.245 383.164 207.245 383.164 207.372 383.292C207.372 383.292 207.499 383.292 207.499 383.419C208.009 383.801 208.391 384.056 208.9 384.438C209.027 384.438 209.027 384.565 209.155 384.565C209.537 384.82 210.046 384.947 210.428 385.202C210.556 385.202 210.683 385.329 210.81 385.329C210.938 385.329 210.938 385.329 211.065 385.457C211.447 385.584 211.956 385.711 212.338 385.839C212.466 385.839 212.466 385.839 212.593 385.839C213.102 385.966 213.612 385.966 214.249 386.093H214.376C214.631 386.093 214.758 386.093 215.013 386.093C215.395 386.093 215.649 386.093 216.031 386.093C216.031 386.093 216.031 386.093 216.159 386.093C216.668 386.093 217.305 385.966 217.814 385.839H217.942C218.451 385.711 219.088 385.584 219.597 385.329C219.597 385.329 219.725 385.329 219.725 385.202C220.234 384.947 220.743 384.692 221.253 384.438L457.482 239.134C461.812 236.078 463.977 230.602 462.576 225.381Z" stroke="#02A9F7" stroke-opacity="0.2" stroke-width="3.56745" mask="url(#path-3-outside-3_1_904)"/>
</g>
<g filter="url(#filter3_f_1_904)">
<mask id="path-4-outside-4_1_904" maskUnits="userSpaceOnUse" x="66" y="66" width="399" height="322" fill="black">
<rect fill="white" x="66" y="66" width="399" height="322"/>
<path d="M462.576 225.381C461.175 220.16 456.336 216.594 450.987 216.594H349.237L397.756 84.1526C400.048 77.9126 396.865 71.0358 390.625 68.7435C384.385 66.4513 377.508 69.635 375.216 75.875L320.711 224.489C319.31 228.182 319.947 232.258 322.112 235.441C324.404 238.625 328.097 240.535 331.918 240.535H408.453L237.298 345.851L329.371 83.8979C329.498 83.5158 329.625 83.1338 329.625 82.8791C329.625 82.7518 329.625 82.6244 329.753 82.4971C329.753 82.2424 329.88 81.9877 329.88 81.733C329.88 81.6056 329.88 81.4783 329.88 81.3509C329.88 81.0962 329.88 80.8415 329.88 80.7142C329.88 80.5869 329.88 80.4595 329.88 80.3322C329.88 79.9501 329.88 79.6954 329.88 79.3134C329.88 79.186 329.88 79.0587 329.88 78.9313C329.88 78.6766 329.88 78.5493 329.753 78.2946C329.753 78.1673 329.753 78.0399 329.625 77.9126C329.625 77.6579 329.498 77.5305 329.498 77.2758C329.498 77.1485 329.498 77.0211 329.371 76.8938C329.243 76.6391 329.243 76.3844 329.116 76.1297V76.0023C328.989 75.6203 328.861 75.3656 328.734 74.9836C328.734 74.8562 328.607 74.8562 328.607 74.7289C328.479 74.4742 328.352 74.3468 328.225 74.0921C328.225 73.9648 328.097 73.8374 327.97 73.8374C327.842 73.5827 327.715 73.4554 327.588 73.2007C327.46 73.0734 327.46 72.946 327.333 72.946C327.206 72.6913 326.951 72.564 326.824 72.3093C326.696 72.1819 326.696 72.0546 326.569 72.0546C326.314 71.7999 326.187 71.6725 325.932 71.4178C325.805 71.2905 325.678 71.1631 325.55 71.0358C325.423 70.9085 325.423 70.9085 325.296 70.7811C325.296 70.7811 325.296 70.7811 325.168 70.7811C324.659 70.3991 324.277 70.1444 323.767 69.7623C323.64 69.7623 323.64 69.635 323.513 69.635C323.131 69.3803 322.621 69.2529 322.239 68.9982C322.112 68.9982 321.984 68.8709 321.857 68.8709C321.857 68.8709 321.73 68.8709 321.73 68.7435C321.22 68.6162 320.838 68.4888 320.329 68.3615C320.202 68.3615 320.074 68.3615 320.074 68.3615C319.565 68.2342 319.055 68.2342 318.673 68.1068C318.546 68.1068 318.546 68.1068 318.419 68.1068C317.909 68.1068 317.273 68.1068 316.763 68.1068C316.636 68.1068 316.636 68.1068 316.509 68.1068C315.999 68.1068 315.49 68.2342 314.98 68.3615H314.853C314.344 68.4888 313.834 68.6162 313.325 68.8709C313.198 68.8709 313.07 68.9982 312.943 68.9982C312.433 69.2529 311.924 69.5076 311.542 69.7623L73.6571 218.504C69.0726 221.306 67.0351 226.909 68.4359 232.003C69.964 237.097 74.6759 240.663 80.0245 240.663H178.846L132.619 369.92C130.327 376.16 133.638 383.037 139.878 385.329C141.279 385.839 142.552 386.093 143.953 386.093C148.919 386.093 153.504 383.037 155.287 378.07L207.372 232.767C208.645 229.074 208.136 224.999 205.844 221.815C203.551 218.631 199.986 216.721 196.038 216.721H122.049L295.496 108.476L203.551 370.047C203.424 370.43 203.297 370.812 203.297 371.066C203.297 371.194 203.297 371.321 203.169 371.448C203.169 371.703 203.042 371.958 203.042 372.212C203.042 372.34 203.042 372.467 203.042 372.594C203.042 372.849 203.042 373.104 203.042 373.358C203.042 373.486 203.042 373.613 203.042 373.741C203.042 374.123 203.042 374.377 203.042 374.759C203.042 374.887 203.042 375.014 203.042 375.141C203.042 375.396 203.042 375.523 203.169 375.778C203.169 375.905 203.169 376.033 203.297 376.16C203.297 376.415 203.424 376.542 203.424 376.797C203.424 376.924 203.424 377.052 203.551 377.179C203.679 377.434 203.679 377.816 203.806 378.07V378.198C203.933 378.58 204.061 378.834 204.188 379.216C204.188 379.344 204.316 379.344 204.316 379.471C204.443 379.726 204.57 379.981 204.698 380.108C204.698 380.235 204.825 380.363 204.825 380.363C204.952 380.617 205.08 380.745 205.207 380.999C205.334 381.127 205.334 381.127 205.462 381.254C205.589 381.509 205.844 381.763 205.971 381.891C206.098 382.018 206.098 382.145 206.226 382.145C206.353 382.273 206.608 382.528 206.735 382.655C206.862 382.782 206.99 382.91 207.117 383.037C207.245 383.164 207.245 383.164 207.372 383.292C207.372 383.292 207.499 383.292 207.499 383.419C208.009 383.801 208.391 384.056 208.9 384.438C209.027 384.438 209.027 384.565 209.155 384.565C209.537 384.82 210.046 384.947 210.428 385.202C210.556 385.202 210.683 385.329 210.81 385.329C210.938 385.329 210.938 385.329 211.065 385.457C211.447 385.584 211.956 385.711 212.338 385.839C212.466 385.839 212.466 385.839 212.593 385.839C213.102 385.966 213.612 385.966 214.249 386.093H214.376C214.631 386.093 214.758 386.093 215.013 386.093C215.395 386.093 215.649 386.093 216.031 386.093C216.031 386.093 216.031 386.093 216.159 386.093C216.668 386.093 217.305 385.966 217.814 385.839H217.942C218.451 385.711 219.088 385.584 219.597 385.329C219.597 385.329 219.725 385.329 219.725 385.202C220.234 384.947 220.743 384.692 221.253 384.438L457.482 239.134C461.812 236.078 463.977 230.602 462.576 225.381Z"/>
</mask>
<path d="M462.576 225.381C461.175 220.16 456.336 216.594 450.987 216.594H349.237L397.756 84.1526C400.048 77.9126 396.865 71.0358 390.625 68.7435C384.385 66.4513 377.508 69.635 375.216 75.875L320.711 224.489C319.31 228.182 319.947 232.258 322.112 235.441C324.404 238.625 328.097 240.535 331.918 240.535H408.453L237.298 345.851L329.371 83.8979C329.498 83.5158 329.625 83.1338 329.625 82.8791C329.625 82.7518 329.625 82.6244 329.753 82.4971C329.753 82.2424 329.88 81.9877 329.88 81.733C329.88 81.6056 329.88 81.4783 329.88 81.3509C329.88 81.0962 329.88 80.8415 329.88 80.7142C329.88 80.5869 329.88 80.4595 329.88 80.3322C329.88 79.9501 329.88 79.6954 329.88 79.3134C329.88 79.186 329.88 79.0587 329.88 78.9313C329.88 78.6766 329.88 78.5493 329.753 78.2946C329.753 78.1673 329.753 78.0399 329.625 77.9126C329.625 77.6579 329.498 77.5305 329.498 77.2758C329.498 77.1485 329.498 77.0211 329.371 76.8938C329.243 76.6391 329.243 76.3844 329.116 76.1297V76.0023C328.989 75.6203 328.861 75.3656 328.734 74.9836C328.734 74.8562 328.607 74.8562 328.607 74.7289C328.479 74.4742 328.352 74.3468 328.225 74.0921C328.225 73.9648 328.097 73.8374 327.97 73.8374C327.842 73.5827 327.715 73.4554 327.588 73.2007C327.46 73.0734 327.46 72.946 327.333 72.946C327.206 72.6913 326.951 72.564 326.824 72.3093C326.696 72.1819 326.696 72.0546 326.569 72.0546C326.314 71.7999 326.187 71.6725 325.932 71.4178C325.805 71.2905 325.678 71.1631 325.55 71.0358C325.423 70.9085 325.423 70.9085 325.296 70.7811C325.296 70.7811 325.296 70.7811 325.168 70.7811C324.659 70.3991 324.277 70.1444 323.767 69.7623C323.64 69.7623 323.64 69.635 323.513 69.635C323.131 69.3803 322.621 69.2529 322.239 68.9982C322.112 68.9982 321.984 68.8709 321.857 68.8709C321.857 68.8709 321.73 68.8709 321.73 68.7435C321.22 68.6162 320.838 68.4888 320.329 68.3615C320.202 68.3615 320.074 68.3615 320.074 68.3615C319.565 68.2342 319.055 68.2342 318.673 68.1068C318.546 68.1068 318.546 68.1068 318.419 68.1068C317.909 68.1068 317.273 68.1068 316.763 68.1068C316.636 68.1068 316.636 68.1068 316.509 68.1068C315.999 68.1068 315.49 68.2342 314.98 68.3615H314.853C314.344 68.4888 313.834 68.6162 313.325 68.8709C313.198 68.8709 313.07 68.9982 312.943 68.9982C312.433 69.2529 311.924 69.5076 311.542 69.7623L73.6571 218.504C69.0726 221.306 67.0351 226.909 68.4359 232.003C69.964 237.097 74.6759 240.663 80.0245 240.663H178.846L132.619 369.92C130.327 376.16 133.638 383.037 139.878 385.329C141.279 385.839 142.552 386.093 143.953 386.093C148.919 386.093 153.504 383.037 155.287 378.07L207.372 232.767C208.645 229.074 208.136 224.999 205.844 221.815C203.551 218.631 199.986 216.721 196.038 216.721H122.049L295.496 108.476L203.551 370.047C203.424 370.43 203.297 370.812 203.297 371.066C203.297 371.194 203.297 371.321 203.169 371.448C203.169 371.703 203.042 371.958 203.042 372.212C203.042 372.34 203.042 372.467 203.042 372.594C203.042 372.849 203.042 373.104 203.042 373.358C203.042 373.486 203.042 373.613 203.042 373.741C203.042 374.123 203.042 374.377 203.042 374.759C203.042 374.887 203.042 375.014 203.042 375.141C203.042 375.396 203.042 375.523 203.169 375.778C203.169 375.905 203.169 376.033 203.297 376.16C203.297 376.415 203.424 376.542 203.424 376.797C203.424 376.924 203.424 377.052 203.551 377.179C203.679 377.434 203.679 377.816 203.806 378.07V378.198C203.933 378.58 204.061 378.834 204.188 379.216C204.188 379.344 204.316 379.344 204.316 379.471C204.443 379.726 204.57 379.981 204.698 380.108C204.698 380.235 204.825 380.363 204.825 380.363C204.952 380.617 205.08 380.745 205.207 380.999C205.334 381.127 205.334 381.127 205.462 381.254C205.589 381.509 205.844 381.763 205.971 381.891C206.098 382.018 206.098 382.145 206.226 382.145C206.353 382.273 206.608 382.528 206.735 382.655C206.862 382.782 206.99 382.91 207.117 383.037C207.245 383.164 207.245 383.164 207.372 383.292C207.372 383.292 207.499 383.292 207.499 383.419C208.009 383.801 208.391 384.056 208.9 384.438C209.027 384.438 209.027 384.565 209.155 384.565C209.537 384.82 210.046 384.947 210.428 385.202C210.556 385.202 210.683 385.329 210.81 385.329C210.938 385.329 210.938 385.329 211.065 385.457C211.447 385.584 211.956 385.711 212.338 385.839C212.466 385.839 212.466 385.839 212.593 385.839C213.102 385.966 213.612 385.966 214.249 386.093H214.376C214.631 386.093 214.758 386.093 215.013 386.093C215.395 386.093 215.649 386.093 216.031 386.093C216.031 386.093 216.031 386.093 216.159 386.093C216.668 386.093 217.305 385.966 217.814 385.839H217.942C218.451 385.711 219.088 385.584 219.597 385.329C219.597 385.329 219.725 385.329 219.725 385.202C220.234 384.947 220.743 384.692 221.253 384.438L457.482 239.134C461.812 236.078 463.977 230.602 462.576 225.381Z" stroke="#82D9FF" stroke-width="2.19536" mask="url(#path-4-outside-4_1_904)"/>
</g>
<g filter="url(#filter4_d_1_904)">
<path d="M462.576 225.381C461.175 220.16 456.336 216.594 450.987 216.594H349.237L397.756 84.1526C400.048 77.9126 396.865 71.0358 390.625 68.7435C384.385 66.4513 377.508 69.635 375.216 75.875L320.711 224.489C319.31 228.182 319.947 232.258 322.112 235.441C324.404 238.625 328.097 240.535 331.918 240.535H408.453L237.298 345.851L329.371 83.8979C329.498 83.5158 329.625 83.1338 329.625 82.8791C329.625 82.7518 329.625 82.6244 329.753 82.4971C329.753 82.2424 329.88 81.9877 329.88 81.733C329.88 81.6056 329.88 81.4783 329.88 81.3509C329.88 81.0962 329.88 80.8415 329.88 80.7142C329.88 80.5869 329.88 80.4595 329.88 80.3322C329.88 79.9501 329.88 79.6954 329.88 79.3134C329.88 79.186 329.88 79.0587 329.88 78.9313C329.88 78.6766 329.88 78.5493 329.753 78.2946C329.753 78.1673 329.753 78.0399 329.625 77.9126C329.625 77.6579 329.498 77.5305 329.498 77.2758C329.498 77.1485 329.498 77.0211 329.371 76.8938C329.243 76.6391 329.243 76.3844 329.116 76.1297V76.0023C328.989 75.6203 328.861 75.3656 328.734 74.9836C328.734 74.8562 328.607 74.8562 328.607 74.7289C328.479 74.4742 328.352 74.3468 328.225 74.0921C328.225 73.9648 328.097 73.8374 327.97 73.8374C327.842 73.5827 327.715 73.4554 327.588 73.2007C327.46 73.0734 327.46 72.946 327.333 72.946C327.206 72.6913 326.951 72.564 326.824 72.3093C326.696 72.1819 326.696 72.0546 326.569 72.0546C326.314 71.7999 326.187 71.6725 325.932 71.4178C325.805 71.2905 325.678 71.1631 325.55 71.0358C325.423 70.9085 325.423 70.9085 325.296 70.7811C325.296 70.7811 325.296 70.7811 325.168 70.7811C324.659 70.3991 324.277 70.1444 323.767 69.7623C323.64 69.7623 323.64 69.635 323.513 69.635C323.131 69.3803 322.621 69.2529 322.239 68.9982C322.112 68.9982 321.984 68.8709 321.857 68.8709C321.857 68.8709 321.73 68.8709 321.73 68.7435C321.22 68.6162 320.838 68.4888 320.329 68.3615C320.202 68.3615 320.074 68.3615 320.074 68.3615C319.565 68.2342 319.055 68.2342 318.673 68.1068C318.546 68.1068 318.546 68.1068 318.419 68.1068C317.909 68.1068 317.273 68.1068 316.763 68.1068C316.636 68.1068 316.636 68.1068 316.509 68.1068C315.999 68.1068 315.49 68.2342 314.98 68.3615H314.853C314.344 68.4888 313.834 68.6162 313.325 68.8709C313.198 68.8709 313.07 68.9982 312.943 68.9982C312.433 69.2529 311.924 69.5076 311.542 69.7623L73.6571 218.504C69.0726 221.306 67.0351 226.909 68.4359 232.003C69.964 237.097 74.6759 240.663 80.0245 240.663H178.846L132.619 369.92C130.327 376.16 133.638 383.037 139.878 385.329C141.279 385.839 142.552 386.093 143.953 386.093C148.919 386.093 153.504 383.037 155.287 378.07L207.372 232.767C208.645 229.074 208.136 224.999 205.844 221.815C203.551 218.631 199.986 216.721 196.038 216.721H122.049L295.496 108.476L203.551 370.047C203.424 370.43 203.297 370.812 203.297 371.066C203.297 371.194 203.297 371.321 203.169 371.448C203.169 371.703 203.042 371.958 203.042 372.212C203.042 372.34 203.042 372.467 203.042 372.594C203.042 372.849 203.042 373.104 203.042 373.358C203.042 373.486 203.042 373.613 203.042 373.741C203.042 374.123 203.042 374.377 203.042 374.759C203.042 374.887 203.042 375.014 203.042 375.141C203.042 375.396 203.042 375.523 203.169 375.778C203.169 375.905 203.169 376.033 203.297 376.16C203.297 376.415 203.424 376.542 203.424 376.797C203.424 376.924 203.424 377.052 203.551 377.179C203.679 377.434 203.679 377.816 203.806 378.07V378.198C203.933 378.58 204.061 378.834 204.188 379.216C204.188 379.344 204.316 379.344 204.316 379.471C204.443 379.726 204.57 379.981 204.698 380.108C204.698 380.235 204.825 380.363 204.825 380.363C204.952 380.617 205.08 380.745 205.207 380.999C205.334 381.127 205.334 381.127 205.462 381.254C205.589 381.509 205.844 381.763 205.971 381.891C206.098 382.018 206.098 382.145 206.226 382.145C206.353 382.273 206.608 382.528 206.735 382.655C206.862 382.782 206.99 382.91 207.117 383.037C207.245 383.164 207.245 383.164 207.372 383.292C207.372 383.292 207.499 383.292 207.499 383.419C208.009 383.801 208.391 384.056 208.9 384.438C209.027 384.438 209.027 384.565 209.155 384.565C209.537 384.82 210.046 384.947 210.428 385.202C210.556 385.202 210.683 385.329 210.81 385.329C210.938 385.329 210.938 385.329 211.065 385.457C211.447 385.584 211.956 385.711 212.338 385.839C212.466 385.839 212.466 385.839 212.593 385.839C213.102 385.966 213.612 385.966 214.249 386.093H214.376C214.631 386.093 214.758 386.093 215.013 386.093C215.395 386.093 215.649 386.093 216.031 386.093C216.031 386.093 216.031 386.093 216.159 386.093C216.668 386.093 217.305 385.966 217.814 385.839H217.942C218.451 385.711 219.088 385.584 219.597 385.329C219.597 385.329 219.725 385.329 219.725 385.202C220.234 384.947 220.743 384.692 221.253 384.438L457.482 239.134C461.812 236.078 463.977 230.602 462.576 225.381Z" fill="#02A9F7"/>
</g>
<defs>
<filter id="filter0_f_1_904" x="53.868" y="53.8669" width="423.265" height="346.359" filterUnits="userSpaceOnUse" color-interpolation-filters="sRGB">
<feFlood flood-opacity="0" result="BackgroundImageFix"/>
<feBlend mode="normal" in="SourceGraphic" in2="BackgroundImageFix" result="shape"/>
<feGaussianBlur stdDeviation="6.17444" result="effect1_foregroundBlur_1_904"/>
</filter>
<filter id="filter1_f_1_904" x="61.5519" y="61.5505" width="407.898" height="330.992" filterUnits="userSpaceOnUse" color-interpolation-filters="sRGB">
<feFlood flood-opacity="0" result="BackgroundImageFix"/>
<feBlend mode="normal" in="SourceGraphic" in2="BackgroundImageFix" result="shape"/>
<feGaussianBlur stdDeviation="2.05815" result="effect1_foregroundBlur_1_904"/>
</filter>
<filter id="filter2_ddi_1_904" x="60.8657" y="64.9809" width="409.27" height="332.364" filterUnits="userSpaceOnUse" color-interpolation-filters="sRGB">
<feFlood flood-opacity="0" result="BackgroundImageFix"/>
<feColorMatrix in="SourceAlpha" type="matrix" values="0 0 0 0 0 0 0 0 0 0 0 0 0 0 0 0 0 0 127 0" result="hardAlpha"/>
<feOffset dy="1.78373"/>
<feGaussianBlur stdDeviation="0.686049"/>
<feColorMatrix type="matrix" values="0 0 0 0 0 0 0 0 0 0.051 0 0 0 0 0.082 0 0 0 0.7 0"/>
<feBlend mode="multiply" in2="BackgroundImageFix" result="effect1_dropShadow_1_904"/>
<feColorMatrix in="SourceAlpha" type="matrix" values="0 0 0 0 0 0 0 0 0 0 0 0 0 0 0 0 0 0 127 0" result="hardAlpha"/>
<feOffset dy="4.11629"/>
<feGaussianBlur stdDeviation="2.67559"/>
<feColorMatrix type="matrix" values="0 0 0 0 0 0 0 0 0 0.4 0 0 0 0 1 0 0 0 1 0"/>
<feBlend mode="color-dodge" in2="effect1_dropShadow_1_904" result="effect2_dropShadow_1_904"/>
<feBlend mode="normal" in="SourceGraphic" in2="effect2_dropShadow_1_904" result="shape"/>
<feColorMatrix in="SourceAlpha" type="matrix" values="0 0 0 0 0 0 0 0 0 0 0 0 0 0 0 0 0 0 127 0" result="hardAlpha"/>
<feOffset dx="-0.178373" dy="0.356745"/>
<feGaussianBlur stdDeviation="0.0891863"/>
<feComposite in2="hardAlpha" operator="arithmetic" k2="-1" k3="1"/>
<feColorMatrix type="matrix" values="0 0 0 0 1 0 0 0 0 1 0 0 0 0 1 0 0 0 0.5 0"/>
<feBlend mode="normal" in2="shape" result="effect3_innerShadow_1_904"/>
</filter>
<filter id="filter3_f_1_904" x="66.6283" y="66.6276" width="397.744" height="320.838" filterUnits="userSpaceOnUse" color-interpolation-filters="sRGB">
<feFlood flood-opacity="0" result="BackgroundImageFix"/>
<feBlend mode="normal" in="SourceGraphic" in2="BackgroundImageFix" result="shape"/>
<feGaussianBlur stdDeviation="0.13721" result="effect1_foregroundBlur_1_904"/>
</filter>
<filter id="filter4_d_1_904" x="0.728294" y="0.728294" width="529.543" height="452.637" filterUnits="userSpaceOnUse" color-interpolation-filters="sRGB">
<feFlood flood-opacity="0" result="BackgroundImageFix"/>
<feColorMatrix in="SourceAlpha" type="matrix" values="0 0 0 0 0 0 0 0 0 0 0 0 0 0 0 0 0 0 127 0" result="hardAlpha"/>
<feOffset/>
<feGaussianBlur stdDeviation="33.6359"/>
<feColorMatrix type="matrix" values="0 0 0 0 0.00784314 0 0 0 0 0.662745 0 0 0 0 0.882353 0 0 0 0.63 0"/>
<feBlend mode="normal" in2="BackgroundImageFix" result="effect1_dropShadow_1_904"/>
<feBlend mode="normal" in="SourceGraphic" in2="effect1_dropShadow_1_904" result="shape"/>
</filter>
</defs>
</svg>
