<svg width="137" height="52" viewBox="0 0 137 52" fill="none" xmlns="http://www.w3.org/2000/svg">
<path fill-rule="evenodd" clip-rule="evenodd" d="M91.9384 9.13087C91.9384 9.36578 86.5343 40.1775 86.3707 40.8753C86.2743 41.286 86.2147 41.2951 83.6409 41.2951C81.6229 41.2951 81.0266 41.2409 81.0823 41.0619C81.1223 40.9337 81.2079 40.4572 81.2724 40.0032L81.3899 39.1778L80.4662 40.0325C79.0379 41.3541 78.1434 41.7381 76.4706 41.7478C72.4207 41.7717 70.3892 38.534 70.684 32.5256C70.9938 26.2126 72.6363 21.5706 75.2561 19.6053C76.5214 18.6559 77.7673 18.2594 79.4887 18.2585C81.1287 18.2577 81.9613 18.5839 83.1331 19.6864C83.549 20.0779 83.9025 20.377 83.9185 20.3512C83.9344 20.3253 84.4005 17.8693 84.9541 14.8932C85.5076 11.9172 85.9989 9.37735 86.0459 9.24898C86.1091 9.0762 86.883 9.01575 89.0348 9.01575C90.6317 9.01575 91.9384 9.06762 91.9384 9.13087ZM31.8595 11.1844C34.2091 11.7474 35.933 13.0253 36.8633 14.8932C37.2815 15.7334 37.3279 16.0581 37.3289 18.1585C37.3296 20.1566 37.2681 20.6417 36.8992 21.5444C36.3629 22.8561 35.2075 24.1733 33.8088 25.0676L32.7368 25.7529L33.5953 26.4629C34.8701 27.5169 35.4086 28.8094 35.5031 31.0428C35.7159 36.064 32.9945 39.8215 28.2831 41.0112C26.7791 41.3911 14.7883 41.436 14.7886 41.0619C14.7886 40.9337 15.2551 38.1838 15.8252 34.9512C18.0799 22.1632 19.6108 13.3863 19.7958 12.1877C20.039 10.6116 19.6023 10.7165 25.491 10.8206C29.137 10.8852 31.0716 10.9956 31.8595 11.1844ZM25.2588 16.1527C25.2142 16.281 24.917 17.8553 24.5982 19.6512C24.2794 21.447 23.9704 23.0722 23.9116 23.2627C23.8106 23.5894 23.937 23.6051 26.1655 23.5426C28.4387 23.4786 28.5566 23.4551 29.3441 22.9101C30.9599 21.7917 31.7875 19.2472 31.1078 17.4868C30.6321 16.2545 29.8344 15.929 27.2794 15.9235C25.8937 15.9206 25.3169 15.986 25.2588 16.1527ZM51.7766 18.4734C51.9553 18.6501 51.7291 21.0373 51.282 23.6948L51.1826 24.2865L49.6321 24.2546C48.2609 24.2262 47.9837 24.2798 47.2329 24.7173C45.6369 25.6478 45.6333 25.6581 44.2988 33.2389C43.6361 37.0027 43.0451 40.3551 42.9857 40.6887L42.8772 41.2951H39.9406H37.004L37.0867 40.782C37.333 39.2545 40.8642 19.1509 40.9181 18.9699C40.9898 18.7287 43.9341 18.4637 45.4409 18.5628C46.4686 18.6305 46.4456 18.5882 46.219 20.0053L46.0877 20.8257L46.9864 19.837C48.157 18.5492 49.0687 18.126 50.4896 18.2109C51.0878 18.2467 51.6669 18.3648 51.7766 18.4734ZM104.245 18.7164C107.797 20.0307 109.305 24.2766 108.373 30.3332L108.122 31.9658H102.412H96.7024L96.5979 32.6655C96.4594 33.5938 96.6998 34.9876 97.1036 35.597C98.1913 37.239 101.183 37.2354 103.656 35.5892C104.647 34.9294 104.652 34.9285 104.944 35.3134C105.105 35.5257 105.567 36.3348 105.969 37.1111L106.702 38.5227L105.99 39.2436C104.159 41.0987 100.59 42.1335 97.5758 41.6836C94.8548 41.2776 92.84 39.8334 91.7346 37.4968C90.9582 35.8554 90.7432 34.4799 90.8701 31.9658C91.2533 24.3779 94.2202 19.5439 99.1821 18.4234C100.671 18.0874 102.893 18.2159 104.245 18.7164ZM123.388 18.4186C123.452 18.4818 123.34 19.8135 123.139 21.378L122.773 24.2225L121.833 24.185C120.281 24.1231 119.359 24.307 118.565 24.8382C117.196 25.7523 117.101 25.9839 116.383 30.1183C116.019 32.2119 115.459 35.4363 115.139 37.2835C114.818 39.1307 114.512 40.7891 114.458 40.9686C114.37 41.2614 114.058 41.2951 111.449 41.2951C109.848 41.2951 108.538 41.2593 108.538 41.2155C108.538 41.1192 110.937 27.5286 111.848 22.4652C112.206 20.4727 112.531 18.811 112.57 18.7729C112.608 18.7346 113.818 18.6858 115.257 18.6643C118.2 18.6201 118.01 18.5074 117.708 20.1176L117.568 20.864L118.424 19.9062C119.64 18.5464 120.581 18.1124 122.083 18.2193C122.737 18.2658 123.324 18.3555 123.388 18.4186ZM58.3348 26.3216C57.6272 30.5036 57.0468 34.2482 57.0451 34.6432C57.0406 35.6181 57.5416 36.607 58.1118 36.7486C59.1806 37.0139 60.9239 36.2868 61.527 35.3242C61.6597 35.1124 61.8893 34.2493 62.0374 33.4059C62.1855 32.5625 62.7334 29.4376 63.2552 26.4615C63.7771 23.4855 64.2993 20.5259 64.4156 19.8844L64.6273 18.7182H67.6024H70.5774L70.4179 19.5112C70.2703 20.2451 68.0023 33.1423 67.0216 38.8229L66.5949 41.2951H63.8718H61.1488L61.2761 40.4555C61.3461 39.9937 61.3647 39.6159 61.3174 39.6159C61.27 39.6159 60.9465 39.8808 60.5985 40.2047C59.5052 41.2218 58.0963 41.7487 56.4758 41.7465C53.2717 41.7424 51.5175 39.7429 51.2555 35.7968C51.1523 34.2437 51.2649 33.3464 52.4357 26.399L53.7301 18.7182H56.6756H59.6212L58.3348 26.3216ZM79.583 23.4131C78.7582 23.8624 77.9597 24.8136 77.5924 25.7842C76.8162 27.8365 76.2035 34.0519 76.6466 35.3798C77.1077 36.7617 78.5348 37.2108 80.0443 36.4491C81.3445 35.7929 81.4028 35.6321 82.4053 29.9162L83.3309 24.6394L82.5489 23.9178C81.8634 23.2853 81.6555 23.197 80.8637 23.2019C80.3668 23.2051 79.7905 23.3 79.583 23.4131ZM99.2802 23.6206C98.4418 24.1794 97.8449 25.0827 97.4724 26.3565C97.3055 26.9275 97.1289 27.4995 97.0799 27.6277C97.0112 27.8081 97.654 27.8609 99.9148 27.8609C103.276 27.8609 103.068 27.9858 103.068 25.9706C103.068 24.5806 102.756 23.7171 102.135 23.3885C101.471 23.0371 99.9725 23.159 99.2802 23.6206ZM23.0882 28.1337C23.0882 28.1972 22.7911 29.9453 22.428 32.0185C22.0649 34.0918 21.7678 35.8937 21.7678 36.0226C21.7678 36.1982 22.3405 36.2573 24.0389 36.2573C25.9033 36.2573 26.4352 36.1935 27.0098 35.9013C28.4926 35.1468 29.2321 33.9498 29.5311 31.8199C29.7714 30.1076 29.525 29.148 28.6869 28.5319C28.221 28.1893 27.8409 28.1332 25.6217 28.0798C24.2283 28.046 23.0882 28.0705 23.0882 28.1337Z" fill="#DCDCDC"/>
</svg>
