<svg width="118" height="39" viewBox="0 0 118 39" fill="none" xmlns="http://www.w3.org/2000/svg">
<mask id="mask0_1_1107" style="mask-type:luminance" maskUnits="userSpaceOnUse" x="0" y="0" width="118" height="39">
<path d="M117.349 0.147949H0.25V38.3453H117.349V0.147949Z" fill="white"/>
</mask>
<g mask="url(#mask0_1_1107)">
<path d="M102.452 28.1137C105.876 28.1445 109.222 27.0871 112.007 25.094C112.24 24.9196 112.436 24.7005 112.584 24.4493C112.731 24.1982 112.827 23.9201 112.865 23.6315C112.904 23.3429 112.884 23.0495 112.808 22.7685C112.731 22.4875 112.6 22.2246 112.42 21.9952C112.003 21.5523 111.445 21.2677 110.842 21.1899C110.238 21.1122 109.626 21.2461 109.111 21.5689C107.186 22.9948 104.843 23.7438 102.448 23.6993C99.7106 23.6976 97.0656 22.7072 95.0001 20.9103C94.0551 20.059 93.2983 19.0197 92.7783 17.859C92.2582 16.6983 91.9862 15.4418 91.9798 14.17C91.9942 12.8993 92.2697 11.6452 92.7893 10.4856C93.3088 9.32593 94.0614 8.28555 95.0001 7.42907C97.0658 5.63255 99.7107 4.64219 102.448 4.6401C104.844 4.5894 107.189 5.33946 109.111 6.77151C109.621 7.11243 110.237 7.25703 110.845 7.17856C111.454 7.10009 112.013 6.80386 112.42 6.34469C112.599 6.11503 112.73 5.85209 112.806 5.57121C112.882 5.29032 112.902 4.99711 112.863 4.70866C112.825 4.42022 112.729 4.14233 112.582 3.89118C112.435 3.64004 112.24 3.42068 112.007 3.24589C109.222 1.25161 105.877 0.192747 102.452 0.221835C94.1757 0.260293 87.3075 6.49743 87.2658 14.1678C87.307 21.8766 94.1757 28.1137 102.452 28.1137ZM74.2742 18.5449H82.0535C82.6779 18.557 83.2824 18.325 83.7383 17.8982C84.1942 17.4714 84.4656 16.8835 84.4947 16.2597C84.4739 15.6295 84.2063 15.0328 83.7497 14.5982C83.293 14.1635 82.6838 13.9257 82.0535 13.936H74.2742C73.6437 13.9257 73.0344 14.1636 72.5777 14.5985C72.121 15.0335 71.8535 15.6304 71.833 16.2607C71.8621 16.8846 72.1335 17.4725 72.5894 17.8992C73.0454 18.326 73.6498 18.5581 74.2742 18.546M60.0001 8.74421C58.4569 8.74709 56.9424 9.16142 55.6127 9.94451C55.4184 9.57677 55.126 9.26998 54.7681 9.05812C54.4102 8.84627 54.0006 8.73762 53.5847 8.74421C53.3061 8.73401 53.0282 8.77907 52.7671 8.87677C52.506 8.97448 52.2668 9.1229 52.0634 9.31348C51.8599 9.50406 51.6962 9.73304 51.5816 9.9872C51.467 10.2414 51.4039 10.5157 51.3959 10.7944V26.0603C51.4035 26.3396 51.4664 26.6146 51.581 26.8694C51.6956 27.1242 51.8597 27.3537 52.0636 27.5447C52.2675 27.7357 52.5073 27.8843 52.769 27.982C53.0308 28.0797 53.3093 28.1244 53.5885 28.1137C54.0878 28.1215 54.5752 27.9616 54.9729 27.6596C55.3706 27.3577 55.6555 26.9311 55.7822 26.4482C55.8451 26.329 55.8736 26.1947 55.8645 26.0603V16.8018C55.8763 16.2723 55.9931 15.7504 56.208 15.2662C56.4229 14.7821 56.7317 14.3454 57.1165 13.9815C57.5013 13.6175 57.9545 13.3335 58.4499 13.1458C58.9452 12.9582 59.4728 12.8707 60.0022 12.8884C62.3606 12.8884 64.3051 14.632 64.3051 16.8018V26.0603C64.3343 26.6196 64.579 27.1459 64.9878 27.5287C65.3966 27.9116 65.9377 28.1212 66.4977 28.1137C67.0553 28.1267 67.5952 27.9176 67.9987 27.5325C68.4021 27.1475 68.6361 26.6179 68.6492 26.0603V16.8018C68.6492 12.4237 64.8034 8.74421 60.0022 8.74421M41.5048 22.4572C40.466 23.4386 39.088 23.9801 37.659 23.9685C36.9501 23.982 36.2455 23.8554 35.5856 23.5961C34.9256 23.3368 34.3234 22.9498 33.8133 22.4572C33.3022 21.9281 32.9004 21.3034 32.6309 20.6189C32.3614 19.9344 32.2294 19.2035 32.2425 18.468C32.2221 17.7313 32.3507 16.9982 32.6206 16.3125C32.8905 15.6268 33.2962 15.0027 33.8133 14.4776C34.3084 13.9596 34.9062 13.5508 35.5684 13.2772C36.2306 13.0037 36.9427 12.8714 37.659 12.8889C38.3742 12.8795 39.0839 13.0155 39.7449 13.2886C40.406 13.5617 41.0047 13.9662 41.5048 14.4776C42.0282 15 42.441 15.6227 42.7182 16.3084C42.9955 16.994 43.1315 17.7285 43.1183 18.468C43.1296 19.9589 42.5494 21.3934 41.5048 22.4572ZM47.5047 10.8361C47.4903 10.2681 47.2513 9.72889 46.8401 9.33677C46.4289 8.94464 45.879 8.73155 45.311 8.74421C44.8128 8.74436 44.3293 8.91272 43.9388 9.22201C43.5483 9.5313 43.2737 9.96338 43.1595 10.4483C41.2572 9.1565 38.9636 8.56961 36.6747 8.78896C34.3857 9.00831 32.2453 10.0201 30.6229 11.6496C29.7198 12.5389 29.005 13.6009 28.5211 14.7723C28.0372 15.9437 27.7941 17.2006 27.8063 18.468C27.8016 19.7343 28.0481 20.9889 28.5316 22.1593C29.015 23.3297 29.7259 24.3925 30.6229 25.2863C32.5013 27.1217 35.0302 28.1383 37.6563 28.1137C39.6157 28.1193 41.5321 27.5393 43.1595 26.4482C43.2826 26.9251 43.5608 27.3475 43.9503 27.649C44.3398 27.9505 44.8184 28.114 45.311 28.1137C45.873 28.128 46.418 27.9206 46.8285 27.5365C47.2389 27.1523 47.4818 26.6221 47.5047 26.0603V10.8361ZM16.2659 28.1148C19.6913 28.1458 23.038 27.088 25.8233 25.094C26.0566 24.9197 26.2527 24.7005 26.4001 24.4494C26.5475 24.1982 26.6433 23.9202 26.6818 23.6315C26.7203 23.3429 26.7007 23.0495 26.6243 22.7685C26.5478 22.4875 26.416 22.2246 26.2366 21.9952C25.8195 21.5523 25.2616 21.2677 24.6582 21.1899C24.0547 21.1122 23.4429 21.2461 22.9271 21.5689C21.0023 22.9948 18.6598 23.7438 16.2648 23.6993C13.5272 23.6978 10.8822 22.7074 8.81706 20.9103C7.87178 20.0588 7.11487 19.0192 6.59485 17.8581C6.07484 16.697 5.80319 15.44 5.79734 14.1678C5.81149 12.8971 6.08698 11.6429 6.60667 10.4832C7.12636 9.3235 7.87913 8.28317 8.81814 7.42691C10.8836 5.63021 13.5283 4.63981 16.2659 4.63794C18.662 4.58724 21.0065 5.3373 22.9282 6.76934C23.4383 7.11026 24.0545 7.25487 24.663 7.1764C25.2714 7.09792 25.8309 6.80169 26.2377 6.34252C26.4166 6.11292 26.5479 5.84999 26.624 5.56908C26.7001 5.28818 26.7195 4.99492 26.681 4.70644C26.6425 4.41795 26.547 4.14003 26.3999 3.88888C26.2528 3.63774 26.0572 3.41842 25.8244 3.24372C23.0387 1.24942 19.6917 0.191277 16.2659 0.221835C7.99049 0.260293 1.12233 6.49743 1.08008 14.1678C1.12233 21.8766 7.99049 28.1137 16.2659 28.1137" fill="#DCDCDC"/>
<path d="M117.122 0.148155H117.113C117.077 0.14964 117.042 0.15826 117.009 0.173511C116.977 0.188762 116.948 0.21034 116.923 0.236986L116.131 1.27967L115.338 0.236986C115.292 0.18518 115.227 0.153329 115.158 0.148155H115.139C115.083 0.148055 115.03 0.169089 114.99 0.206951C114.95 0.244812 114.925 0.296637 114.922 0.351817V2.5856C114.926 2.6405 114.951 2.69189 114.991 2.7296C115.031 2.7673 115.084 2.78859 115.139 2.78926C115.194 2.7903 115.248 2.76958 115.288 2.73153C115.329 2.69347 115.353 2.6411 115.355 2.5856V0.987718L115.941 1.74603C115.964 1.77413 115.993 1.79677 116.026 1.81232C116.058 1.82787 116.094 1.83594 116.13 1.83594C116.167 1.83594 116.203 1.82787 116.235 1.81232C116.268 1.79677 116.297 1.77413 116.32 1.74603L116.896 0.987718V2.5856C116.9 2.6425 116.925 2.69579 116.968 2.73391C117.01 2.77204 117.066 2.79192 117.123 2.78926C117.179 2.79069 117.234 2.77038 117.276 2.7325C117.319 2.69462 117.345 2.64205 117.349 2.5856V0.351817C117.344 0.295315 117.318 0.242743 117.276 0.204877C117.234 0.16701 117.179 0.146717 117.122 0.148155ZM114.356 0.351817C114.353 0.296357 114.329 0.244065 114.289 0.206041C114.248 0.168016 114.195 0.147252 114.139 0.148155H112.412C112.384 0.146921 112.357 0.151248 112.331 0.160882C112.305 0.170516 112.281 0.185261 112.261 0.204246C112.24 0.223231 112.224 0.246072 112.213 0.271418C112.202 0.296764 112.196 0.324102 112.195 0.351817C112.196 0.409601 112.218 0.465007 112.259 0.50627C112.299 0.547533 112.354 0.571403 112.412 0.572811H113.054V2.5856C113.059 2.64205 113.085 2.69462 113.127 2.7325C113.169 2.77038 113.224 2.79069 113.281 2.78926C113.336 2.7903 113.39 2.76958 113.431 2.73153C113.471 2.69347 113.495 2.6411 113.497 2.5856V0.57227H114.139C114.196 0.56931 114.25 0.54495 114.29 0.504018C114.33 0.463085 114.354 0.408569 114.355 0.351275" fill="#DCDCDC"/>
<path d="M113.387 35.8511C113.362 36.5348 113.067 37.1806 112.568 37.6481C112.068 38.1156 111.405 38.3668 110.721 38.3471H2.91602C2.23222 38.367 1.56828 38.1158 1.06889 37.6483C0.5695 37.1807 0.275153 36.5348 0.25 35.8511L0.25 35.5326C0.275292 34.8493 0.569643 34.2036 1.06891 33.7362C1.56819 33.2689 2.23191 33.0179 2.91548 33.0378H110.721C111.404 33.0179 112.068 33.2689 112.568 33.7362C113.067 34.2035 113.362 34.8492 113.387 35.5326V35.8511Z" fill="#DCDCDC"/>
<path d="M102.906 37.0326C103.287 37.3272 103.749 37.4962 104.23 37.5163C104.569 37.5223 104.902 37.4262 105.187 37.2406C105.317 37.1618 105.426 37.0519 105.503 36.9208C105.581 36.7898 105.625 36.6415 105.632 36.4893C105.632 36.3427 105.588 36.1993 105.507 36.0771C105.376 35.8969 105.197 35.7572 104.99 35.6741C104.761 35.5784 104.522 35.5099 104.277 35.4699H104.266C104.039 35.4398 103.82 35.3678 103.619 35.2576C103.565 35.2248 103.518 35.182 103.48 35.1314C103.454 35.0915 103.441 35.0439 103.443 34.996C103.448 34.9325 103.468 34.8712 103.503 34.8178C103.537 34.7643 103.585 34.7203 103.641 34.69C103.813 34.5793 104.015 34.5228 104.22 34.5275C104.521 34.5481 104.811 34.6557 105.053 34.8373C105.111 34.8746 105.182 34.8879 105.251 34.8744C105.319 34.8609 105.379 34.8216 105.419 34.7647C105.438 34.7378 105.452 34.7073 105.458 34.675C105.465 34.6427 105.465 34.6094 105.458 34.5771C105.451 34.5449 105.438 34.5144 105.419 34.4875C105.4 34.4607 105.375 34.4382 105.347 34.4213C105.016 34.1859 104.625 34.0512 104.22 34.0335C103.903 34.0285 103.591 34.1178 103.325 34.2902C103.204 34.3659 103.103 34.47 103.031 34.5934C102.959 34.7168 102.918 34.8559 102.911 34.9987C102.91 35.1401 102.952 35.2786 103.03 35.3963C103.151 35.5658 103.318 35.6974 103.511 35.7754C103.726 35.8642 103.949 35.9278 104.178 35.965H104.189C104.436 35.9994 104.676 36.0764 104.897 36.1925C104.96 36.2287 105.013 36.2789 105.053 36.3393C105.085 36.3847 105.101 36.4389 105.1 36.4942C105.095 36.5664 105.072 36.6362 105.033 36.6972C104.994 36.7582 104.941 36.8086 104.877 36.8436C104.684 36.9653 104.459 37.0278 104.23 37.0234C103.871 37.0037 103.525 36.8731 103.243 36.6497C103.186 36.6071 103.116 36.587 103.046 36.5933C102.976 36.5997 102.911 36.6319 102.863 36.6838C102.842 36.7095 102.826 36.7393 102.817 36.7712C102.807 36.8032 102.804 36.8368 102.808 36.8699C102.812 36.9031 102.823 36.9351 102.839 36.9641C102.856 36.9931 102.878 37.0184 102.905 37.0386M91.5618 34.664H92.1977C92.2666 34.6584 92.3359 34.6672 92.4012 34.6897C92.4665 34.7122 92.5265 34.7481 92.5773 34.7949C92.6281 34.8418 92.6687 34.8987 92.6964 34.962C92.7241 35.0253 92.7384 35.0937 92.7384 35.1628C92.7384 35.2319 92.7241 35.3003 92.6964 35.3636C92.6687 35.4269 92.6281 35.4838 92.5773 35.5307C92.5265 35.5776 92.4665 35.6134 92.4012 35.6359C92.3359 35.6585 92.2666 35.6672 92.1977 35.6617H91.5618V34.664ZM93.3102 35.1677C93.3056 35.0263 93.2731 34.8871 93.2147 34.7582C93.1563 34.6294 93.073 34.5133 92.9697 34.4166C92.8664 34.3199 92.745 34.2445 92.6125 34.1948C92.4801 34.145 92.3391 34.1219 92.1977 34.1266H91.272C91.2358 34.1253 91.1998 34.1312 91.166 34.1439C91.1321 34.1566 91.1011 34.1758 91.0747 34.2005C91.0483 34.2253 91.0271 34.255 91.0122 34.2879C90.9974 34.3209 90.9892 34.3564 90.9882 34.3926V37.2498C90.9936 37.3221 91.0262 37.3897 91.0794 37.4391C91.1325 37.4884 91.2024 37.5158 91.2749 37.5158C91.3475 37.5158 91.4174 37.4884 91.4705 37.4391C91.5237 37.3897 91.5563 37.3221 91.5618 37.2498V36.1995H92.1977C92.4814 36.2095 92.7575 36.1069 92.9659 35.9142C93.1743 35.7214 93.2981 35.454 93.3102 35.1704M80.0527 36.6182C79.9451 36.7287 79.8165 36.8166 79.6744 36.8766C79.5322 36.9365 79.3796 36.9674 79.2253 36.9674C79.0711 36.9674 78.9184 36.9365 78.7763 36.8766C78.6342 36.8166 78.5056 36.7287 78.398 36.6182C78.2858 36.5086 78.1969 36.3776 78.1364 36.2329C78.0759 36.0882 78.0451 35.9328 78.0459 35.776C78.0455 35.6184 78.0764 35.4623 78.1368 35.3168C78.1973 35.1713 78.286 35.0392 78.398 34.9283C78.5072 34.8176 78.6376 34.73 78.7813 34.6706C78.9251 34.6113 79.0793 34.5814 79.2348 34.5827C79.3871 34.5832 79.5377 34.6138 79.678 34.673C79.8184 34.7321 79.9455 34.8185 80.0522 34.9272C80.2761 35.1527 80.4025 35.4571 80.4042 35.7749C80.4038 35.9315 80.3725 36.0865 80.3121 36.2311C80.2516 36.3756 80.1633 36.5068 80.0522 36.6172M79.2348 34.0313C78.9998 34.0298 78.7668 34.0748 78.5493 34.1638C78.3317 34.2528 78.134 34.3839 77.9673 34.5497C77.8052 34.7098 77.6764 34.9005 77.5885 35.1108C77.5006 35.3211 77.4554 35.5467 77.4554 35.7746C77.4554 36.0025 77.5006 36.2282 77.5885 36.4384C77.6764 36.6487 77.8052 36.8394 77.9673 36.9996C78.3054 37.332 78.7607 37.5181 79.2348 37.5174C79.4648 37.5166 79.6923 37.4704 79.9044 37.3816C80.1165 37.2927 80.309 37.1629 80.4709 36.9996C80.7123 36.7551 80.8761 36.4448 80.9418 36.1076C81.0074 35.7704 80.972 35.4213 80.84 35.1042C80.7079 34.787 80.4851 34.5159 80.1996 34.325C79.914 34.134 79.5784 34.0322 79.2348 34.0313ZM66.545 35.6628H65.9091V34.664H66.545C66.6132 34.6595 66.6817 34.669 66.7461 34.692C66.8106 34.7151 66.8696 34.7511 66.9195 34.7979C66.9695 34.8446 67.0093 34.9011 67.0365 34.9639C67.0638 35.0267 67.0778 35.0944 67.0778 35.1628C67.0778 35.2312 67.0638 35.2989 67.0365 35.3617C67.0093 35.4245 66.9695 35.481 66.9195 35.5278C66.8696 35.5745 66.8106 35.6106 66.7461 35.6336C66.6817 35.6566 66.6132 35.6662 66.545 35.6617M67.6207 36.9497C67.6022 36.8556 67.5954 36.7595 67.6006 36.6637C67.6017 36.4754 67.5416 36.2918 67.4295 36.1405C67.3798 36.0712 67.3188 36.0108 67.2491 35.9618C67.3729 35.8693 67.4738 35.7495 67.5437 35.6116C67.6136 35.4738 67.6507 35.3217 67.6521 35.1672C67.6481 35.026 67.6163 34.887 67.5584 34.7582C67.5005 34.6294 67.4178 34.5133 67.3149 34.4165C67.212 34.3198 67.091 34.2443 66.9589 34.1945C66.8268 34.1446 66.6861 34.1214 66.545 34.1261H65.6193C65.583 34.1243 65.5468 34.1299 65.5128 34.1424C65.4787 34.1549 65.4475 34.1742 65.4211 34.199C65.3946 34.2238 65.3734 34.2537 65.3587 34.2868C65.3439 34.32 65.3361 34.3558 65.3354 34.392V37.2493C65.3365 37.2854 65.3447 37.321 65.3595 37.354C65.3744 37.387 65.3956 37.4167 65.422 37.4415C65.4483 37.4663 65.4794 37.4856 65.5132 37.4983C65.5471 37.5111 65.5831 37.517 65.6193 37.5158C65.693 37.5186 65.7648 37.4921 65.819 37.4422C65.8733 37.3923 65.9057 37.3229 65.9091 37.2493V36.1995H66.5195C66.6216 36.2229 66.7194 36.2622 66.8093 36.316C66.8715 36.35 66.9249 36.398 66.9653 36.4563C67.005 36.5185 67.0265 36.5905 67.0276 36.6643C67.0159 36.8639 67.0531 37.0634 67.1359 37.2455C67.1762 37.3149 67.2331 37.3732 67.3016 37.415C67.3623 37.4509 67.4316 37.4696 67.5021 37.4692H67.5086C67.5466 37.4692 67.5845 37.4643 67.6212 37.4546C67.656 37.4453 67.6885 37.4291 67.7167 37.4068C67.7449 37.3845 67.7682 37.3566 67.7853 37.3249C67.8023 37.2932 67.8126 37.2584 67.8156 37.2225C67.8186 37.1867 67.8142 37.1506 67.8027 37.1166C67.7872 37.0772 67.7628 37.042 67.7312 37.0138C67.6997 36.9855 67.6621 36.9651 67.6212 36.9541M53.2874 34.664H53.6081C53.7657 34.6549 53.9235 34.6782 54.0718 34.7323C54.2201 34.7864 54.3558 34.8702 54.4706 34.9786C54.5854 35.087 54.6768 35.2177 54.7393 35.3627C54.8018 35.5077 54.8341 35.6639 54.8341 35.8217C54.8341 35.9796 54.8018 36.1358 54.7393 36.2808C54.6768 36.4258 54.5854 36.5565 54.4706 36.6649C54.3558 36.7733 54.2201 36.8571 54.0718 36.9112C53.9235 36.9653 53.7657 36.9885 53.6081 36.9795H53.2874V34.664ZM52.9977 37.5163H53.6081C53.8398 37.5312 54.0721 37.4985 54.2907 37.4201C54.5093 37.3417 54.7094 37.2193 54.8788 37.0605C55.0482 36.9017 55.1833 36.7098 55.2756 36.4967C55.3679 36.2837 55.4155 36.0539 55.4155 35.8217C55.4155 35.5895 55.3679 35.3598 55.2756 35.1467C55.1833 34.9337 55.0482 34.7418 54.8788 34.583C54.7094 34.4242 54.5093 34.3018 54.2907 34.2234C54.0721 34.145 53.8398 34.1122 53.6081 34.1272H52.9977C52.9614 34.1254 52.9252 34.131 52.8912 34.1435C52.8571 34.156 52.8259 34.1753 52.7994 34.2001C52.773 34.2249 52.7518 34.2547 52.737 34.2879C52.7223 34.3211 52.7144 34.3569 52.7138 34.3931V37.2503C52.7149 37.2865 52.7231 37.3221 52.7379 37.3551C52.7528 37.3881 52.774 37.4178 52.8004 37.4426C52.8267 37.4673 52.8577 37.4867 52.8916 37.4994C52.9255 37.5121 52.9615 37.5175 52.9977 37.5163ZM43.2896 36.3203H44.2619C44.3012 36.3227 44.3406 36.3171 44.3777 36.3037C44.4147 36.2903 44.4486 36.2695 44.4773 36.2425C44.506 36.2155 44.5289 36.1829 44.5446 36.1467C44.5602 36.1106 44.5683 36.0716 44.5683 36.0322C44.5683 35.9928 44.5602 35.9538 44.5446 35.9176C44.5289 35.8815 44.506 35.8489 44.4773 35.8219C44.4486 35.7949 44.4147 35.774 44.3777 35.7607C44.3406 35.7473 44.3012 35.7416 44.2619 35.744H43.2896C43.2503 35.7416 43.2109 35.7473 43.1738 35.7607C43.1368 35.774 43.1028 35.7949 43.0741 35.8219C43.0454 35.8489 43.0226 35.8815 43.0069 35.9176C42.9913 35.9538 42.9832 35.9928 42.9832 36.0322C42.9832 36.0716 42.9913 36.1106 43.0069 36.1467C43.0226 36.1829 43.0454 36.2155 43.0741 36.2425C43.1028 36.2695 43.1368 36.2903 43.1738 36.3037C43.2109 36.3171 43.2503 36.3227 43.2896 36.3203ZM32.9733 37.5163L32.9776 37.512C32.9776 37.512 32.9776 37.5163 32.9884 37.5163H34.6632C34.7015 37.5215 34.7405 37.5184 34.7775 37.5073C34.8144 37.4962 34.8486 37.4773 34.8777 37.4518C34.9068 37.4264 34.9301 37.3951 34.9461 37.3599C34.9621 37.3247 34.9703 37.2865 34.9703 37.2479C34.9703 37.2093 34.9621 37.1711 34.9461 37.1359C34.9301 37.1008 34.9068 37.0694 34.8777 37.044C34.8486 37.0186 34.8144 36.9997 34.7775 36.9886C34.7405 36.9774 34.7015 36.9744 34.6632 36.9795H33.2631V36.0874H34.4682C34.5417 36.0887 34.6127 36.061 34.6658 36.0103C34.7189 35.9596 34.7499 35.89 34.7521 35.8166C34.7482 35.7442 34.7165 35.6761 34.6636 35.6264C34.6107 35.5768 34.5408 35.5494 34.4682 35.5501H33.2631V34.664H34.6643C34.7377 34.6646 34.8084 34.6367 34.8615 34.5862C34.9147 34.5356 34.9461 34.4664 34.9492 34.3931C34.9461 34.3203 34.9145 34.2516 34.8612 34.2018C34.8079 34.1521 34.7372 34.1253 34.6643 34.1272H32.9733C32.937 34.1253 32.9006 34.1307 32.8664 34.1432C32.8323 34.1556 32.8009 34.1748 32.7744 34.1997C32.7478 34.2245 32.7264 34.2544 32.7117 34.2876C32.6969 34.3209 32.689 34.3568 32.6884 34.3931V37.2503C32.6895 37.2866 32.6978 37.3222 32.7127 37.3553C32.7276 37.3883 32.749 37.4181 32.7754 37.4428C32.8019 37.4676 32.833 37.4869 32.867 37.4996C32.9009 37.5123 32.937 37.5176 32.9733 37.5163ZM23.0453 34.2128C22.9839 34.1707 22.9089 34.1533 22.8352 34.1641C22.7615 34.1748 22.6946 34.2129 22.6477 34.2707L21.7638 35.4044L20.8787 34.2707C20.8331 34.2124 20.7669 34.1739 20.6937 34.1631C20.6205 34.1523 20.5459 34.1701 20.4855 34.2128C20.4551 34.2314 20.4291 34.2565 20.4095 34.2863C20.3899 34.3161 20.3771 34.3499 20.372 34.3852C20.3668 34.4205 20.3695 34.4565 20.3799 34.4906C20.3902 34.5247 20.408 34.5562 20.4318 34.5827L21.481 35.9433V37.2509C21.4843 37.3237 21.5159 37.3924 21.5691 37.4422C21.6224 37.492 21.693 37.519 21.7659 37.5174C21.8022 37.5191 21.8385 37.5136 21.8726 37.501C21.9066 37.4885 21.9379 37.4692 21.9643 37.4443C21.9908 37.4194 22.012 37.3895 22.0267 37.3563C22.0414 37.3231 22.0492 37.2872 22.0498 37.2509V35.9417L23.1076 34.5827C23.1286 34.5549 23.1437 34.523 23.1519 34.4891C23.1602 34.4553 23.1614 34.42 23.1556 34.3857C23.1498 34.3513 23.137 34.3185 23.118 34.2892C23.099 34.2599 23.0743 34.2348 23.0453 34.2155M8.8307 37.5196L8.83612 37.5152C8.83612 37.5152 8.83612 37.5196 8.84641 37.5196H10.5223C10.5606 37.5247 10.5995 37.5216 10.6365 37.5105C10.6735 37.4994 10.7077 37.4805 10.7368 37.4551C10.7658 37.4297 10.7892 37.3983 10.8051 37.3631C10.8211 37.328 10.8294 37.2898 10.8294 37.2512C10.8294 37.2125 10.8211 37.1744 10.8051 37.1392C10.7892 37.104 10.7658 37.0727 10.7368 37.0472C10.7077 37.0218 10.6735 37.0029 10.6365 36.9918C10.5995 36.9807 10.5606 36.9776 10.5223 36.9828H9.12049V36.0874H10.3257C10.3993 36.089 10.4706 36.0615 10.5239 36.0107C10.5773 35.96 10.6084 35.8902 10.6106 35.8166C10.6065 35.744 10.5747 35.6758 10.5216 35.6262C10.4685 35.5765 10.3983 35.5493 10.3257 35.5501H9.12049V34.664H10.5223C10.5955 34.6646 10.6661 34.6366 10.7191 34.5861C10.7721 34.5355 10.8033 34.4663 10.8061 34.3931C10.8031 34.3204 10.7717 34.2518 10.7186 34.2021C10.6655 34.1523 10.595 34.1254 10.5223 34.1272H8.8307C8.79446 34.1254 8.75825 34.131 8.7242 34.1435C8.69015 34.156 8.65896 34.1753 8.63248 34.2001C8.60601 34.2249 8.58479 34.2547 8.57009 34.2879C8.55538 34.3211 8.54749 34.3569 8.54688 34.3931V37.2503C8.54792 37.2865 8.55611 37.3221 8.57096 37.3551C8.58581 37.3881 8.60703 37.4178 8.6334 37.4426C8.65978 37.4673 8.69078 37.4867 8.72464 37.4994C8.7585 37.5121 8.79454 37.5181 8.8307 37.5168" fill="white"/>
</g>
</svg>
