<svg width="181" height="157" viewBox="0 0 181 157" fill="none" xmlns="http://www.w3.org/2000/svg">
<g opacity="0.1" filter="url(#filter0_d_1_1018)">
<mask id="path-1-inside-1_1_1018" fill="white">
<path d="M-80.7219 107.089C-79.8034 110.503 -76.6304 112.835 -73.1233 112.835H-6.4059L-38.2198 199.438C-39.7229 203.518 -37.6353 208.015 -33.5438 209.514C-29.4522 211.013 -24.9431 208.931 -23.4401 204.851L12.2984 107.672C13.2169 105.257 12.7994 102.593 11.3799 100.511C9.87685 98.429 7.45531 97.1799 4.95027 97.1799H-45.2339L66.9916 28.3139L6.6203 199.604C6.53679 199.854 6.45328 200.104 6.45328 200.271C6.45328 200.354 6.45331 200.437 6.3698 200.52C6.3698 200.687 6.2863 200.854 6.2863 201.02C6.2863 201.103 6.2863 201.187 6.2863 201.27C6.2863 201.436 6.2863 201.603 6.2863 201.686C6.2863 201.77 6.2863 201.853 6.2863 201.936C6.2863 202.186 6.2863 202.352 6.2863 202.602C6.2863 202.685 6.2863 202.769 6.2863 202.852C6.2863 203.019 6.2863 203.102 6.3698 203.268C6.3698 203.352 6.36978 203.435 6.45328 203.518C6.45328 203.685 6.53679 203.768 6.53679 203.935C6.53679 204.018 6.53679 204.101 6.6203 204.184C6.7038 204.351 6.70381 204.517 6.78731 204.684V204.767C6.8708 205.017 6.9543 205.184 7.0378 205.433C7.0378 205.517 7.12131 205.517 7.12131 205.6C7.2048 205.767 7.2883 205.85 7.3718 206.016C7.3718 206.1 7.45531 206.183 7.53882 206.183C7.62231 206.349 7.70581 206.433 7.78931 206.599C7.8728 206.683 7.87282 206.766 7.95631 206.766C8.03983 206.932 8.20682 207.016 8.29031 207.182C8.37383 207.265 8.37383 207.349 8.45734 207.349C8.62433 207.515 8.70784 207.599 8.87483 207.765C8.95834 207.848 9.04182 207.932 9.12534 208.015C9.20883 208.098 9.20885 208.098 9.29234 208.181C9.29234 208.181 9.29233 208.181 9.37582 208.181C9.70982 208.431 9.96034 208.598 10.2943 208.848C10.3778 208.848 10.3779 208.931 10.4613 208.931C10.7119 209.097 11.0459 209.181 11.2964 209.347C11.3799 209.347 11.4634 209.431 11.5469 209.431C11.5469 209.431 11.6304 209.431 11.6304 209.514C11.9644 209.597 12.2149 209.68 12.5489 209.764C12.6324 209.764 12.7159 209.764 12.7159 209.764C13.0499 209.847 13.3839 209.847 13.6344 209.93C13.7179 209.93 13.7179 209.93 13.8014 209.93C14.1354 209.93 14.5529 209.93 14.8869 209.93C14.9704 209.93 14.9704 209.93 15.0539 209.93C15.3879 209.93 15.7219 209.847 16.0559 209.764H16.1394C16.4734 209.68 16.8074 209.597 17.1414 209.431C17.2249 209.431 17.3084 209.347 17.3919 209.347C17.726 209.181 18.06 209.014 18.3105 208.848L174.291 111.586C177.297 109.754 178.633 106.09 177.714 102.759C176.712 99.4282 173.623 97.0966 170.116 97.0966H105.319L135.63 12.5755C137.133 8.49522 134.962 3.99852 130.87 2.49963C129.952 2.16655 129.117 2 128.198 2C124.941 2 121.935 3.99854 120.766 7.24614L86.6144 102.259C85.7794 104.674 86.1134 107.339 87.6164 109.421C89.1195 111.503 91.4575 112.752 94.046 112.752H142.56L28.8316 183.533L89.1195 12.4923C89.203 12.2424 89.2865 11.9926 89.2865 11.8261C89.2865 11.7428 89.2865 11.6596 89.37 11.5763C89.37 11.4097 89.4535 11.2432 89.4535 11.0766C89.4535 10.9934 89.4535 10.9101 89.4535 10.8268C89.4535 10.6603 89.4535 10.4937 89.4535 10.3272C89.4535 10.2439 89.4535 10.1607 89.4535 10.0774C89.4535 9.82758 89.4535 9.66103 89.4535 9.41121C89.4535 9.32794 89.4535 9.24466 89.4535 9.16139C89.4535 8.99484 89.4535 8.91158 89.37 8.74503C89.37 8.66176 89.37 8.57849 89.2865 8.49522C89.2865 8.32867 89.203 8.24541 89.203 8.07886C89.203 7.99559 89.203 7.91232 89.1195 7.82904C89.036 7.66251 89.036 7.41269 88.9525 7.24614V7.16287C88.869 6.91306 88.7855 6.74651 88.702 6.49669C88.702 6.41342 88.6184 6.41342 88.6184 6.33015C88.535 6.1636 88.4514 5.99706 88.3679 5.91379C88.3679 5.83052 88.2844 5.74724 88.2844 5.74724C88.201 5.5807 88.1174 5.49744 88.0339 5.33089C87.9504 5.24762 87.9504 5.24762 87.8669 5.16434C87.7834 4.9978 87.6164 4.83125 87.5329 4.74799C87.4494 4.66472 87.4494 4.58144 87.3659 4.58144C87.2824 4.49815 87.1154 4.33162 87.0319 4.24835C86.9484 4.16507 86.8649 4.0818 86.7814 3.99854C86.6979 3.91525 86.6979 3.91525 86.6144 3.83199C86.6144 3.83199 86.5309 3.83199 86.5309 3.7487C86.1969 3.4989 85.9464 3.33237 85.6124 3.08255C85.5289 3.08255 85.5289 2.99927 85.4454 2.99927C85.1949 2.83272 84.8609 2.74945 84.6104 2.5829C84.5269 2.5829 84.4434 2.49963 84.3599 2.49963C84.2764 2.49963 84.2764 2.49963 84.1929 2.41637C83.9424 2.3331 83.6084 2.24982 83.3579 2.16655C83.2744 2.16655 83.2744 2.16655 83.1909 2.16655C82.8569 2.08328 82.5229 2.08328 82.1054 2H82.0219C81.8549 2 81.7714 2 81.6044 2C81.3539 2 81.1868 2 80.9363 2C80.9363 2 80.9363 2 80.8528 2C80.5188 2 80.1013 2.08328 79.7673 2.16655H79.6838C79.3498 2.24982 78.9323 2.33308 78.5983 2.49963C78.5983 2.49963 78.5148 2.49963 78.5148 2.5829C78.1808 2.74945 77.8468 2.916 77.5128 3.08255L-77.3819 98.0959C-80.2209 100.094 -81.6405 103.675 -80.7219 107.089Z"/>
</mask>
<path d="M-80.7219 107.089C-79.8034 110.503 -76.6304 112.835 -73.1233 112.835H-6.4059L-38.2198 199.438C-39.7229 203.518 -37.6353 208.015 -33.5438 209.514C-29.4522 211.013 -24.9431 208.931 -23.4401 204.851L12.2984 107.672C13.2169 105.257 12.7994 102.593 11.3799 100.511C9.87685 98.429 7.45531 97.1799 4.95027 97.1799H-45.2339L66.9916 28.3139L6.6203 199.604C6.53679 199.854 6.45328 200.104 6.45328 200.271C6.45328 200.354 6.45331 200.437 6.3698 200.52C6.3698 200.687 6.2863 200.854 6.2863 201.02C6.2863 201.103 6.2863 201.187 6.2863 201.27C6.2863 201.436 6.2863 201.603 6.2863 201.686C6.2863 201.77 6.2863 201.853 6.2863 201.936C6.2863 202.186 6.2863 202.352 6.2863 202.602C6.2863 202.685 6.2863 202.769 6.2863 202.852C6.2863 203.019 6.2863 203.102 6.3698 203.268C6.3698 203.352 6.36978 203.435 6.45328 203.518C6.45328 203.685 6.53679 203.768 6.53679 203.935C6.53679 204.018 6.53679 204.101 6.6203 204.184C6.7038 204.351 6.70381 204.517 6.78731 204.684V204.767C6.8708 205.017 6.9543 205.184 7.0378 205.433C7.0378 205.517 7.12131 205.517 7.12131 205.6C7.2048 205.767 7.2883 205.85 7.3718 206.016C7.3718 206.1 7.45531 206.183 7.53882 206.183C7.62231 206.349 7.70581 206.433 7.78931 206.599C7.8728 206.683 7.87282 206.766 7.95631 206.766C8.03983 206.932 8.20682 207.016 8.29031 207.182C8.37383 207.265 8.37383 207.349 8.45734 207.349C8.62433 207.515 8.70784 207.599 8.87483 207.765C8.95834 207.848 9.04182 207.932 9.12534 208.015C9.20883 208.098 9.20885 208.098 9.29234 208.181C9.29234 208.181 9.29233 208.181 9.37582 208.181C9.70982 208.431 9.96034 208.598 10.2943 208.848C10.3778 208.848 10.3779 208.931 10.4613 208.931C10.7119 209.097 11.0459 209.181 11.2964 209.347C11.3799 209.347 11.4634 209.431 11.5469 209.431C11.5469 209.431 11.6304 209.431 11.6304 209.514C11.9644 209.597 12.2149 209.68 12.5489 209.764C12.6324 209.764 12.7159 209.764 12.7159 209.764C13.0499 209.847 13.3839 209.847 13.6344 209.93C13.7179 209.93 13.7179 209.93 13.8014 209.93C14.1354 209.93 14.5529 209.93 14.8869 209.93C14.9704 209.93 14.9704 209.93 15.0539 209.93C15.3879 209.93 15.7219 209.847 16.0559 209.764H16.1394C16.4734 209.68 16.8074 209.597 17.1414 209.431C17.2249 209.431 17.3084 209.347 17.3919 209.347C17.726 209.181 18.06 209.014 18.3105 208.848L174.291 111.586C177.297 109.754 178.633 106.09 177.714 102.759C176.712 99.4282 173.623 97.0966 170.116 97.0966H105.319L135.63 12.5755C137.133 8.49522 134.962 3.99852 130.87 2.49963C129.952 2.16655 129.117 2 128.198 2C124.941 2 121.935 3.99854 120.766 7.24614L86.6144 102.259C85.7794 104.674 86.1134 107.339 87.6164 109.421C89.1195 111.503 91.4575 112.752 94.046 112.752H142.56L28.8316 183.533L89.1195 12.4923C89.203 12.2424 89.2865 11.9926 89.2865 11.8261C89.2865 11.7428 89.2865 11.6596 89.37 11.5763C89.37 11.4097 89.4535 11.2432 89.4535 11.0766C89.4535 10.9934 89.4535 10.9101 89.4535 10.8268C89.4535 10.6603 89.4535 10.4937 89.4535 10.3272C89.4535 10.2439 89.4535 10.1607 89.4535 10.0774C89.4535 9.82758 89.4535 9.66103 89.4535 9.41121C89.4535 9.32794 89.4535 9.24466 89.4535 9.16139C89.4535 8.99484 89.4535 8.91158 89.37 8.74503C89.37 8.66176 89.37 8.57849 89.2865 8.49522C89.2865 8.32867 89.203 8.24541 89.203 8.07886C89.203 7.99559 89.203 7.91232 89.1195 7.82904C89.036 7.66251 89.036 7.41269 88.9525 7.24614V7.16287C88.869 6.91306 88.7855 6.74651 88.702 6.49669C88.702 6.41342 88.6184 6.41342 88.6184 6.33015C88.535 6.1636 88.4514 5.99706 88.3679 5.91379C88.3679 5.83052 88.2844 5.74724 88.2844 5.74724C88.201 5.5807 88.1174 5.49744 88.0339 5.33089C87.9504 5.24762 87.9504 5.24762 87.8669 5.16434C87.7834 4.9978 87.6164 4.83125 87.5329 4.74799C87.4494 4.66472 87.4494 4.58144 87.3659 4.58144C87.2824 4.49815 87.1154 4.33162 87.0319 4.24835C86.9484 4.16507 86.8649 4.0818 86.7814 3.99854C86.6979 3.91525 86.6979 3.91525 86.6144 3.83199C86.6144 3.83199 86.5309 3.83199 86.5309 3.7487C86.1969 3.4989 85.9464 3.33237 85.6124 3.08255C85.5289 3.08255 85.5289 2.99927 85.4454 2.99927C85.1949 2.83272 84.8609 2.74945 84.6104 2.5829C84.5269 2.5829 84.4434 2.49963 84.3599 2.49963C84.2764 2.49963 84.2764 2.49963 84.1929 2.41637C83.9424 2.3331 83.6084 2.24982 83.3579 2.16655C83.2744 2.16655 83.2744 2.16655 83.1909 2.16655C82.8569 2.08328 82.5229 2.08328 82.1054 2H82.0219C81.8549 2 81.7714 2 81.6044 2C81.3539 2 81.1868 2 80.9363 2C80.9363 2 80.9363 2 80.8528 2C80.5188 2 80.1013 2.08328 79.7673 2.16655H79.6838C79.3498 2.24982 78.9323 2.33308 78.5983 2.49963C78.5983 2.49963 78.5148 2.49963 78.5148 2.5829C78.1808 2.74945 77.8468 2.916 77.5128 3.08255L-77.3819 98.0959C-80.2209 100.094 -81.6405 103.675 -80.7219 107.089Z" stroke="#02A9F7" stroke-width="2" shape-rendering="crispEdges" mask="url(#path-1-inside-1_1_1018)"/>
</g>
<defs>
<filter id="filter0_d_1_1018" x="-83.8308" y="0.198534" width="264.662" height="213.662" filterUnits="userSpaceOnUse" color-interpolation-filters="sRGB">
<feFlood flood-opacity="0" result="BackgroundImageFix"/>
<feColorMatrix in="SourceAlpha" type="matrix" values="0 0 0 0 0 0 0 0 0 0 0 0 0 0 0 0 0 0 127 0" result="hardAlpha"/>
<feOffset dy="1.02941"/>
<feGaussianBlur stdDeviation="1.41544"/>
<feComposite in2="hardAlpha" operator="out"/>
<feColorMatrix type="matrix" values="0 0 0 0 0 0 0 0 0 0 0 0 0 0 0 0 0 0 0.25 0"/>
<feBlend mode="normal" in2="BackgroundImageFix" result="effect1_dropShadow_1_1018"/>
<feBlend mode="normal" in="SourceGraphic" in2="effect1_dropShadow_1_1018" result="shape"/>
</filter>
</defs>
</svg>
