<svg width="145" height="54" viewBox="0 0 145 54" fill="none" xmlns="http://www.w3.org/2000/svg">
<path fill-rule="evenodd" clip-rule="evenodd" d="M25.4316 15.1635C23.9681 15.7659 23.0966 17.1178 23.0966 18.7857C23.0966 22.5266 28.3535 22.6004 29.416 18.8744C29.7814 17.593 29.3848 16.2337 28.4462 15.552C27.7198 15.0243 26.2347 14.8329 25.4316 15.1635ZM111.439 17.6852C109.471 18.4285 107.754 20.4769 107.275 22.6541C107.124 23.3362 107.035 23.399 106.219 23.399H105.328L104.878 25.7486L104.428 28.0982L105.336 28.1694C106.186 28.2361 106.236 28.2802 106.116 28.8571C106.045 29.1961 105.668 31.2787 105.279 33.4849C104.889 35.6912 104.517 37.7286 104.453 38.0121C104.338 38.5235 104.359 38.5279 107.01 38.5279H109.683L109.928 37.3245C110.062 36.6625 110.439 34.6253 110.766 32.7973C111.092 30.9692 111.418 29.19 111.49 28.8431L111.621 28.2128H114.17C117.107 28.2128 116.92 27.9909 116.37 30.8117C115.305 36.2744 116.764 38.5279 121.366 38.5279C123.467 38.5279 123.297 38.6929 123.728 36.2356C123.871 35.4162 124.042 34.5281 124.107 34.2622C124.209 33.8434 124.097 33.7621 123.265 33.6525C122.737 33.583 122.152 33.401 121.964 33.2482C121.55 32.9107 121.526 31.6472 121.897 29.6718L122.171 28.2128H123.631H125.092L125.353 26.8947C125.497 26.1697 125.67 25.2672 125.738 24.889C125.805 24.5108 125.912 24.0207 125.975 23.8002C126.076 23.4497 125.911 23.399 124.674 23.399C123.895 23.399 123.257 23.3734 123.257 23.3417C123.257 23.3101 123.415 22.476 123.608 21.4878C123.8 20.4996 123.958 19.5971 123.958 19.4821C123.958 19.367 122.809 19.273 121.405 19.273C118.581 19.273 118.772 19.1618 118.452 20.9922C118.249 22.1553 117.779 23.0738 117.293 23.2567C117.085 23.3349 115.926 23.399 114.716 23.399C112.889 23.399 112.517 23.3392 112.517 23.0449C112.517 22.3916 113.606 21.5652 114.467 21.5652H115.271L115.534 20.018C115.679 19.1671 115.856 18.1869 115.927 17.8403L116.057 17.21L114.345 17.2219C113.229 17.2297 112.219 17.3908 111.439 17.6852ZM36.891 18.4909C34.4168 19.1439 31.8264 21.1102 30.3794 23.4332C28.1924 26.9445 28.2055 32.1687 30.4095 35.3669C32.1967 37.9603 34.7131 39.1108 38.237 38.9455C40.6238 38.8334 42.6043 38.0465 44.3598 36.5132C45.2323 35.7511 47.2015 32.7973 46.8372 32.7973C46.7814 32.7973 45.7336 32.3407 44.5086 31.7823L42.2812 30.7673L41.6683 31.6766C40.7951 32.9722 39.8286 33.4831 38.2486 33.484C36.6071 33.4852 35.5644 32.8585 34.8287 31.4288C33.8537 29.5338 34.288 26.607 35.7771 25.0387C37.0962 23.6491 39.5449 23.2037 41.0179 24.0856C41.8367 24.5757 42.7061 25.7853 42.7075 26.4363C42.7089 27.0036 42.9667 26.9555 45.671 25.8816C48.4015 24.7973 48.4379 24.7375 47.5286 22.826C46.816 21.3278 45.9958 20.3964 44.6318 19.5371C42.5292 18.2126 39.4977 17.8027 36.891 18.4909ZM53.9038 23.2528C52.4885 23.6276 51.3769 24.3281 50.1881 25.5943C47.2645 28.7081 46.7485 33.9622 49.0728 36.9481C50.6366 38.9572 53.467 39.5771 55.8076 38.4227C56.7025 37.9814 56.9504 37.9317 56.9504 38.1935C56.9504 38.4649 57.4045 38.5279 59.3639 38.5279H61.7773L62.9932 31.8231C63.6619 28.1353 64.2708 24.7315 64.346 24.2586L64.4828 23.399H62.0007C59.6744 23.399 59.5187 23.4277 59.5187 23.8575C59.5187 24.4312 59.4229 24.4296 58.613 23.8417C57.4267 22.9807 55.7317 22.7687 53.9038 23.2528ZM73.4258 23.3032C72.9208 23.4848 72.3346 23.7869 72.1235 23.9746C71.6043 24.4361 71.4259 24.404 71.4259 23.8497C71.4259 23.4059 71.3059 23.3867 68.9286 23.4486L66.4314 23.5137L66.1444 25.1182C65.9868 26.0007 65.4272 29.1469 64.9014 32.1096C64.3754 35.0723 63.8928 37.7286 63.8286 38.0121C63.7133 38.5235 63.7345 38.5279 66.3852 38.5279H69.058L69.2996 37.3245C69.4325 36.6625 69.7647 34.8834 70.0376 33.371C70.3106 31.8584 70.6739 30.2921 70.8448 29.8905C71.2104 29.0318 72.2433 28.442 73.3822 28.442C74.1757 28.442 74.2 28.4145 74.4354 27.2386C74.7713 25.5597 75.1615 23.3514 75.1615 23.1276C75.1615 22.856 74.4772 22.925 73.4258 23.3032ZM79.8653 23.187C76.8297 23.7729 74.8568 26.3226 75.2798 29.1134C75.4937 30.5259 76.8325 31.7676 79.0808 32.6389C80.8008 33.3055 81.3065 33.8755 80.7555 34.5275C80.1569 35.2355 78.429 34.5648 78.0813 33.4893C77.9438 33.0639 77.8703 33.0719 76.1414 33.7036C75.1531 34.0647 74.1606 34.4321 73.9357 34.5201C72.8599 34.9414 74.0672 37.1972 75.9028 38.1955C77.058 38.8238 77.3195 38.8717 79.5975 38.8717C81.8071 38.8717 82.1662 38.811 83.2374 38.256C85.3281 37.1729 86.3638 35.5727 86.3669 33.4203C86.3699 31.4345 85.3015 30.2575 82.427 29.0792C80.6192 28.3382 80.2456 27.9366 80.83 27.363C81.3002 26.9014 82.3165 27.1375 82.5162 27.7548C82.5974 28.0067 82.7613 28.2128 82.8802 28.2128C83.3576 28.2128 87.3022 26.5454 87.3022 26.3434C87.3022 25.8456 86.5499 24.7588 85.8341 24.2229C85.0006 23.5987 82.7286 22.9255 81.5914 22.9658C81.201 22.9796 80.4242 23.079 79.8653 23.187ZM94.3961 23.2507C89.7387 24.4129 86.6797 29.3912 87.855 33.8955C88.505 36.3869 89.8737 37.859 92.2922 38.6679C93.7685 39.1619 96.5634 39.0022 98.1025 38.3358C99.4354 37.7586 101.37 36.0362 102.147 34.7342C104.03 31.5794 103.811 27.5134 101.635 25.2292C99.8652 23.372 97.0231 22.5952 94.3961 23.2507ZM22.6294 23.571C22.6294 23.6656 22.0945 26.6827 21.441 30.2758C20.7875 33.8689 20.1959 37.1956 20.1263 37.6683L20 38.5279H22.6686H25.337L26.5716 31.5938C27.2506 27.78 27.8627 24.3762 27.9321 24.0294L28.0579 23.399H25.3438C23.8509 23.399 22.6296 23.4763 22.6294 23.571ZM56.4333 28.23C57.4132 28.5653 57.9738 29.479 57.9698 30.7342C57.9639 32.5612 56.7833 33.9434 55.2288 33.9434C54.3761 33.9434 53.258 32.9128 53.0759 31.959C52.7815 30.4188 53.8725 28.4606 55.1994 28.147C55.4562 28.0865 55.6768 28.0248 55.6899 28.0101C55.7027 27.9955 56.0373 28.0945 56.4333 28.23ZM97.509 29.1063C98.1548 30.0498 98.1784 30.9903 97.5884 32.2664C96.4142 34.805 93.139 34.2398 93.139 31.4982C93.139 29.3399 94.1649 28.1516 95.933 28.2623C96.8242 28.318 97.0535 28.4406 97.509 29.1063Z" fill="#DCDCDC"/>
</svg>
