<svg width="136" height="52" viewBox="0 0 136 52" fill="none" xmlns="http://www.w3.org/2000/svg">
<g clip-path="url(#clip0_1_1055)">
<path fill-rule="evenodd" clip-rule="evenodd" d="M16.9025 13.4483C14.4136 14.0984 12.7097 15.0236 10.9911 16.6575C8.26548 19.2497 7.10835 21.9559 7.09787 25.7633C7.09196 27.9241 7.20319 28.5908 7.83509 30.183C8.88368 32.8247 8.96024 33.5975 8.28214 34.6911C7.97103 35.1928 7.7166 35.7476 7.7166 35.9236C7.7166 36.3326 10.5934 37.6368 12.8368 38.2446C15.2107 38.888 20.3728 38.8869 22.7617 38.2427C27.6847 36.9155 31.4592 33.0893 32.4666 28.4044C32.835 26.6925 32.6364 23.3482 32.0795 21.8793C31.8562 21.29 31.4594 20.2547 31.198 19.5783C30.7311 18.3713 30.7332 18.3287 31.3095 17.2262C31.6322 16.6088 31.8963 15.9445 31.8963 15.7498C31.8963 15.2542 28.6465 13.841 26.3357 13.3318C23.6703 12.7446 19.394 12.7974 16.9025 13.4483ZM23.9506 17.8632C28.7352 20.2766 30.3246 26.3775 27.3078 30.7495C25.4387 33.4579 22.8308 34.7104 19.4034 34.5457C16.8587 34.423 15.2531 33.7507 13.542 32.0902C11.6708 30.2749 11.0838 28.7657 11.0803 25.7633C11.0778 23.4974 11.1576 23.0718 11.8083 21.8793C13.0297 19.6418 14.2717 18.4959 16.4836 17.5667C18.7122 16.6302 21.7454 16.7508 23.9506 17.8632ZM16.9855 19.6881C14.521 20.8809 13.1017 23.101 13.1017 25.7633C13.1017 29.5125 16.0779 32.4507 19.8822 32.4572C22.5355 32.4617 24.5763 31.2537 25.8715 28.9117C27.3169 26.2979 26.8242 23.1583 24.6244 20.9648C23.3555 19.6999 22.2873 19.2593 20.2094 19.143C18.6305 19.0549 18.1133 19.1425 16.9855 19.6881ZM23.4713 22.4284C24.6622 23.6158 23.846 25.2275 22.0541 25.2275C20.4225 25.2275 19.7656 23.3091 21.0517 22.3006C21.9885 21.5659 22.6406 21.6002 23.4713 22.4284Z" fill="#DCDCDC"/>
<path fill-rule="evenodd" clip-rule="evenodd" d="M43.9014 17.198C43.7966 17.3024 43.7109 21.1647 43.7109 25.7811V34.174H45.5953H47.4797L47.4088 25.6694L47.3379 17.1647L45.7149 17.0865C44.8221 17.0434 44.0062 17.0935 43.9014 17.198ZM100.054 17.574C99.4953 17.7147 98.6794 18.0147 98.2409 18.2407C97.5359 18.6042 97.4435 18.7915 97.4435 19.8586C97.4435 21.3686 97.7745 21.5202 99.822 20.9472C103.453 19.9318 105.578 20.8034 104.689 22.9436C104.51 23.3746 104.348 23.7349 104.329 23.7443C104.31 23.7536 103.284 23.8573 102.05 23.9749C100.624 24.1107 99.7188 24.3244 99.5686 24.5607C99.2817 25.0126 99.2575 26.428 99.5297 26.8349C99.6382 26.9972 100.653 27.1981 101.785 27.2811C104.768 27.5005 105.501 28.0686 105.107 29.8572C104.797 31.265 102.827 31.5993 99.7132 30.7722C98.7702 30.5217 97.9435 30.372 97.8758 30.4395C97.8081 30.5067 97.7135 31.1638 97.6654 31.8993L97.5778 33.2365L98.9212 33.8796C100.836 34.7963 104.378 34.7925 106.219 33.8719C108.072 32.9459 108.564 32.1267 108.683 29.7725C108.799 27.4823 108.31 26.1331 107.177 25.6182L106.459 25.2922L107.025 24.8446C107.888 24.1608 108.19 23.3658 108.19 21.7757C108.19 20.0869 107.493 18.8322 106.106 18.0243C105.083 17.4291 101.646 17.1733 100.054 17.574ZM113.742 17.6091C113.176 17.768 112.239 18.3474 111.66 18.8962L110.608 19.8943L110.609 25.7618C110.61 32.4696 110.715 32.8594 112.814 33.945C114.424 34.7778 118.037 34.7981 119.61 33.9833C121.354 33.0803 121.892 31.8211 121.891 28.6464C121.89 25.5614 121.507 24.6641 119.841 23.8399C119.034 23.4405 118.247 23.3285 116.317 23.339L113.832 23.3521V22.6321C113.832 21.3378 114.633 20.7008 116.422 20.572C117.3 20.5085 118.475 20.5827 119.035 20.7367C120.533 21.1492 120.817 20.9373 120.817 19.4062C120.817 18.2182 120.745 18.0605 120.078 17.799C119.03 17.3876 114.966 17.2657 113.742 17.6091ZM127.094 17.5368C125.863 17.8545 124.706 18.7668 124.209 19.8115C123.851 20.5618 123.772 21.6962 123.772 26.072C123.772 31.167 123.801 31.4587 124.377 32.3263C125.307 33.7256 127.193 34.5311 129.538 34.5311C131.086 34.5311 131.708 34.4012 132.637 33.8839C134.861 32.6456 134.911 32.4817 135.004 26.1084C135.083 20.7466 135.06 20.4487 134.507 19.5562C133.692 18.2416 132.165 17.5411 129.849 17.4198C128.798 17.3646 127.558 17.4173 127.094 17.5368ZM76.2729 18.4237C76.0391 18.6567 75.9505 20.6073 75.9505 25.5178V32.2904L76.7342 33.1653C77.4988 34.0189 77.5788 34.0422 80.0395 34.1312C83.0064 34.2383 83.2232 34.1006 83.012 32.2449L82.8688 30.9854L81.4917 30.9056L80.1148 30.8257L80.039 27.8273L79.9632 24.8288L81.248 24.7469L82.5327 24.6649V23.1917V21.7184L81.2566 21.6367L79.9804 21.555V19.9912C79.9804 18.8124 79.8759 18.3875 79.5554 18.2649C78.8166 17.9823 76.6087 18.0889 76.2729 18.4237ZM130.698 20.9301C131.275 21.333 131.295 21.4998 131.295 25.8663C131.295 31.1316 131.226 31.3063 129.187 31.174C127.376 31.0564 127.237 30.6471 127.326 25.6967C127.39 22.1446 127.463 21.5689 127.911 21.0761C128.524 20.4021 129.843 20.333 130.698 20.9301ZM53.0564 21.1765C52.3597 21.3678 51.3925 21.7554 50.9071 22.038L50.0245 22.5517L49.952 28.3751L49.8797 34.1987L51.6983 34.1194L53.5171 34.0401L53.5905 29.4471C53.6421 26.2231 53.7622 24.7731 53.9935 24.5827C54.5751 24.1035 56.1664 23.965 56.8754 24.3322C57.5444 24.6783 57.5476 24.6981 57.6814 29.36L57.8157 34.0401H59.6964H61.577L61.6603 30.4239C61.7062 28.4351 61.6635 26.0278 61.5655 25.0745C61.4088 23.5503 61.2689 23.2233 60.4075 22.365C58.9124 20.8757 55.9171 20.3914 53.0564 21.1765ZM66.2171 21.0846C65.6599 21.2419 64.8547 21.7763 64.4036 22.2887C63.686 23.1035 63.592 23.4038 63.592 24.8824C63.592 27.4917 64.4023 28.2569 67.7804 28.8374C70.4072 29.2885 70.8459 29.4915 70.8459 30.2547C70.8459 30.6109 70.6546 30.9755 70.4209 31.0649C69.6748 31.3505 66.9968 31.2334 65.5632 30.8528C63.8577 30.4001 63.592 30.6013 63.592 32.3451V33.6233L65.1368 34.0744C67.4398 34.7467 70.9399 34.6846 72.3851 33.9461C73.8646 33.1899 74.3385 32.2344 74.3385 30.0088C74.3385 28.3539 74.2762 28.1653 73.4597 27.3513C72.7206 26.6144 72.2615 26.4248 70.5716 26.158C67.3401 25.6482 67.0559 25.5716 66.9022 25.172C66.8216 24.963 66.917 24.5985 67.1136 24.3622C67.4113 24.0046 67.8116 23.9634 69.4945 24.1169C70.607 24.2181 71.9407 24.3228 72.4579 24.3491L73.3982 24.397L73.4783 23.0216C73.5564 21.6825 73.5349 21.6372 72.6723 21.323C71.47 20.8851 67.4511 20.7367 66.2171 21.0846ZM86.7561 21.1535C85.9759 21.3504 85.258 21.5904 85.1613 21.6871C84.8798 21.9678 85.0866 24.3665 85.4096 24.5653C85.5708 24.6649 86.3171 24.5642 87.0675 24.3421C88.7665 23.8391 91.3658 23.7914 91.9236 24.2529C92.1519 24.4418 92.3389 24.8832 92.3389 25.2333C92.3389 25.8368 92.2497 25.8703 90.6415 25.8703C88.3178 25.8703 86.2537 26.5265 85.1664 27.6106C84.3475 28.427 84.2793 28.6263 84.2831 30.1963C84.2882 32.4 84.6611 33.0935 86.269 33.8879C87.3759 34.4349 87.9791 34.5389 90.0303 34.5359C92.1788 34.533 92.6678 34.4384 94.0852 33.7505L95.6972 32.9686L95.7708 28.3469C95.8568 22.9358 95.7305 22.5083 93.7679 21.5609C92.2135 20.8106 88.8826 20.6172 86.7561 21.1535ZM117.193 26.6739C117.954 26.6739 118.399 27.5002 118.395 28.9028C118.393 29.6659 118.294 30.443 118.175 30.6297C117.863 31.1193 116.332 31.4983 115.41 31.3143C114.279 31.0891 113.832 30.2927 113.832 28.505V26.9733L114.974 26.7189C115.602 26.579 116.277 26.5115 116.473 26.5691C116.67 26.6267 116.994 26.6739 117.193 26.6739ZM92.3389 29.6013C92.3389 30.5881 91.7774 31.1576 90.584 31.3808C88.1655 31.8332 86.7137 30.6752 88.0403 29.3525C88.4753 28.9188 88.9358 28.8168 90.4583 28.8168H92.3389V29.6013Z" fill="#DCDCDC"/>
</g>
<defs>
<clipPath id="clip0_1_1055">
<rect width="135.772" height="50.5634" fill="white" transform="translate(-0.394531 0.587524)"/>
</clipPath>
</defs>
</svg>
