<svg width="145" height="54" viewBox="0 0 145 54" fill="none" xmlns="http://www.w3.org/2000/svg">
<path fill-rule="evenodd" clip-rule="evenodd" d="M38.4822 7.13029C36.9535 8.38135 36.5318 12.3524 37.839 13.187C39.6622 14.3523 42.0419 13.9103 43.5385 12.1283L44.999 10.3897L43.3292 11.8115C41.0084 13.7874 38.4822 12.898 38.4822 10.1061C38.4822 8.94467 38.8962 7.57693 39.4023 7.06693C40.5914 5.86842 39.9711 5.91092 38.4822 7.13029ZM44.6762 8.90835C44.713 9.80859 44.8947 9.99172 45.1393 9.37585C45.3609 8.81794 45.3333 8.15107 45.0787 7.89452C44.8242 7.63798 44.6433 8.09389 44.6762 8.90835ZM25.1389 16.4216C24.2971 17.0421 23.8716 18.1587 24.0342 19.3194C24.2611 20.9375 24.7648 21.242 27.5571 21.4452C29.3496 21.5765 30.8154 21.9822 30.8154 22.3485C30.8154 22.714 29.4224 28.1193 27.7188 34.3591C25.3145 43.1698 24.8215 45.9463 25.5131 46.7862C26.0022 47.3804 26.8126 47.8673 27.3125 47.8673C29.9583 47.8673 31.0462 45.4162 34.7017 31.2218C36.7764 23.1645 38.4761 16.3104 38.4784 15.992C38.4853 14.9589 26.6041 15.3421 25.1389 16.4216ZM39.6629 16.3784C37.8083 22.2535 32.3013 45.1171 32.4945 46.1394C32.8433 47.9863 35.621 48.2328 37.1083 46.549C37.7823 45.7863 39.4222 40.9899 40.7531 35.8899C42.0841 30.7899 43.5278 25.4781 43.9602 24.0864L44.7475 21.5557L68.5115 21.6167C85.6806 21.6608 92.5784 21.4251 93.3635 20.7683C94.824 19.5466 94.7442 16.4641 93.237 15.8815C92.5699 15.6234 80.3115 15.4125 65.9961 15.4125C45.847 15.4125 39.8983 15.6304 39.6629 16.3784ZM102.439 16.8776C97.2544 19.2514 93.9906 24.5539 96.2891 26.8705C97.4192 28.0088 97.8332 27.7801 101.335 24.0794C105.262 19.9291 108.319 18.882 110.397 20.9761C112.931 23.53 110.003 28.0281 102.457 33.1699C96.5321 37.2074 90.7544 42.3476 90.2147 44.0616C89.1321 47.4987 90.6233 47.8673 105.606 47.8673C117.343 47.8673 119.838 47.6687 120.846 46.6533C122.388 45.0986 122.385 43.5253 120.837 42.9272C120.17 42.6691 114.953 42.4581 109.244 42.4581C97.2183 42.4581 97.2245 42.4713 106.358 36.2593C115.654 29.9375 118.887 24.6381 116.699 19.3132C115.083 15.3808 108.257 14.2147 102.439 16.8776ZM37.7156 16.9579C35.9894 15.5744 35.8763 17.2956 33.7579 16.3784C32.473 15.822 33.1354 16.2849 35.2238 16.2393C36.9749 16.3784 37.7156 16.5329 37.7156 16.9579ZM48.7872 27.3381C46.4319 29.0898 48.229 29.9947 54.5756 30.2497C59.3252 30.4406 60.3602 30.7141 60.5726 31.833C60.7941 33.0053 60.1823 33.1861 55.9802 33.19C46.8344 33.1977 43.0785 35.4139 41.9515 41.4667C41.4838 43.9812 41.6755 44.5801 43.4411 46.1101C46.6719 48.9112 55.3492 48.2614 55.3492 45.2183C55.3492 43.9974 53.6985 43.2309 51.0696 43.2309C49.0524 43.2309 48.6737 41.8322 50.0093 39.3162C50.6318 38.144 51.6316 37.8217 54.6477 37.8217H58.4918L57.9758 42.4195C57.4675 46.9493 57.4905 47.025 59.5406 47.5435C62.6564 48.3317 64.2166 46.185 66.3296 38.2035C69.1333 27.6139 68.0646 26.2307 57.0796 26.2307C52.3775 26.2307 49.8161 26.573 48.7872 27.3381ZM75.9951 28.3557C71.1137 30.8478 68.4149 34.9031 68.395 39.7744C68.3705 45.8303 71.8236 48.0713 80.6243 47.7104C85.0135 47.5311 86.4242 47.1811 87.0859 46.107C88.3126 44.1164 86.5477 43.2571 81.2085 43.2425C77.2739 43.2324 76.6897 43.023 75.9361 41.3562C74.7623 38.7606 75.7084 35.672 78.4745 33.0679C80.4779 31.1816 81.4362 30.8671 85.1845 30.8671C90.3979 30.8671 93.0599 29.426 91.4521 27.4733C89.6612 25.298 81.0176 25.7918 75.9951 28.3557Z" fill="#DCDCDC"/>
<circle cx="40.6815" cy="9.31915" r="5.21277" fill="#D9D9D9"/>
<path d="M32.3398 15.5746L37.5526 16.0959L38.0739 17.1385L32.3398 17.6598V15.5746Z" fill="#DCDCDC"/>
</svg>
