<svg width="136" height="52" viewBox="0 0 136 52" fill="none" xmlns="http://www.w3.org/2000/svg">
<path fill-rule="evenodd" clip-rule="evenodd" d="M93.3072 2.64296C92.6594 2.73376 92.0992 2.8561 92.062 2.91467C92.0249 2.97325 91.9288 3.55258 91.8486 4.20222C91.4976 7.04027 90.7438 13.0047 90.5396 14.5584C90.2945 16.4238 90.3257 16.3563 89.1555 17.5531C88.5999 18.1213 88.4761 18.1975 88.2768 18.0935C88.0937 17.998 88.0593 17.8947 88.1135 17.6046C88.246 16.8948 89.1865 9.46149 89.1485 9.42444C89.1272 9.40384 88.3809 9.54815 87.4899 9.74506L85.8697 10.1033L85.4963 12.8645C85.291 14.3831 85.0606 16.1176 84.9845 16.7189C84.8368 17.8846 84.7761 18.0053 83.8214 19.0278L83.3448 19.5385L83.0785 19.2817L82.8124 19.025L83.3501 14.851C83.6458 12.5554 83.8672 10.6539 83.8422 10.6254C83.8026 10.5803 80.5957 11.1686 80.5495 11.2294C80.524 11.263 79.5529 18.8238 79.5544 18.9762C79.5558 19.1048 78.2415 20.7869 78.049 20.9029C77.9927 20.9368 77.8117 20.8427 77.6468 20.6937L77.347 20.4225L77.5087 19.29C77.5976 18.6671 77.7497 17.5101 77.8467 16.7189C77.9437 15.9278 78.1286 14.4815 78.2573 13.5052C78.3861 12.5287 78.4673 11.7063 78.4378 11.6774C78.4081 11.6486 77.6665 11.7742 76.7895 11.9564C75.2558 12.275 75.1924 12.2997 75.1238 12.6044C75.0845 12.7786 75.0331 12.9212 75.0094 12.9212C74.9857 12.9212 74.4746 12.69 73.8737 12.4074C73.2729 12.1247 72.773 11.9047 72.7628 11.9183C72.7527 11.9319 72.0575 12.7975 71.2181 13.8419C70.3786 14.8863 69.6528 15.8027 69.6052 15.8783C69.4679 16.0961 68.575 23.0262 68.6601 23.2131C68.6909 23.2808 69.1931 23.7246 69.7758 24.1993C70.3586 24.674 71.0419 25.2325 71.2942 25.4404L71.7528 25.8183L73.1215 24.0922C73.8742 23.1429 74.5345 22.3395 74.5886 22.3068C74.6428 22.2742 75.2117 22.6859 75.8528 23.2217C76.4939 23.7575 77.0465 24.1967 77.0806 24.1976C77.1148 24.1985 77.6193 23.5977 78.2017 22.8623C78.7843 22.1269 79.3857 21.3753 79.5383 21.1919L79.8157 20.8586L80.7774 21.689C81.3064 22.1458 81.827 22.5902 81.9342 22.6767C82.1083 22.8168 82.2663 22.659 83.3995 21.2128C84.6596 19.6045 84.6716 19.5934 84.9157 19.8021C85.0509 19.9179 85.5659 20.3591 86.0601 20.7825C86.5542 21.206 87.0118 21.5524 87.0767 21.5524C87.1417 21.5524 87.8978 20.8015 88.7571 19.8837C89.6164 18.9659 90.3538 18.2169 90.3959 18.219C90.4379 18.2212 91.0034 18.6337 91.6525 19.1356C92.757 19.9897 92.8378 20.0319 92.9121 19.7934C92.9559 19.6532 93.1327 18.3735 93.305 16.9497C93.4774 15.5258 93.632 14.3474 93.6488 14.3312C93.6655 14.3149 94.2496 15.4439 94.9468 16.8404C95.6441 18.2367 96.2606 19.3632 96.317 19.3436C96.3734 19.3242 97.167 18.5892 98.0805 17.7103C99.5979 16.2504 99.7592 16.127 99.9457 16.2822C100.058 16.3757 100.569 16.797 101.082 17.2183L102.015 17.9845L103.029 17.4458C103.588 17.1495 105.075 16.3468 106.335 15.6621C107.595 14.9775 108.683 14.4182 108.754 14.4193C108.825 14.4204 109.245 14.7314 109.687 15.1103L110.491 15.7994L111.044 15.4884C112.451 14.6971 116.252 12.5004 116.482 12.3458C116.668 12.2203 116.758 12.0084 116.81 11.569C116.85 11.2366 116.857 10.9648 116.827 10.9648C116.797 10.9648 115.69 11.5604 114.366 12.2883C113.041 13.0162 111.93 13.6103 111.896 13.6086C111.69 13.5984 110.973 12.7904 111.01 12.6114C111.034 12.497 111.086 12.1608 111.125 11.8642L111.196 11.325L113.432 10.0985C115.667 8.87285 115.668 8.87158 115.462 8.62116C115.349 8.48329 114.546 7.50417 113.678 6.44529C112.81 5.38653 112.066 4.52054 112.025 4.521C111.985 4.52134 111.228 5.13772 110.344 5.89071C109.017 7.02094 108.724 7.32706 108.668 7.64503C108.63 7.8569 108.458 9.19542 108.286 10.6196C108.114 12.0437 107.913 13.2695 107.838 13.3433C107.52 13.6589 103.599 15.677 103.46 15.5965C103.379 15.5492 103.141 15.3681 102.931 15.1939C102.555 14.8807 102.551 14.8686 102.632 14.1357C102.682 13.6744 102.786 13.3316 102.907 13.2286C103.013 13.1376 104.096 12.5344 105.313 11.8882C106.53 11.2421 107.526 10.6626 107.526 10.6006C107.526 10.4855 103.767 6.01627 103.67 6.01627C103.641 6.01627 102.863 6.64634 101.942 7.41647C101.021 8.18661 100.229 8.84799 100.183 8.88631C100.104 8.95076 99.6209 12.243 99.439 13.957C99.361 14.6925 99.3469 14.7172 98.5899 15.4335C98.1666 15.8342 97.7795 16.119 97.7297 16.0664C97.5929 15.9222 95.37 11.5804 95.37 11.4576C95.37 11.399 96.587 10.2672 98.0744 8.94259C99.5618 7.61798 100.757 6.51273 100.73 6.48672C100.704 6.4606 100.157 6.50445 99.515 6.5842L98.3482 6.7292L96.2986 8.43783C95.1268 9.41454 94.2338 10.0816 94.2136 9.9949C94.1807 9.85312 94.9409 3.64223 95.0915 2.82272C95.1563 2.46999 95.141 2.44951 94.8226 2.46332C94.6369 2.47126 93.9549 2.55216 93.3072 2.64296ZM114.406 3.36453C113.557 3.86974 113.691 5.14382 114.641 5.59656C116.109 6.2958 117.336 4.35217 116.05 3.36545C115.666 3.07061 114.901 3.07015 114.406 3.36453ZM115.797 3.5169C116.293 3.88781 116.402 4.65714 116.026 5.12368C115.352 5.9593 113.953 5.24268 114.192 4.18392C114.34 3.52473 115.284 3.13264 115.797 3.5169ZM114.803 3.67629C114.676 3.80012 114.713 5.21069 114.843 5.21069C114.908 5.21069 114.961 5.05533 114.961 4.86544C114.961 4.67555 115.011 4.52019 115.072 4.52019C115.133 4.52019 115.278 4.67555 115.393 4.86544C115.508 5.05533 115.643 5.21069 115.694 5.21069C115.832 5.21069 115.806 4.93035 115.655 4.78304C115.558 4.68856 115.57 4.58936 115.701 4.40741C115.953 4.05698 115.832 3.75213 115.408 3.66939C114.956 3.58135 114.9 3.58204 114.803 3.67629ZM115.551 4.1174C115.551 4.22477 115.439 4.29003 115.256 4.29003C115.072 4.29003 114.961 4.22477 114.961 4.1174C114.961 4.01003 115.072 3.94478 115.256 3.94478C115.439 3.94478 115.551 4.01003 115.551 4.1174ZM112.466 7.93884C112.8 8.33173 113.073 8.67674 113.073 8.70575C113.073 8.79666 111.524 9.60776 111.463 9.54861C111.378 9.46575 111.69 7.15788 111.781 7.19391C111.824 7.21082 112.132 7.54606 112.466 7.93884ZM28.3957 9.7179C27.5519 10.4123 26.118 11.5931 25.2093 12.3415C23.5083 13.7427 21.4017 15.4755 18.4364 17.9127C17.5024 18.6803 16.573 19.4514 16.3711 19.6262L16.004 19.944L16.6531 19.6681C17.0101 19.5163 18.0722 19.0293 19.0134 18.5862C23.9826 16.2457 25.4369 15.5792 25.4807 15.6217C25.5071 15.6476 25.4438 16.3323 25.3397 17.1433C25.2356 17.9542 24.8546 21.0518 24.493 24.0267C24.1314 27.0016 23.7339 30.2642 23.6097 31.2769C23.171 34.8524 23.1023 35.5508 23.1718 35.7276C23.247 35.9184 26.1924 38.067 26.2722 37.9892C26.3139 37.9487 27.7062 27.3355 28.1644 23.5664C28.2568 22.8068 28.4926 20.9584 28.6885 19.4586C28.8845 17.959 29.0448 16.6856 29.0448 16.6288C29.0448 16.5722 29.6624 16.0171 30.4172 15.3953C31.4913 14.5105 31.8296 14.2892 31.9731 14.3775C32.3831 14.6296 32.4027 14.8251 32.1923 16.5681C32.0792 17.5055 31.8546 19.3601 31.6932 20.6893C31.5319 22.0185 31.2962 23.9605 31.1694 25.0049C31.0428 26.0493 30.8069 27.9654 30.6451 29.2629C30.4833 30.5605 30.3196 32.0105 30.2812 32.4853L30.2115 33.3484L31.6453 34.3631C32.4339 34.9211 33.1506 35.4044 33.238 35.4371C33.4264 35.5077 33.4322 35.4764 33.7617 32.6003C33.8959 31.4294 34.1104 29.6168 34.2385 28.5725C34.3666 27.5281 34.7118 24.6539 35.0056 22.1854C35.8237 15.3111 35.9043 14.7163 36.0393 14.5553C36.1083 14.4729 36.5941 14.0588 37.1189 13.6351C37.6437 13.2113 38.2049 12.7483 38.3661 12.606L38.6592 12.3472L38.9465 12.6273C39.2322 12.9059 39.233 12.9136 39.096 14.0009C39.0203 14.6022 38.8501 15.9906 38.7179 17.0862C38.5858 18.1818 38.237 21.0719 37.9428 23.5088C37.3731 28.2274 37.073 30.7695 37.0711 30.8915C37.069 31.0259 40.1556 33.1973 40.2365 33.1185C40.28 33.0762 40.3776 32.5152 40.4537 31.8716C40.5297 31.228 40.6511 30.2095 40.7235 29.6082C40.9235 27.944 41.5355 22.7714 41.7923 20.5742C41.9181 19.4982 42.1277 17.7374 42.2582 16.6614C42.3886 15.5854 42.5835 13.943 42.6913 13.0117L42.8873 11.3185L42.5771 10.9402C42.4065 10.7322 41.8544 10.1382 41.3501 9.62031L40.4334 8.67847L38.0859 10.6273C36.7947 11.699 35.7007 12.576 35.6548 12.576C35.6087 12.576 35.1311 12.0848 34.5932 11.4845C33.6206 10.3992 33.6138 10.3942 33.3455 10.5926C33.1972 10.7024 32.2731 11.4567 31.2921 12.2688L29.5084 13.7456L29.5862 12.9593C29.6291 12.5269 29.7531 11.3541 29.8619 10.3532C29.9707 9.35216 30.0305 8.51563 29.9948 8.49411C29.9591 8.4727 29.2395 9.02337 28.3957 9.7179ZM104.155 9.65805C104.523 10.0786 104.782 10.4633 104.729 10.5128C104.553 10.68 103.126 11.4315 103.077 11.3831C102.994 11.3021 103.304 8.89333 103.398 8.89333C103.446 8.89333 103.787 9.23743 104.155 9.65805ZM52.1267 9.59591C51.4179 9.71606 50.8213 9.83079 50.8008 9.85082C50.7531 9.89731 50.5726 11.1862 50.3469 13.0938C50.0848 15.3084 49.3822 21.0364 49.0342 23.7965L48.7295 26.2133L48.0889 27.0764C46.9998 28.5436 47.1718 28.4219 46.6917 28.0649C46.3767 27.8306 46.2885 27.6922 46.3334 27.5016C46.3661 27.3627 46.4731 26.6341 46.5712 25.8826C46.6693 25.1311 46.9612 23.012 47.22 21.1734C47.4788 19.3349 47.6766 17.8171 47.6595 17.8003C47.6186 17.7604 44.3944 18.3983 44.3391 18.4574C44.3158 18.4824 44.1843 19.3572 44.0469 20.4016C43.9094 21.446 43.7199 22.8701 43.6256 23.5664C43.5313 24.2626 43.3183 25.868 43.1521 27.1339C42.986 28.3998 42.823 29.565 42.7899 29.7233C42.7366 29.9785 42.8985 30.1399 44.2238 31.1527C45.4732 32.1074 45.7393 32.2665 45.8489 32.1239C45.9211 32.0301 46.5581 31.1927 47.2645 30.2629C47.971 29.3331 48.5882 28.5725 48.636 28.5725C48.6839 28.5725 49.354 29.0643 50.125 29.6654C50.896 30.2665 51.5633 30.7584 51.6078 30.7587C51.6523 30.7589 52.3146 29.9304 53.0794 28.9177C53.8443 27.905 54.51 27.0764 54.5588 27.0764C54.6075 27.0764 55.317 27.6524 56.1354 28.3563C56.9537 29.0602 57.6647 29.5911 57.7155 29.5359C57.7661 29.4807 58.4561 28.5908 59.2489 27.5582C60.527 25.8931 60.7124 25.6976 60.8881 25.8296C60.9972 25.9114 61.5446 26.3807 62.1049 26.8726C62.6652 27.3644 63.1497 27.7669 63.1816 27.7669C63.2285 27.7669 66.3857 24.4558 67.3243 23.4224C67.4937 23.2358 67.6014 22.8492 67.709 22.0414C67.7911 21.4243 67.9718 20.0909 68.1106 19.0781C68.6787 14.9309 68.8154 13.8904 68.8159 13.71C68.8163 13.5394 68.6845 13.5483 67.4956 13.7991C66.7692 13.9522 66.1662 14.0893 66.1554 14.1036C66.1446 14.1179 65.9662 15.4502 65.759 17.0642C64.8588 24.0761 64.8336 24.2214 64.4569 24.5898L64.1165 24.9226L63.5211 24.4747C63.1936 24.2283 62.9235 23.949 62.9209 23.8541C62.9185 23.7591 63.1582 21.843 63.4536 19.596C63.7491 17.349 64.0213 15.269 64.0585 14.9737L64.1261 14.437L62.9012 14.7162C62.2276 14.8697 61.465 15.0595 61.2065 15.1378L60.7367 15.2804L60.2417 19.0781C59.9695 21.1669 59.6866 23.3843 59.6131 24.0057C59.4876 25.0666 59.4497 25.173 58.9916 25.7504L58.5037 26.3652L57.983 25.949C57.4897 25.555 57.4656 25.5083 57.5283 25.0675C57.8714 22.6513 58.6892 15.6666 58.6353 15.614C58.5035 15.4855 55.4506 16.1931 55.3582 16.3737C55.3096 16.4686 55.0302 18.5209 54.7374 20.9343L54.2051 25.3223L53.5377 26.2023L52.8702 27.0824L52.5421 26.8546C51.8873 26.3999 51.8938 26.4431 52.1608 24.3456C52.2959 23.2841 52.7518 19.6708 53.174 16.3162C53.5961 12.9615 53.9698 10.0226 54.0043 9.78522C54.0642 9.37392 54.0518 9.35424 53.7412 9.36551C53.5619 9.37207 52.8354 9.47565 52.1267 9.59591ZM47.4554 12.8675C47.0335 12.945 46.3048 13.0709 45.8361 13.1474C45.0117 13.2815 44.9817 13.298 44.9164 13.6503C44.7761 14.4053 44.5317 16.4331 44.5754 16.4782C44.6166 16.5208 47.8307 15.931 47.8939 15.8693C47.9437 15.8208 48.3028 12.7885 48.2625 12.7575C48.2405 12.7404 47.8773 12.79 47.4554 12.8675ZM74.7836 14.9927C74.7056 15.8365 74.1412 20.2204 74.0652 20.5742C74.0141 20.8113 72.8605 22.2461 72.7268 22.2388C72.6856 22.2365 72.5117 22.12 72.3402 21.9798C72.042 21.7361 72.0329 21.6952 72.1284 21.0345C72.1832 20.6548 72.4195 18.8422 72.6533 17.0067C72.8871 15.1711 73.0998 13.6058 73.1258 13.5284C73.1579 13.4329 73.4429 13.5253 74.013 13.8161L74.8528 14.2447L74.7836 14.9927ZM116.023 18.787C113.524 19.7211 111.028 20.6532 110.476 20.8581C109.924 21.0632 108.942 21.4293 108.293 21.6718C107.644 21.9142 104.192 23.1981 100.622 24.525C97.0518 25.8518 94.0373 26.9744 93.923 27.0196C93.6644 27.1222 93.6667 27.1153 94.5593 25.2395C94.9346 24.4509 95.2269 23.7911 95.2088 23.7736C95.1908 23.756 94.4099 23.9955 93.4733 24.3058C88.9714 25.7972 85.917 26.8148 82.5653 27.9397C80.5531 28.6152 77.8446 29.5207 76.5464 29.9522C70.9434 31.8144 68.7626 32.5412 64.9808 33.807C58.1213 36.1028 57.8311 36.1969 57.7751 36.1422C57.7451 36.1129 58.1474 35.2193 58.6693 34.1563C59.1912 33.0932 59.5944 32.2006 59.5655 32.1722C59.5133 32.1214 54.5781 33.9461 47.9864 36.4537C47.597 36.6018 44.623 37.7169 41.3775 38.9316C38.1321 40.1464 34.9987 41.3219 34.4145 41.5438C33.8304 41.7656 32.3168 42.3331 31.0511 42.8048C29.7853 43.2766 28.4311 43.7849 28.0416 43.9345C27.3666 44.1938 25.7023 44.819 19.2825 47.2254C17.7102 47.8146 16.4445 48.3167 16.4695 48.3411C16.4946 48.3656 18.8696 47.8086 21.7474 47.1034C24.6251 46.3982 31.8319 44.6307 37.7627 43.1757C43.6933 41.7208 48.571 40.5547 48.6017 40.5848C48.6323 40.6147 48.0896 41.7081 47.3954 43.0144C46.7012 44.3208 46.1587 45.4144 46.1899 45.4447C46.2209 45.4751 46.5848 45.3703 46.9984 45.2118C47.412 45.0533 49.7685 44.1917 52.235 43.297C54.7016 42.4024 58.7112 40.9449 61.1453 40.0583C63.5794 39.1716 66.8986 37.9645 68.5213 37.3758C75.0481 35.008 86.1085 30.9816 86.5454 30.8145C86.6805 30.7628 86.3701 31.4564 85.6224 32.8768C85.0027 34.054 84.5528 35.0171 84.6226 35.0171C84.6924 35.0171 85.8248 34.4805 87.1389 33.8247C88.453 33.1689 91.6525 31.5824 94.2489 30.2994C109.779 22.625 120.77 17.1736 120.852 17.1053C121.059 16.9318 119.977 17.3089 116.023 18.787Z" fill="#DCDCDC"/>
</svg>
