<svg width="145" height="54" viewBox="0 0 145 54" fill="none" xmlns="http://www.w3.org/2000/svg">
<path fill-rule="evenodd" clip-rule="evenodd" d="M111.759 9.94123C103.904 11.1435 97.9262 17.6189 97.2785 25.627L97.1406 27.3314H99.5362H101.932L102.067 25.7787C102.334 22.7048 103.591 20.1346 105.909 17.9207C108.235 15.699 110.883 14.6475 114.153 14.6475C117.419 14.6475 120.068 15.6984 122.397 17.9179C125.055 20.4503 126.212 23.1273 126.207 26.731C126.204 28.9181 125.88 30.4503 125.093 31.998C124.876 32.4247 124.743 32.8186 124.797 32.873C124.992 33.0683 127.108 32.3204 128.883 31.4294L130.688 30.5226L130.849 29.5773C131.119 27.9966 131.012 24.5429 130.644 22.971C129.21 16.828 124.374 11.886 118.27 10.3253C116.371 9.83996 113.519 9.67165 111.759 9.94123ZM111.559 16.524C111.559 16.634 111.646 16.7241 111.752 16.7241C111.858 16.7241 112.251 16.9943 112.626 17.3245C113.001 17.6547 113.413 17.9249 113.543 17.9249C113.672 17.9249 113.728 18.0044 113.669 18.1014C113.609 18.1987 113.748 18.5187 113.979 18.8125C114.515 19.497 114.336 19.6801 113.616 19.1826C112.201 18.2045 110.27 17.9467 109.272 18.6026C108.798 18.914 107.876 20.5009 108.061 20.6868C108.1 20.725 108.408 20.6124 108.748 20.4363C109.087 20.2601 109.365 20.1541 109.365 20.2003C109.365 20.2465 109.745 20.1719 110.209 20.0342C110.791 19.8619 111.264 19.8424 111.731 19.9719C112.104 20.075 112.557 20.1206 112.738 20.0732C112.919 20.0258 113.169 20.0958 113.293 20.2289C113.466 20.415 113.271 20.5265 112.449 20.711C110.945 21.0489 110.163 21.9493 110.163 23.3436C110.163 24.3299 110.699 25.7445 111.188 26.0475C111.357 26.1524 111.39 25.9648 111.309 25.3606C111.248 24.9035 111.278 24.5295 111.375 24.5295C111.472 24.5295 111.612 24.2817 111.686 23.9791C111.76 23.6765 111.874 23.3837 111.939 23.3286C112.005 23.2736 112.205 22.966 112.384 22.6452C112.68 22.116 114.035 21.3421 114.263 21.5714C114.315 21.6229 114.223 22.0442 114.06 22.5073C113.587 23.8536 112.795 27.8652 112.529 30.2644L112.284 32.4741L109.949 31.5205C107.08 30.3487 104.299 29.4452 102.582 29.1274C101.169 28.866 97.7114 28.7534 97.5003 28.9621C97.4283 29.0334 97.4271 29.4008 97.4977 29.7787L97.6262 30.4657L99.448 30.7091C102.078 31.0604 104.524 31.9486 108.424 33.9688C116.891 38.354 119.129 39.1523 122.898 39.1307C125.941 39.1135 126.352 38.8807 128.212 36.1224C128.926 35.0635 129.913 33.1572 129.913 32.8372C129.913 32.8014 129.211 33.0693 128.352 33.4328C125.871 34.4823 124.095 34.7985 121.269 34.6933C118.965 34.6076 115.852 33.9944 115.224 33.5026C114.808 33.1772 114.457 30.0915 114.477 26.9311C114.497 23.6903 114.793 22.0277 115.353 22.0277C115.768 22.0277 116.175 22.9386 116.054 23.5998C115.975 24.0309 116.017 24.1454 116.225 24.0653C116.44 23.9827 116.465 24.0772 116.337 24.4946C115.754 26.4012 115.746 26.8537 116.307 26.2907C116.81 25.7869 116.518 26.3491 115.928 27.0242C115.392 27.6366 115.36 27.7317 115.689 27.7317C116.307 27.7317 117.934 26.5809 118.163 25.9821C118.278 25.6785 118.374 25.0466 118.374 24.5779C118.375 24.1094 118.458 23.7769 118.558 23.8394C118.659 23.9016 118.741 23.8978 118.741 23.8308C118.741 23.6194 118.108 22.4448 117.769 22.0277C117.445 21.6285 117.446 21.6283 117.943 22.0211C118.218 22.2377 118.779 22.7288 119.19 23.1125C119.835 23.7143 119.94 23.7565 119.954 23.4193C119.962 23.2044 120.084 23.3887 120.224 23.829C120.442 24.5121 120.504 24.5725 120.644 24.2409C120.788 23.9 120.837 23.9369 121.042 24.5411L121.276 25.2299L121.422 24.5751C121.718 23.246 121.093 21.5016 120.081 20.8369C119.82 20.6654 118.806 20.352 117.827 20.1404C116.849 19.9289 116.143 19.7492 116.26 19.741C116.376 19.733 116.688 19.5236 116.953 19.2759C117.218 19.0281 117.461 18.855 117.493 18.8908C117.525 18.9266 117.82 18.8968 118.148 18.8243C118.53 18.7403 118.694 18.6086 118.605 18.4591C118.499 18.2814 118.534 18.2808 118.753 18.4571C119.066 18.7097 120.936 18.5868 120.936 18.3138C120.936 18.034 119.915 17.3371 119.227 17.1462C118.189 16.8588 116.787 17.2817 115.805 18.1793L115.362 18.5836L115.176 18.0918C115.073 17.8213 114.663 17.3129 114.265 16.9619C113.658 16.4279 113.379 16.3238 112.55 16.3238C112.005 16.3238 111.559 16.4139 111.559 16.524ZM98.1932 32.3899C98.1932 32.5248 98.5297 33.3043 98.9413 34.1225L99.6892 35.6099L101.516 36.0556C103.749 36.6004 105.809 37.556 109.453 39.7369C110.983 40.6527 113.259 41.8958 114.51 42.4992L116.785 43.5968L118.411 43.1611C120.152 42.6947 123.33 41.2566 123.33 40.9349C123.33 40.8281 122.808 40.7406 122.169 40.7406C119.005 40.7406 116.368 39.838 109.864 36.5279C104.35 33.722 102.513 32.9392 100.587 32.5742C98.3406 32.1483 98.193 32.1369 98.1932 32.3899ZM101.64 38.123C103.207 39.9913 106.029 41.8638 108.637 42.7654C110.067 43.2599 112.734 43.8063 112.917 43.6424C112.95 43.6126 111.962 43.0008 110.722 42.2829C109.482 41.5652 107.659 40.508 106.672 39.9336C105.066 39.0002 102.966 38.0486 101.595 37.6339L101.106 37.4862L101.64 38.123Z" fill="#DCDCDC"/>
<path fill-rule="evenodd" clip-rule="evenodd" d="M19.8361 20.4847C17.8288 21.2394 15.7582 23.2403 14.7803 25.3708C14.014 27.0393 13.9016 27.7138 14.0602 29.6835C14.5339 35.5713 20.0093 39.2945 25.7477 37.6306C33.1252 35.4922 34.5271 25.3153 27.9984 21.2902C26.5223 20.3803 25.7903 20.1822 23.6418 20.1107C22.2192 20.0635 20.5103 20.2315 19.8361 20.4847ZM37.1387 28.787L33.269 37.603L34.7632 37.717C35.5851 37.7797 36.3761 37.6981 36.5206 37.5356C36.665 37.373 37.9937 34.3442 39.4727 30.8046C40.9521 27.2654 42.251 24.3672 42.3598 24.3647C42.4682 24.3625 43.8377 27.3808 45.4025 31.0724L48.2481 37.7844H49.8686C51.2472 37.7844 51.4586 37.6898 51.2843 37.1495C51.1719 36.8005 49.472 32.8411 47.5073 28.3513L43.9348 20.188L42.4715 20.0795L41.0085 19.9706L37.1387 28.787ZM56.4275 20.7449C53.8064 22.162 52.8852 25.1447 54.3362 27.5172C55.1937 28.9202 56.3959 29.5776 59.547 30.3671C63.0442 31.2429 64.3839 32.8386 62.8099 34.2532C61.3728 35.5448 58.2889 35.2981 56.0564 33.7129L55.0264 32.9815L53.9676 33.9934C52.6858 35.2179 52.8826 35.5557 55.6678 36.9148C59.2956 38.6846 63.9091 38.0544 65.7526 35.5375C66.6062 34.3725 66.7572 31.7701 66.0477 30.4483C65.4324 29.3011 63.5412 28.2337 60.7179 27.4395C57.8876 26.6435 56.8976 25.9988 56.8976 24.9524C56.8976 22.9214 59.7028 22.3014 62.7182 23.6652L64.3548 24.4053L65.1741 23.4555C65.6249 22.9334 65.9935 22.3663 65.9935 22.1954C65.9935 22.0249 65.216 21.5079 64.2653 21.0467C61.8443 19.8723 58.294 19.7355 56.4275 20.7449ZM80.353 20.7079C78.5913 21.6058 77.5973 23.1489 77.5715 25.0268C77.5315 27.9039 79.2215 29.4274 83.6395 30.4977C86.003 31.0702 87.0974 31.8016 87.0905 32.8041C87.0825 33.9303 86.706 34.4092 85.4551 34.8834C84.082 35.404 82.2653 35.0731 80.1849 33.9234L78.5498 33.0196L77.729 33.9709C77.2779 34.4945 76.9108 35.0358 76.9129 35.1744C76.9228 35.707 79.5544 37.094 81.5508 37.6186C86.3378 38.8772 90.3734 36.6031 90.3691 32.6503C90.3661 30.0503 88.2741 28.3016 83.9524 27.2861C82.0066 26.8289 80.5469 25.8021 80.5469 24.8904C80.5469 24.5987 80.8744 24.0338 81.2746 23.6347C82.2559 22.6562 84.4436 22.691 86.5659 23.7192L88.2384 24.5294L88.9326 23.6285C89.9445 22.3151 89.8178 21.9244 88.0965 21.0478C85.8349 19.8963 82.2544 19.7392 80.353 20.7079ZM70.3595 29.0769V37.7844H71.8149H73.2702V29.0769V20.3694H71.8149H70.3595V29.0769ZM26.2491 23.8785C28.8178 25.7913 29.6164 29.1215 28.1796 31.9304C27.0204 34.1966 25.5866 34.9509 22.7432 34.7909C20.5696 34.6686 20.3375 34.5677 19.043 33.1836C16.2021 30.1468 17.0495 25.0392 20.6649 23.4047C22.1505 22.7331 25.0397 22.9784 26.2491 23.8785Z" fill="#DCDCDC"/>
</svg>
