<svg width="145" height="54" viewBox="0 0 145 54" fill="none" xmlns="http://www.w3.org/2000/svg">
<path fill-rule="evenodd" clip-rule="evenodd" d="M105.208 23.7328V35.4656H107.222C109.162 35.4656 109.241 35.4507 109.344 35.0686C109.402 34.8502 109.451 34.4929 109.453 34.2746C109.456 33.7464 109.643 33.7743 110.236 34.3907C110.507 34.6729 111.219 35.1289 111.817 35.4042C112.809 35.8601 113.08 35.904 114.853 35.8969C117.098 35.8881 118.145 35.57 119.628 34.4472C123.921 31.1948 123.6 23.0006 119.076 20.3573C116.536 18.8733 112.739 18.8804 110.777 20.3728L110.163 20.8396V16.4198V12H107.685H105.208V23.7328ZM132.46 13.0145L132.459 14.029L132.062 13.5561C130.794 12.0476 128.626 11.9552 127.296 13.3529C126.368 14.3275 126.193 15.6072 126.813 16.8831C127.761 18.8362 130.221 19.215 131.791 17.6497L132.461 16.9816V26.2237V35.4656H134.23H136V23.7328V12H134.23H132.461L132.46 13.0145ZM34.6868 19.2292C30.4009 20.1745 27.5197 23.6571 27.5197 27.8924C27.5197 31.2553 29.4582 34.2916 32.5303 35.7406C38.4295 38.523 45.053 34.2379 45.0367 27.6498C45.0322 25.8934 45.0218 25.8921 42.5135 27.3334L40.3053 28.6025L40.2161 29.3908C39.9489 31.755 37.2751 33.0601 35.1922 31.8432C34.3679 31.3616 33.8974 30.7352 34.2184 30.5471C34.3214 30.4866 36.6359 29.1669 39.3615 27.6143C42.5446 25.8011 44.32 24.6906 44.3244 24.51C44.3446 23.7067 42.2376 21.231 40.7658 20.3287C39.2007 19.3691 36.372 18.8576 34.6868 19.2292ZM15.9691 19.5669C14.8473 19.9367 14.229 20.2853 13.5045 20.9568L13.0272 21.3989L12.9146 20.8897C12.8525 20.6097 12.7713 20.2814 12.7338 20.16C12.6871 20.0092 12.2446 19.9395 11.3327 19.9395H10V30.9665V41.9936H11.7697H13.5393V38.1729C13.5393 34.5232 13.5533 34.365 13.8538 34.636C14.5381 35.2535 16.1936 35.8456 17.5136 35.9451C22.5658 36.326 26.1092 32.8554 26.1018 27.5331C26.0969 24.0077 24.4743 21.2359 21.6573 19.9414C20.5461 19.4308 20.155 19.3454 18.6839 19.292C17.3669 19.244 16.7631 19.3052 15.9691 19.5669ZM65.9291 19.5822C65.3982 19.7782 64.6711 20.1733 64.3133 20.46C63.6148 21.0196 63.4438 20.9981 63.4438 20.3511C63.4438 19.9411 63.4353 19.9395 61.1433 19.9395H58.8427V27.7025V35.4656H61.3202H63.7978L63.7985 30.4813C63.799 25.8191 63.8218 25.4599 64.1508 24.9221C64.716 23.9978 65.4894 23.6126 66.6135 23.6957C67.4663 23.7587 67.6454 23.8461 68.2504 24.4927L68.9298 25.2189V30.3421V35.4656H71.3188H73.7079L73.7157 31.0106C73.7199 28.5603 73.7905 26.2087 73.8726 25.7845C73.9738 25.2625 74.2246 24.8113 74.6486 24.3886C75.1777 23.861 75.4218 23.7531 76.2169 23.6945C77.324 23.6128 78.1018 24.0029 78.6638 24.9221C78.9928 25.4599 79.0156 25.8191 79.0161 30.4813L79.0169 35.4656H81.505H83.9931L83.9356 29.4227C83.8808 23.6433 83.8613 23.3436 83.4913 22.5472C82.9455 21.3726 81.8212 20.2267 80.7382 19.7408C79.9762 19.3991 79.517 19.3258 78.132 19.3258C76.0654 19.3258 74.9941 19.7398 73.8192 20.9919L73.0329 21.8301L72.4227 21.1023C71.0543 19.4702 68.103 18.7793 65.9291 19.5822ZM54.0991 19.7943C53.585 19.9088 53.0771 20.2124 52.5381 20.7274C51.7244 21.5046 51.6419 21.4905 51.5504 20.557L51.4986 20.0277L49.2423 19.9783L46.986 19.9289V27.6972V35.4656H49.4635H51.941V31.2255C51.941 27.7976 51.9934 26.8602 52.215 26.332C52.7876 24.9655 54.0099 24.18 55.7849 24.038L56.8961 23.9491V21.8767C56.8961 19.8767 56.8821 19.8004 56.4979 19.6978C55.9546 19.5526 55.0131 19.5905 54.0991 19.7943ZM124.674 27.7025V35.4656H127.152H129.629V27.7025V19.9395H127.152H124.674V27.7025ZM36.8422 23.307C37.262 23.5096 37.7642 23.8768 37.9586 24.1229L38.3116 24.5705L35.4547 26.2247C33.8834 27.1346 32.5333 27.879 32.4545 27.879C32.1988 27.879 31.9164 26.446 32.0346 25.7485C32.1956 24.7981 33.0594 23.6832 33.9457 23.282C34.9153 22.8432 35.8987 22.8517 36.8422 23.307ZM19.2253 24.1855C20.4299 24.7983 21.3258 26.2748 21.3258 27.6475C21.3258 29.3271 19.9742 31.0113 18.3059 31.4104C14.863 32.2338 12.2133 28.4928 14.0923 25.4615C15.0954 23.8434 17.4177 23.2661 19.2253 24.1855ZM115.843 24.1846C118.148 25.3491 118.642 28.3424 116.85 30.2814C115.52 31.7201 113.471 31.941 111.815 30.8241C110.589 29.9972 110.119 29.0143 110.198 27.4379C110.246 26.4693 110.356 26.0615 110.709 25.5481C111.91 23.8012 113.99 23.2488 115.843 24.1846ZM92.2893 24.6028C90.2806 25.1599 88.3938 26.5082 87.2847 28.1787C86.2523 29.7338 85.8906 30.8033 85.7826 32.6201C85.6251 35.2704 86.3972 37.3534 88.2497 39.2769C91.7145 42.8742 97.2451 42.9121 100.797 39.3628C102.045 38.1154 102.726 36.9215 103.167 35.208C104.337 30.6661 101.421 25.8219 96.7945 24.6204C95.5644 24.3011 93.4076 24.2926 92.2893 24.6028ZM95.72 29.1874C98.2534 29.9475 99.4085 32.7573 98.1658 35.1367C97.4569 36.4936 96.2061 37.2299 94.6094 37.2299C92.5801 37.2299 91.1474 36.1746 90.5876 34.2681C89.9539 32.1095 91.1695 29.8839 93.3511 29.2087C94.3846 28.8887 94.715 28.8857 95.72 29.1874Z" fill="#DCDCDC"/>
</svg>
