<svg width="81" height="40" viewBox="0 0 81 40" fill="none" xmlns="http://www.w3.org/2000/svg">
<path fill-rule="evenodd" clip-rule="evenodd" d="M38.8205 0.196311C36.6272 0.571178 35.021 1.16392 33.5674 2.1349C31.705 3.37885 30.6646 4.95755 30.1635 7.30021C30.0544 7.80994 30.0316 8.09731 30.0344 8.92262C30.0375 9.80445 30.0562 9.99495 30.1896 10.5001C30.4564 11.5104 30.9347 12.2514 31.5288 12.5745C31.7837 12.7132 31.8598 12.7308 31.9762 12.6778C32.2178 12.5678 32.2143 12.3682 31.9629 11.921L31.7365 11.5185L31.7496 10.8105C31.7675 9.85 31.8812 9.24722 32.148 8.70056C32.5403 7.89661 32.9836 7.53472 33.5725 7.53761C33.893 7.53914 34.0008 7.56315 34.8944 7.8313C36.2086 8.22569 36.6591 8.31354 38.0825 8.45289C39.5219 8.59383 40.9716 8.55395 42.5104 8.33112C43.2433 8.22492 43.6002 8.1402 44.7833 7.79118C45.8052 7.48976 46.1076 7.46693 46.4979 7.66174C46.8554 7.84015 47.0631 8.08386 47.3594 8.67277C47.6523 9.25484 47.7591 9.7995 47.7709 10.7715C47.7797 11.4944 47.7317 11.6909 47.4351 12.1442C47.3076 12.339 47.3625 12.5906 47.5512 12.6765C47.8223 12.8 48.4092 12.3912 48.7768 11.8229C49.2384 11.1092 49.5359 9.96445 49.5359 8.90233C49.5359 7.93088 49.2712 6.64852 48.8608 5.63195C48.5892 4.95926 48.5241 4.83661 48.102 4.20286C46.9635 2.49366 44.6663 1.07554 42.0381 0.459379C41.494 0.331886 39.8462 0.0399688 39.7229 0.0492904C39.6812 0.0524762 39.275 0.118612 38.8205 0.196311ZM41.0344 1.99265C43.0072 2.28923 44.7525 3.06746 45.7836 4.11041C45.9766 4.30557 46.1227 4.47649 46.1083 4.49023C46.0939 4.50392 45.8905 4.46622 45.6562 4.40646C45.18 4.28487 44.4252 4.24221 44.3356 4.33171C44.297 4.37029 44.3001 4.44858 44.3445 4.56198C44.3816 4.65649 44.4138 4.93295 44.4161 5.17631C44.4278 6.40003 43.5081 7.1851 41.7532 7.44947C41.0877 7.5497 38.7571 7.56652 38.112 7.47566C36.0081 7.17956 35.0271 6.16404 35.3779 4.64546C35.435 4.39802 35.4334 4.33254 35.3691 4.29283C35.2286 4.20611 34.3106 4.32268 33.7213 4.50221L33.5814 4.54481L33.6898 4.37938C33.9723 3.94852 35.0722 3.16652 35.9575 2.76705C36.7538 2.40776 38.041 2.06681 39.1053 1.9333C39.5676 1.87525 40.4303 1.9018 41.0344 1.99265ZM37.5674 4.34557C35.9184 4.3851 35.9486 4.3746 35.8277 4.95071C35.5943 6.06268 36.4668 6.89466 38.1015 7.11885C38.7776 7.21159 41.0758 7.19914 41.6838 7.0995C43.2184 6.84793 44.0066 6.1192 43.9097 5.04144C43.8681 4.57873 43.7582 4.42487 43.4413 4.38593C43.0309 4.33543 39.113 4.30847 37.5674 4.34557Z" fill="white"/>
<path fill-rule="evenodd" clip-rule="evenodd" d="M38.8205 0.196311C36.6272 0.571178 35.021 1.16392 33.5674 2.1349C31.705 3.37885 30.6646 4.95755 30.1635 7.30021C30.0544 7.80994 30.0316 8.09731 30.0344 8.92262C30.0375 9.80445 30.0562 9.99495 30.1896 10.5001C30.4564 11.5104 30.9347 12.2514 31.5288 12.5745C31.7837 12.7132 31.8598 12.7308 31.9762 12.6778C32.2178 12.5678 32.2143 12.3682 31.9629 11.921L31.7365 11.5185L31.7496 10.8105C31.7675 9.85 31.8812 9.24722 32.148 8.70056C32.5403 7.89661 32.9836 7.53472 33.5725 7.53761C33.893 7.53914 34.0008 7.56315 34.8944 7.8313C36.2086 8.22569 36.6591 8.31354 38.0825 8.45289C39.5219 8.59383 40.9716 8.55395 42.5104 8.33112C43.2433 8.22492 43.6002 8.1402 44.7833 7.79118C45.8052 7.48976 46.1076 7.46693 46.4979 7.66174C46.8554 7.84015 47.0631 8.08386 47.3594 8.67277C47.6523 9.25484 47.7591 9.7995 47.7709 10.7715C47.7797 11.4944 47.7317 11.6909 47.4351 12.1442C47.3076 12.339 47.3625 12.5906 47.5512 12.6765C47.8223 12.8 48.4092 12.3912 48.7768 11.8229C49.2384 11.1092 49.5359 9.96445 49.5359 8.90233C49.5359 7.93088 49.2712 6.64852 48.8608 5.63195C48.5892 4.95926 48.5241 4.83661 48.102 4.20286C46.9635 2.49366 44.6663 1.07554 42.0381 0.459379C41.494 0.331886 39.8462 0.0399688 39.7229 0.0492904C39.6812 0.0524762 39.275 0.118612 38.8205 0.196311ZM41.0344 1.99265C43.0072 2.28923 44.7525 3.06746 45.7836 4.11041C45.9766 4.30557 46.1227 4.47649 46.1083 4.49023C46.0939 4.50392 45.8905 4.46622 45.6562 4.40646C45.18 4.28487 44.4252 4.24221 44.3356 4.33171C44.297 4.37029 44.3001 4.44858 44.3445 4.56198C44.3816 4.65649 44.4138 4.93295 44.4161 5.17631C44.4278 6.40003 43.5081 7.1851 41.7532 7.44947C41.0877 7.5497 38.7571 7.56652 38.112 7.47566C36.0081 7.17956 35.0271 6.16404 35.3779 4.64546C35.435 4.39802 35.4334 4.33254 35.3691 4.29283C35.2286 4.20611 34.3106 4.32268 33.7213 4.50221L33.5814 4.54481L33.6898 4.37938C33.9723 3.94852 35.0722 3.16652 35.9575 2.76705C36.7538 2.40776 38.041 2.06681 39.1053 1.9333C39.5676 1.87525 40.4303 1.9018 41.0344 1.99265Z" fill="#0061A8"/>
<path fill-rule="evenodd" clip-rule="evenodd" d="M27.3684 8.30466C27.1736 8.32986 26.6688 8.39157 26.2467 8.44171C25.8245 8.49192 25.3995 8.54708 25.302 8.56443C25.2046 8.58171 24.8061 8.63865 24.4165 8.69098C24.0268 8.74331 23.1634 8.87759 22.4977 8.98938C21.8321 9.10124 21.128 9.21936 20.9332 9.25198C18.6582 9.63239 14.1964 10.6563 11.5756 11.3994C9.73778 11.9205 5.91829 13.1461 5.40607 13.3792C5.34113 13.4088 5.15515 13.4762 4.9928 13.529C4.38925 13.7255 1.73499 14.7976 0.914537 15.1763C0.668819 15.2897 0.443115 15.3825 0.413005 15.3825C0.382896 15.3825 0.358276 15.4218 0.358276 15.4698C0.358276 15.5844 0.60057 16.3412 0.658487 16.4076C0.683224 16.4359 1.23022 16.2333 1.87403 15.9575C2.51779 15.6815 3.29692 15.3579 3.60539 15.2382C3.91387 15.1185 4.29419 14.9677 4.45059 14.9032C5.97951 14.2726 9.77651 13.0414 12.6973 12.2293C13.4368 12.0237 15.7911 11.4343 16.5939 11.2537C16.9023 11.1843 17.3141 11.0912 17.509 11.0466C18.9501 10.7172 21.4508 10.2464 23.4423 9.92932C24.5262 9.75676 26.194 9.53127 27.1913 9.42254C28.0685 9.32685 28.0482 9.33422 28.0417 9.11298C28.0306 8.74307 27.903 8.27458 27.8112 8.26661C27.7625 8.26236 27.5632 8.27947 27.3684 8.30466ZM51.6356 8.31764C51.6227 8.35823 51.5822 8.57475 51.5455 8.79882C51.4958 9.10313 51.496 9.21676 51.5462 9.24779C51.5832 9.27068 51.8969 9.31977 52.2432 9.35688C53.9365 9.53835 55.805 9.80708 57.8322 10.1607C58.1245 10.2117 58.523 10.2802 58.7178 10.3131C60.2848 10.5774 64.7637 11.5755 66.3633 12.0168C69.6554 12.925 71.1093 13.3682 73.2413 14.1131C73.7608 14.2946 74.3351 14.4943 74.5174 14.5568C75.3718 14.8497 77.2738 15.6064 78.3863 16.0959C78.7483 16.2552 79.073 16.3855 79.1079 16.3855C79.1683 16.3855 79.4732 15.8279 79.5569 15.5644C79.5971 15.4377 79.5822 15.4288 78.5548 14.9671C76.6499 14.1113 72.5776 12.6731 69.3743 11.7249C66.4985 10.8736 62.1406 9.83363 59.3672 9.3367C59.075 9.28437 58.7164 9.2167 58.5702 9.18643C57.8857 9.04449 55.0176 8.60331 53.7881 8.4508C53.4147 8.40449 52.9099 8.33983 52.6664 8.30708C52.0494 8.22413 51.664 8.22809 51.6356 8.31764ZM50.5141 12.6798C50.4999 12.7223 50.3941 13.4342 50.2792 14.2616C50.1642 15.089 50.0292 16.0448 49.9791 16.3855C49.6277 18.7788 49.0072 23.2652 49.0065 23.4182C49.0062 23.4865 49.0676 23.5282 49.1979 23.548C49.4931 23.593 50.4422 23.7441 51.1443 23.8579C51.4924 23.9143 51.7887 23.9485 51.8027 23.934C51.8168 23.9195 51.8982 23.4032 51.9837 22.7867C52.2493 20.8719 52.2621 20.7855 52.3074 20.6038C52.3353 20.4916 52.382 20.4353 52.4351 20.45C52.4811 20.4628 52.891 20.4858 53.346 20.5012C54.6107 20.5441 55.1943 20.3561 55.8564 19.6925C56.5699 18.9772 56.8764 18.0786 56.8834 16.6805C56.8871 15.9348 56.8703 15.7748 56.7523 15.4336C56.4996 14.7031 55.8751 13.9927 55.1905 13.6571C54.3219 13.2311 53.8896 13.114 52.3121 12.8777C51.9712 12.8267 51.5594 12.7605 51.3971 12.7308C50.7451 12.6115 50.541 12.5997 50.5141 12.6798ZM40.4223 14.4443C40.4058 14.5222 40.3638 15.502 40.3289 16.6215C40.1962 20.8788 40.1509 22.2071 40.1277 22.5279C40.1146 22.7101 40.1209 22.8867 40.1418 22.9204C40.1822 22.9856 44.1649 23.1754 44.2318 23.1153C44.2524 23.0968 44.2875 22.6277 44.31 22.073L44.3507 21.0643L43.8946 21.0258C43.6438 21.0046 43.2316 20.9873 42.9786 20.9873C42.7212 20.9873 42.5018 20.96 42.4804 20.9253C42.4594 20.8913 42.4612 20.6099 42.4844 20.3001L42.5266 19.7368L43.3135 19.7571C43.7872 19.7693 44.1224 19.754 44.1559 19.7186C44.1866 19.6863 44.221 19.2218 44.2325 18.6864L44.2534 17.7129L43.4274 17.6539C42.4765 17.586 42.5337 17.6359 42.5997 16.9327L42.6407 16.4953L43.5651 16.5141L44.4895 16.533L44.5332 15.5323C44.5571 14.982 44.5571 14.514 44.5332 14.4925C44.5092 14.471 43.9981 14.437 43.3973 14.4171C42.7966 14.3972 41.8882 14.3632 41.3787 14.3416L40.4522 14.3024L40.4223 14.4443ZM34.1661 14.4235L33.702 14.4438L33.7373 15.2524C33.7708 16.022 33.7948 16.9007 33.8626 19.8368C33.8791 20.5507 33.909 21.5834 33.929 22.1316L33.9655 23.1285L34.6761 23.0903C35.0669 23.0693 35.572 23.0522 35.7985 23.0522H36.2105L36.172 21.3855L36.1336 19.7188L36.5818 20.9283C36.8282 21.5935 37.103 22.3235 37.1923 22.5507L37.3546 22.9637L38.5449 22.9597C39.1996 22.9574 39.7496 22.9412 39.7673 22.9235C39.7849 22.9059 39.4162 22.1112 38.9478 21.1576C38.1019 19.4352 38.0972 19.4232 38.2229 19.3353C38.5776 19.0874 38.8704 18.7523 39.0422 18.3977C39.2124 18.0462 39.2332 17.9437 39.2538 17.3545C39.2878 16.3837 39.0915 15.7308 38.5967 15.1691C38.3142 14.8483 37.6607 14.5215 37.1393 14.4403C36.7835 14.3848 35.2519 14.3762 34.1661 14.4235ZM30.9476 14.6359L29.8628 14.7516L29.901 15.2588C29.922 15.5378 29.966 16.0182 29.9987 16.3265C30.1476 17.7303 30.4067 20.7487 30.3844 20.8198C30.3708 20.8632 30.3432 20.9735 30.3231 21.0649C30.2766 21.2766 29.9578 21.4278 29.7358 21.3435C29.4021 21.2167 29.3811 21.1076 29.1111 18.0964C28.9027 15.7722 28.8142 14.9451 28.7693 14.9037C28.7456 14.8819 28.4207 14.8985 28.0473 14.9407C27.6739 14.9828 27.189 15.0353 26.9699 15.0572C26.6034 15.0937 26.5714 15.108 26.5714 15.2343C26.5714 15.6571 27.1178 21.1814 27.1907 21.4954C27.3127 22.0213 27.5744 22.5618 27.8648 22.8877C28.4636 23.5597 29.6258 23.7995 30.7606 23.485C31.7356 23.2148 32.3044 22.6309 32.5657 21.632C32.6801 21.1949 32.6631 20.3152 32.5095 18.7159C32.4596 18.1967 32.3795 17.3339 32.3314 16.7985C32.1905 15.2289 32.1168 14.5883 32.0733 14.5532C32.0508 14.5351 31.5442 14.5723 30.9476 14.6359ZM25.0068 15.3284C24.877 15.3572 23.9504 15.5161 22.9478 15.6814C21.9453 15.8467 21.0871 15.9964 21.0408 16.0142C20.9859 16.0352 20.9668 16.1002 20.986 16.2012C21.0022 16.2864 21.029 16.4622 21.0455 16.592C21.1255 17.2179 21.2744 18.0715 21.3105 18.1104C21.3327 18.1343 21.5831 18.1133 21.8671 18.0638C22.1511 18.0143 22.4058 17.9876 22.4332 18.0045C22.4605 18.0214 22.5141 18.2548 22.5522 18.5231C22.5903 18.7913 22.6473 19.1702 22.6789 19.3648C22.7105 19.5595 22.8413 20.4356 22.9696 21.3117C23.0979 22.1879 23.248 23.21 23.3032 23.5831C23.4091 24.2999 23.4625 24.4366 23.6135 24.3787C23.6648 24.3591 23.9461 24.3056 24.2387 24.2598C25.4095 24.0768 25.5986 24.0397 25.6321 23.9865C25.6513 23.956 25.6453 23.793 25.619 23.6244C25.5324 23.0716 25.2736 21.3353 25.0939 20.1023C24.997 19.4371 24.8784 18.6407 24.8305 18.3324C24.7045 17.5224 24.6666 17.5956 25.2578 17.5068C25.8973 17.4107 25.9927 17.3671 25.9486 17.1916C25.9302 17.1183 25.8569 16.6614 25.7857 16.1762L25.6563 15.294L25.4496 15.285C25.336 15.2801 25.1367 15.2996 25.0068 15.3284ZM53.493 15.5913C53.8147 15.7527 54.0169 16.1425 54.0217 16.6101C54.0298 17.4007 53.5959 17.9194 52.9267 17.9194C52.8198 17.9194 52.7199 17.8993 52.7048 17.8747C52.6895 17.8502 52.7539 17.3125 52.8477 16.68C52.9416 16.0476 53.0188 15.5096 53.0195 15.4847C53.0208 15.4292 53.2918 15.4902 53.493 15.5913ZM18.7488 16.3516C17.7141 16.5634 17.0351 17.2769 16.7984 18.4012C16.6877 18.927 16.6891 19.2887 16.8037 19.7825C17.0294 20.7552 17.505 21.2768 18.7619 21.9306C19.4284 22.2771 19.6127 22.592 19.3736 22.9754C19.091 23.4287 18.3365 23.3543 17.6418 22.8045C17.4559 22.6574 17.4204 22.6461 17.4204 22.7342C17.4204 22.9289 17.8993 25.2641 17.9496 25.315C17.9771 25.3427 18.2221 25.3793 18.4941 25.3962C20.4037 25.5153 21.6784 24.3917 21.6889 22.5802C21.6967 21.2554 21.1744 20.4464 19.8985 19.8066C19.5615 19.6376 19.2115 19.4198 19.1206 19.3226C18.7634 18.9405 19.0249 18.4504 19.586 18.4504C19.8859 18.4504 20.3629 18.6608 20.6226 18.9076C20.7116 18.9921 20.7996 19.046 20.8183 19.0273C20.837 19.0087 20.7603 18.5327 20.6479 17.9697C20.5356 17.4066 20.4269 16.8491 20.4064 16.7306C20.3583 16.452 20.3026 16.4133 19.8361 16.3337C19.3695 16.2542 19.2119 16.2568 18.7488 16.3516ZM36.6669 16.437C37.1774 16.7979 37.1308 17.8875 36.5908 18.2165C36.3699 18.3511 36.1614 18.3666 36.1172 18.2517C36.0922 18.1864 36.0521 16.4892 36.0713 16.3052C36.0795 16.2267 36.5016 16.3201 36.6669 16.437ZM57.7239 16.3117C57.6949 16.3596 57.6743 16.462 57.003 19.8898C56.5676 22.1132 56.5544 22.2069 56.5756 22.8986C56.603 23.7965 56.7249 24.1407 57.1956 24.6486C57.7521 25.2493 58.5628 25.558 59.5739 25.5543C60.3246 25.5515 60.7149 25.4022 61.1757 24.9417C61.6588 24.4589 61.9456 23.8428 62.1374 22.8752C62.8773 19.1431 63.1782 17.5404 63.1519 17.4718C63.1343 17.426 63.0762 17.3884 63.0228 17.3884C62.9694 17.3884 62.7095 17.3385 62.4453 17.2776C61.2407 16.9995 61.0395 16.9627 60.9965 17.0119C60.9715 17.0405 60.8132 17.7808 60.6447 18.6569C60.4762 19.533 60.3148 20.3427 60.2858 20.4563C60.2569 20.5699 60.2155 20.7822 60.1938 20.9283C60.1721 21.0743 60.131 21.2867 60.1024 21.4002C60.0738 21.5138 59.9936 21.8988 59.9243 22.2557C59.7535 23.134 59.6605 23.2881 59.3013 23.2881C59.0134 23.2881 58.8064 23.0718 58.8064 22.7709C58.8064 22.6458 58.9634 21.7486 59.1552 20.7771C59.3471 19.8057 59.6023 18.5106 59.7223 17.8991C59.8423 17.2876 59.9178 16.767 59.89 16.7421C59.841 16.6984 57.9622 16.2674 57.821 16.2674C57.7823 16.2675 57.7386 16.2874 57.7239 16.3117ZM5.40607 17.9199C4.87407 18.0375 4.46163 18.1696 3.19212 18.629C2.81871 18.7642 2.36039 18.9277 2.17371 18.9925C1.97753 19.0605 1.83424 19.1451 1.83424 19.193C1.83424 19.2386 1.88548 19.4286 1.94818 19.6153C2.01082 19.8021 2.21279 20.4327 2.39699 21.0168C2.58113 21.6008 2.79344 22.2645 2.86877 22.4917C2.9441 22.7188 3.15646 23.3825 3.34078 23.9666C3.52504 24.5507 3.80423 25.4268 3.96116 25.9135C4.21774 26.7094 4.87897 28.7959 5.03289 29.2952C5.06606 29.403 5.12451 29.5031 5.16271 29.5178C5.23155 29.5441 5.59989 29.4245 6.91155 28.9496C7.28497 28.8144 7.63985 28.6894 7.70013 28.6718C7.85185 28.6276 7.82322 28.4918 7.35298 27.0253C7.13613 26.3489 6.9181 25.6684 6.86851 25.513C6.81892 25.3576 6.78839 25.2234 6.80067 25.2148C6.81295 25.2061 7.01924 25.1218 7.25905 25.0274C9.11746 24.2961 9.97098 23.0415 9.74575 21.3723C9.60394 20.3216 9.185 19.3299 8.62957 18.7302C8.05808 18.1132 7.48676 17.8642 6.55732 17.8271C6.08359 17.8083 5.81208 17.8301 5.40607 17.9199ZM12.6678 17.8635C11.9869 17.9804 11.5099 18.2293 11.0638 18.7007C10.0628 19.7584 9.86985 21.6974 10.5625 23.7369C11.0004 25.0263 11.7613 26.0317 12.6199 26.4557C13.0063 26.6466 13.1285 26.6773 13.5874 26.6992C13.886 26.7135 14.2342 26.6942 14.394 26.6545C15.4108 26.4017 16.1628 25.6361 16.512 24.4976C16.6681 23.9886 16.6697 22.3264 16.5147 21.6952C15.8701 19.0713 14.3652 17.5723 12.6678 17.8635ZM64.7183 17.9991C64.6877 18.0364 64.284 19.0492 63.8211 20.2498C63.3582 21.4504 62.8098 22.8707 62.6023 23.4061C61.8102 25.4499 61.6297 25.9558 61.6784 25.9957C61.765 26.0666 63.4357 26.5756 63.7794 26.6358C63.9654 26.6684 63.959 26.6807 64.2674 25.707C64.3753 25.3663 64.5877 24.7026 64.7395 24.2321C64.8912 23.7616 65.1043 23.0713 65.2131 22.6982C65.4203 21.9873 65.4564 21.9798 65.3564 22.6687C65.3235 22.8958 65.2583 23.4268 65.2115 23.8486C65.0785 25.0502 64.9534 26.116 64.8986 26.5162C64.871 26.7179 64.8638 26.9064 64.8826 26.9351C64.9218 26.9948 66.5999 27.4962 66.6368 27.4593C66.6502 27.4459 67.047 26.6015 67.5186 25.5828C67.9902 24.5641 68.4007 23.6775 68.4308 23.6126C68.4609 23.5477 68.538 23.3619 68.602 23.1997C68.666 23.0374 68.7198 22.9352 68.7216 22.9726C68.7248 23.0391 67.9205 26.6932 67.7501 27.3863C67.7026 27.5798 67.6833 27.7571 67.7072 27.7802C67.7607 27.8321 69.7382 28.4209 69.8589 28.4209C69.9623 28.4209 69.901 28.7473 70.7286 23.7896C71.2064 20.928 71.3517 19.9385 71.3014 19.8903C71.2643 19.8549 70.8886 19.7258 70.4665 19.6035C70.0444 19.4812 69.5004 19.3177 69.2579 19.2402C69.0152 19.1627 68.7986 19.0994 68.7766 19.0994C68.721 19.0994 68.5515 19.4026 68.3149 19.9253C68.2048 20.1687 67.9839 20.6466 67.824 20.9873C67.4767 21.7274 67.256 22.2128 67.1936 22.3737C67.1685 22.4386 67.0901 22.6112 67.0194 22.7572C66.8977 23.0087 66.8925 23.0124 66.9217 22.8264C66.9756 22.4833 67.3723 19.1375 67.3847 18.9224C67.3964 18.7171 67.3941 18.715 66.9919 18.5808C66.7694 18.5065 66.4506 18.4082 66.2835 18.3624C66.1163 18.3165 65.8401 18.2379 65.6696 18.1877C64.8363 17.9422 64.7749 17.93 64.7183 17.9991ZM13.2893 20.2028C13.4817 20.3353 13.5567 20.4305 13.7323 20.7648C14.0755 21.4182 14.3322 22.3714 14.3879 23.1997C14.4303 23.8295 14.3542 24.1742 14.1344 24.3469C13.5982 24.7684 12.9998 24.0347 12.5997 22.4656C12.4244 21.7779 12.3562 20.8625 12.4574 20.5561C12.5907 20.1526 12.9778 19.9883 13.2893 20.2028ZM6.13602 20.4596C6.43044 20.626 6.6578 20.9656 6.77234 21.4102C6.89384 21.8817 6.82553 22.1745 6.52373 22.4761C6.34448 22.6552 6.04888 22.8063 5.9971 22.7453C5.96847 22.7116 5.25906 20.4951 5.27347 20.4844C5.51487 20.3062 5.84756 20.2966 6.13602 20.4596ZM73.4184 20.648C73.4042 20.6886 73.2474 21.12 73.07 21.6067C72.8925 22.0935 72.5047 23.1687 72.2084 23.9961C71.9119 24.8235 71.5534 25.8191 71.4116 26.2085C70.7093 28.1376 70.546 28.6086 70.571 28.6335C70.6185 28.681 72.6346 29.4893 72.6549 29.469C72.6735 29.4504 72.9211 28.7747 73.3741 27.5064C73.49 27.182 73.5911 26.9082 73.5986 26.8982C73.6063 26.8881 73.8143 26.9476 74.0609 27.0303C75.6901 27.5768 76.7011 27.1996 77.397 25.7855C77.6893 25.1917 77.7816 24.792 77.7845 24.1087C77.7872 23.4981 77.7821 23.4735 77.5598 23.0361C77.1173 22.1648 76.5209 21.7504 74.5788 20.9647C73.5706 20.5568 73.4608 20.5269 73.4184 20.648ZM75.3076 23.4061C75.4454 23.5499 75.4819 23.6478 75.5022 23.9286C75.5485 24.5672 75.1937 25.0586 74.6877 25.0569C74.2883 25.0556 74.2813 25.0189 74.5374 24.2793C74.8716 23.3142 74.9117 23.2291 75.0317 23.2291C75.0901 23.2291 75.2143 23.3088 75.3076 23.4061ZM79.4914 24.464C79.2261 24.5291 78.9563 24.7382 78.7739 25.0201C78.5554 25.358 78.5449 25.9798 78.7522 26.313C78.991 26.6968 79.2525 26.8517 79.6995 26.8742C80.1715 26.8981 80.4103 26.7889 80.6949 26.4191C80.8758 26.1841 80.8868 26.142 80.8868 25.6818C80.8868 25.2367 80.8717 25.1729 80.7153 24.9572C80.4182 24.5474 79.9389 24.3543 79.4914 24.464ZM80.1692 24.8565C80.6773 25.1596 80.7316 25.8962 80.2808 26.3687L80.0959 26.5625L80.0588 26.356C80.0383 26.2424 80.0038 26.0956 79.982 26.0296C79.9504 25.9339 79.9779 25.8964 80.1188 25.8433C80.3276 25.7645 80.4482 25.5087 80.3754 25.2996C80.317 25.1321 79.9588 24.9314 79.6964 24.9192C79.5116 24.9106 79.5102 24.9127 79.3102 25.5286C79.1229 26.1048 79.1163 26.1516 79.211 26.2208C79.3468 26.3199 79.4468 26.2321 79.4959 25.9704C79.5602 25.6276 79.6448 25.7008 79.7369 26.179C79.7589 26.2926 79.8339 26.4313 79.9037 26.4874C80.0287 26.5877 80.0265 26.5894 79.765 26.5904C79.4318 26.5918 79.1672 26.4362 79.0371 26.1623C78.8368 25.7405 78.9727 25.1593 79.335 24.8894C79.5359 24.7396 79.9461 24.7234 80.1692 24.8565ZM80.0307 25.332C80.1138 25.415 80.1159 25.4407 80.0452 25.5114C79.9191 25.6374 79.6456 25.5186 79.6881 25.3563C79.7262 25.2105 79.8971 25.1984 80.0307 25.332ZM36.3865 25.3947C36.3135 25.4087 36.2537 25.4324 36.2537 25.4473C36.2537 25.4621 36.5459 26.1269 36.9031 26.9244L37.5525 28.3745V29.7251V31.0758H38.1134H38.6743V29.7025V28.3292L38.9451 27.6818C39.094 27.3258 39.2778 26.8752 39.3535 26.6805C39.4291 26.4858 39.5729 26.1355 39.673 25.902C39.7731 25.6685 39.855 25.4486 39.855 25.4132C39.855 25.3699 39.6575 25.3544 39.2499 25.3657L38.6447 25.3825L38.3791 26.1925C38.2329 26.6379 38.0966 27.003 38.076 27.0037C38.0554 27.0044 38.025 26.9585 38.0082 26.9017C37.8785 26.4607 37.4762 25.4376 37.4181 25.4007C37.3437 25.3535 36.6224 25.3493 36.3865 25.3947ZM40.6934 25.4238C40.6434 25.4738 40.6226 25.8163 40.6227 26.589C40.6228 27.191 40.593 28.4346 40.5565 29.3527C40.5199 30.2708 40.5024 31.0343 40.5175 31.0494C40.5326 31.0646 40.9012 31.0794 41.3365 31.0822C42.0199 31.0868 42.1757 31.0696 42.4767 30.9559C43.0872 30.7256 43.4958 30.2005 43.7199 29.3585C43.8597 28.833 43.8247 27.3072 43.6625 26.8575C43.455 26.2822 43.0929 25.8539 42.6044 25.606C42.2005 25.401 40.8455 25.2719 40.6934 25.4238ZM34.669 25.4557L34.3537 25.4776L34.3961 26.5569L34.4385 27.6362L34.2981 27.6738C34.221 27.6944 34.0085 27.7117 33.8261 27.7121L33.4943 27.7129L33.4577 27.4917C33.4376 27.37 33.4208 27.1219 33.4205 26.9403C33.4201 26.7587 33.4023 26.3636 33.3809 26.0624L33.342 25.5146L32.844 25.5456C32.57 25.5627 32.3222 25.6003 32.2933 25.6292C32.2469 25.6756 32.3335 28.3327 32.4533 30.5322L32.4927 31.2569L33.0301 31.2401L33.5674 31.2232L33.5665 30.8103C33.5659 30.5831 33.5526 30.0522 33.537 29.6303L33.5084 28.8634L33.9807 28.828C34.2405 28.8086 34.4626 28.8005 34.4744 28.81C34.4861 28.8196 34.5185 29.3378 34.5464 29.9616C34.5742 30.5854 34.6178 31.1166 34.6433 31.142C34.6687 31.1674 34.9153 31.1696 35.1912 31.1468L35.6928 31.1053L35.6903 30.6333C35.685 29.6164 35.4924 25.5358 35.446 25.4563C35.4205 25.4127 35.2912 25.4126 34.669 25.4557ZM45.1416 25.6002C45.1172 25.6725 45.0625 26.4359 44.8399 29.8021C44.7908 30.5455 44.7716 31.1729 44.7972 31.1963C44.8716 31.2644 45.8026 31.3253 45.8401 31.2646C45.8585 31.2347 45.9057 30.7155 45.9449 30.1106C45.9841 29.5057 46.038 29.0109 46.0646 29.0109C46.0913 29.0109 46.1129 29.0441 46.1127 29.0846C46.1123 29.1543 46.242 29.6398 46.5656 30.7799C46.6438 31.0553 46.7295 31.3023 46.756 31.3288C46.8256 31.3984 47.7862 31.488 47.8461 31.4306C47.8738 31.404 47.8285 31.1473 47.7454 30.8602C47.2889 29.2819 47.1714 28.8058 47.2331 28.7853C47.4135 28.7252 47.6826 28.4175 47.8335 28.0989C47.976 27.7978 48.0023 27.6679 48.0023 27.2629C48.0024 26.2729 47.5385 25.7896 46.4562 25.652C45.5189 25.5327 45.1688 25.519 45.1416 25.6002ZM28.1255 25.9099C26.9363 26.2815 26.1975 27.8899 26.5431 29.3549C26.8398 30.612 27.5477 31.4051 28.5586 31.6125C28.8578 31.6739 28.9818 31.6729 29.2583 31.6066C29.4432 31.5622 29.6077 31.4914 29.6239 31.4492C29.6401 31.407 29.6307 31.153 29.6031 30.8848C29.5577 30.4442 29.5415 30.399 29.4347 30.4151C28.878 30.4991 28.7806 30.4926 28.5236 30.3551C28.0161 30.0834 27.6685 29.3447 27.6691 28.5389C27.6698 27.5789 28.0728 27.0289 28.8255 26.9607C29.0163 26.9434 29.1813 26.9131 29.1923 26.8934C29.2391 26.8089 29.1016 25.9152 29.0353 25.8731C28.924 25.8024 28.4019 25.8236 28.1255 25.9099ZM50.2221 26.0516C50.2025 26.0834 49.8179 27.1937 49.3675 28.5188C48.9172 29.844 48.5126 31.0345 48.4684 31.1642C48.4242 31.294 48.3876 31.4254 48.387 31.4563C48.3861 31.514 49.3557 31.6755 49.4295 31.6299C49.4522 31.6159 49.5301 31.4165 49.6026 31.1869C49.6751 30.9573 49.7632 30.7593 49.7983 30.7469C49.8334 30.7346 50.0613 30.7588 50.3048 30.8007L50.7476 30.8769L50.7955 31.3156C50.8218 31.5568 50.8633 31.7745 50.8878 31.7992C50.9418 31.854 51.9551 31.9831 51.9976 31.9407C52.0255 31.9129 51.9682 31.326 51.752 29.4238C51.5676 27.8018 51.4879 27.0746 51.4509 26.6805C51.4296 26.4533 51.3875 26.2366 51.3574 26.1989C51.3272 26.1611 51.1644 26.1136 50.9956 26.0932C50.8267 26.0727 50.5917 26.0421 50.4733 26.0249C50.3548 26.0077 50.2418 26.0197 50.2221 26.0516ZM23.7823 26.4362C23.0837 26.6972 22.75 27.2739 22.808 28.1198C22.8627 28.9175 23.2143 29.4006 24.0579 29.8368C24.5445 30.0885 24.7412 30.3027 24.7412 30.5809C24.7412 31.1062 24.2017 31.3185 23.5516 31.049C23.4981 31.0268 23.4409 31.0304 23.4245 31.057C23.3918 31.11 23.5299 32.0407 23.5833 32.127C23.6016 32.1566 23.7705 32.211 23.9587 32.248C24.2389 32.3031 24.3643 32.2988 24.6515 32.224C25.6267 31.9701 26.0666 31.0126 25.7306 29.875C25.6325 29.5428 25.215 29.1152 24.6952 28.8146C24.1728 28.5126 23.9935 28.3417 23.9162 28.0724C23.771 27.5663 24.253 27.2749 24.8204 27.5257C24.9704 27.592 25.1061 27.6254 25.1219 27.5999C25.1463 27.5604 25.0943 27.16 25.0008 26.6674C24.9871 26.5953 24.923 26.5081 24.8582 26.4735C24.6593 26.367 24.0261 26.3451 23.7823 26.4362ZM52.9358 26.425C52.8585 26.6616 52.7787 27.3768 52.8245 27.4226C52.8535 27.4515 53.0203 27.5023 53.1953 27.5355C53.3703 27.5686 53.5258 27.6081 53.5409 27.6232C53.5561 27.6384 53.443 28.4679 53.2895 29.4665C52.9146 31.9077 52.8901 32.0859 52.9244 32.1202C52.9841 32.1799 53.9274 32.3171 53.9702 32.2723C54.009 32.2318 54.1242 31.5353 54.4074 29.6303C54.594 28.3757 54.6791 27.8648 54.7062 27.8378C54.7221 27.8218 54.895 27.8353 55.0903 27.8676C55.3365 27.9083 55.4597 27.9071 55.4918 27.8638C55.555 27.7786 55.6952 26.8852 55.6522 26.8422C55.6332 26.8232 55.4119 26.774 55.1604 26.7329C54.4482 26.6164 53.3034 26.4185 53.1239 26.3808C53.0164 26.3581 52.9528 26.3731 52.9358 26.425ZM42.2855 26.7636C42.7631 27.263 42.8648 28.5158 42.4979 29.38C42.3555 29.7154 42.0372 30.0138 41.8218 30.0138H41.6673L41.7052 28.7306C41.7261 28.0249 41.7434 27.2256 41.7437 26.9543L41.7443 26.4612L41.9066 26.4992C41.9959 26.5201 42.1664 26.6391 42.2855 26.7636ZM46.543 26.6771C46.7348 26.7192 46.9391 27.0168 46.9394 27.2545C46.9401 27.6996 46.6306 28.0669 46.255 28.0669H46.0957L46.137 27.3779C46.1809 26.6445 46.1943 26.5847 46.3069 26.6191C46.3464 26.6312 46.4526 26.6574 46.543 26.6771ZM20.8446 27.0273C20.666 27.0637 20.4914 27.112 20.4565 27.1348C20.4118 27.1639 20.4167 27.3116 20.4732 27.6362C20.6205 28.4825 20.7894 29.4488 20.8733 29.9253C21.0171 30.7414 21.1931 31.7368 21.2779 32.213C21.3228 32.4654 21.3739 32.6863 21.3916 32.704C21.4092 32.7215 21.652 32.6906 21.9312 32.6353C22.3662 32.5489 22.4387 32.5176 22.4387 32.4162C22.4387 32.3073 21.6884 27.9633 21.5474 27.2557C21.4775 26.9051 21.4647 26.9009 20.8446 27.0273ZM57.4247 27.3336C56.7334 27.5868 56.1724 28.3648 55.8899 29.4625C55.5502 30.7822 55.7028 31.9921 56.2857 32.5999C56.7958 33.132 57.6158 33.2471 58.2502 32.8756C59.387 32.2098 60.0507 29.6268 59.433 28.2727C59.0746 27.4871 58.1659 27.0622 57.4247 27.3336ZM16.877 27.9384C16.5293 28.0253 16.2192 28.123 16.1877 28.1554C16.1508 28.1935 16.1602 28.3397 16.2144 28.5684C16.2606 28.7631 16.3236 29.0418 16.3546 29.1879C16.3856 29.3339 16.464 29.679 16.5288 29.9548C16.6702 30.5562 16.8945 31.5597 17.1519 32.7422C17.256 33.2207 17.3584 33.6293 17.3794 33.6503C17.4399 33.7109 18.5989 33.3886 18.9465 33.2146C19.3498 33.0126 19.7399 32.579 19.9047 32.1496C20.0912 31.6635 20.0817 30.7791 19.8817 30.0092C19.5532 28.7448 18.95 28.0168 18.0817 27.8368C17.6648 27.7504 17.6102 27.755 16.877 27.9384ZM50.6519 29.4828L50.6591 29.8663L50.3639 29.8458C50.2015 29.8346 50.0687 29.797 50.0687 29.7622C50.0687 29.7025 50.3519 28.6071 50.4994 28.0964C50.5646 27.8704 50.5692 27.8868 50.6061 28.4799C50.6272 28.8206 50.6479 29.2719 50.6519 29.4828ZM61.4363 28.3176C61.3679 28.5357 60.4697 31.6495 60.0976 32.9586C60.0016 33.2966 59.9342 33.6024 59.9479 33.638C59.9723 33.7016 60.739 33.9666 60.8984 33.9666C60.9818 33.9666 61.0584 33.7435 61.4095 32.4769C61.5152 32.0957 61.6207 31.7837 61.644 31.7837C61.6673 31.7837 61.7056 32.3081 61.7293 32.9489C61.7528 33.5897 61.7956 34.1589 61.8244 34.2137C61.8773 34.3145 62.8488 34.6665 62.9087 34.6065C62.9371 34.5782 62.9112 34.084 62.7912 32.3602L62.7594 31.9044L62.9821 31.8116C63.3147 31.6729 63.5831 31.3864 63.782 30.9578C63.9263 30.6467 63.9599 30.4963 63.9599 30.1613C63.96 29.2924 63.5856 28.907 62.3262 28.4798C61.5725 28.2241 61.4714 28.2057 61.4363 28.3176ZM58.3132 28.5668C58.5559 28.8377 58.56 29.6245 58.3237 30.5732C58.104 31.4556 57.7785 31.9615 57.4314 31.9598C57.2067 31.9588 57.1581 31.9286 57.0048 31.6952C56.7859 31.3621 56.8941 30.0696 57.2105 29.2376C57.5192 28.4257 57.9513 28.1628 58.3132 28.5668ZM18.2052 29.1757C18.7743 29.7299 19.0738 31.0979 18.7887 31.8411C18.6878 32.1042 18.3298 32.426 18.2438 32.3307C18.2018 32.2842 17.4794 29.093 17.4794 28.9542C17.4794 28.7942 17.9659 28.9426 18.2052 29.1757ZM62.5795 29.6276C62.9572 29.8227 62.9548 30.4539 62.5751 30.8022C62.4188 30.9455 62.3558 30.9663 62.1584 30.9399C62.0304 30.9227 61.9137 30.8967 61.899 30.8821C61.8844 30.8674 61.9427 30.6196 62.0288 30.3314C62.1148 30.0431 62.1985 29.7476 62.2147 29.6746C62.2492 29.5204 62.3476 29.5077 62.5795 29.6276ZM65.5093 29.7942C65.2196 29.9582 64.9426 30.3914 64.9029 30.7422C64.8236 31.4461 65.4106 32.1409 66.081 32.1364C66.551 32.1333 67.0508 31.7194 67.1917 31.2168C67.2889 30.8696 67.2353 30.5317 67.0302 30.2003C66.8058 29.8376 66.4917 29.6618 66.0681 29.6618C65.8404 29.6618 65.6734 29.7014 65.5093 29.7942ZM66.5775 30.1381C66.9095 30.4481 66.9888 30.8961 66.7828 31.2994C66.6705 31.5194 66.4435 31.7655 66.3963 31.7183C66.3824 31.7045 66.3526 31.5542 66.33 31.3844C66.2958 31.1269 66.3043 31.0758 66.381 31.0758C66.5038 31.0758 66.7175 30.7968 66.7175 30.6365C66.7175 30.5658 66.6658 30.4525 66.6025 30.3847C66.4674 30.2398 65.9004 30.0369 65.836 30.1106C65.8117 30.1385 65.7072 30.4233 65.6038 30.7436C65.4594 31.1914 65.4316 31.3447 65.4836 31.4073C65.5993 31.5467 65.7019 31.4976 65.7755 31.2675C65.8719 30.966 65.9372 30.9105 65.9763 31.0967C65.9943 31.1825 66.024 31.3257 66.0422 31.415C66.0604 31.5043 66.1334 31.6231 66.2046 31.6792C66.3321 31.7798 66.3304 31.7811 66.0681 31.7822C65.3882 31.785 65.0396 31.1169 65.3677 30.4397C65.5387 30.0867 65.7803 29.9412 66.1439 29.9726C66.3364 29.9892 66.4743 30.0417 66.5775 30.1381ZM66.3264 30.5579C66.4246 30.7144 66.2913 30.8207 66.1039 30.7353C65.9965 30.6865 65.9677 30.6375 65.9919 30.5451C66.0308 30.3963 66.2298 30.4039 66.3264 30.5579ZM37.3459 33.0568C34.6245 33.142 30.5997 33.487 28.0178 33.8564C27.5632 33.9215 27.0319 33.9976 26.837 34.0255C25.7018 34.1885 24.8969 34.3273 23.0881 34.6719C21.6908 34.9382 19.851 35.3391 19.0144 35.5597C18.9008 35.5896 18.1968 35.7746 17.4499 35.9708C14.586 36.7231 10.8638 37.9594 9.24788 38.6952C9.16434 38.7332 9.09597 38.7864 9.09597 38.8133C9.09597 38.9416 9.47494 39.6893 9.54 39.6893C9.58068 39.6893 10.1018 39.4926 10.6981 39.252C13.4545 38.1402 18.0137 36.7937 21.4941 36.0636C30.0715 34.2642 38.4544 33.6696 46.4378 34.2943C48.6197 34.4651 52.0268 34.9009 53.5815 35.2081C53.7438 35.2402 54.1423 35.3183 54.4671 35.3818C56.5341 35.7857 58.3359 36.2038 59.81 36.6217C62.8138 37.473 65.5365 38.4073 67.7212 39.3361C68.3095 39.5863 68.5351 39.6576 68.5827 39.6084C68.6501 39.539 68.902 38.8685 68.902 38.7589C68.902 38.606 64.7125 37.0737 62.4963 36.416C62.204 36.3293 61.8985 36.2346 61.8173 36.2057C61.3198 36.0283 57.5679 35.0811 56.4448 34.8494C56.1039 34.7791 55.7187 34.6991 55.5888 34.6717C52.1592 33.9489 48.423 33.4435 44.46 33.1662C43.2747 33.0832 38.7314 33.0134 37.3459 33.0568Z" fill="white"/>
</svg>
