<svg width="104" height="157" viewBox="0 0 104 157" fill="none" xmlns="http://www.w3.org/2000/svg">
<g clip-path="url(#clip0_1_983)">
<g filter="url(#filter0_d_1_983)">
<mask id="path-1-inside-1_1_983" fill="white">
<path d="M6.57486 71.8629C7.01049 74.2367 9.03571 75.9974 11.4158 76.1897L56.694 79.8478L30.3417 137.039C29.0973 139.733 30.2668 142.908 32.9612 144.152C35.6555 145.396 38.8301 144.227 40.0745 141.533L69.6716 77.3599C70.4278 75.7669 70.2909 73.9306 69.442 72.4361C68.5365 70.9369 66.9618 69.9541 65.2617 69.8168L31.2039 67.0651L111.153 26.3536L60.7636 139.611C60.6932 139.776 60.6228 139.942 60.6136 140.055C60.6091 140.112 60.6045 140.168 60.5432 140.22C60.5341 140.334 60.4683 140.442 60.4591 140.556C60.4545 140.612 60.4499 140.669 60.4454 140.726C60.4362 140.839 60.4271 140.952 60.4225 141.009C60.4179 141.066 60.4133 141.122 60.4087 141.179C60.395 141.349 60.3859 141.462 60.3721 141.633C60.3675 141.689 60.363 141.746 60.3584 141.803C60.3492 141.916 60.3446 141.973 60.3922 142.09C60.3876 142.147 60.383 142.204 60.4351 142.265C60.4259 142.378 60.478 142.44 60.4689 142.553C60.4643 142.61 60.4597 142.666 60.5118 142.728C60.5593 142.845 60.5502 142.959 60.5977 143.077L60.5931 143.133C60.636 143.308 60.6835 143.426 60.7265 143.6C60.7219 143.657 60.7786 143.662 60.774 143.718C60.8215 143.836 60.8736 143.898 60.9211 144.015C60.9165 144.072 60.9686 144.133 61.0253 144.138C61.0728 144.256 61.1249 144.317 61.1724 144.435C61.2245 144.496 61.2199 144.553 61.2766 144.558C61.3241 144.675 61.4328 144.741 61.4803 144.859C61.5324 144.92 61.5279 144.977 61.5845 144.982C61.6887 145.104 61.7408 145.165 61.845 145.288C61.8971 145.349 61.9492 145.41 62.0012 145.472C62.0533 145.533 62.0533 145.533 62.1054 145.594C62.1054 145.594 62.1054 145.594 62.1621 145.599C62.375 145.787 62.5359 145.914 62.7488 146.102C62.8055 146.107 62.8009 146.164 62.8576 146.168C63.0184 146.295 63.2405 146.37 63.4014 146.497C63.458 146.502 63.5101 146.563 63.5668 146.568C63.5668 146.568 63.6235 146.572 63.6189 146.629C63.841 146.704 64.0064 146.774 64.2285 146.849C64.2852 146.854 64.3418 146.859 64.3418 146.859C64.5639 146.934 64.7906 146.952 64.956 147.022C65.0127 147.027 65.0127 147.027 65.0694 147.031C65.2961 147.05 65.5794 147.073 65.8061 147.091C65.8627 147.095 65.8627 147.095 65.9194 147.1C66.1461 147.118 66.3773 147.08 66.6086 147.042L66.6653 147.046C66.8965 147.008 67.1278 146.97 67.3636 146.875C67.4203 146.879 67.4815 146.827 67.5382 146.832C67.774 146.737 68.0098 146.642 68.189 146.542L179.394 88.9055C181.534 87.8236 182.643 85.4034 182.202 83.0863C181.705 80.7646 179.737 79.0085 177.357 78.8162L133.382 75.2634L158.6 19.4067C159.844 16.7123 158.618 13.5332 155.924 12.2888C155.319 12.0118 154.761 11.8527 154.138 11.8023C151.928 11.6237 149.778 12.8189 148.806 14.9649L120.404 77.7512C119.705 79.3489 119.785 81.1806 120.691 82.6797C121.596 84.1788 123.114 85.1571 124.871 85.299L157.795 87.959L76.7211 129.892L127.04 16.7998C127.11 16.6344 127.181 16.469 127.19 16.3556C127.194 16.299 127.199 16.2423 127.26 16.1902C127.269 16.0769 127.335 15.9681 127.344 15.8548C127.349 15.7981 127.354 15.7414 127.358 15.6848C127.367 15.5714 127.376 15.4581 127.386 15.3448C127.39 15.2881 127.395 15.2314 127.399 15.1748C127.413 15.0048 127.422 14.8914 127.436 14.7214C127.441 14.6647 127.445 14.6081 127.45 14.5514C127.459 14.4381 127.463 14.3814 127.416 14.2635C127.421 14.2068 127.425 14.1501 127.373 14.0889C127.382 13.9756 127.33 13.9143 127.339 13.801C127.344 13.7443 127.348 13.6876 127.296 13.6264C127.249 13.5085 127.263 13.3385 127.215 13.2206L127.22 13.1639C127.177 12.9893 127.129 12.8714 127.086 12.6968C127.091 12.6401 127.034 12.6355 127.039 12.5789C126.991 12.461 126.944 12.3431 126.892 12.2818C126.896 12.2251 126.844 12.1639 126.844 12.1639C126.797 12.046 126.744 11.9847 126.697 11.8668C126.645 11.8056 126.645 11.8056 126.593 11.7443C126.545 11.6264 126.441 11.5039 126.389 11.4427C126.337 11.3814 126.341 11.3247 126.285 11.3202C126.233 11.2589 126.129 11.1364 126.076 11.0752C126.024 11.0139 125.972 10.9527 125.92 10.8914C125.868 10.8302 125.868 10.8302 125.816 10.7689C125.816 10.7689 125.759 10.7644 125.764 10.7077C125.551 10.5194 125.39 10.3923 125.177 10.204C125.121 10.1994 125.125 10.1427 125.068 10.1382C124.908 10.0111 124.685 9.9361 124.525 9.80903C124.468 9.80445 124.416 9.7432 124.359 9.73862C124.303 9.73404 124.303 9.73404 124.25 9.67281C124.085 9.60241 123.863 9.52742 123.697 9.45702C123.641 9.45244 123.641 9.45244 123.584 9.44786C123.362 9.37288 123.135 9.35456 122.857 9.275L122.8 9.27043C122.687 9.26127 122.63 9.25669 122.517 9.24753C122.347 9.2338 122.233 9.22464 122.063 9.21091C122.063 9.21091 122.063 9.21091 122.007 9.20633C121.78 9.18801 121.492 9.22179 121.261 9.26015L121.204 9.25557C120.973 9.29392 120.685 9.32769 120.449 9.42271C120.449 9.42271 120.392 9.41813 120.388 9.4748C120.152 9.56983 119.916 9.66485 119.68 9.75988L9.33608 65.9258C7.29946 67.1302 6.13922 69.4891 6.57486 71.8629Z"/>
</mask>
<path d="M6.57486 71.8629C7.01049 74.2367 9.03571 75.9974 11.4158 76.1897L56.694 79.8478L30.3417 137.039C29.0973 139.733 30.2668 142.908 32.9612 144.152C35.6555 145.396 38.8301 144.227 40.0745 141.533L69.6716 77.3599C70.4278 75.7669 70.2909 73.9306 69.442 72.4361C68.5365 70.9369 66.9618 69.9541 65.2617 69.8168L31.2039 67.0651L111.153 26.3536L60.7636 139.611C60.6932 139.776 60.6228 139.942 60.6136 140.055C60.6091 140.112 60.6045 140.168 60.5432 140.22C60.5341 140.334 60.4683 140.442 60.4591 140.556C60.4545 140.612 60.4499 140.669 60.4454 140.726C60.4362 140.839 60.4271 140.952 60.4225 141.009C60.4179 141.066 60.4133 141.122 60.4087 141.179C60.395 141.349 60.3859 141.462 60.3721 141.633C60.3675 141.689 60.363 141.746 60.3584 141.803C60.3492 141.916 60.3446 141.973 60.3922 142.09C60.3876 142.147 60.383 142.204 60.4351 142.265C60.4259 142.378 60.478 142.44 60.4689 142.553C60.4643 142.61 60.4597 142.666 60.5118 142.728C60.5593 142.845 60.5502 142.959 60.5977 143.077L60.5931 143.133C60.636 143.308 60.6835 143.426 60.7265 143.6C60.7219 143.657 60.7786 143.662 60.774 143.718C60.8215 143.836 60.8736 143.898 60.9211 144.015C60.9165 144.072 60.9686 144.133 61.0253 144.138C61.0728 144.256 61.1249 144.317 61.1724 144.435C61.2245 144.496 61.2199 144.553 61.2766 144.558C61.3241 144.675 61.4328 144.741 61.4803 144.859C61.5324 144.92 61.5279 144.977 61.5845 144.982C61.6887 145.104 61.7408 145.165 61.845 145.288C61.8971 145.349 61.9492 145.41 62.0012 145.472C62.0533 145.533 62.0533 145.533 62.1054 145.594C62.1054 145.594 62.1054 145.594 62.1621 145.599C62.375 145.787 62.5359 145.914 62.7488 146.102C62.8055 146.107 62.8009 146.164 62.8576 146.168C63.0184 146.295 63.2405 146.37 63.4014 146.497C63.458 146.502 63.5101 146.563 63.5668 146.568C63.5668 146.568 63.6235 146.572 63.6189 146.629C63.841 146.704 64.0064 146.774 64.2285 146.849C64.2852 146.854 64.3418 146.859 64.3418 146.859C64.5639 146.934 64.7906 146.952 64.956 147.022C65.0127 147.027 65.0127 147.027 65.0694 147.031C65.2961 147.05 65.5794 147.073 65.8061 147.091C65.8627 147.095 65.8627 147.095 65.9194 147.1C66.1461 147.118 66.3773 147.08 66.6086 147.042L66.6653 147.046C66.8965 147.008 67.1278 146.97 67.3636 146.875C67.4203 146.879 67.4815 146.827 67.5382 146.832C67.774 146.737 68.0098 146.642 68.189 146.542L179.394 88.9055C181.534 87.8236 182.643 85.4034 182.202 83.0863C181.705 80.7646 179.737 79.0085 177.357 78.8162L133.382 75.2634L158.6 19.4067C159.844 16.7123 158.618 13.5332 155.924 12.2888C155.319 12.0118 154.761 11.8527 154.138 11.8023C151.928 11.6237 149.778 12.8189 148.806 14.9649L120.404 77.7512C119.705 79.3489 119.785 81.1806 120.691 82.6797C121.596 84.1788 123.114 85.1571 124.871 85.299L157.795 87.959L76.7211 129.892L127.04 16.7998C127.11 16.6344 127.181 16.469 127.19 16.3556C127.194 16.299 127.199 16.2423 127.26 16.1902C127.269 16.0769 127.335 15.9681 127.344 15.8548C127.349 15.7981 127.354 15.7414 127.358 15.6848C127.367 15.5714 127.376 15.4581 127.386 15.3448C127.39 15.2881 127.395 15.2314 127.399 15.1748C127.413 15.0048 127.422 14.8914 127.436 14.7214C127.441 14.6647 127.445 14.6081 127.45 14.5514C127.459 14.4381 127.463 14.3814 127.416 14.2635C127.421 14.2068 127.425 14.1501 127.373 14.0889C127.382 13.9756 127.33 13.9143 127.339 13.801C127.344 13.7443 127.348 13.6876 127.296 13.6264C127.249 13.5085 127.263 13.3385 127.215 13.2206L127.22 13.1639C127.177 12.9893 127.129 12.8714 127.086 12.6968C127.091 12.6401 127.034 12.6355 127.039 12.5789C126.991 12.461 126.944 12.3431 126.892 12.2818C126.896 12.2251 126.844 12.1639 126.844 12.1639C126.797 12.046 126.744 11.9847 126.697 11.8668C126.645 11.8056 126.645 11.8056 126.593 11.7443C126.545 11.6264 126.441 11.5039 126.389 11.4427C126.337 11.3814 126.341 11.3247 126.285 11.3202C126.233 11.2589 126.129 11.1364 126.076 11.0752C126.024 11.0139 125.972 10.9527 125.92 10.8914C125.868 10.8302 125.868 10.8302 125.816 10.7689C125.816 10.7689 125.759 10.7644 125.764 10.7077C125.551 10.5194 125.39 10.3923 125.177 10.204C125.121 10.1994 125.125 10.1427 125.068 10.1382C124.908 10.0111 124.685 9.9361 124.525 9.80903C124.468 9.80445 124.416 9.7432 124.359 9.73862C124.303 9.73404 124.303 9.73404 124.25 9.67281C124.085 9.60241 123.863 9.52742 123.697 9.45702C123.641 9.45244 123.641 9.45244 123.584 9.44786C123.362 9.37288 123.135 9.35456 122.857 9.275L122.8 9.27043C122.687 9.26127 122.63 9.25669 122.517 9.24753C122.347 9.2338 122.233 9.22464 122.063 9.21091C122.063 9.21091 122.063 9.21091 122.007 9.20633C121.78 9.18801 121.492 9.22179 121.261 9.26015L121.204 9.25557C120.973 9.29392 120.685 9.32769 120.449 9.42271C120.449 9.42271 120.392 9.41813 120.388 9.4748C120.152 9.56983 119.916 9.66485 119.68 9.75988L9.33608 65.9258C7.29946 67.1302 6.13922 69.4891 6.57486 71.8629Z" stroke="#0E73A3" stroke-width="1.65546" mask="url(#path-1-inside-1_1_983)"/>
</g>
</g>
<defs>
<filter id="filter0_d_1_983" x="-14.2094" y="-11.492" width="217.2" height="179.29" filterUnits="userSpaceOnUse" color-interpolation-filters="sRGB">
<feFlood flood-opacity="0" result="BackgroundImageFix"/>
<feColorMatrix in="SourceAlpha" type="matrix" values="0 0 0 0 0 0 0 0 0 0 0 0 0 0 0 0 0 0 127 0" result="hardAlpha"/>
<feOffset/>
<feGaussianBlur stdDeviation="10.3466"/>
<feColorMatrix type="matrix" values="0 0 0 0 0.00784314 0 0 0 0 0.662745 0 0 0 0 0.882353 0 0 0 0.63 0"/>
<feBlend mode="normal" in2="BackgroundImageFix" result="effect1_dropShadow_1_983"/>
<feBlend mode="normal" in="SourceGraphic" in2="effect1_dropShadow_1_983" result="shape"/>
</filter>
<clipPath id="clip0_1_983">
<rect width="103" height="156" fill="white" transform="translate(0.726562 0.332031)"/>
</clipPath>
</defs>
</svg>
