<svg width="136" height="52" viewBox="0 0 136 52" fill="none" xmlns="http://www.w3.org/2000/svg">
<path fill-rule="evenodd" clip-rule="evenodd" d="M63.5381 11.1526C63.1047 11.1686 61.9227 11.2246 60.9114 11.2771C41.8952 12.2655 26.6553 17.5928 23.9719 24.1898C23.7114 24.83 23.7003 24.9087 23.7007 26.1237C23.701 27.3432 23.7109 27.4129 23.9683 28.0033C24.722 29.7328 26.2817 31.2653 28.7611 32.713C29.6601 33.2379 31.0943 33.931 31.1554 33.8701C31.175 33.8505 31.0423 33.7226 30.8604 33.5858C29.8531 32.8282 28.8336 31.6579 28.3477 30.7014C25.8877 25.8584 31.3749 20.6291 42.8618 16.8695C50.323 14.4275 59.3706 12.8929 69.667 12.3231C70.5338 12.2751 72.5826 12.1531 74.2199 12.052C75.8572 11.9509 78.8122 11.8428 80.7865 11.8118L84.3763 11.7554L82.2893 11.5971C78.0755 11.2777 75.3632 11.1806 69.8421 11.1521C66.8083 11.1364 63.9715 11.1367 63.5381 11.1526ZM84.4493 11.8573C84.4814 11.8893 84.5339 11.8893 84.566 11.8573C84.5981 11.8252 84.5718 11.799 84.5076 11.799C84.4435 11.799 84.4172 11.8252 84.4493 11.8573ZM99.0856 13.755C105.692 15.6878 109.204 18.3885 109.197 21.5321C109.194 23.1333 108.488 24.5975 106.931 26.2344C101.969 31.4522 89.6938 35.934 75.4457 37.7304C70.7499 38.3224 65.913 38.6137 60.7801 38.6137C49.538 38.6137 39.6221 37.1435 32.5471 34.4276C31.9231 34.1881 31.3985 34.0061 31.3812 34.0233C31.3641 34.0405 31.7013 34.2712 32.1305 34.5362C36.0718 36.9683 41.7658 38.7521 49.0477 39.8358C54.2747 40.6138 58.7963 40.9236 64.8952 40.9217C74.5378 40.9189 84.132 39.917 92.5166 38.0375C103.786 35.5112 110.959 31.6697 112.717 27.2177C112.969 26.5812 112.998 26.4076 113.032 25.329C113.064 24.333 113.041 24.0266 112.89 23.4316C112.118 20.3874 109.788 17.8936 105.915 15.9668C104.014 15.0213 102.035 14.3115 99.7878 13.7699C97.9528 13.3276 97.5992 13.3201 99.0856 13.755ZM65.7502 18.1534C65.6758 18.2375 64.888 19.4461 63.9996 20.8393C61.2812 25.1024 58.3154 29.7321 58.0975 30.0527C57.9838 30.22 57.8908 30.3871 57.8908 30.4239C57.8908 30.4608 59.2206 30.4903 60.8458 30.4893L63.8008 30.4877L64.4574 29.4429L65.1141 28.398L67.232 28.3964L69.3498 28.3947L69.4024 28.7659C69.4313 28.9701 69.4829 29.4319 69.5172 29.7922L69.5794 30.4473L72.5619 30.4703L75.5444 30.4933L74.8599 24.3561C74.4834 20.9806 74.1571 18.1698 74.1347 18.1098C74.103 18.0245 73.1931 18.0006 69.9897 18.0006C66.1909 18.0006 65.8754 18.0119 65.7502 18.1534ZM71.3322 20.3152L71.0435 21.4071H72.2097H73.3758L73.1695 22.1713C73.0559 22.5917 72.8369 23.4171 72.6827 24.0056L72.4025 25.0756H71.242H70.0816L69.7949 26.1674L69.5082 27.2592H67.5957C66.5438 27.2592 65.6832 27.2252 65.6832 27.1836C65.6832 27.142 65.8012 26.6605 65.9454 26.1136C66.0895 25.5667 66.2077 25.1094 66.208 25.0974C66.2083 25.0854 65.6963 25.0756 65.0703 25.0756C64.4443 25.0756 63.9327 25.0461 63.9334 25.0101C63.9342 24.9741 64.1451 24.1584 64.4022 23.1976L64.8696 21.4507L66.0338 21.4071L67.1978 21.3634L67.3628 20.752C67.4535 20.4157 67.5866 19.9341 67.6586 19.682L67.7895 19.2234H69.7052H71.621L71.3322 20.3152ZM42.481 19.9218C41.073 20.0851 39.7643 20.6809 39.0344 21.4909C38.3815 22.2155 37.9793 23.4451 38.1784 24.108C38.3573 24.7037 38.7395 25.044 39.8112 25.5618C41.1511 26.2094 41.334 26.4516 40.789 26.8569C40.4449 27.1127 39.8221 27.0941 39.2716 26.8115C38.9009 26.6212 38.5195 26.2256 38.2337 25.7352C38.1602 25.6091 37.9826 25.8386 37.183 27.0924C36.6538 27.9223 36.2084 28.6311 36.1934 28.6675C36.1548 28.7604 37.2147 29.0751 38.0636 29.2227C39.1496 29.4117 40.671 29.4733 41.6054 29.3664C43.8681 29.1074 45.2302 28.3368 45.9084 26.9323C46.1507 26.4307 46.1941 26.2428 46.1978 25.6804C46.2017 25.0849 46.1772 24.986 45.9542 24.6942C45.6235 24.2616 45.2457 24.0238 44.0534 23.4979C43.5032 23.2553 42.9834 22.994 42.8983 22.9172C42.6773 22.7176 42.707 22.4969 42.9844 22.2775C43.1938 22.1121 43.3034 22.0927 43.824 22.1291C44.5157 22.1774 44.9556 22.429 45.4273 23.0461L45.7087 23.4141L46.2961 22.5198C47.122 21.2625 47.5592 20.5665 47.5592 20.5093C47.5592 20.429 46.7724 20.1927 46.039 20.0528C45.1812 19.889 43.3464 19.8216 42.481 19.9218ZM49.0019 20.1187C48.9539 20.2489 47.0333 27.0896 46.6844 28.3729L46.441 29.2682H48.6636C49.8861 29.2682 50.8863 29.2476 50.8863 29.2223C50.8863 29.1389 52.026 25.0349 52.0915 24.882C52.1414 24.7659 52.2746 24.9184 52.6812 25.5568C52.9702 26.0104 53.2374 26.3824 53.275 26.3837C53.3126 26.3848 53.7997 26.0069 54.3574 25.5437C54.9349 25.064 55.3497 24.7727 55.3211 24.8667C55.2005 25.2639 54.1259 29.1812 54.1259 29.2239C54.1259 29.2499 55.1203 29.2607 56.3358 29.2478L58.5457 29.2245L59.744 24.8135C60.4031 22.3875 60.9657 20.3142 60.9943 20.206L61.0461 20.0095H58.9061H56.7661L55.668 20.9337C55.064 21.4421 54.5332 21.8353 54.4883 21.8076C54.4433 21.7799 54.1564 21.364 53.8504 20.8834L53.2944 20.0095H51.1683C49.5473 20.0095 49.0326 20.0355 49.0019 20.1187ZM77.4801 22.3023C77.1563 23.5634 76.636 25.5778 76.3238 26.7788C76.0116 27.9798 75.7552 29.0313 75.7541 29.1153C75.7523 29.2569 75.9139 29.2682 77.941 29.2682C79.1449 29.2682 80.1313 29.2387 80.133 29.2027C80.1349 29.1666 80.3265 28.41 80.5592 27.5213L80.982 25.9054L81.264 25.9191C81.6089 25.9358 81.9292 26.2206 82.0651 26.6315C82.1687 26.9444 82.1278 28.6723 82.0074 29.0716L81.9481 29.2682H84.2785H86.609V28.1467C86.609 26.8927 86.4233 25.954 86.04 25.2697L85.8205 24.8781L86.3851 24.362C87.1632 23.6508 87.4408 23.0768 87.4408 22.1788C87.4408 21.5748 87.4148 21.4727 87.1756 21.1331C87.0299 20.9262 86.7541 20.6486 86.5628 20.5164C85.8852 20.0479 85.5109 20.0095 81.62 20.0095H78.0687L77.4801 22.3023ZM88.4529 21.9093C88.1933 22.9542 87.9634 23.8767 87.942 23.9592C87.9072 24.0943 88.0126 24.1119 88.9912 24.1339L90.0791 24.1584L89.7029 25.687C89.496 26.5277 89.2134 27.6774 89.0748 28.2419L88.8228 29.2682H91.034H93.245L93.874 26.694L94.503 24.1199L95.6069 24.0955L96.7108 24.0711L96.7733 23.8091C96.8076 23.6649 97.017 22.7938 97.2384 21.8733C97.4598 20.9528 97.641 20.1568 97.641 20.1046C97.641 20.0374 96.3649 20.0095 93.283 20.0095H88.9251L88.4529 21.9093ZM82.8509 22.1556C83.0678 22.3515 83.0668 22.7693 82.8485 23.1265C82.6397 23.4682 82.4457 23.5766 81.9136 23.6495C81.564 23.6973 81.5092 23.6853 81.5532 23.571C81.5817 23.4968 81.6703 23.1663 81.7501 22.8365C81.9925 21.8337 81.9451 21.905 82.3347 21.9572C82.526 21.9828 82.7583 22.072 82.8509 22.1556ZM95.4411 26.374C94.689 26.8497 94.4722 27.8733 94.9737 28.5791C95.3137 29.0576 95.7217 29.2682 96.3087 29.2682C96.8296 29.2682 97.1354 29.1393 97.4822 28.7737C97.9152 28.3171 98.0203 27.7067 97.769 27.1067C97.5952 26.6918 97.411 26.4935 97.0097 26.2892C96.5167 26.0381 95.921 26.0703 95.4411 26.374ZM96.9102 26.6923C97.9495 27.3715 97.3939 29.0166 96.1678 28.8904C95.2576 28.7967 94.8619 27.7732 95.4119 26.9358C95.7043 26.4906 96.423 26.3737 96.9102 26.6923ZM95.7148 27.6959V28.5694H95.9336C96.1306 28.5694 96.1525 28.5345 96.1525 28.22C96.1525 27.9689 96.1892 27.8706 96.2828 27.8706C96.3671 27.8706 96.4329 27.994 96.4691 28.22C96.517 28.5186 96.5567 28.5694 96.742 28.5694C96.9469 28.5694 96.956 28.5489 96.9073 28.1982C96.8405 27.718 96.8405 27.7009 96.9032 27.3825C96.9817 26.9837 96.7764 26.8225 96.1901 26.8225H95.7148V27.6959ZM96.5028 27.3466C96.5028 27.463 96.4444 27.5213 96.3276 27.5213C96.2109 27.5213 96.1525 27.463 96.1525 27.3466C96.1525 27.2301 96.2109 27.1719 96.3276 27.1719C96.4444 27.1719 96.5028 27.2301 96.5028 27.3466Z" fill="#DCDCDC"/>
<path fill-rule="evenodd" clip-rule="evenodd" d="M67.6346 4.44684V4.93359H68.0778H68.521V4.44684V3.96008H68.0778H67.6346V4.44684ZM58.4686 4.5672C58.4428 4.60897 58.46 4.9774 58.507 5.38583C58.5541 5.79418 58.5928 6.1611 58.5932 6.20119C58.5936 6.24119 58.4888 6.19137 58.3603 6.09057C57.88 5.71329 57.0795 5.95649 56.7074 6.59272C56.5146 6.92221 56.4777 7.86103 56.6351 8.43513C56.9479 9.57724 57.9202 10.0648 58.6351 9.43793C58.9255 9.18341 58.9484 9.17695 58.9484 9.34943C58.9484 9.51113 59.001 9.53564 59.3473 9.53564H59.7461V9.2119C59.7461 8.85002 59.4162 5.2275 59.3422 4.77872C59.2972 4.50498 59.2761 4.49109 58.9054 4.49109C58.691 4.49109 58.4945 4.52534 58.4686 4.5672ZM81.4075 4.65384C80.9444 4.94554 80.7272 5.33176 80.7272 5.86338C80.7272 6.61529 80.9563 6.89265 81.9794 7.37896C82.8798 7.80695 82.9649 7.8751 82.9671 8.16927C82.9695 8.49363 82.6492 8.73913 82.2235 8.73913C81.7388 8.73913 81.4005 8.48859 81.3221 8.07157C81.2658 7.77217 81.2553 7.76562 80.8314 7.76562C80.4001 7.76562 80.398 7.76704 80.4048 8.05325C80.4188 8.65028 80.7145 9.14933 81.2369 9.45705C81.7375 9.75185 82.6983 9.75353 83.1706 9.46033C83.6046 9.19102 83.8683 8.67311 83.8736 8.08015C83.8808 7.28497 83.5859 6.91699 82.6235 6.51997C81.836 6.19517 81.6389 6.04375 81.6389 5.76373C81.6389 5.51442 81.8756 5.3761 82.3019 5.3761C82.667 5.3761 83.0571 5.69408 83.0571 5.99162C83.0571 6.15198 83.1125 6.17261 83.5445 6.17261C84.0178 6.17261 84.032 6.16544 84.0301 5.92923C84.0267 5.51221 83.7229 4.97598 83.3644 4.75491C82.8885 4.46118 81.8023 4.40507 81.4075 4.65384ZM65.9949 5.39035C65.8974 5.44389 65.7487 5.57204 65.6645 5.67523L65.5113 5.86285L65.5093 5.66373C65.5076 5.48619 65.4629 5.4646 65.0978 5.4646H64.6882L64.7458 6.85849C64.7776 7.62517 64.8261 8.44159 64.8535 8.67276L64.9036 9.09314L65.3163 9.09322H65.729L65.7036 7.92059C65.673 6.50882 65.7426 6.30014 66.239 6.31509C66.5225 6.32359 66.5738 6.29199 66.6553 6.05853C66.8022 5.63779 66.7688 5.46805 66.5209 5.37389C66.242 5.26804 66.2161 5.26883 65.9949 5.39035ZM71.0595 5.50619C70.7535 5.71346 70.7368 5.71576 70.7368 5.55044C70.7368 5.40282 70.6757 5.3761 70.338 5.3761H69.9391V7.19037V9.00463H70.3823H70.8255V7.77757C70.8255 6.67016 70.8434 6.52776 71.0092 6.3173C71.1297 6.16438 71.2785 6.0841 71.4415 6.0841C71.8836 6.0841 71.928 6.23783 71.9044 7.68624L71.8829 9.00463H72.3157H72.7486L72.8094 7.71996C72.8699 6.44059 72.8136 5.94091 72.5746 5.6339C72.259 5.22857 71.5564 5.16936 71.0595 5.50619ZM67.665 5.96843C67.6963 6.29978 67.7223 7.1185 67.7226 7.78775L67.7233 9.00463H68.1683H68.6132L68.5893 7.21249L68.5653 5.42035L68.0867 5.39318L67.608 5.36592L67.665 5.96843ZM74.8583 5.46053C73.8112 5.89294 73.6672 8.31344 74.6529 8.91348C75.075 9.1704 75.5337 9.14721 75.8861 8.85126L76.174 8.6093L76.1145 8.90658C76.0817 9.07004 76.0549 9.27562 76.0549 9.36342C76.0549 9.80849 75.3134 9.97053 75.0208 9.58936C74.9072 9.4413 74.7318 9.35979 74.4373 9.31846C74.0275 9.26085 74.0163 9.26536 74.0163 9.49033C74.0163 10.1153 74.6348 10.5919 75.4509 10.5957C76.2172 10.5993 76.698 10.2862 76.8624 9.67645C76.9351 9.40687 77.2183 5.65797 77.1715 5.58354C77.1668 5.57584 76.9734 5.54151 76.7418 5.50708C76.3234 5.44486 76.3208 5.44601 76.3182 5.69789C76.3159 5.91286 76.3017 5.92781 76.2251 5.79648C76.0224 5.44893 75.3103 5.27388 74.8583 5.46053ZM61.5583 5.63797C61.378 5.7109 60.8133 6.29704 60.8059 6.41908C60.8037 6.45386 60.766 6.66157 60.7218 6.88061C60.6175 7.39852 60.7672 8.29583 61.0204 8.67116C61.3152 9.10791 61.7474 9.35864 62.2055 9.35864C62.9011 9.35864 63.453 8.96401 63.6055 8.3576C63.6554 8.15919 63.636 8.11963 63.4894 8.11963C63.3928 8.11963 63.1944 8.09582 63.0485 8.0667C62.8185 8.02077 62.7759 8.04343 62.727 8.23777C62.6179 8.67169 61.9715 8.65435 61.742 8.21122C61.5434 7.82766 61.5722 7.76562 61.9486 7.76562C62.1363 7.76562 62.5997 7.73943 62.9785 7.70748L63.6672 7.64933L63.6095 7.15939C63.4947 6.18331 62.9149 5.54814 62.1483 5.55867C61.924 5.56177 61.6584 5.59744 61.5583 5.63797ZM89.4251 7.9998C89.2 9.35563 89.0243 10.4747 89.0348 10.4867C89.0453 10.4986 89.2359 10.5333 89.4583 10.5638L89.8626 10.6191L89.952 10.188C90.1768 9.10199 90.715 5.73585 90.6708 5.69169C90.6436 5.66461 90.4442 5.61815 90.2279 5.5885L89.8344 5.53469L89.4251 7.9998ZM46.8205 6.1973L46.4368 6.28925L46.4993 7.97882C46.5337 8.90808 46.5417 9.64848 46.5171 9.62414C46.4925 9.5998 46.1661 8.90392 45.7918 8.07768C45.4175 7.25152 45.1036 6.56794 45.0942 6.55865C45.0848 6.54935 44.859 6.59086 44.5923 6.65086C44.128 6.75538 44.1042 6.77468 44.0302 7.10797C43.9877 7.29931 43.9752 8.04997 44.0024 8.77604C44.0308 9.53077 44.0188 10.0614 43.9745 10.015C43.9318 9.97045 43.797 9.69494 43.675 9.40289C43.5528 9.11084 43.2699 8.4785 43.0462 7.99767L42.6395 7.12355L42.2629 7.18364C42.0557 7.21665 41.8529 7.27692 41.8122 7.31754C41.7714 7.35816 42.077 8.1029 42.4913 8.97242C42.9055 9.84194 43.3874 10.8666 43.5621 11.2494L43.8796 11.9454L44.3011 11.8824C44.5329 11.8477 44.7525 11.8011 44.789 11.7786C44.8256 11.7561 44.8555 10.9356 44.8555 9.95522C44.8555 8.97481 44.8882 8.2106 44.9282 8.2568C44.9683 8.30309 45.3172 9.02871 45.7037 9.86947L46.4066 11.3981L46.8055 11.3446C47.0248 11.3151 47.2299 11.2645 47.2612 11.232C47.2925 11.1995 47.3466 10.028 47.3813 8.62851C47.4338 6.51378 47.4241 6.08587 47.3244 6.09472C47.2584 6.10057 47.0317 6.14676 46.8205 6.1973ZM75.9613 6.34465C76.1992 6.58219 76.2801 7.10231 76.1544 7.58517C75.9737 8.27857 75.4431 8.51629 75.0864 8.06343C74.7577 7.64623 74.889 6.38793 75.2775 6.23181C75.5196 6.13455 75.7967 6.18031 75.9613 6.34465ZM53.628 6.50174C53.5074 6.58546 53.3402 6.73476 53.2566 6.83362C53.1058 7.01177 53.1044 7.01124 53.1015 6.77839C53.0986 6.55378 53.082 6.54555 52.7218 6.59148C52.5147 6.61785 52.3272 6.6552 52.3053 6.67432C52.2696 6.70574 52.6966 9.67671 52.7995 10.1128C52.8349 10.2627 52.8985 10.2863 53.1922 10.2583C53.3851 10.2399 53.5671 10.1856 53.5969 10.1375C53.6267 10.0894 53.5791 9.51564 53.4913 8.8625C53.3324 7.68155 53.3324 7.67358 53.5118 7.43268C53.7533 7.10833 54.1076 7.06912 54.2896 7.34648C54.3657 7.46259 54.4878 7.9728 54.5608 8.48027C54.7936 10.0982 54.7512 9.97814 55.0896 9.97814C55.664 9.97814 55.6532 10.016 55.4776 8.62532C55.3 7.21842 55.1403 6.69556 54.8254 6.48953C54.5416 6.30385 53.9036 6.3104 53.628 6.50174ZM62.5139 6.50448C62.5888 6.58962 62.6758 6.74361 62.7071 6.84654C62.7564 7.00876 62.7195 7.04115 62.4296 7.08894C61.7519 7.20081 61.6075 7.1693 61.6075 6.90973C61.6075 6.42297 62.2066 6.15508 62.5139 6.50448ZM85.931 6.52829C84.6372 7.16771 84.5687 9.37944 85.8225 10.0308C86.2052 10.2297 86.9666 10.1907 87.3178 9.95434C88.2945 9.29722 88.4997 7.52791 87.6866 6.77494C87.2081 6.33182 86.5233 6.23553 85.931 6.52829ZM58.4491 6.8676C58.693 7.13665 58.8243 7.9474 58.6943 8.38079C58.488 9.06836 57.7943 9.06915 57.5574 8.38212C57.4028 7.93369 57.4147 7.13541 57.5796 6.90035C57.7544 6.65113 58.2365 6.63299 58.4491 6.8676ZM49.3707 7.05301C48.8202 7.21984 48.5977 7.46321 48.4559 8.05325C48.3984 8.293 48.4039 8.29663 48.8214 8.29663C49.1749 8.29663 49.2597 8.26379 49.3327 8.09874C49.5211 7.6727 50.1823 7.67748 50.2461 8.10529C50.2695 8.26264 50.1621 8.34734 49.6017 8.61284C48.8591 8.9649 48.6665 9.20412 48.6672 9.77459C48.6681 10.8298 49.9256 11.2606 50.5946 10.4351C50.6939 10.3126 50.7172 10.3144 50.8181 10.4522C50.9084 10.5755 51.0056 10.5943 51.3056 10.5463C51.7249 10.4794 51.7289 10.4717 51.5578 10.0553C51.4904 9.89115 51.3689 9.35864 51.2878 8.87188C51.0614 7.51366 50.9994 7.33763 50.6787 7.1424C50.3847 6.96345 49.7987 6.92336 49.3707 7.05301ZM96.6221 7.23205C96.4048 7.3179 96.2189 7.4233 96.2089 7.46622C96.1987 7.50923 96.1663 7.65385 96.1367 7.78775C96.0957 7.97342 96.0309 8.03112 95.8631 8.03112C95.7356 8.03112 95.6432 8.08228 95.6432 8.15281C95.6432 8.21972 95.6194 8.39327 95.5903 8.5385C95.5475 8.75214 95.5709 8.81126 95.7128 8.84825C95.8859 8.89348 95.8854 8.90543 95.6788 9.81221C95.391 11.0756 95.3968 11.504 95.7047 11.7459C95.885 11.8875 96.0426 11.927 96.3473 11.9072L96.7511 11.8809L96.7783 11.5048C96.8039 11.1533 96.7908 11.1287 96.5789 11.1287C96.3038 11.1287 96.304 11.1351 96.5516 9.99744L96.7509 9.08172L97.0365 9.13517C97.2947 9.18358 97.3274 9.165 97.3772 8.9418C97.4075 8.80595 97.4502 8.62868 97.4719 8.54779C97.5004 8.44195 97.436 8.38415 97.2421 8.34167C96.9335 8.27397 96.9286 8.24716 97.1057 7.58862C97.1776 7.3209 97.237 7.09195 97.2375 7.07974C97.2401 7.0254 96.9856 7.08832 96.6221 7.23205ZM87.1278 7.46782C87.4673 7.89882 87.3133 8.89587 86.858 9.21429C86.2269 9.65565 85.6339 8.90463 85.8834 7.97988C86.016 7.48817 86.2747 7.23462 86.6437 7.23462C86.8627 7.23462 86.9939 7.29789 87.1278 7.46782ZM91.7987 7.39268C91.6792 7.81226 91.3705 9.63087 91.3583 9.98655C91.3507 10.2102 91.4028 10.5023 91.4743 10.6357C91.7324 11.1179 92.4353 11.2733 92.9478 10.9612L93.2217 10.7945L93.182 11.0017C93.1495 11.1713 93.1884 11.2193 93.3956 11.2656C93.5349 11.2966 93.715 11.3398 93.7959 11.3615C93.9101 11.3921 93.9628 11.3064 94.0319 10.9771C94.5734 8.39619 94.6799 7.83625 94.6375 7.79403C94.6105 7.76704 94.4134 7.72518 94.1995 7.7011L93.8107 7.65739L93.6104 8.66284C93.5004 9.21589 93.3563 9.79769 93.2905 9.95584C93.1374 10.323 92.8038 10.488 92.4967 10.3483C92.2116 10.2186 92.2101 9.87017 92.4884 8.47363C92.7129 7.34746 92.733 7.41233 92.1249 7.29542C91.9037 7.25294 91.8323 7.27418 91.7987 7.39268ZM98.7953 7.63446C98.7621 7.81085 98.715 8.00732 98.6904 8.07113C98.6631 8.14237 98.7554 8.22512 98.9305 8.2861C99.4129 8.45398 99.5262 8.41619 99.627 8.05325C99.7835 7.491 99.7907 7.501 99.1328 7.36931C98.87 7.31666 98.8524 7.33055 98.7953 7.63446ZM37.7431 8.31442C37.4418 8.39433 37.4164 8.42416 37.468 8.63718C37.6294 9.30403 37.6899 9.34864 38.1947 9.17296C38.5023 9.06597 38.5149 9.02295 38.3805 8.54001C38.2823 8.18671 38.2575 8.17795 37.7431 8.31442ZM98.4814 8.9818C98.1681 10.0881 97.7006 12.1554 97.7529 12.2037C97.7869 12.2352 97.9772 12.2873 98.1758 12.3194L98.537 12.3779L98.9514 10.7406C99.1794 9.84008 99.3658 9.04393 99.3658 8.97145C99.3658 8.84215 99.2994 8.80967 98.8157 8.7024C98.5982 8.65417 98.5669 8.68037 98.4814 8.9818ZM50.4272 9.73185C50.2673 10.1349 49.6264 10.1788 49.5255 9.79353C49.4489 9.5013 49.5438 9.36678 49.9852 9.14217L50.3952 8.93339L50.4589 9.21243C50.4944 9.36767 50.4803 9.59803 50.4272 9.73185ZM35.4673 9.37227C35.1804 9.71707 35.1692 9.75565 35.2584 10.0894C35.3431 10.4063 35.3354 10.4467 35.1824 10.4866C35.0757 10.5145 35.028 10.5848 35.0546 10.675C35.0781 10.7541 35.1242 10.9315 35.1571 11.069C35.2059 11.2727 35.2534 11.3101 35.413 11.2701C35.5951 11.2244 35.6327 11.2973 35.9422 12.2966C36.1845 13.0787 36.3437 13.4405 36.5258 13.6223C36.8209 13.9169 36.9686 13.9279 37.4862 13.6933C37.7909 13.5553 37.8591 13.4856 37.8095 13.3634C37.7749 13.2782 37.7077 13.1012 37.6601 12.9701C37.5823 12.7557 37.5518 12.7417 37.3566 12.8305C37.2246 12.8905 37.1099 12.8973 37.0641 12.8476C37.0226 12.8027 36.869 12.3598 36.7227 11.8635L36.4568 10.961L36.7118 10.905C37.0015 10.8416 36.9991 10.8493 36.8714 10.3899C36.7809 10.0648 36.7634 10.0519 36.4833 10.1043L36.1901 10.1593L36.0336 9.58193C35.9475 9.26438 35.8531 9.00534 35.8238 9.00623C35.7945 9.00711 35.634 9.17181 35.4673 9.37227ZM101.002 9.61202C100.153 10.1289 99.7463 11.4332 100.154 12.3304C100.351 12.7623 100.684 13.042 101.151 13.1676C101.906 13.3707 102.644 12.972 103.051 12.1401C103.58 11.0616 103.263 9.88646 102.352 9.54157C101.96 9.3936 101.304 9.42785 101.002 9.61202ZM38.0688 9.6414L37.7966 9.7291L38.284 11.4688C38.5522 12.4255 38.7794 13.2202 38.7892 13.2345C38.817 13.2758 39.6261 13.0597 39.6261 13.0109C39.6261 12.9635 39.1046 11.0988 38.8213 10.133C38.6336 9.49342 38.5987 9.47059 38.0688 9.6414ZM40.7161 10.3223C40.4137 10.4042 40.1417 10.4958 40.1116 10.5258C40.0565 10.5809 40.2316 11.2962 40.3288 11.4127C40.3841 11.479 41.7566 11.158 41.8553 11.0557C41.887 11.0228 41.868 10.8067 41.8129 10.5755C41.6971 10.0885 41.6335 10.0738 40.7161 10.3223ZM102.136 10.4192C102.443 10.6608 102.5 10.9729 102.338 11.5296C102.107 12.3221 101.449 12.6328 101.056 12.1345C100.62 11.5805 101.122 10.2436 101.767 10.2436C101.847 10.2436 102.013 10.3227 102.136 10.4192ZM104.829 10.4007C104.772 10.4923 103.798 13.6839 103.798 13.7778C103.798 13.8799 104.52 14.0726 104.592 13.9896C104.626 13.9494 104.804 13.4435 104.987 12.8654C105.406 11.5383 105.689 11.2148 106.197 11.4858C106.454 11.6236 106.414 12.026 106.018 13.2612C105.825 13.8617 105.688 14.3735 105.714 14.3987C105.801 14.4858 106.458 14.6501 106.491 14.5931C106.626 14.3618 107.343 11.9683 107.343 11.7492C107.343 11.2956 107.123 10.9838 106.685 10.8167C106.292 10.667 106.214 10.6736 105.648 10.9035C105.533 10.9502 105.513 10.9181 105.546 10.7442C105.588 10.5236 105.584 10.5207 105.024 10.3658C104.943 10.3433 104.855 10.3591 104.829 10.4007ZM32.7513 11.2061C32.602 11.297 32.4178 11.4995 32.3418 11.6559L32.2038 11.9405L32.145 11.7066C32.0837 11.4626 32.0524 11.4607 31.4973 11.668C31.3026 11.7406 31.3052 11.7523 31.8889 13.4483C32.212 14.3873 32.4828 15.1653 32.4908 15.1773C32.4987 15.1893 32.6879 15.137 32.9112 15.0611L33.3171 14.923L32.968 13.8887C32.776 13.3198 32.6136 12.7253 32.6071 12.5674C32.5856 12.0475 33.0758 11.7454 33.4266 12.0624C33.5102 12.1379 33.7514 12.7373 33.9629 13.3945C34.3828 14.6998 34.3307 14.6469 34.9603 14.4079L35.1772 14.3256L34.8021 13.1475C34.5959 12.4995 34.355 11.8183 34.2669 11.6336C33.9947 11.0626 33.306 10.8684 32.7513 11.2061ZM27.8657 11.4726C27.6617 11.5528 27.4687 11.6445 27.4367 11.6765C27.3815 11.7316 27.5094 14.8199 27.6273 16.2781L27.6823 16.9582L28.0923 16.7962L28.5024 16.6342V16.039V15.4438L29.1658 15.189C29.5306 15.0489 29.8747 14.9342 29.9306 14.9342C30.0054 14.9342 30.5868 15.5697 30.7197 15.7968C30.7571 15.8606 31.5603 15.5225 31.5603 15.4429C31.5603 15.3487 29.0909 12.2533 28.5328 11.6481L28.2365 11.3266L27.8657 11.4726ZM108.938 11.9032C108.582 12.0811 108.318 12.5369 108.318 12.9767C108.318 13.2896 108.632 13.6612 109.411 14.2704C109.822 14.5918 109.794 14.8457 109.348 14.8457C108.948 14.8457 108.672 14.6265 108.672 14.3096C108.672 14.114 108.631 14.0492 108.506 14.0492C108.415 14.0492 108.215 14.0243 108.063 13.9939C107.791 13.9395 107.786 13.9444 107.786 14.2831C107.786 15.5199 109.806 16.1368 110.443 15.0944C110.658 14.7416 110.675 14.2114 110.48 13.9143C110.402 13.7948 110.08 13.5138 109.766 13.2898C109.163 12.8606 109.061 12.6086 109.471 12.566C109.787 12.5333 110.119 12.731 110.179 12.9879C110.222 13.1692 110.299 13.2175 110.613 13.2598C111.069 13.3212 111.138 13.2217 110.987 12.7195C110.868 12.3221 110.529 12.0482 109.937 11.8703C109.414 11.7131 109.313 11.7164 108.938 11.9032ZM29.0916 14.2386C28.3731 14.5611 28.3695 14.56 28.3695 14.0233C28.3695 13.7591 28.3434 13.3482 28.3116 13.1102L28.2538 12.6774L28.8343 13.3854L29.4148 14.0934L29.0916 14.2386ZM110.865 33.1719C110.599 33.3125 110.541 33.3871 110.576 33.5442C110.6 33.6522 110.681 34.0153 110.756 34.351C110.831 34.6867 110.877 34.9765 110.858 34.995C110.84 35.0134 110.599 34.7288 110.323 34.3624C110.046 33.9961 109.78 33.6964 109.73 33.6964C109.607 33.6964 109.116 33.9534 109.116 34.0174C109.116 34.1649 110.218 36.5284 110.287 36.5284C110.332 36.5284 110.443 36.4882 110.535 36.4391C110.694 36.3546 110.684 36.3099 110.35 35.5855C110.157 35.1651 110.012 34.8076 110.028 34.7911C110.045 34.7745 110.293 35.079 110.579 35.4677C110.865 35.8564 111.124 36.1744 111.154 36.1744C111.184 36.1744 111.286 36.1181 111.38 36.0493C111.549 35.9266 111.549 35.9088 111.393 35.1538C111.306 34.7302 111.25 34.3676 111.27 34.348C111.289 34.3286 111.452 34.6319 111.63 35.0222C111.809 35.4126 111.991 35.7319 112.035 35.7319C112.208 35.7319 112.395 35.6189 112.395 35.5145C112.395 35.4113 111.263 32.9839 111.219 32.9923C111.208 32.9945 111.049 33.0753 110.865 33.1719ZM107.943 34.4364C107.195 34.7544 107.088 34.826 107.133 34.9797C107.22 35.2742 107.306 35.3073 107.631 35.1718L107.942 35.042L108.392 36.0728C108.75 36.8947 108.874 37.0977 109.001 37.0741C109.331 37.013 109.32 36.8844 108.909 35.9155C108.681 35.3804 108.495 34.905 108.495 34.8591C108.495 34.8133 108.615 34.7341 108.761 34.6832C109.046 34.5841 109.095 34.4348 108.916 34.21C108.817 34.0851 108.714 34.1092 107.943 34.4364ZM104.989 37.0484C104.839 37.1392 104.654 37.3435 104.577 37.5021C104.447 37.7698 104.433 37.777 104.377 37.6019C104.306 37.3788 104.246 37.3721 103.838 37.542L103.53 37.6706L103.755 38.2721C104.598 40.5191 104.816 41.042 104.91 41.042C104.969 41.042 105.165 40.9802 105.346 40.9048C105.596 40.8002 105.66 40.7319 105.615 40.6172C105.094 39.2959 104.861 38.5973 104.861 38.3556C104.861 37.8566 105.326 37.599 105.668 37.9081C105.753 37.9855 106.03 38.563 106.283 39.1913C106.535 39.8198 106.787 40.331 106.843 40.3274C106.899 40.3238 107.091 40.2541 107.271 40.1725L107.598 40.0242L107.158 38.9622C106.533 37.4545 106.486 37.3655 106.183 37.1109C105.853 36.8337 105.382 36.8091 104.989 37.0484ZM31.1746 37.0618C30.1403 37.3713 29.2901 38.8467 29.3592 40.2123C29.3865 40.7527 29.4338 40.914 29.6591 41.2355C29.9963 41.7168 30.6873 42.0999 31.3393 42.1671C31.766 42.2111 31.8527 42.2551 32.0652 42.5367C32.4743 43.0785 32.5458 43.1045 32.8234 42.8125C33.1222 42.4981 33.1238 42.4536 32.8455 42.1925C32.7236 42.0781 32.6239 41.9573 32.6239 41.924C32.6239 41.8905 32.7649 41.714 32.9372 41.5316C33.3286 41.1172 33.5459 40.6965 33.725 40.0061C34.1025 38.5515 33.6025 37.4599 32.3922 37.0962C31.9314 36.9577 31.5577 36.9471 31.1746 37.0618ZM32.3609 38.0787C32.7535 38.2814 32.9202 38.6769 32.8658 39.2764C32.8155 39.8307 32.5395 40.5336 32.2524 40.8389L32.0667 41.0361L31.7312 40.6629L31.3956 40.2897L31.15 40.5307L30.9044 40.7716L31.1148 40.9953C31.3379 41.2324 31.2734 41.2739 30.9014 41.1327C30.5692 41.0066 30.3201 40.5428 30.3198 40.0497C30.3192 39.4648 30.6375 38.6721 31.0317 38.2763C31.3081 37.9987 31.4226 37.9444 31.7316 37.9444C31.9347 37.9444 32.2179 38.0049 32.3609 38.0787ZM97.3453 38.2329C97.1316 38.3013 97.0678 38.3643 97.1078 38.4673C97.1378 38.5448 97.1852 38.7211 97.2131 38.8592C97.2766 39.1734 97.4128 39.2274 97.8111 39.0962C98.1593 38.9814 98.169 38.9525 98.0223 38.4636C97.9125 38.0975 97.8427 38.0738 97.3453 38.2329ZM100.696 38.5803C99.8139 39.0343 99.5884 40.0843 100.139 41.1747C100.597 42.0819 101.531 42.4228 102.382 41.9933C103.3 41.5301 103.517 40.4475 102.905 39.3774C102.401 38.4976 101.493 38.1699 100.696 38.5803ZM95.1867 39.2778C95.0234 39.4822 94.8954 39.674 94.9022 39.7041C95.0334 40.2796 95.0309 40.3194 94.861 40.3732C94.7018 40.4238 94.6971 40.4566 94.7997 40.8013C94.8891 41.1016 94.9469 41.1695 95.0946 41.1479C95.2527 41.1248 95.3048 41.2114 95.4672 41.7674C95.8932 43.2256 95.9483 43.3602 96.2088 43.579C96.4236 43.7596 96.5287 43.789 96.7884 43.7417C97.1439 43.6769 97.5045 43.4736 97.5045 43.3381C97.5045 43.289 97.4438 43.1037 97.3695 42.9262C97.266 42.6788 97.2102 42.6279 97.1302 42.7078C96.8743 42.9633 96.7177 42.8236 96.5278 42.1703C96.4253 41.8174 96.2993 41.3946 96.2478 41.2306C96.1519 40.9246 96.2341 40.7812 96.5074 40.7778C96.6401 40.7762 96.6509 40.5199 96.5315 40.2063C96.4604 40.0196 96.3944 39.9829 96.1642 40.0015C95.8937 40.0234 95.8783 40.006 95.7412 39.5222C95.6629 39.2462 95.573 38.9946 95.5413 38.9633C95.5096 38.9318 95.3501 39.0734 95.1867 39.2778ZM101.934 39.5349C102.206 39.8259 102.418 40.5106 102.328 40.8068C102.189 41.2629 101.738 41.4444 101.31 41.216C101.072 41.0886 100.777 40.4758 100.761 40.0747C100.73 39.3005 101.418 38.9837 101.934 39.5349ZM39.5482 39.6332C39.381 40.1122 39.4178 40.2082 39.8142 40.3268C40.0153 40.3869 40.2091 40.4032 40.2452 40.3629C40.3438 40.2526 40.5022 39.5413 40.4366 39.5029C40.4052 39.4844 40.2148 39.4421 40.0135 39.4089C39.6608 39.3507 39.644 39.3588 39.5482 39.6332ZM97.7483 39.5502C97.6142 39.5999 97.5045 39.669 97.5045 39.7035C97.5045 39.8022 98.4907 42.9338 98.555 43.0388C98.5949 43.1041 98.738 43.0967 99.023 43.0146L99.4335 42.8961L98.8867 41.1946C98.2976 39.3618 98.289 39.3493 97.7483 39.5502ZM34.8071 40.5331C34.1957 42.5063 34.1887 42.6999 34.7127 43.1593C35.0698 43.4723 35.5563 43.5237 35.999 43.2951C36.2608 43.16 36.2626 43.1607 36.2081 43.3777C36.1589 43.5735 36.1915 43.608 36.5186 43.7058C36.7388 43.7718 36.9131 43.7829 36.9571 43.734C37.0183 43.6657 37.942 40.4591 37.942 40.3146C37.942 40.2617 37.1377 40.0445 37.0982 40.0866C37.0848 40.1009 36.9496 40.5431 36.7979 41.0691C36.4142 42.3992 36.3119 42.6181 36.0422 42.6857C35.696 42.7724 35.3812 42.6597 35.3229 42.4281C35.2829 42.2685 35.7345 40.4471 35.9669 39.8312C36.0025 39.7368 35.5002 39.5392 35.2215 39.538C35.1632 39.5377 34.9767 39.9855 34.8071 40.5331ZM39.1548 41.1526C38.8107 42.3891 38.3852 44.0245 38.3852 44.1106C38.3852 44.1963 39.1667 44.4519 39.2298 44.3869C39.2437 44.3725 39.4408 43.6439 39.6677 42.7677C39.8946 41.8916 40.0991 41.1094 40.122 41.0295C40.1511 40.928 40.0789 40.8548 39.8816 40.7861C39.373 40.6091 39.2951 40.6484 39.1548 41.1526ZM92.4811 40.9481C92.276 41.0411 92.0538 41.225 91.9827 41.3607L91.8541 41.6055L91.7896 41.4023C91.7316 41.22 91.6878 41.2052 91.3608 41.2574C91.1604 41.2894 90.9835 41.3286 90.9675 41.3445C90.9416 41.3705 91.692 44.5695 91.7816 44.8147C91.8082 44.8876 91.9278 44.8895 92.2238 44.8219C92.708 44.7112 92.7082 44.7106 92.4083 43.5927C92.1226 42.5282 92.1151 41.9869 92.3835 41.7993C92.8835 41.4495 93.0788 41.6929 93.4862 43.1732C93.6727 43.8507 93.8653 44.4047 93.9143 44.4045C94.1473 44.4032 94.6682 44.209 94.6682 44.1233C94.6682 43.9092 94.0141 41.6838 93.8636 41.3861C93.7112 41.0844 93.2548 40.7738 92.9708 40.7784C92.905 40.7795 92.6846 40.8558 92.4811 40.9481ZM45.9072 41.1444C45.5375 41.3035 45.4907 41.3568 45.4393 41.6779C45.3913 41.9774 45.3541 42.0274 45.2076 41.9892C45.0015 41.9354 44.9862 41.9563 44.9061 42.3985C44.8529 42.6933 44.8685 42.7435 45.0275 42.785C45.1279 42.8112 45.2099 42.8379 45.2097 42.8445C45.2095 42.8509 45.1105 43.3602 44.9897 43.9759C44.811 44.8868 44.7885 45.1487 44.8691 45.3794C44.9739 45.6796 45.3673 45.9095 45.7761 45.9095C46.1876 45.9095 46.2737 45.8252 46.2737 45.4216C46.2737 45.1041 46.248 45.0472 46.1186 45.0782C46.0333 45.0986 45.9097 45.0802 45.8441 45.0373C45.7451 44.9726 45.7567 44.7956 45.9105 44.0091C46.0127 43.4866 46.0964 43.0415 46.0964 43.02C46.0964 42.9985 46.236 43.0071 46.4066 43.0391C46.6481 43.0843 46.7168 43.068 46.7168 42.9656C46.7168 42.8933 46.7409 42.7137 46.7705 42.5666C46.8195 42.3217 46.8001 42.2939 46.5414 42.2372C46.2972 42.1835 46.266 42.1463 46.3122 41.9625C46.4244 41.5161 46.4718 40.9537 46.3965 40.9606C46.3533 40.9645 46.1331 41.0473 45.9072 41.1444ZM42.0517 41.3685C41.7163 41.4342 41.1663 41.9889 40.9532 42.4762C40.6773 43.1075 40.6607 43.9705 40.9161 44.4047C41.2513 44.9745 41.9971 45.2981 42.6467 45.1557C42.799 45.1223 43.0865 44.9323 43.2857 44.7334L43.6479 44.3718L43.2989 44.218C42.9027 44.0433 42.6396 44.0108 42.6396 44.1364C42.6396 44.2829 42.279 44.4226 42.0494 44.3651C41.8072 44.3045 41.5419 43.8002 41.6307 43.5692C41.6598 43.4934 41.6941 43.4315 41.7069 43.4315C41.7198 43.4315 42.1616 43.5288 42.6889 43.6478C43.2161 43.7668 43.6772 43.8458 43.7135 43.8235C43.8416 43.7443 43.8967 42.8465 43.7962 42.474C43.6636 41.9824 43.2625 41.5397 42.833 41.4113C42.4825 41.3064 42.3941 41.3015 42.0517 41.3685ZM87.8595 42.0181C86.9211 42.5894 87.0571 44.6776 88.0783 45.3755C88.7073 45.8053 89.6813 45.5983 90.1254 44.9403C90.3641 44.5865 90.4027 44.0908 90.1849 44.1743C90.1078 44.2038 89.9127 44.228 89.7514 44.228C89.5132 44.228 89.4476 44.2692 89.403 44.4467C89.3351 44.7168 89.0489 44.8801 88.7669 44.8094C88.5267 44.7492 88.2448 44.3757 88.3104 44.2048C88.3344 44.1426 88.7077 44.0203 89.1401 43.9329C90.2108 43.7167 90.2365 43.7071 90.2365 43.5249C90.2365 43.0683 89.6852 42.19 89.2613 41.9711C88.8905 41.7797 88.2139 41.8025 87.8595 42.0181ZM42.7606 42.2874C42.9285 42.4192 42.9942 42.5528 42.9942 42.7623V43.0538L42.4408 42.9261C42.1366 42.856 41.8708 42.7818 41.8504 42.7614C41.7668 42.6779 42.0316 42.2703 42.2179 42.1955C42.4986 42.0829 42.5007 42.0833 42.7606 42.2874ZM57.0871 42.3024C57.0871 42.3189 56.9885 43.4438 56.868 44.802C56.7475 46.1602 56.6578 47.2781 56.6686 47.2861C56.6794 47.2941 56.8944 47.3239 57.1465 47.3523L57.6047 47.404L57.6591 46.7231C57.6889 46.3487 57.7344 45.8735 57.76 45.6673L57.8067 45.2923L58.7321 45.3489L59.6575 45.4054V44.959V44.5126L58.7612 44.4485L57.865 44.3845L57.9025 43.8656C57.9233 43.5802 57.9601 43.3269 57.9843 43.3025C58.0087 43.2783 58.4631 43.2965 58.9941 43.3431C60.0861 43.4389 60.1166 43.4252 60.0795 42.8562L60.0564 42.5022L59.0814 42.4434C58.5451 42.411 57.8771 42.3593 57.5967 42.3283C57.3164 42.2974 57.0871 42.2858 57.0871 42.3024ZM85.5196 42.4326C85.2557 42.4727 85.2663 42.4403 85.0948 43.7412C84.9293 44.996 84.9585 44.9841 84.4595 44.0017C83.7929 42.6891 83.8242 42.7265 83.4352 42.7806C82.7763 42.8723 82.6987 42.6032 84.1006 45.0909C84.8014 46.3343 84.8583 46.3829 85.3813 46.1843C85.5761 46.1103 85.6064 45.9977 85.8372 44.4807C85.9731 43.5872 86.1058 42.7467 86.1321 42.6129C86.1833 42.3526 86.1366 42.3389 85.5196 42.4326ZM72.576 42.5194L71.8891 42.5539L71.8888 43.0591C71.8885 43.6889 72.056 46.7056 72.1199 47.2193L72.1672 47.5999L72.6209 47.5733L73.0748 47.5468L73.0554 46.9715C73.0449 46.6551 73.0137 46.2324 72.9861 46.032L72.9361 45.6677L73.6411 45.6269C74.5115 45.5767 74.8691 45.3918 75.1527 44.8455C75.396 44.377 75.3756 43.7144 75.1018 43.1877C74.7528 42.516 74.4163 42.427 72.576 42.5194ZM48.573 42.6306C47.9052 42.8323 47.4983 43.3809 47.3344 44.3008C47.1606 45.2752 47.4442 45.9425 48.1723 46.2727C48.8348 46.5731 49.4917 46.4396 49.934 45.9147C50.0658 45.7584 50.1736 45.6022 50.1736 45.5678C50.1736 45.5334 49.9897 45.4371 49.7649 45.3539L49.3561 45.2027L49.1823 45.4234C48.8517 45.843 48.2236 45.5817 48.2236 45.0245C48.2236 44.7076 48.2637 44.7032 49.4202 44.893C49.8589 44.9649 50.2478 45.024 50.2844 45.0242C50.321 45.0243 50.3509 44.7342 50.3509 44.3795C50.3509 43.3211 49.9384 42.7325 49.11 42.6085C48.9394 42.583 48.6977 42.5929 48.573 42.6306ZM89.0024 42.8052C89.1449 42.9475 89.2615 43.1033 89.2615 43.1515C89.2615 43.1997 89.0122 43.2932 88.7075 43.3594C88.1844 43.473 88.1519 43.4705 88.124 43.3139C88.0725 43.0236 88.1968 42.7183 88.4 42.6367C88.6955 42.5181 88.7224 42.5256 89.0024 42.8052ZM65.1529 45.2458V47.768H65.596H66.0392V45.2458V42.7235H65.596H65.1529V45.2458ZM67.4015 42.9226C67.4309 43.0322 67.4555 44.1692 67.4561 45.4495L67.4574 47.7773L67.9227 47.7505C68.3663 47.725 68.3878 47.7125 68.3825 47.4804C68.3794 47.3466 68.3695 46.2215 68.3604 44.9803L68.3437 42.7235H67.8458C67.3729 42.7235 67.3507 42.7334 67.4015 42.9226ZM51.7654 43.1328C51.7634 43.1754 51.6505 43.9868 51.5145 44.936C51.2392 46.8577 51.2235 46.7758 51.8672 46.7883L52.187 46.7945L52.2939 45.9759C52.5043 44.3638 52.7198 43.9452 53.238 44.142C53.3698 44.192 53.487 44.2219 53.4985 44.2084C53.5863 44.1042 53.8076 43.5931 53.8076 43.4943C53.8076 43.3588 53.4478 43.166 53.195 43.166C53.1063 43.166 52.9287 43.2486 52.8003 43.3494L52.5667 43.5328V43.3494C52.5667 43.2486 52.5119 43.166 52.4449 43.166C52.3778 43.166 52.1984 43.1411 52.046 43.1107C51.8936 43.0802 51.7674 43.0902 51.7654 43.1328ZM80.2606 43.202C79.5777 43.499 79.2362 44.3946 79.4303 45.3797C79.6261 46.3733 80.1619 46.8833 81.0094 46.8827C81.3484 46.8825 81.5976 46.8266 81.7948 46.7065C82.1265 46.5046 82.4358 46.0456 82.4363 45.7546C82.4366 45.5759 82.3934 45.5555 82.0129 45.5555C81.6235 45.5555 81.581 45.577 81.4888 45.821C81.4043 46.0446 81.3406 46.0865 81.0859 46.0865C80.7584 46.0865 80.398 45.7938 80.398 45.5277C80.398 45.4456 80.411 45.3785 80.4269 45.3785C80.5857 45.3785 82.3916 45.099 82.4207 45.0699C82.4973 44.9934 82.243 44.1758 82.0281 43.8074C81.6605 43.1775 80.9089 42.92 80.2606 43.202ZM49.4237 43.7038C49.6721 44.1833 49.6147 44.256 49.0435 44.1853C48.3561 44.1002 48.2922 44.0587 48.4285 43.7858C48.5596 43.5231 48.8835 43.3467 49.121 43.4087C49.2163 43.4336 49.3526 43.5665 49.4237 43.7038ZM74.187 43.5564C74.3887 43.7989 74.4003 44.2606 74.2108 44.4943C74.0567 44.6842 73.9615 44.7124 73.4712 44.7135L72.9084 44.7147L72.8823 44.0731L72.8563 43.4315H73.4698C73.8897 43.4315 74.1159 43.4709 74.187 43.5564ZM77.5253 43.7038C77.3214 43.9457 77.2958 43.9556 77.2958 43.7923C77.2958 43.6334 77.2416 43.6085 76.8969 43.6085C76.5418 43.6085 76.4984 43.6303 76.5002 43.8076C76.5038 44.1308 76.8332 47.2479 76.8665 47.2722C76.8832 47.2844 77.0912 47.277 77.3287 47.256L77.7604 47.2175L77.7072 46.8304C77.678 46.6175 77.6276 46.0662 77.5951 45.6052C77.545 44.8933 77.5592 44.7317 77.6894 44.5333C77.8202 44.3341 77.8858 44.3077 78.135 44.3544C78.4246 44.4086 78.4278 44.4054 78.4874 44.009C78.5635 43.502 78.5158 43.4315 78.0962 43.4315C77.8237 43.4315 77.7084 43.4865 77.5253 43.7038ZM81.1782 44.0289C81.2768 44.114 81.3828 44.2707 81.4137 44.3769C81.4644 44.5515 81.4291 44.5755 81.0447 44.6277C80.8109 44.6594 80.5498 44.7047 80.4645 44.7281C80.3399 44.7625 80.3094 44.7146 80.3094 44.4843C80.3094 43.948 80.7917 43.6952 81.1782 44.0289ZM61.4197 44.306C60.973 44.7522 60.9785 44.9031 61.4462 45.0288C61.7874 45.1205 61.8285 45.1127 61.9673 44.9289C62.2316 44.5791 62.937 44.7159 62.937 45.117C62.937 45.2841 62.6608 45.4015 62.0094 45.5114C61.2652 45.6369 60.8984 46.0171 60.8984 46.6632C60.8984 47.526 61.6891 47.9751 62.5434 47.5978C63.04 47.3785 63.0256 47.38 63.0256 47.5468C63.0256 47.6462 63.1315 47.6795 63.4466 47.6796L63.8677 47.6797L63.8376 46.2044C63.8211 45.393 63.7722 44.6363 63.729 44.5229C63.5881 44.1528 63.1439 43.9632 62.4169 43.9628C61.7763 43.9625 61.7573 43.969 61.4197 44.306ZM62.8963 46.3299C62.8328 46.6786 62.6291 46.9463 62.4052 46.9753C62.1102 47.0135 61.9636 46.9629 61.8716 46.7912C61.685 46.4432 61.9101 46.1955 62.5381 46.0575C62.9414 45.9689 62.9595 45.9826 62.8963 46.3299Z" fill="white"/>
</svg>
