<svg width="145" height="54" viewBox="0 0 145 54" fill="none" xmlns="http://www.w3.org/2000/svg">
<path fill-rule="evenodd" clip-rule="evenodd" d="M5.28406 5.23515C3.28696 5.62804 3.05952 5.70282 3.00525 5.98489C2.97517 6.14115 3.07703 6.29773 3.24303 6.35067C3.93934 6.57279 4.66207 7.07219 5.55558 7.94822C6.80099 9.1693 7.18583 9.7446 8.40434 12.2069C9.81526 15.058 11.0845 16.579 13.4246 18.2233C16.7636 20.5695 20.0892 20.9341 23.229 19.2983C23.7323 19.036 24.1442 18.7528 24.1442 18.669C24.1442 18.1517 22.0194 15.0759 20.5547 13.4726C19.3149 12.1156 16.1792 9.60556 15.7238 9.60556C15.6426 9.60556 15.5524 9.54816 15.5231 9.478C15.494 9.408 14.9688 9.11796 14.356 8.83381C13.7433 8.54967 13.1176 8.24815 12.9656 8.16412C12.8136 8.07993 12.5665 8.01104 12.4165 8.01104C12.2456 8.01104 12.2002 7.95539 12.2949 7.86196C12.6586 7.50351 15.3471 8.48174 17.4596 9.74125C19.7777 11.1234 21.5985 12.7029 23.0929 14.6283C24.3976 16.3092 24.6449 16.7391 25.3388 18.5349C25.6608 19.368 26.0853 20.4443 26.2821 20.9266C26.4789 21.409 26.84 22.3418 27.0844 22.9995C27.3289 23.6572 27.6633 24.4824 27.8276 24.8332C27.992 25.184 28.7397 27.0496 29.4891 28.9789C30.2386 30.9083 30.945 32.7021 31.0589 32.9652C31.1729 33.2283 31.5373 34.1611 31.869 35.0381C32.5749 36.9045 32.6565 37.0313 33.152 37.0313C33.5532 37.0313 33.9074 36.4132 34.5077 34.6658C34.6684 34.198 35.0466 33.2293 35.348 32.5132C36.08 30.775 37.6725 26.7251 37.6725 26.602C37.6725 26.5481 37.8056 26.1999 37.9682 25.828C38.1309 25.4563 38.3443 24.9547 38.4424 24.7136C38.6945 24.0935 38.8613 24.1651 39.1861 25.0325C39.3422 25.4492 39.5924 26.0769 39.7424 26.4277C40.2206 27.5474 40.4016 27.9849 41.1272 29.7762C41.5179 30.7409 41.9327 31.7454 42.049 32.0085C42.5276 33.092 43.1033 34.4698 43.5465 35.593C44.0385 36.8399 44.4626 37.2473 44.8948 36.8879C45.0195 36.7841 45.1679 36.5148 45.2244 36.2892C45.2809 36.0637 45.7203 34.8648 46.2008 33.6249C46.6813 32.3852 47.2606 30.8685 47.4881 30.2546C47.7155 29.6407 47.9923 28.9231 48.1031 28.66C48.2138 28.3969 48.4147 27.8511 48.5493 27.4469C48.6841 27.0429 49.2643 25.5216 49.8385 24.0662C50.4127 22.6109 50.8826 21.3846 50.8826 21.3412C50.8826 21.0748 52.721 16.6353 53.043 16.1244C53.3898 15.5742 54.0573 14.9925 54.9622 14.4521C55.193 14.3143 55.2171 14.2276 55.0729 14.0535C54.9264 13.8766 54.2573 13.8326 51.8119 13.839C49.0441 13.846 48.73 13.8742 48.683 14.1185C48.6275 14.4076 48.6806 14.4376 49.7215 14.7043C50.549 14.9164 50.8826 15.2355 50.8826 15.8148C50.8826 16.0602 50.4485 17.5081 49.9181 19.0323C49.3878 20.5565 48.8226 22.1983 48.6623 22.6806C48.5021 23.1629 48.1408 24.1675 47.8594 24.9129C47.5778 25.6584 47.2535 26.5553 47.1384 26.9061C47.0232 27.2569 46.702 28.1538 46.4246 28.8992C46.1472 29.6447 45.8616 30.4465 45.7899 30.6813C45.7181 30.916 45.5876 31.2366 45.4997 31.3938C45.3183 31.7186 45.3422 31.7628 44.1913 28.9789C43.8289 28.102 43.4367 27.1692 43.3201 26.9061C43.2034 26.643 42.7352 25.5308 42.2795 24.4346C41.8238 23.3383 41.2529 21.975 41.0109 21.405C40.0885 19.2342 39.129 16.678 39.0231 16.1107C38.9275 15.5974 38.9703 15.4673 39.3507 15.1141C39.5912 14.8907 39.9157 14.708 40.0718 14.708C40.4312 14.708 40.8657 14.282 40.7675 14.0257C40.6532 13.7274 33.0937 13.7443 32.9793 14.0431C32.8512 14.3776 33.0161 14.5253 33.7343 14.719C34.601 14.9528 35.4776 15.8491 35.829 16.8606C35.9815 17.2991 36.2046 17.8731 36.3251 18.1362C36.9441 19.4877 37.8317 21.7968 37.8317 22.0552C37.8317 22.2171 37.3972 23.4106 36.8661 24.7076C35.7639 27.3989 34.5561 30.33 34.2354 31.0917C33.9931 31.6665 33.7756 31.7547 33.6441 31.3309C33.4891 30.831 32.2728 27.8703 32.1057 27.586C32.0161 27.4337 31.9429 27.2328 31.9429 27.1397C31.9429 27.0466 31.7996 26.6734 31.6246 26.3104C31.4495 25.9473 31.3062 25.5912 31.3062 25.519C31.3062 25.4469 31.1733 25.0837 31.0109 24.7119C30.2334 22.9335 29.4263 20.9096 27.5936 16.1431C27.4082 15.6607 27.0934 14.9984 26.8939 14.6713C26.6947 14.3441 26.5315 14.0415 26.5315 13.9986C26.5315 13.7928 25.165 11.9795 24.4225 11.2001C22.7673 9.46253 21.4142 8.46708 19.2307 7.38057C17.8256 6.68138 15.1617 5.78621 13.799 5.55533C10.1998 4.94542 7.30917 4.83668 5.28406 5.23515ZM11.2922 7.371C11.4453 7.37228 11.5708 7.44499 11.5708 7.53269C11.5708 7.76708 11.1926 7.72722 10.6738 7.43829C10.2463 7.20007 10.2426 7.19003 10.6158 7.27661C10.8347 7.32731 11.1391 7.36989 11.2922 7.371ZM9.26299 7.931C10.4368 8.23412 13.0543 9.28969 13.799 9.76007C13.9303 9.84298 14.36 10.1043 14.7539 10.3408C16.6151 11.4582 19.3365 13.9213 21.0097 16.0026C21.8735 17.077 22.5405 18.1066 22.4587 18.2392C22.4195 18.3027 21.9922 18.503 21.509 18.6839C18.1519 19.9423 13.9163 17.7572 10.2647 12.8829C9.20076 11.4624 7.29199 8.3553 7.1505 7.81316C7.07426 7.52121 7.12201 7.50558 7.76755 7.61114C8.15239 7.67396 8.82531 7.81795 9.26299 7.931ZM67.2757 12.2564C66.8818 12.3816 66.0224 12.5962 65.3659 12.7334C63.5663 13.109 63.3651 13.4825 64.7397 13.8951C65.8728 14.2352 65.8433 13.9505 65.8433 24.5551V33.9341L65.4852 34.6443C65.1914 35.2269 65.0129 35.3857 64.4905 35.5294C64.1197 35.6314 63.8324 35.8151 63.8025 35.9693C63.7741 36.1149 63.8099 36.2389 63.882 36.2448C64.6944 36.3121 70.3276 36.2592 70.4032 36.1835C70.556 36.0304 70.1382 35.5962 69.8382 35.5962C69.3128 35.5962 68.9233 35.1394 68.718 34.2823C68.5581 33.6139 68.5259 31.0724 68.5719 22.7115C68.6305 12.0669 68.6287 11.9975 68.3114 12.0131C68.1357 12.0217 67.6697 12.1313 67.2757 12.2564ZM74.7561 12.258C74.3622 12.3842 73.467 12.6106 72.7667 12.7613C71.7358 12.9829 71.4934 13.0909 71.4934 13.3283C71.4934 13.526 71.6944 13.6907 72.1101 13.8339C72.9136 14.1107 73.0177 14.2297 73.1767 15.054C73.3591 15.9996 73.3522 33.4466 73.169 34.2409C72.9998 34.9748 72.3713 35.5962 71.7979 35.5962C71.4274 35.5962 71.1059 35.9786 71.3069 36.1799C71.3572 36.2305 72.8165 36.2759 74.5495 36.2812C77.5212 36.2901 77.7005 36.2737 77.7005 35.9934C77.7005 35.7922 77.5342 35.653 77.1853 35.5624C76.1556 35.2951 76.1885 35.7014 76.1885 23.2467V11.9973L75.8304 12.0131C75.6334 12.0217 75.15 12.1321 74.7561 12.258ZM123.697 16.0168C122.945 16.4489 122.585 17.2578 122.823 17.9804C123.063 18.7082 123.493 19.0382 124.323 19.132C124.982 19.2065 125.088 19.1666 125.603 18.6508C126.224 18.0284 126.31 17.5274 125.926 16.7826C125.475 15.9079 124.481 15.5665 123.697 16.0168ZM56.3614 22.6517C55.133 23.0169 54.5101 23.4087 53.4771 24.4653C51.2362 26.7575 50.7229 30.683 52.2782 33.634C52.8334 34.6872 54.0869 35.8374 55.1338 36.2544C56.4432 36.776 58.8436 36.7865 60.1525 36.2764C61.8619 35.6105 63.6151 34.3241 63.6151 33.7359C63.6151 33.2208 63.2772 33.2637 62.3801 33.8925C61.4305 34.5578 60.2149 34.9584 59.1452 34.9584C58.3251 34.9584 56.4531 34.3966 56.4531 34.1504C56.4531 34.0804 56.3098 33.9776 56.1348 33.922C55.9597 33.8663 55.8164 33.7462 55.8164 33.6552C55.8164 33.5641 55.6426 33.2827 55.4303 33.03C55.218 32.7771 54.9339 32.1897 54.7989 31.7245C54.4377 30.4797 54.1432 28.609 54.286 28.4657C54.3541 28.3973 56.4633 28.3053 58.9728 28.2614L63.5356 28.1817L63.4932 27.3867C63.3965 25.5711 61.7723 23.3294 60.1433 22.7634C58.9853 22.3609 57.4878 22.3167 56.3614 22.6517ZM83.6689 22.5436C82.1063 22.7689 80.7269 23.4811 79.6666 24.61C78.4616 25.8929 78.0189 27.0456 78.0189 28.8992C78.0189 31.1743 78.8411 32.7364 80.7096 34.0116C81.0229 34.2254 81.2798 34.4488 81.2805 34.5083C81.2811 34.5676 80.9055 34.8318 80.446 35.0954C79.3216 35.7402 78.7911 36.3313 78.5657 37.1907C78.2256 38.4879 78.61 39.2918 80.149 40.5016L80.5283 40.7999L79.6036 41.2531C77.3439 42.3606 76.6323 43.8529 77.5272 45.6071C78.0257 46.5843 78.7467 47.2555 79.9287 47.8426C82.9332 49.3347 86.3867 49.3867 89.2931 47.9835C92.173 46.5931 93.6478 43.7576 92.8647 41.1158C92.635 40.341 91.4114 39.0381 90.5911 38.6947C89.396 38.1945 87.8024 37.988 85.1308 37.987C82.2459 37.9861 81.4035 37.8441 81.0468 37.2988C80.7013 36.7706 80.9182 36.2739 81.6935 35.8186C82.2378 35.4991 82.7309 35.3819 84.0213 35.2652C84.9217 35.1839 86.0165 35.0375 86.4542 34.9399C88.6201 34.4572 90.694 32.8449 91.1944 31.2543C91.7312 29.5483 91.4659 27.1032 90.6002 25.7797C90.4645 25.5723 90.3535 25.3312 90.3535 25.2441C90.3535 25.1569 90.9077 25.0649 91.587 25.0392L92.8205 24.9927V24.1954V23.3981L90.8093 23.4504C89.0685 23.4957 88.7155 23.4611 88.1833 23.1931C86.9805 22.5873 85.1711 22.3269 83.6689 22.5436ZM97.6708 22.6441C95.4935 23.3267 93.9821 25.0104 93.3729 27.4323C92.8356 29.5683 93.041 32.0753 93.8908 33.7505C94.412 34.7784 95.7341 35.9805 96.7706 36.3689C99.0521 37.2242 102.355 36.3687 104.405 34.3919C104.886 33.9283 104.971 33.765 104.824 33.5871C104.565 33.2747 104.493 33.2936 103.538 33.9263C100.67 35.8247 97.4265 35.0598 96.1672 32.1879C95.7789 31.302 95.3746 28.9538 95.5373 28.529C95.627 28.2949 96.1344 28.2616 100.198 28.2239L104.757 28.1817L104.736 27.6236C104.705 26.8004 104.39 25.7228 104.035 25.2232C103.863 24.9817 103.723 24.7253 103.723 24.6533C103.723 24.5816 103.354 24.1798 102.904 23.7604C101.596 22.5432 99.4519 22.0858 97.6708 22.6441ZM108.803 22.5167C108.665 22.599 107.877 22.7498 107.052 22.852C105.61 23.0308 105.011 23.2747 105.213 23.6014C105.265 23.6863 105.522 23.7985 105.783 23.851C106.045 23.9033 106.405 24.0921 106.583 24.2702C106.894 24.5824 106.906 24.7801 106.906 29.7649C106.906 35.4085 106.919 35.324 105.98 35.5295C105.222 35.6952 105.131 35.7504 105.183 36.0097C105.228 36.2318 105.608 36.2651 108.146 36.2694C109.747 36.2721 111.1 36.2311 111.153 36.1784C111.29 36.0411 110.888 35.5962 110.627 35.5962C110.506 35.5962 110.264 35.4527 110.089 35.2773C109.785 34.9724 109.771 34.7458 109.771 30.1163V25.2742L110.404 24.8544C110.752 24.6235 111.514 24.2778 112.096 24.0863L113.155 23.7379L114.036 24.0465C115.017 24.3901 115.446 24.8522 115.666 25.8022C115.746 26.1463 115.813 28.3016 115.815 30.5918C115.819 34.5661 115.804 34.775 115.489 35.176C115.303 35.4128 114.999 35.5962 114.792 35.5962C114.423 35.5962 113.944 36.0036 114.113 36.1731C114.163 36.223 115.516 36.2715 117.12 36.2809C119.911 36.2971 120.036 36.2845 120.036 35.9869C120.036 35.7904 119.911 35.6579 119.695 35.6271C119.507 35.6003 119.22 35.4315 119.058 35.2519C118.789 34.9549 118.756 34.5137 118.681 30.336L118.598 25.7464L118.044 24.6588C117.373 23.3426 116.64 22.7806 115.224 22.4974C114.368 22.3261 114.075 22.3367 113.09 22.5735C112.462 22.7246 111.547 23.0915 111.058 23.3892C109.761 24.1779 109.705 24.1721 109.612 23.2401C109.529 22.415 109.307 22.2168 108.803 22.5167ZM123.538 22.7879C122.662 22.9984 121.767 23.2235 121.548 23.2883C121.107 23.4187 121.02 23.7802 121.389 23.9546C121.52 24.0168 121.843 24.1815 122.105 24.3207L122.583 24.5738L122.625 29.653C122.657 33.5756 122.62 34.7954 122.463 35.0105C122.352 35.1636 121.975 35.3873 121.626 35.5074C121.194 35.656 120.991 35.8201 120.991 36.0199C120.991 36.3 121.256 36.3134 126.64 36.3075C131.788 36.3019 132.294 36.2777 132.341 36.035C132.375 35.8566 132.205 35.6903 131.824 35.5311C131.101 35.2282 131.077 34.5886 131.76 33.7725C131.838 33.6793 132.309 33.0649 132.807 32.4072C133.684 31.2484 133.934 30.9796 134.14 30.9745C134.291 30.9708 136.242 33.8577 136.695 34.7543C136.91 35.18 136.675 35.5501 136.139 35.6265C135.915 35.6584 135.793 35.7887 135.793 35.9948C135.793 36.3029 135.899 36.3137 138.896 36.3137C141.806 36.3137 142 36.2954 142 36.0199C142 35.8218 141.8 35.6573 141.388 35.5152C140.56 35.2299 140.141 34.8098 139.008 33.1247C138.476 32.3354 137.59 31.0623 137.037 30.2957C136.484 29.5291 136.032 28.7959 136.032 28.6664C136.032 28.3112 139.357 24.1324 139.834 23.8884C140.062 23.7714 140.476 23.6268 140.753 23.567C141.282 23.453 141.582 23.0429 141.234 22.9091C141.122 22.866 140.001 22.8509 138.743 22.8753C136.252 22.9238 135.801 23.1011 136.974 23.5713C137.331 23.7143 137.623 23.9374 137.623 24.067C137.623 24.4778 135.514 27.4642 135.224 27.4642C135.16 27.4642 134.832 27.0638 134.495 26.5743C132.762 24.0559 132.727 23.9502 133.495 23.5523C134.482 23.041 134.009 22.922 130.806 22.8764C127.876 22.835 127.755 22.8455 127.755 23.1432C127.755 23.361 127.933 23.5102 128.352 23.6451C128.681 23.7507 129.084 23.9535 129.248 24.0959C129.514 24.3266 130.723 25.9087 131.455 26.9858C131.604 27.205 131.981 27.7432 132.293 28.1817C133.483 29.8539 133.502 29.626 132.023 31.4675C130.1 33.8634 129.096 34.8973 128.335 35.2666C127.472 35.6852 126.48 35.6954 125.983 35.291L125.607 34.9858L125.6 28.7144C125.594 23.3441 125.559 22.4403 125.361 22.424C125.234 22.4137 124.413 22.5773 123.538 22.7879ZM59.1821 23.7316C60.0023 24.1519 60.816 26.5698 60.2544 26.9176C60.0476 27.0456 54.7515 27.0351 54.5433 26.9062C54.3793 26.8045 54.8031 25.2717 55.074 24.9872C55.176 24.8801 55.3668 24.6342 55.4981 24.4406C56.1634 23.46 57.9727 23.1116 59.1821 23.7316ZM100.342 23.796C100.627 23.9702 100.996 24.3354 101.161 24.6076C101.445 25.0753 101.767 26.7654 101.604 26.9292C101.511 27.0222 95.7731 27.0473 95.6812 26.9552C95.645 26.919 95.656 26.6398 95.7053 26.3348C95.8301 25.5641 96.847 24.1219 97.513 23.7705C98.2757 23.3682 99.6621 23.3806 100.342 23.796ZM86.4952 24.1686C87.4736 24.8479 87.9638 25.9063 88.1019 27.6375C88.3388 30.6082 87.8447 32.5135 86.5882 33.4736C86.0727 33.8676 85.8648 33.9219 84.875 33.9218C83.9158 33.9215 83.6576 33.8586 83.1367 33.4983C81.6877 32.4957 81.1019 30.5044 81.432 27.7033C81.7851 24.7045 82.755 23.5751 84.8855 23.6813C85.6422 23.719 86.0065 23.8293 86.4952 24.1686ZM88.0583 41.4229C89.6629 41.7032 90.4014 42.1471 90.7821 43.0598C91.4716 44.713 89.9674 46.7527 87.4919 47.5214C86.1779 47.9293 83.7008 47.88 82.5392 47.4227C80.941 46.7935 80.0062 45.5367 80.0109 44.0231C80.0144 42.9315 80.507 42.0282 81.3643 41.5417C81.941 41.2145 82.2066 41.1819 84.3245 41.1796C85.7184 41.1781 87.2154 41.2755 88.0583 41.4229Z" fill="#DCDCDC"/>
</svg>
