<svg width="214" height="181" viewBox="0 0 214 181" fill="none" xmlns="http://www.w3.org/2000/svg">
<g opacity="0.5">
<g style="mix-blend-mode:hard-light" filter="url(#filter0_f_1_770)">
<mask id="path-1-outside-1_1_770" maskUnits="userSpaceOnUse" x="21" y="21" width="172" height="139" fill="black">
<rect fill="white" x="21" y="21" width="172" height="139"/>
<path d="M192.132 89.859C191.528 87.6077 189.441 86.0702 187.135 86.0702H143.263L164.183 28.9646C165.172 26.2741 163.799 23.309 161.108 22.3206C158.418 21.3322 155.453 22.705 154.464 25.3955L130.963 89.4746C130.359 91.067 130.634 92.8241 131.567 94.1968C132.555 95.5695 134.148 96.3932 135.795 96.3932H168.796L94.9976 141.803L134.697 28.8548C134.752 28.6901 134.807 28.5253 134.807 28.4155C134.807 28.3606 134.807 28.3057 134.862 28.2508C134.862 28.141 134.917 28.0312 134.917 27.9213C134.917 27.8664 134.917 27.8115 134.917 27.7566C134.917 27.6468 134.917 27.537 134.917 27.4821C134.917 27.4272 134.917 27.3722 134.917 27.3173C134.917 27.1526 134.917 27.0428 134.917 26.8781C134.917 26.8232 134.917 26.7682 134.917 26.7133C134.917 26.6035 134.917 26.5486 134.862 26.4388C134.862 26.3839 134.862 26.329 134.807 26.2741C134.807 26.1642 134.752 26.1093 134.752 25.9995C134.752 25.9446 134.752 25.8897 134.697 25.8348C134.642 25.725 134.642 25.6152 134.587 25.5053V25.4504C134.532 25.2857 134.477 25.1759 134.422 25.0112C134.422 24.9562 134.368 24.9562 134.368 24.9013C134.313 24.7915 134.258 24.7366 134.203 24.6268C134.203 24.5719 134.148 24.517 134.093 24.517C134.038 24.4072 133.983 24.3522 133.928 24.2424C133.873 24.1875 133.873 24.1326 133.818 24.1326C133.764 24.0228 133.654 23.9679 133.599 23.8581C133.544 23.8031 133.544 23.7482 133.489 23.7482C133.379 23.6384 133.324 23.5835 133.214 23.4737C133.16 23.4188 133.105 23.3639 133.05 23.309C132.995 23.2541 132.995 23.2541 132.94 23.1991C132.94 23.1991 132.94 23.1991 132.885 23.1991C132.665 23.0344 132.501 22.9246 132.281 22.7599C132.226 22.7599 132.226 22.705 132.171 22.705C132.006 22.5951 131.787 22.5402 131.622 22.4304C131.567 22.4304 131.512 22.3755 131.457 22.3755C131.457 22.3755 131.402 22.3755 131.402 22.3206C131.183 22.2657 131.018 22.2108 130.798 22.1559C130.743 22.1559 130.689 22.1559 130.689 22.1559C130.469 22.101 130.249 22.101 130.085 22.0461C130.03 22.0461 130.03 22.0461 129.975 22.0461C129.755 22.0461 129.481 22.0461 129.261 22.0461C129.206 22.0461 129.206 22.0461 129.151 22.0461C128.931 22.0461 128.712 22.101 128.492 22.1559H128.437C128.218 22.2108 127.998 22.2657 127.778 22.3755C127.723 22.3755 127.669 22.4304 127.614 22.4304C127.394 22.5402 127.174 22.6501 127.01 22.7599L24.4392 86.8939C22.4625 88.1019 21.5839 90.5179 22.1879 92.7142C22.8469 94.9106 24.8785 96.4481 27.1847 96.4481H69.7943L49.8622 152.181C48.8738 154.872 50.3015 157.837 52.992 158.825C53.596 159.045 54.1451 159.154 54.7491 159.154C56.8906 159.154 58.8673 157.837 59.636 155.695L82.0939 93.0437C82.643 91.4513 82.4234 89.6942 81.435 88.3215C80.4466 86.9488 78.9092 86.1251 77.207 86.1251H45.3047L120.091 39.4523L80.4466 152.236C80.3917 152.401 80.3368 152.565 80.3368 152.675C80.3368 152.73 80.3368 152.785 80.2819 152.84C80.2819 152.95 80.227 153.06 80.227 153.169C80.227 153.224 80.227 153.279 80.227 153.334C80.227 153.444 80.227 153.554 80.227 153.664C80.227 153.718 80.227 153.773 80.227 153.828C80.227 153.993 80.227 154.103 80.227 154.268C80.227 154.322 80.227 154.377 80.227 154.432C80.227 154.542 80.227 154.597 80.2819 154.707C80.2819 154.762 80.2819 154.817 80.3368 154.872C80.3368 154.981 80.3917 155.036 80.3917 155.146C80.3917 155.201 80.3917 155.256 80.4466 155.311C80.5015 155.421 80.5015 155.585 80.5565 155.695V155.75C80.6114 155.915 80.6663 156.025 80.7212 156.189C80.7212 156.244 80.7761 156.244 80.7761 156.299C80.831 156.409 80.8859 156.519 80.9408 156.574C80.9408 156.629 80.9957 156.684 80.9957 156.684C81.0506 156.793 81.1056 156.848 81.1605 156.958C81.2154 157.013 81.2154 157.013 81.2703 157.068C81.3252 157.178 81.435 157.288 81.4899 157.342C81.5448 157.397 81.5448 157.452 81.5997 157.452C81.6546 157.507 81.7645 157.617 81.8194 157.672C81.8743 157.727 81.9292 157.782 81.9841 157.837C82.039 157.892 82.039 157.892 82.0939 157.946C82.0939 157.946 82.1488 157.946 82.1488 158.001C82.3685 158.166 82.5332 158.276 82.7528 158.441C82.8077 158.441 82.8077 158.496 82.8627 158.496C83.0274 158.605 83.247 158.66 83.4117 158.77C83.4667 158.77 83.5216 158.825 83.5765 158.825C83.6314 158.825 83.6314 158.825 83.6863 158.88C83.851 158.935 84.0707 158.99 84.2354 159.045C84.2903 159.045 84.2903 159.045 84.3452 159.045C84.5648 159.1 84.7845 159.1 85.059 159.154H85.1139C85.2237 159.154 85.2787 159.154 85.3885 159.154C85.5532 159.154 85.663 159.154 85.8277 159.154C85.8277 159.154 85.8278 159.154 85.8827 159.154C86.1023 159.154 86.3768 159.1 86.5965 159.045H86.6514C86.871 158.99 87.1456 158.935 87.3652 158.825C87.3652 158.825 87.4201 158.825 87.4201 158.77C87.6397 158.66 87.8594 158.55 88.079 158.441L189.936 95.7892C191.803 94.4713 192.736 92.1102 192.132 89.859Z"/>
</mask>
<path d="M192.132 89.859C191.528 87.6077 189.441 86.0702 187.135 86.0702H143.263L164.183 28.9646C165.172 26.2741 163.799 23.309 161.108 22.3206C158.418 21.3322 155.453 22.705 154.464 25.3955L130.963 89.4746C130.359 91.067 130.634 92.8241 131.567 94.1968C132.555 95.5695 134.148 96.3932 135.795 96.3932H168.796L94.9976 141.803L134.697 28.8548C134.752 28.6901 134.807 28.5253 134.807 28.4155C134.807 28.3606 134.807 28.3057 134.862 28.2508C134.862 28.141 134.917 28.0312 134.917 27.9213C134.917 27.8664 134.917 27.8115 134.917 27.7566C134.917 27.6468 134.917 27.537 134.917 27.4821C134.917 27.4272 134.917 27.3722 134.917 27.3173C134.917 27.1526 134.917 27.0428 134.917 26.8781C134.917 26.8232 134.917 26.7682 134.917 26.7133C134.917 26.6035 134.917 26.5486 134.862 26.4388C134.862 26.3839 134.862 26.329 134.807 26.2741C134.807 26.1642 134.752 26.1093 134.752 25.9995C134.752 25.9446 134.752 25.8897 134.697 25.8348C134.642 25.725 134.642 25.6152 134.587 25.5053V25.4504C134.532 25.2857 134.477 25.1759 134.422 25.0112C134.422 24.9562 134.368 24.9562 134.368 24.9013C134.313 24.7915 134.258 24.7366 134.203 24.6268C134.203 24.5719 134.148 24.517 134.093 24.517C134.038 24.4072 133.983 24.3522 133.928 24.2424C133.873 24.1875 133.873 24.1326 133.818 24.1326C133.764 24.0228 133.654 23.9679 133.599 23.8581C133.544 23.8031 133.544 23.7482 133.489 23.7482C133.379 23.6384 133.324 23.5835 133.214 23.4737C133.16 23.4188 133.105 23.3639 133.05 23.309C132.995 23.2541 132.995 23.2541 132.94 23.1991C132.94 23.1991 132.94 23.1991 132.885 23.1991C132.665 23.0344 132.501 22.9246 132.281 22.7599C132.226 22.7599 132.226 22.705 132.171 22.705C132.006 22.5951 131.787 22.5402 131.622 22.4304C131.567 22.4304 131.512 22.3755 131.457 22.3755C131.457 22.3755 131.402 22.3755 131.402 22.3206C131.183 22.2657 131.018 22.2108 130.798 22.1559C130.743 22.1559 130.689 22.1559 130.689 22.1559C130.469 22.101 130.249 22.101 130.085 22.0461C130.03 22.0461 130.03 22.0461 129.975 22.0461C129.755 22.0461 129.481 22.0461 129.261 22.0461C129.206 22.0461 129.206 22.0461 129.151 22.0461C128.931 22.0461 128.712 22.101 128.492 22.1559H128.437C128.218 22.2108 127.998 22.2657 127.778 22.3755C127.723 22.3755 127.669 22.4304 127.614 22.4304C127.394 22.5402 127.174 22.6501 127.01 22.7599L24.4392 86.8939C22.4625 88.1019 21.5839 90.5179 22.1879 92.7142C22.8469 94.9106 24.8785 96.4481 27.1847 96.4481H69.7943L49.8622 152.181C48.8738 154.872 50.3015 157.837 52.992 158.825C53.596 159.045 54.1451 159.154 54.7491 159.154C56.8906 159.154 58.8673 157.837 59.636 155.695L82.0939 93.0437C82.643 91.4513 82.4234 89.6942 81.435 88.3215C80.4466 86.9488 78.9092 86.1251 77.207 86.1251H45.3047L120.091 39.4523L80.4466 152.236C80.3917 152.401 80.3368 152.565 80.3368 152.675C80.3368 152.73 80.3368 152.785 80.2819 152.84C80.2819 152.95 80.227 153.06 80.227 153.169C80.227 153.224 80.227 153.279 80.227 153.334C80.227 153.444 80.227 153.554 80.227 153.664C80.227 153.718 80.227 153.773 80.227 153.828C80.227 153.993 80.227 154.103 80.227 154.268C80.227 154.322 80.227 154.377 80.227 154.432C80.227 154.542 80.227 154.597 80.2819 154.707C80.2819 154.762 80.2819 154.817 80.3368 154.872C80.3368 154.981 80.3917 155.036 80.3917 155.146C80.3917 155.201 80.3917 155.256 80.4466 155.311C80.5015 155.421 80.5015 155.585 80.5565 155.695V155.75C80.6114 155.915 80.6663 156.025 80.7212 156.189C80.7212 156.244 80.7761 156.244 80.7761 156.299C80.831 156.409 80.8859 156.519 80.9408 156.574C80.9408 156.629 80.9957 156.684 80.9957 156.684C81.0506 156.793 81.1056 156.848 81.1605 156.958C81.2154 157.013 81.2154 157.013 81.2703 157.068C81.3252 157.178 81.435 157.288 81.4899 157.342C81.5448 157.397 81.5448 157.452 81.5997 157.452C81.6546 157.507 81.7645 157.617 81.8194 157.672C81.8743 157.727 81.9292 157.782 81.9841 157.837C82.039 157.892 82.039 157.892 82.0939 157.946C82.0939 157.946 82.1488 157.946 82.1488 158.001C82.3685 158.166 82.5332 158.276 82.7528 158.441C82.8077 158.441 82.8077 158.496 82.8627 158.496C83.0274 158.605 83.247 158.66 83.4117 158.77C83.4667 158.77 83.5216 158.825 83.5765 158.825C83.6314 158.825 83.6314 158.825 83.6863 158.88C83.851 158.935 84.0707 158.99 84.2354 159.045C84.2903 159.045 84.2903 159.045 84.3452 159.045C84.5648 159.1 84.7845 159.1 85.059 159.154H85.1139C85.2237 159.154 85.2787 159.154 85.3885 159.154C85.5532 159.154 85.663 159.154 85.8277 159.154C85.8277 159.154 85.8278 159.154 85.8827 159.154C86.1023 159.154 86.3768 159.1 86.5965 159.045H86.6514C86.871 158.99 87.1456 158.935 87.3652 158.825C87.3652 158.825 87.4201 158.825 87.4201 158.77C87.6397 158.66 87.8594 158.55 88.079 158.441L189.936 95.7892C191.803 94.4713 192.736 92.1102 192.132 89.859Z" stroke="#02A9F7" stroke-width="1.14158" mask="url(#path-1-outside-1_1_770)"/>
</g>
<g style="mix-blend-mode:hard-light" filter="url(#filter1_f_1_770)">
<mask id="path-2-outside-2_1_770" maskUnits="userSpaceOnUse" x="21" y="21" width="173" height="139" fill="black">
<rect fill="white" x="21" y="21" width="173" height="139"/>
<path d="M192.132 89.859C191.528 87.6077 189.441 86.0702 187.135 86.0702H143.263L164.183 28.9646C165.172 26.2741 163.799 23.309 161.108 22.3206C158.418 21.3322 155.453 22.705 154.464 25.3955L130.963 89.4746C130.359 91.067 130.634 92.8241 131.567 94.1968C132.555 95.5695 134.148 96.3932 135.795 96.3932H168.796L94.9976 141.803L134.697 28.8548C134.752 28.6901 134.807 28.5253 134.807 28.4155C134.807 28.3606 134.807 28.3057 134.862 28.2508C134.862 28.141 134.917 28.0312 134.917 27.9213C134.917 27.8664 134.917 27.8115 134.917 27.7566C134.917 27.6468 134.917 27.537 134.917 27.4821C134.917 27.4272 134.917 27.3722 134.917 27.3173C134.917 27.1526 134.917 27.0428 134.917 26.8781C134.917 26.8232 134.917 26.7682 134.917 26.7133C134.917 26.6035 134.917 26.5486 134.862 26.4388C134.862 26.3839 134.862 26.329 134.807 26.2741C134.807 26.1642 134.752 26.1093 134.752 25.9995C134.752 25.9446 134.752 25.8897 134.697 25.8348C134.642 25.725 134.642 25.6152 134.587 25.5053V25.4504C134.532 25.2857 134.477 25.1759 134.422 25.0112C134.422 24.9562 134.368 24.9562 134.368 24.9013C134.313 24.7915 134.258 24.7366 134.203 24.6268C134.203 24.5719 134.148 24.517 134.093 24.517C134.038 24.4072 133.983 24.3522 133.928 24.2424C133.873 24.1875 133.873 24.1326 133.818 24.1326C133.764 24.0228 133.654 23.9679 133.599 23.8581C133.544 23.8031 133.544 23.7482 133.489 23.7482C133.379 23.6384 133.324 23.5835 133.214 23.4737C133.16 23.4188 133.105 23.3639 133.05 23.309C132.995 23.2541 132.995 23.2541 132.94 23.1991C132.94 23.1991 132.94 23.1991 132.885 23.1991C132.665 23.0344 132.501 22.9246 132.281 22.7599C132.226 22.7599 132.226 22.705 132.171 22.705C132.006 22.5951 131.787 22.5402 131.622 22.4304C131.567 22.4304 131.512 22.3755 131.457 22.3755C131.457 22.3755 131.402 22.3755 131.402 22.3206C131.183 22.2657 131.018 22.2108 130.798 22.1559C130.743 22.1559 130.689 22.1559 130.689 22.1559C130.469 22.101 130.249 22.101 130.085 22.0461C130.03 22.0461 130.03 22.0461 129.975 22.0461C129.755 22.0461 129.481 22.0461 129.261 22.0461C129.206 22.0461 129.206 22.0461 129.151 22.0461C128.931 22.0461 128.712 22.101 128.492 22.1559H128.437C128.218 22.2108 127.998 22.2657 127.778 22.3755C127.723 22.3755 127.669 22.4304 127.614 22.4304C127.394 22.5402 127.174 22.6501 127.01 22.7599L24.4392 86.8939C22.4625 88.1019 21.5839 90.5179 22.1879 92.7142C22.8469 94.9106 24.8785 96.4481 27.1847 96.4481H69.7943L49.8622 152.181C48.8738 154.872 50.3015 157.837 52.992 158.825C53.596 159.045 54.1451 159.154 54.7491 159.154C56.8906 159.154 58.8673 157.837 59.636 155.695L82.0939 93.0437C82.643 91.4513 82.4234 89.6942 81.435 88.3215C80.4466 86.9488 78.9092 86.1251 77.207 86.1251H45.3047L120.091 39.4523L80.4466 152.236C80.3917 152.401 80.3368 152.565 80.3368 152.675C80.3368 152.73 80.3368 152.785 80.2819 152.84C80.2819 152.95 80.227 153.06 80.227 153.169C80.227 153.224 80.227 153.279 80.227 153.334C80.227 153.444 80.227 153.554 80.227 153.664C80.227 153.718 80.227 153.773 80.227 153.828C80.227 153.993 80.227 154.103 80.227 154.268C80.227 154.322 80.227 154.377 80.227 154.432C80.227 154.542 80.227 154.597 80.2819 154.707C80.2819 154.762 80.2819 154.817 80.3368 154.872C80.3368 154.981 80.3917 155.036 80.3917 155.146C80.3917 155.201 80.3917 155.256 80.4466 155.311C80.5015 155.421 80.5015 155.585 80.5565 155.695V155.75C80.6114 155.915 80.6663 156.025 80.7212 156.189C80.7212 156.244 80.7761 156.244 80.7761 156.299C80.831 156.409 80.8859 156.519 80.9408 156.574C80.9408 156.629 80.9957 156.684 80.9957 156.684C81.0506 156.793 81.1056 156.848 81.1605 156.958C81.2154 157.013 81.2154 157.013 81.2703 157.068C81.3252 157.178 81.435 157.288 81.4899 157.342C81.5448 157.397 81.5448 157.452 81.5997 157.452C81.6546 157.507 81.7645 157.617 81.8194 157.672C81.8743 157.727 81.9292 157.782 81.9841 157.837C82.039 157.892 82.039 157.892 82.0939 157.946C82.0939 157.946 82.1488 157.946 82.1488 158.001C82.3685 158.166 82.5332 158.276 82.7528 158.441C82.8077 158.441 82.8077 158.496 82.8627 158.496C83.0274 158.605 83.247 158.66 83.4117 158.77C83.4667 158.77 83.5216 158.825 83.5765 158.825C83.6314 158.825 83.6314 158.825 83.6863 158.88C83.851 158.935 84.0707 158.99 84.2354 159.045C84.2903 159.045 84.2903 159.045 84.3452 159.045C84.5648 159.1 84.7845 159.1 85.059 159.154H85.1139C85.2237 159.154 85.2787 159.154 85.3885 159.154C85.5532 159.154 85.663 159.154 85.8277 159.154C85.8277 159.154 85.8278 159.154 85.8827 159.154C86.1023 159.154 86.3768 159.1 86.5965 159.045H86.6514C86.871 158.99 87.1456 158.935 87.3652 158.825C87.3652 158.825 87.4201 158.825 87.4201 158.77C87.6397 158.66 87.8594 158.55 88.079 158.441L189.936 95.7892C191.803 94.4713 192.736 92.1102 192.132 89.859Z"/>
</mask>
<path d="M192.132 89.859C191.528 87.6077 189.441 86.0702 187.135 86.0702H143.263L164.183 28.9646C165.172 26.2741 163.799 23.309 161.108 22.3206C158.418 21.3322 155.453 22.705 154.464 25.3955L130.963 89.4746C130.359 91.067 130.634 92.8241 131.567 94.1968C132.555 95.5695 134.148 96.3932 135.795 96.3932H168.796L94.9976 141.803L134.697 28.8548C134.752 28.6901 134.807 28.5253 134.807 28.4155C134.807 28.3606 134.807 28.3057 134.862 28.2508C134.862 28.141 134.917 28.0312 134.917 27.9213C134.917 27.8664 134.917 27.8115 134.917 27.7566C134.917 27.6468 134.917 27.537 134.917 27.4821C134.917 27.4272 134.917 27.3722 134.917 27.3173C134.917 27.1526 134.917 27.0428 134.917 26.8781C134.917 26.8232 134.917 26.7682 134.917 26.7133C134.917 26.6035 134.917 26.5486 134.862 26.4388C134.862 26.3839 134.862 26.329 134.807 26.2741C134.807 26.1642 134.752 26.1093 134.752 25.9995C134.752 25.9446 134.752 25.8897 134.697 25.8348C134.642 25.725 134.642 25.6152 134.587 25.5053V25.4504C134.532 25.2857 134.477 25.1759 134.422 25.0112C134.422 24.9562 134.368 24.9562 134.368 24.9013C134.313 24.7915 134.258 24.7366 134.203 24.6268C134.203 24.5719 134.148 24.517 134.093 24.517C134.038 24.4072 133.983 24.3522 133.928 24.2424C133.873 24.1875 133.873 24.1326 133.818 24.1326C133.764 24.0228 133.654 23.9679 133.599 23.8581C133.544 23.8031 133.544 23.7482 133.489 23.7482C133.379 23.6384 133.324 23.5835 133.214 23.4737C133.16 23.4188 133.105 23.3639 133.05 23.309C132.995 23.2541 132.995 23.2541 132.94 23.1991C132.94 23.1991 132.94 23.1991 132.885 23.1991C132.665 23.0344 132.501 22.9246 132.281 22.7599C132.226 22.7599 132.226 22.705 132.171 22.705C132.006 22.5951 131.787 22.5402 131.622 22.4304C131.567 22.4304 131.512 22.3755 131.457 22.3755C131.457 22.3755 131.402 22.3755 131.402 22.3206C131.183 22.2657 131.018 22.2108 130.798 22.1559C130.743 22.1559 130.689 22.1559 130.689 22.1559C130.469 22.101 130.249 22.101 130.085 22.0461C130.03 22.0461 130.03 22.0461 129.975 22.0461C129.755 22.0461 129.481 22.0461 129.261 22.0461C129.206 22.0461 129.206 22.0461 129.151 22.0461C128.931 22.0461 128.712 22.101 128.492 22.1559H128.437C128.218 22.2108 127.998 22.2657 127.778 22.3755C127.723 22.3755 127.669 22.4304 127.614 22.4304C127.394 22.5402 127.174 22.6501 127.01 22.7599L24.4392 86.8939C22.4625 88.1019 21.5839 90.5179 22.1879 92.7142C22.8469 94.9106 24.8785 96.4481 27.1847 96.4481H69.7943L49.8622 152.181C48.8738 154.872 50.3015 157.837 52.992 158.825C53.596 159.045 54.1451 159.154 54.7491 159.154C56.8906 159.154 58.8673 157.837 59.636 155.695L82.0939 93.0437C82.643 91.4513 82.4234 89.6942 81.435 88.3215C80.4466 86.9488 78.9092 86.1251 77.207 86.1251H45.3047L120.091 39.4523L80.4466 152.236C80.3917 152.401 80.3368 152.565 80.3368 152.675C80.3368 152.73 80.3368 152.785 80.2819 152.84C80.2819 152.95 80.227 153.06 80.227 153.169C80.227 153.224 80.227 153.279 80.227 153.334C80.227 153.444 80.227 153.554 80.227 153.664C80.227 153.718 80.227 153.773 80.227 153.828C80.227 153.993 80.227 154.103 80.227 154.268C80.227 154.322 80.227 154.377 80.227 154.432C80.227 154.542 80.227 154.597 80.2819 154.707C80.2819 154.762 80.2819 154.817 80.3368 154.872C80.3368 154.981 80.3917 155.036 80.3917 155.146C80.3917 155.201 80.3917 155.256 80.4466 155.311C80.5015 155.421 80.5015 155.585 80.5565 155.695V155.75C80.6114 155.915 80.6663 156.025 80.7212 156.189C80.7212 156.244 80.7761 156.244 80.7761 156.299C80.831 156.409 80.8859 156.519 80.9408 156.574C80.9408 156.629 80.9957 156.684 80.9957 156.684C81.0506 156.793 81.1056 156.848 81.1605 156.958C81.2154 157.013 81.2154 157.013 81.2703 157.068C81.3252 157.178 81.435 157.288 81.4899 157.342C81.5448 157.397 81.5448 157.452 81.5997 157.452C81.6546 157.507 81.7645 157.617 81.8194 157.672C81.8743 157.727 81.9292 157.782 81.9841 157.837C82.039 157.892 82.039 157.892 82.0939 157.946C82.0939 157.946 82.1488 157.946 82.1488 158.001C82.3685 158.166 82.5332 158.276 82.7528 158.441C82.8077 158.441 82.8077 158.496 82.8627 158.496C83.0274 158.605 83.247 158.66 83.4117 158.77C83.4667 158.77 83.5216 158.825 83.5765 158.825C83.6314 158.825 83.6314 158.825 83.6863 158.88C83.851 158.935 84.0707 158.99 84.2354 159.045C84.2903 159.045 84.2903 159.045 84.3452 159.045C84.5648 159.1 84.7845 159.1 85.059 159.154H85.1139C85.2237 159.154 85.2787 159.154 85.3885 159.154C85.5532 159.154 85.663 159.154 85.8277 159.154C85.8277 159.154 85.8278 159.154 85.8827 159.154C86.1023 159.154 86.3768 159.1 86.5965 159.045H86.6514C86.871 158.99 87.1456 158.935 87.3652 158.825C87.3652 158.825 87.4201 158.825 87.4201 158.77C87.6397 158.66 87.8594 158.55 88.079 158.441L189.936 95.7892C191.803 94.4713 192.736 92.1102 192.132 89.859Z" stroke="#02A9F7" stroke-width="1.49284" mask="url(#path-2-outside-2_1_770)"/>
</g>
<g style="mix-blend-mode:hard-light" filter="url(#filter2_ddi_1_770)">
<mask id="path-3-outside-3_1_770" maskUnits="userSpaceOnUse" x="21" y="21" width="172" height="139" fill="black">
<rect fill="white" x="21" y="21" width="172" height="139"/>
<path d="M192.132 89.859C191.528 87.6077 189.441 86.0702 187.135 86.0702H143.263L164.183 28.9646C165.172 26.2741 163.799 23.309 161.108 22.3206C158.418 21.3322 155.453 22.705 154.464 25.3955L130.963 89.4746C130.359 91.067 130.634 92.8241 131.567 94.1968C132.555 95.5695 134.148 96.3932 135.795 96.3932H168.796L94.9976 141.803L134.697 28.8548C134.752 28.6901 134.807 28.5253 134.807 28.4155C134.807 28.3606 134.807 28.3057 134.862 28.2508C134.862 28.141 134.917 28.0312 134.917 27.9213C134.917 27.8664 134.917 27.8115 134.917 27.7566C134.917 27.6468 134.917 27.537 134.917 27.4821C134.917 27.4272 134.917 27.3722 134.917 27.3173C134.917 27.1526 134.917 27.0428 134.917 26.8781C134.917 26.8232 134.917 26.7682 134.917 26.7133C134.917 26.6035 134.917 26.5486 134.862 26.4388C134.862 26.3839 134.862 26.329 134.807 26.2741C134.807 26.1642 134.752 26.1093 134.752 25.9995C134.752 25.9446 134.752 25.8897 134.697 25.8348C134.642 25.725 134.642 25.6152 134.587 25.5053V25.4504C134.532 25.2857 134.477 25.1759 134.422 25.0112C134.422 24.9562 134.368 24.9562 134.368 24.9013C134.313 24.7915 134.258 24.7366 134.203 24.6268C134.203 24.5719 134.148 24.517 134.093 24.517C134.038 24.4072 133.983 24.3522 133.928 24.2424C133.873 24.1875 133.873 24.1326 133.818 24.1326C133.764 24.0228 133.654 23.9679 133.599 23.8581C133.544 23.8031 133.544 23.7482 133.489 23.7482C133.379 23.6384 133.324 23.5835 133.214 23.4737C133.16 23.4188 133.105 23.3639 133.05 23.309C132.995 23.2541 132.995 23.2541 132.94 23.1991C132.94 23.1991 132.94 23.1991 132.885 23.1991C132.665 23.0344 132.501 22.9246 132.281 22.7599C132.226 22.7599 132.226 22.705 132.171 22.705C132.006 22.5951 131.787 22.5402 131.622 22.4304C131.567 22.4304 131.512 22.3755 131.457 22.3755C131.457 22.3755 131.402 22.3755 131.402 22.3206C131.183 22.2657 131.018 22.2108 130.798 22.1559C130.743 22.1559 130.689 22.1559 130.689 22.1559C130.469 22.101 130.249 22.101 130.085 22.0461C130.03 22.0461 130.03 22.0461 129.975 22.0461C129.755 22.0461 129.481 22.0461 129.261 22.0461C129.206 22.0461 129.206 22.0461 129.151 22.0461C128.931 22.0461 128.712 22.101 128.492 22.1559H128.437C128.218 22.2108 127.998 22.2657 127.778 22.3755C127.723 22.3755 127.669 22.4304 127.614 22.4304C127.394 22.5402 127.174 22.6501 127.01 22.7599L24.4392 86.8939C22.4625 88.1019 21.5839 90.5179 22.1879 92.7142C22.8469 94.9106 24.8785 96.4481 27.1847 96.4481H69.7943L49.8622 152.181C48.8738 154.872 50.3015 157.837 52.992 158.825C53.596 159.045 54.1451 159.154 54.7491 159.154C56.8906 159.154 58.8673 157.837 59.636 155.695L82.0939 93.0437C82.643 91.4513 82.4234 89.6942 81.435 88.3215C80.4466 86.9488 78.9092 86.1251 77.207 86.1251H45.3047L120.091 39.4523L80.4466 152.236C80.3917 152.401 80.3368 152.565 80.3368 152.675C80.3368 152.73 80.3368 152.785 80.2819 152.84C80.2819 152.95 80.227 153.06 80.227 153.169C80.227 153.224 80.227 153.279 80.227 153.334C80.227 153.444 80.227 153.554 80.227 153.664C80.227 153.718 80.227 153.773 80.227 153.828C80.227 153.993 80.227 154.103 80.227 154.268C80.227 154.322 80.227 154.377 80.227 154.432C80.227 154.542 80.227 154.597 80.2819 154.707C80.2819 154.762 80.2819 154.817 80.3368 154.872C80.3368 154.981 80.3917 155.036 80.3917 155.146C80.3917 155.201 80.3917 155.256 80.4466 155.311C80.5015 155.421 80.5015 155.585 80.5565 155.695V155.75C80.6114 155.915 80.6663 156.025 80.7212 156.189C80.7212 156.244 80.7761 156.244 80.7761 156.299C80.831 156.409 80.8859 156.519 80.9408 156.574C80.9408 156.629 80.9957 156.684 80.9957 156.684C81.0506 156.793 81.1056 156.848 81.1605 156.958C81.2154 157.013 81.2154 157.013 81.2703 157.068C81.3252 157.178 81.435 157.288 81.4899 157.342C81.5448 157.397 81.5448 157.452 81.5997 157.452C81.6546 157.507 81.7645 157.617 81.8194 157.672C81.8743 157.727 81.9292 157.782 81.9841 157.837C82.039 157.892 82.039 157.892 82.0939 157.946C82.0939 157.946 82.1488 157.946 82.1488 158.001C82.3685 158.166 82.5332 158.276 82.7528 158.441C82.8077 158.441 82.8077 158.496 82.8627 158.496C83.0274 158.605 83.247 158.66 83.4117 158.77C83.4667 158.77 83.5216 158.825 83.5765 158.825C83.6314 158.825 83.6314 158.825 83.6863 158.88C83.851 158.935 84.0707 158.99 84.2354 159.045C84.2903 159.045 84.2903 159.045 84.3452 159.045C84.5648 159.1 84.7845 159.1 85.059 159.154H85.1139C85.2237 159.154 85.2787 159.154 85.3885 159.154C85.5532 159.154 85.663 159.154 85.8277 159.154C85.8277 159.154 85.8278 159.154 85.8827 159.154C86.1023 159.154 86.3768 159.1 86.5965 159.045H86.6514C86.871 158.99 87.1456 158.935 87.3652 158.825C87.3652 158.825 87.4201 158.825 87.4201 158.77C87.6397 158.66 87.8594 158.55 88.079 158.441L189.936 95.7892C191.803 94.4713 192.736 92.1102 192.132 89.859Z"/>
</mask>
<path d="M192.132 89.859C191.528 87.6077 189.441 86.0702 187.135 86.0702H143.263L164.183 28.9646C165.172 26.2741 163.799 23.309 161.108 22.3206C158.418 21.3322 155.453 22.705 154.464 25.3955L130.963 89.4746C130.359 91.067 130.634 92.8241 131.567 94.1968C132.555 95.5695 134.148 96.3932 135.795 96.3932H168.796L94.9976 141.803L134.697 28.8548C134.752 28.6901 134.807 28.5253 134.807 28.4155C134.807 28.3606 134.807 28.3057 134.862 28.2508C134.862 28.141 134.917 28.0312 134.917 27.9213C134.917 27.8664 134.917 27.8115 134.917 27.7566C134.917 27.6468 134.917 27.537 134.917 27.4821C134.917 27.4272 134.917 27.3722 134.917 27.3173C134.917 27.1526 134.917 27.0428 134.917 26.8781C134.917 26.8232 134.917 26.7682 134.917 26.7133C134.917 26.6035 134.917 26.5486 134.862 26.4388C134.862 26.3839 134.862 26.329 134.807 26.2741C134.807 26.1642 134.752 26.1093 134.752 25.9995C134.752 25.9446 134.752 25.8897 134.697 25.8348C134.642 25.725 134.642 25.6152 134.587 25.5053V25.4504C134.532 25.2857 134.477 25.1759 134.422 25.0112C134.422 24.9562 134.368 24.9562 134.368 24.9013C134.313 24.7915 134.258 24.7366 134.203 24.6268C134.203 24.5719 134.148 24.517 134.093 24.517C134.038 24.4072 133.983 24.3522 133.928 24.2424C133.873 24.1875 133.873 24.1326 133.818 24.1326C133.764 24.0228 133.654 23.9679 133.599 23.8581C133.544 23.8031 133.544 23.7482 133.489 23.7482C133.379 23.6384 133.324 23.5835 133.214 23.4737C133.16 23.4188 133.105 23.3639 133.05 23.309C132.995 23.2541 132.995 23.2541 132.94 23.1991C132.94 23.1991 132.94 23.1991 132.885 23.1991C132.665 23.0344 132.501 22.9246 132.281 22.7599C132.226 22.7599 132.226 22.705 132.171 22.705C132.006 22.5951 131.787 22.5402 131.622 22.4304C131.567 22.4304 131.512 22.3755 131.457 22.3755C131.457 22.3755 131.402 22.3755 131.402 22.3206C131.183 22.2657 131.018 22.2108 130.798 22.1559C130.743 22.1559 130.689 22.1559 130.689 22.1559C130.469 22.101 130.249 22.101 130.085 22.0461C130.03 22.0461 130.03 22.0461 129.975 22.0461C129.755 22.0461 129.481 22.0461 129.261 22.0461C129.206 22.0461 129.206 22.0461 129.151 22.0461C128.931 22.0461 128.712 22.101 128.492 22.1559H128.437C128.218 22.2108 127.998 22.2657 127.778 22.3755C127.723 22.3755 127.669 22.4304 127.614 22.4304C127.394 22.5402 127.174 22.6501 127.01 22.7599L24.4392 86.8939C22.4625 88.1019 21.5839 90.5179 22.1879 92.7142C22.8469 94.9106 24.8785 96.4481 27.1847 96.4481H69.7943L49.8622 152.181C48.8738 154.872 50.3015 157.837 52.992 158.825C53.596 159.045 54.1451 159.154 54.7491 159.154C56.8906 159.154 58.8673 157.837 59.636 155.695L82.0939 93.0437C82.643 91.4513 82.4234 89.6942 81.435 88.3215C80.4466 86.9488 78.9092 86.1251 77.207 86.1251H45.3047L120.091 39.4523L80.4466 152.236C80.3917 152.401 80.3368 152.565 80.3368 152.675C80.3368 152.73 80.3368 152.785 80.2819 152.84C80.2819 152.95 80.227 153.06 80.227 153.169C80.227 153.224 80.227 153.279 80.227 153.334C80.227 153.444 80.227 153.554 80.227 153.664C80.227 153.718 80.227 153.773 80.227 153.828C80.227 153.993 80.227 154.103 80.227 154.268C80.227 154.322 80.227 154.377 80.227 154.432C80.227 154.542 80.227 154.597 80.2819 154.707C80.2819 154.762 80.2819 154.817 80.3368 154.872C80.3368 154.981 80.3917 155.036 80.3917 155.146C80.3917 155.201 80.3917 155.256 80.4466 155.311C80.5015 155.421 80.5015 155.585 80.5565 155.695V155.75C80.6114 155.915 80.6663 156.025 80.7212 156.189C80.7212 156.244 80.7761 156.244 80.7761 156.299C80.831 156.409 80.8859 156.519 80.9408 156.574C80.9408 156.629 80.9957 156.684 80.9957 156.684C81.0506 156.793 81.1056 156.848 81.1605 156.958C81.2154 157.013 81.2154 157.013 81.2703 157.068C81.3252 157.178 81.435 157.288 81.4899 157.342C81.5448 157.397 81.5448 157.452 81.5997 157.452C81.6546 157.507 81.7645 157.617 81.8194 157.672C81.8743 157.727 81.9292 157.782 81.9841 157.837C82.039 157.892 82.039 157.892 82.0939 157.946C82.0939 157.946 82.1488 157.946 82.1488 158.001C82.3685 158.166 82.5332 158.276 82.7528 158.441C82.8077 158.441 82.8077 158.496 82.8627 158.496C83.0274 158.605 83.247 158.66 83.4117 158.77C83.4667 158.77 83.5216 158.825 83.5765 158.825C83.6314 158.825 83.6314 158.825 83.6863 158.88C83.851 158.935 84.0707 158.99 84.2354 159.045C84.2903 159.045 84.2903 159.045 84.3452 159.045C84.5648 159.1 84.7845 159.1 85.059 159.154H85.1139C85.2237 159.154 85.2787 159.154 85.3885 159.154C85.5532 159.154 85.663 159.154 85.8277 159.154C85.8277 159.154 85.8278 159.154 85.8827 159.154C86.1023 159.154 86.3768 159.1 86.5965 159.045H86.6514C86.871 158.99 87.1456 158.935 87.3652 158.825C87.3652 158.825 87.4201 158.825 87.4201 158.77C87.6397 158.66 87.8594 158.55 88.079 158.441L189.936 95.7892C191.803 94.4713 192.736 92.1102 192.132 89.859Z" stroke="#02A9F7" stroke-opacity="0.2" stroke-width="1.14158" mask="url(#path-3-outside-3_1_770)"/>
</g>
<g filter="url(#filter3_f_1_770)">
<mask id="path-4-outside-4_1_770" maskUnits="userSpaceOnUse" x="21" y="21" width="172" height="139" fill="black">
<rect fill="white" x="21" y="21" width="172" height="139"/>
<path d="M192.132 89.859C191.528 87.6077 189.441 86.0702 187.135 86.0702H143.263L164.183 28.9646C165.172 26.2741 163.799 23.309 161.108 22.3206C158.418 21.3322 155.453 22.705 154.464 25.3955L130.963 89.4746C130.359 91.067 130.634 92.8241 131.567 94.1968C132.555 95.5695 134.148 96.3932 135.795 96.3932H168.796L94.9976 141.803L134.697 28.8548C134.752 28.6901 134.807 28.5253 134.807 28.4155C134.807 28.3606 134.807 28.3057 134.862 28.2508C134.862 28.141 134.917 28.0312 134.917 27.9213C134.917 27.8664 134.917 27.8115 134.917 27.7566C134.917 27.6468 134.917 27.537 134.917 27.4821C134.917 27.4272 134.917 27.3722 134.917 27.3173C134.917 27.1526 134.917 27.0428 134.917 26.8781C134.917 26.8232 134.917 26.7682 134.917 26.7133C134.917 26.6035 134.917 26.5486 134.862 26.4388C134.862 26.3839 134.862 26.329 134.807 26.2741C134.807 26.1642 134.752 26.1093 134.752 25.9995C134.752 25.9446 134.752 25.8897 134.697 25.8348C134.642 25.725 134.642 25.6152 134.587 25.5053V25.4504C134.532 25.2857 134.477 25.1759 134.422 25.0112C134.422 24.9562 134.368 24.9562 134.368 24.9013C134.313 24.7915 134.258 24.7366 134.203 24.6268C134.203 24.5719 134.148 24.517 134.093 24.517C134.038 24.4072 133.983 24.3522 133.928 24.2424C133.873 24.1875 133.873 24.1326 133.818 24.1326C133.764 24.0228 133.654 23.9679 133.599 23.8581C133.544 23.8031 133.544 23.7482 133.489 23.7482C133.379 23.6384 133.324 23.5835 133.214 23.4737C133.16 23.4188 133.105 23.3639 133.05 23.309C132.995 23.2541 132.995 23.2541 132.94 23.1991C132.94 23.1991 132.94 23.1991 132.885 23.1991C132.665 23.0344 132.501 22.9246 132.281 22.7599C132.226 22.7599 132.226 22.705 132.171 22.705C132.006 22.5951 131.787 22.5402 131.622 22.4304C131.567 22.4304 131.512 22.3755 131.457 22.3755C131.457 22.3755 131.402 22.3755 131.402 22.3206C131.183 22.2657 131.018 22.2108 130.798 22.1559C130.743 22.1559 130.689 22.1559 130.689 22.1559C130.469 22.101 130.249 22.101 130.085 22.0461C130.03 22.0461 130.03 22.0461 129.975 22.0461C129.755 22.0461 129.481 22.0461 129.261 22.0461C129.206 22.0461 129.206 22.0461 129.151 22.0461C128.931 22.0461 128.712 22.101 128.492 22.1559H128.437C128.218 22.2108 127.998 22.2657 127.778 22.3755C127.723 22.3755 127.669 22.4304 127.614 22.4304C127.394 22.5402 127.174 22.6501 127.01 22.7599L24.4392 86.8939C22.4625 88.1019 21.5839 90.5179 22.1879 92.7142C22.8469 94.9106 24.8785 96.4481 27.1847 96.4481H69.7943L49.8622 152.181C48.8738 154.872 50.3015 157.837 52.992 158.825C53.596 159.045 54.1451 159.154 54.7491 159.154C56.8906 159.154 58.8673 157.837 59.636 155.695L82.0939 93.0437C82.643 91.4513 82.4234 89.6942 81.435 88.3215C80.4466 86.9488 78.9092 86.1251 77.207 86.1251H45.3047L120.091 39.4523L80.4466 152.236C80.3917 152.401 80.3368 152.565 80.3368 152.675C80.3368 152.73 80.3368 152.785 80.2819 152.84C80.2819 152.95 80.227 153.06 80.227 153.169C80.227 153.224 80.227 153.279 80.227 153.334C80.227 153.444 80.227 153.554 80.227 153.664C80.227 153.718 80.227 153.773 80.227 153.828C80.227 153.993 80.227 154.103 80.227 154.268C80.227 154.322 80.227 154.377 80.227 154.432C80.227 154.542 80.227 154.597 80.2819 154.707C80.2819 154.762 80.2819 154.817 80.3368 154.872C80.3368 154.981 80.3917 155.036 80.3917 155.146C80.3917 155.201 80.3917 155.256 80.4466 155.311C80.5015 155.421 80.5015 155.585 80.5565 155.695V155.75C80.6114 155.915 80.6663 156.025 80.7212 156.189C80.7212 156.244 80.7761 156.244 80.7761 156.299C80.831 156.409 80.8859 156.519 80.9408 156.574C80.9408 156.629 80.9957 156.684 80.9957 156.684C81.0506 156.793 81.1056 156.848 81.1605 156.958C81.2154 157.013 81.2154 157.013 81.2703 157.068C81.3252 157.178 81.435 157.288 81.4899 157.342C81.5448 157.397 81.5448 157.452 81.5997 157.452C81.6546 157.507 81.7645 157.617 81.8194 157.672C81.8743 157.727 81.9292 157.782 81.9841 157.837C82.039 157.892 82.039 157.892 82.0939 157.946C82.0939 157.946 82.1488 157.946 82.1488 158.001C82.3685 158.166 82.5332 158.276 82.7528 158.441C82.8077 158.441 82.8077 158.496 82.8627 158.496C83.0274 158.605 83.247 158.66 83.4117 158.77C83.4667 158.77 83.5216 158.825 83.5765 158.825C83.6314 158.825 83.6314 158.825 83.6863 158.88C83.851 158.935 84.0707 158.99 84.2354 159.045C84.2903 159.045 84.2903 159.045 84.3452 159.045C84.5648 159.1 84.7845 159.1 85.059 159.154H85.1139C85.2237 159.154 85.2787 159.154 85.3885 159.154C85.5532 159.154 85.663 159.154 85.8277 159.154C85.8277 159.154 85.8278 159.154 85.8827 159.154C86.1023 159.154 86.3768 159.1 86.5965 159.045H86.6514C86.871 158.99 87.1456 158.935 87.3652 158.825C87.3652 158.825 87.4201 158.825 87.4201 158.77C87.6397 158.66 87.8594 158.55 88.079 158.441L189.936 95.7892C191.803 94.4713 192.736 92.1102 192.132 89.859Z"/>
</mask>
<path d="M192.132 89.859C191.528 87.6077 189.441 86.0702 187.135 86.0702H143.263L164.183 28.9646C165.172 26.2741 163.799 23.309 161.108 22.3206C158.418 21.3322 155.453 22.705 154.464 25.3955L130.963 89.4746C130.359 91.067 130.634 92.8241 131.567 94.1968C132.555 95.5695 134.148 96.3932 135.795 96.3932H168.796L94.9976 141.803L134.697 28.8548C134.752 28.6901 134.807 28.5253 134.807 28.4155C134.807 28.3606 134.807 28.3057 134.862 28.2508C134.862 28.141 134.917 28.0312 134.917 27.9213C134.917 27.8664 134.917 27.8115 134.917 27.7566C134.917 27.6468 134.917 27.537 134.917 27.4821C134.917 27.4272 134.917 27.3722 134.917 27.3173C134.917 27.1526 134.917 27.0428 134.917 26.8781C134.917 26.8232 134.917 26.7682 134.917 26.7133C134.917 26.6035 134.917 26.5486 134.862 26.4388C134.862 26.3839 134.862 26.329 134.807 26.2741C134.807 26.1642 134.752 26.1093 134.752 25.9995C134.752 25.9446 134.752 25.8897 134.697 25.8348C134.642 25.725 134.642 25.6152 134.587 25.5053V25.4504C134.532 25.2857 134.477 25.1759 134.422 25.0112C134.422 24.9562 134.368 24.9562 134.368 24.9013C134.313 24.7915 134.258 24.7366 134.203 24.6268C134.203 24.5719 134.148 24.517 134.093 24.517C134.038 24.4072 133.983 24.3522 133.928 24.2424C133.873 24.1875 133.873 24.1326 133.818 24.1326C133.764 24.0228 133.654 23.9679 133.599 23.8581C133.544 23.8031 133.544 23.7482 133.489 23.7482C133.379 23.6384 133.324 23.5835 133.214 23.4737C133.16 23.4188 133.105 23.3639 133.05 23.309C132.995 23.2541 132.995 23.2541 132.94 23.1991C132.94 23.1991 132.94 23.1991 132.885 23.1991C132.665 23.0344 132.501 22.9246 132.281 22.7599C132.226 22.7599 132.226 22.705 132.171 22.705C132.006 22.5951 131.787 22.5402 131.622 22.4304C131.567 22.4304 131.512 22.3755 131.457 22.3755C131.457 22.3755 131.402 22.3755 131.402 22.3206C131.183 22.2657 131.018 22.2108 130.798 22.1559C130.743 22.1559 130.689 22.1559 130.689 22.1559C130.469 22.101 130.249 22.101 130.085 22.0461C130.03 22.0461 130.03 22.0461 129.975 22.0461C129.755 22.0461 129.481 22.0461 129.261 22.0461C129.206 22.0461 129.206 22.0461 129.151 22.0461C128.931 22.0461 128.712 22.101 128.492 22.1559H128.437C128.218 22.2108 127.998 22.2657 127.778 22.3755C127.723 22.3755 127.669 22.4304 127.614 22.4304C127.394 22.5402 127.174 22.6501 127.01 22.7599L24.4392 86.8939C22.4625 88.1019 21.5839 90.5179 22.1879 92.7142C22.8469 94.9106 24.8785 96.4481 27.1847 96.4481H69.7943L49.8622 152.181C48.8738 154.872 50.3015 157.837 52.992 158.825C53.596 159.045 54.1451 159.154 54.7491 159.154C56.8906 159.154 58.8673 157.837 59.636 155.695L82.0939 93.0437C82.643 91.4513 82.4234 89.6942 81.435 88.3215C80.4466 86.9488 78.9092 86.1251 77.207 86.1251H45.3047L120.091 39.4523L80.4466 152.236C80.3917 152.401 80.3368 152.565 80.3368 152.675C80.3368 152.73 80.3368 152.785 80.2819 152.84C80.2819 152.95 80.227 153.06 80.227 153.169C80.227 153.224 80.227 153.279 80.227 153.334C80.227 153.444 80.227 153.554 80.227 153.664C80.227 153.718 80.227 153.773 80.227 153.828C80.227 153.993 80.227 154.103 80.227 154.268C80.227 154.322 80.227 154.377 80.227 154.432C80.227 154.542 80.227 154.597 80.2819 154.707C80.2819 154.762 80.2819 154.817 80.3368 154.872C80.3368 154.981 80.3917 155.036 80.3917 155.146C80.3917 155.201 80.3917 155.256 80.4466 155.311C80.5015 155.421 80.5015 155.585 80.5565 155.695V155.75C80.6114 155.915 80.6663 156.025 80.7212 156.189C80.7212 156.244 80.7761 156.244 80.7761 156.299C80.831 156.409 80.8859 156.519 80.9408 156.574C80.9408 156.629 80.9957 156.684 80.9957 156.684C81.0506 156.793 81.1056 156.848 81.1605 156.958C81.2154 157.013 81.2154 157.013 81.2703 157.068C81.3252 157.178 81.435 157.288 81.4899 157.342C81.5448 157.397 81.5448 157.452 81.5997 157.452C81.6546 157.507 81.7645 157.617 81.8194 157.672C81.8743 157.727 81.9292 157.782 81.9841 157.837C82.039 157.892 82.039 157.892 82.0939 157.946C82.0939 157.946 82.1488 157.946 82.1488 158.001C82.3685 158.166 82.5332 158.276 82.7528 158.441C82.8077 158.441 82.8077 158.496 82.8627 158.496C83.0274 158.605 83.247 158.66 83.4117 158.77C83.4667 158.77 83.5216 158.825 83.5765 158.825C83.6314 158.825 83.6314 158.825 83.6863 158.88C83.851 158.935 84.0707 158.99 84.2354 159.045C84.2903 159.045 84.2903 159.045 84.3452 159.045C84.5648 159.1 84.7845 159.1 85.059 159.154H85.1139C85.2237 159.154 85.2787 159.154 85.3885 159.154C85.5532 159.154 85.663 159.154 85.8277 159.154C85.8277 159.154 85.8278 159.154 85.8827 159.154C86.1023 159.154 86.3768 159.1 86.5965 159.045H86.6514C86.871 158.99 87.1456 158.935 87.3652 158.825C87.3652 158.825 87.4201 158.825 87.4201 158.77C87.6397 158.66 87.8594 158.55 88.079 158.441L189.936 95.7892C191.803 94.4713 192.736 92.1102 192.132 89.859Z" stroke="#82D9FF" stroke-width="0.702514" mask="url(#path-4-outside-4_1_770)"/>
</g>
<g filter="url(#filter4_d_1_770)">
<mask id="path-5-inside-5_1_770" fill="white">
<path d="M192.132 89.859C191.528 87.6077 189.441 86.0702 187.135 86.0702H143.263L164.183 28.9646C165.172 26.2741 163.799 23.309 161.108 22.3206C158.418 21.3322 155.453 22.705 154.464 25.3955L130.963 89.4746C130.359 91.067 130.634 92.8241 131.567 94.1968C132.555 95.5695 134.148 96.3932 135.795 96.3932H168.796L94.9976 141.803L134.697 28.8548C134.752 28.6901 134.807 28.5253 134.807 28.4155C134.807 28.3606 134.807 28.3057 134.862 28.2508C134.862 28.141 134.917 28.0312 134.917 27.9213C134.917 27.8664 134.917 27.8115 134.917 27.7566C134.917 27.6468 134.917 27.537 134.917 27.4821C134.917 27.4272 134.917 27.3722 134.917 27.3173C134.917 27.1526 134.917 27.0428 134.917 26.8781C134.917 26.8232 134.917 26.7682 134.917 26.7133C134.917 26.6035 134.917 26.5486 134.862 26.4388C134.862 26.3839 134.862 26.329 134.807 26.2741C134.807 26.1642 134.752 26.1093 134.752 25.9995C134.752 25.9446 134.752 25.8897 134.697 25.8348C134.642 25.725 134.642 25.6152 134.587 25.5053V25.4504C134.532 25.2857 134.477 25.1759 134.422 25.0112C134.422 24.9562 134.368 24.9562 134.368 24.9013C134.313 24.7915 134.258 24.7366 134.203 24.6268C134.203 24.5719 134.148 24.517 134.093 24.517C134.038 24.4072 133.983 24.3522 133.928 24.2424C133.873 24.1875 133.873 24.1326 133.818 24.1326C133.764 24.0228 133.654 23.9679 133.599 23.8581C133.544 23.8031 133.544 23.7482 133.489 23.7482C133.379 23.6384 133.324 23.5835 133.214 23.4737C133.16 23.4188 133.105 23.3639 133.05 23.309C132.995 23.2541 132.995 23.2541 132.94 23.1991C132.94 23.1991 132.94 23.1991 132.885 23.1991C132.665 23.0344 132.501 22.9246 132.281 22.7599C132.226 22.7599 132.226 22.705 132.171 22.705C132.006 22.5951 131.787 22.5402 131.622 22.4304C131.567 22.4304 131.512 22.3755 131.457 22.3755C131.457 22.3755 131.402 22.3755 131.402 22.3206C131.183 22.2657 131.018 22.2108 130.798 22.1559C130.743 22.1559 130.689 22.1559 130.689 22.1559C130.469 22.101 130.249 22.101 130.085 22.0461C130.03 22.0461 130.03 22.0461 129.975 22.0461C129.755 22.0461 129.481 22.0461 129.261 22.0461C129.206 22.0461 129.206 22.0461 129.151 22.0461C128.931 22.0461 128.712 22.101 128.492 22.1559H128.437C128.218 22.2108 127.998 22.2657 127.778 22.3755C127.723 22.3755 127.669 22.4304 127.614 22.4304C127.394 22.5402 127.174 22.6501 127.01 22.7599L24.4392 86.8939C22.4625 88.1019 21.5839 90.5179 22.1879 92.7142C22.8469 94.9106 24.8785 96.4481 27.1847 96.4481H69.7943L49.8622 152.181C48.8738 154.872 50.3015 157.837 52.992 158.825C53.596 159.045 54.1451 159.154 54.7491 159.154C56.8906 159.154 58.8673 157.837 59.636 155.695L82.0939 93.0437C82.643 91.4513 82.4234 89.6942 81.435 88.3215C80.4466 86.9488 78.9092 86.1251 77.207 86.1251H45.3047L120.091 39.4523L80.4466 152.236C80.3917 152.401 80.3368 152.565 80.3368 152.675C80.3368 152.73 80.3368 152.785 80.2819 152.84C80.2819 152.95 80.227 153.06 80.227 153.169C80.227 153.224 80.227 153.279 80.227 153.334C80.227 153.444 80.227 153.554 80.227 153.664C80.227 153.718 80.227 153.773 80.227 153.828C80.227 153.993 80.227 154.103 80.227 154.268C80.227 154.322 80.227 154.377 80.227 154.432C80.227 154.542 80.227 154.597 80.2819 154.707C80.2819 154.762 80.2819 154.817 80.3368 154.872C80.3368 154.981 80.3917 155.036 80.3917 155.146C80.3917 155.201 80.3917 155.256 80.4466 155.311C80.5015 155.421 80.5015 155.585 80.5565 155.695V155.75C80.6114 155.915 80.6663 156.025 80.7212 156.189C80.7212 156.244 80.7761 156.244 80.7761 156.299C80.831 156.409 80.8859 156.519 80.9408 156.574C80.9408 156.629 80.9957 156.684 80.9957 156.684C81.0506 156.793 81.1056 156.848 81.1605 156.958C81.2154 157.013 81.2154 157.013 81.2703 157.068C81.3252 157.178 81.435 157.288 81.4899 157.342C81.5448 157.397 81.5448 157.452 81.5997 157.452C81.6546 157.507 81.7645 157.617 81.8194 157.672C81.8743 157.727 81.9292 157.782 81.9841 157.837C82.039 157.892 82.039 157.892 82.0939 157.946C82.0939 157.946 82.1488 157.946 82.1488 158.001C82.3685 158.166 82.5332 158.276 82.7528 158.441C82.8077 158.441 82.8077 158.496 82.8627 158.496C83.0274 158.605 83.247 158.66 83.4117 158.77C83.4667 158.77 83.5216 158.825 83.5765 158.825C83.6314 158.825 83.6314 158.825 83.6863 158.88C83.851 158.935 84.0707 158.99 84.2354 159.045C84.2903 159.045 84.2903 159.045 84.3452 159.045C84.5648 159.1 84.7845 159.1 85.059 159.154H85.1139C85.2237 159.154 85.2787 159.154 85.3885 159.154C85.5532 159.154 85.663 159.154 85.8277 159.154C85.8277 159.154 85.8278 159.154 85.8827 159.154C86.1023 159.154 86.3768 159.1 86.5965 159.045H86.6514C86.871 158.99 87.1456 158.935 87.3652 158.825C87.3652 158.825 87.4201 158.825 87.4201 158.77C87.6397 158.66 87.8594 158.55 88.079 158.441L189.936 95.7892C191.803 94.4713 192.736 92.1102 192.132 89.859Z"/>
</mask>
<path d="M192.132 89.859C191.528 87.6077 189.441 86.0702 187.135 86.0702H143.263L164.183 28.9646C165.172 26.2741 163.799 23.309 161.108 22.3206C158.418 21.3322 155.453 22.705 154.464 25.3955L130.963 89.4746C130.359 91.067 130.634 92.8241 131.567 94.1968C132.555 95.5695 134.148 96.3932 135.795 96.3932H168.796L94.9976 141.803L134.697 28.8548C134.752 28.6901 134.807 28.5253 134.807 28.4155C134.807 28.3606 134.807 28.3057 134.862 28.2508C134.862 28.141 134.917 28.0312 134.917 27.9213C134.917 27.8664 134.917 27.8115 134.917 27.7566C134.917 27.6468 134.917 27.537 134.917 27.4821C134.917 27.4272 134.917 27.3722 134.917 27.3173C134.917 27.1526 134.917 27.0428 134.917 26.8781C134.917 26.8232 134.917 26.7682 134.917 26.7133C134.917 26.6035 134.917 26.5486 134.862 26.4388C134.862 26.3839 134.862 26.329 134.807 26.2741C134.807 26.1642 134.752 26.1093 134.752 25.9995C134.752 25.9446 134.752 25.8897 134.697 25.8348C134.642 25.725 134.642 25.6152 134.587 25.5053V25.4504C134.532 25.2857 134.477 25.1759 134.422 25.0112C134.422 24.9562 134.368 24.9562 134.368 24.9013C134.313 24.7915 134.258 24.7366 134.203 24.6268C134.203 24.5719 134.148 24.517 134.093 24.517C134.038 24.4072 133.983 24.3522 133.928 24.2424C133.873 24.1875 133.873 24.1326 133.818 24.1326C133.764 24.0228 133.654 23.9679 133.599 23.8581C133.544 23.8031 133.544 23.7482 133.489 23.7482C133.379 23.6384 133.324 23.5835 133.214 23.4737C133.16 23.4188 133.105 23.3639 133.05 23.309C132.995 23.2541 132.995 23.2541 132.94 23.1991C132.94 23.1991 132.94 23.1991 132.885 23.1991C132.665 23.0344 132.501 22.9246 132.281 22.7599C132.226 22.7599 132.226 22.705 132.171 22.705C132.006 22.5951 131.787 22.5402 131.622 22.4304C131.567 22.4304 131.512 22.3755 131.457 22.3755C131.457 22.3755 131.402 22.3755 131.402 22.3206C131.183 22.2657 131.018 22.2108 130.798 22.1559C130.743 22.1559 130.689 22.1559 130.689 22.1559C130.469 22.101 130.249 22.101 130.085 22.0461C130.03 22.0461 130.03 22.0461 129.975 22.0461C129.755 22.0461 129.481 22.0461 129.261 22.0461C129.206 22.0461 129.206 22.0461 129.151 22.0461C128.931 22.0461 128.712 22.101 128.492 22.1559H128.437C128.218 22.2108 127.998 22.2657 127.778 22.3755C127.723 22.3755 127.669 22.4304 127.614 22.4304C127.394 22.5402 127.174 22.6501 127.01 22.7599L24.4392 86.8939C22.4625 88.1019 21.5839 90.5179 22.1879 92.7142C22.8469 94.9106 24.8785 96.4481 27.1847 96.4481H69.7943L49.8622 152.181C48.8738 154.872 50.3015 157.837 52.992 158.825C53.596 159.045 54.1451 159.154 54.7491 159.154C56.8906 159.154 58.8673 157.837 59.636 155.695L82.0939 93.0437C82.643 91.4513 82.4234 89.6942 81.435 88.3215C80.4466 86.9488 78.9092 86.1251 77.207 86.1251H45.3047L120.091 39.4523L80.4466 152.236C80.3917 152.401 80.3368 152.565 80.3368 152.675C80.3368 152.73 80.3368 152.785 80.2819 152.84C80.2819 152.95 80.227 153.06 80.227 153.169C80.227 153.224 80.227 153.279 80.227 153.334C80.227 153.444 80.227 153.554 80.227 153.664C80.227 153.718 80.227 153.773 80.227 153.828C80.227 153.993 80.227 154.103 80.227 154.268C80.227 154.322 80.227 154.377 80.227 154.432C80.227 154.542 80.227 154.597 80.2819 154.707C80.2819 154.762 80.2819 154.817 80.3368 154.872C80.3368 154.981 80.3917 155.036 80.3917 155.146C80.3917 155.201 80.3917 155.256 80.4466 155.311C80.5015 155.421 80.5015 155.585 80.5565 155.695V155.75C80.6114 155.915 80.6663 156.025 80.7212 156.189C80.7212 156.244 80.7761 156.244 80.7761 156.299C80.831 156.409 80.8859 156.519 80.9408 156.574C80.9408 156.629 80.9957 156.684 80.9957 156.684C81.0506 156.793 81.1056 156.848 81.1605 156.958C81.2154 157.013 81.2154 157.013 81.2703 157.068C81.3252 157.178 81.435 157.288 81.4899 157.342C81.5448 157.397 81.5448 157.452 81.5997 157.452C81.6546 157.507 81.7645 157.617 81.8194 157.672C81.8743 157.727 81.9292 157.782 81.9841 157.837C82.039 157.892 82.039 157.892 82.0939 157.946C82.0939 157.946 82.1488 157.946 82.1488 158.001C82.3685 158.166 82.5332 158.276 82.7528 158.441C82.8077 158.441 82.8077 158.496 82.8627 158.496C83.0274 158.605 83.247 158.66 83.4117 158.77C83.4667 158.77 83.5216 158.825 83.5765 158.825C83.6314 158.825 83.6314 158.825 83.6863 158.88C83.851 158.935 84.0707 158.99 84.2354 159.045C84.2903 159.045 84.2903 159.045 84.3452 159.045C84.5648 159.1 84.7845 159.1 85.059 159.154H85.1139C85.2237 159.154 85.2787 159.154 85.3885 159.154C85.5532 159.154 85.663 159.154 85.8277 159.154C85.8277 159.154 85.8278 159.154 85.8827 159.154C86.1023 159.154 86.3768 159.1 86.5965 159.045H86.6514C86.871 158.99 87.1456 158.935 87.3652 158.825C87.3652 158.825 87.4201 158.825 87.4201 158.77C87.6397 158.66 87.8594 158.55 88.079 158.441L189.936 95.7892C191.803 94.4713 192.736 92.1102 192.132 89.859Z" stroke="#0E73A3" stroke-width="1.72216" mask="url(#path-5-inside-5_1_770)"/>
</g>
</g>
<defs>
<filter id="filter0_f_1_770" x="17.4778" y="17.4774" width="179.36" height="146.199" filterUnits="userSpaceOnUse" color-interpolation-filters="sRGB">
<feFlood flood-opacity="0" result="BackgroundImageFix"/>
<feBlend mode="normal" in="SourceGraphic" in2="BackgroundImageFix" result="shape"/>
<feGaussianBlur stdDeviation="1.97582" result="effect1_foregroundBlur_1_770"/>
</filter>
<filter id="filter1_f_1_770" x="19.9366" y="19.9362" width="174.442" height="141.282" filterUnits="userSpaceOnUse" color-interpolation-filters="sRGB">
<feFlood flood-opacity="0" result="BackgroundImageFix"/>
<feBlend mode="normal" in="SourceGraphic" in2="BackgroundImageFix" result="shape"/>
<feGaussianBlur stdDeviation="0.658607" result="effect1_foregroundBlur_1_770"/>
</filter>
<filter id="filter2_ddi_1_770" x="19.717" y="21.0339" width="174.881" height="141.721" filterUnits="userSpaceOnUse" color-interpolation-filters="sRGB">
<feFlood flood-opacity="0" result="BackgroundImageFix"/>
<feColorMatrix in="SourceAlpha" type="matrix" values="0 0 0 0 0 0 0 0 0 0 0 0 0 0 0 0 0 0 127 0" result="hardAlpha"/>
<feOffset dy="0.570792"/>
<feGaussianBlur stdDeviation="0.219536"/>
<feColorMatrix type="matrix" values="0 0 0 0 0 0 0 0 0 0.051 0 0 0 0 0.082 0 0 0 0.7 0"/>
<feBlend mode="multiply" in2="BackgroundImageFix" result="effect1_dropShadow_1_770"/>
<feColorMatrix in="SourceAlpha" type="matrix" values="0 0 0 0 0 0 0 0 0 0 0 0 0 0 0 0 0 0 127 0" result="hardAlpha"/>
<feOffset dy="1.31721"/>
<feGaussianBlur stdDeviation="0.856189"/>
<feColorMatrix type="matrix" values="0 0 0 0 0 0 0 0 0 0.4 0 0 0 0 1 0 0 0 1 0"/>
<feBlend mode="color-dodge" in2="effect1_dropShadow_1_770" result="effect2_dropShadow_1_770"/>
<feBlend mode="normal" in="SourceGraphic" in2="effect2_dropShadow_1_770" result="shape"/>
<feColorMatrix in="SourceAlpha" type="matrix" values="0 0 0 0 0 0 0 0 0 0 0 0 0 0 0 0 0 0 127 0" result="hardAlpha"/>
<feOffset dx="-0.0570792" dy="0.114158"/>
<feGaussianBlur stdDeviation="0.0285396"/>
<feComposite in2="hardAlpha" operator="arithmetic" k2="-1" k3="1"/>
<feColorMatrix type="matrix" values="0 0 0 0 1 0 0 0 0 1 0 0 0 0 1 0 0 0 0.5 0"/>
<feBlend mode="normal" in2="shape" result="effect3_innerShadow_1_770"/>
</filter>
<filter id="filter3_f_1_770" x="21.561" y="21.5609" width="171.193" height="138.033" filterUnits="userSpaceOnUse" color-interpolation-filters="sRGB">
<feFlood flood-opacity="0" result="BackgroundImageFix"/>
<feBlend mode="normal" in="SourceGraphic" in2="BackgroundImageFix" result="shape"/>
<feGaussianBlur stdDeviation="0.0439071" result="effect1_foregroundBlur_1_770"/>
</filter>
<filter id="filter4_d_1_770" x="0.473055" y="0.473055" width="213.369" height="180.208" filterUnits="userSpaceOnUse" color-interpolation-filters="sRGB">
<feFlood flood-opacity="0" result="BackgroundImageFix"/>
<feColorMatrix in="SourceAlpha" type="matrix" values="0 0 0 0 0 0 0 0 0 0 0 0 0 0 0 0 0 0 127 0" result="hardAlpha"/>
<feOffset/>
<feGaussianBlur stdDeviation="10.7635"/>
<feColorMatrix type="matrix" values="0 0 0 0 0.00784314 0 0 0 0 0.662745 0 0 0 0 0.882353 0 0 0 0.63 0"/>
<feBlend mode="normal" in2="BackgroundImageFix" result="effect1_dropShadow_1_770"/>
<feBlend mode="normal" in="SourceGraphic" in2="effect1_dropShadow_1_770" result="shape"/>
</filter>
</defs>
</svg>
