<svg width="182" height="156" viewBox="0 0 182 156" fill="none" xmlns="http://www.w3.org/2000/svg">
<g style="mix-blend-mode:hard-light" filter="url(#filter0_f_1_793)">
<mask id="path-1-outside-1_1_793" maskUnits="userSpaceOnUse" x="21" y="21.4658" width="140" height="113" fill="black">
<rect fill="white" x="21" y="21.4658" width="140" height="113"/>
<path d="M160.092 77.5451C159.601 75.7178 157.908 74.4699 156.036 74.4699H120.426L137.406 28.1188C138.209 25.935 137.094 23.5283 134.91 22.726C132.727 21.9238 130.32 23.038 129.518 25.2219L110.442 77.2331C109.952 78.5256 110.175 79.9518 110.933 81.066C111.735 82.1802 113.027 82.8488 114.364 82.8488H141.15L81.2502 119.707L113.473 28.0297C113.518 27.896 113.562 27.7623 113.562 27.6731C113.562 27.6286 113.562 27.584 113.607 27.5394C113.607 27.4503 113.651 27.3612 113.651 27.272C113.651 27.2274 113.651 27.1829 113.651 27.1383C113.651 27.0492 113.651 26.96 113.651 26.9155C113.651 26.8709 113.651 26.8263 113.651 26.7818C113.651 26.6481 113.651 26.5589 113.651 26.4252C113.651 26.3806 113.651 26.3361 113.651 26.2915C113.651 26.2024 113.651 26.1578 113.607 26.0687C113.607 26.0241 113.607 25.9795 113.562 25.935C113.562 25.8458 113.518 25.8013 113.518 25.7121C113.518 25.6676 113.518 25.623 113.473 25.5784C113.429 25.4893 113.429 25.4001 113.384 25.311V25.2664C113.339 25.1327 113.295 25.0436 113.25 24.9099C113.25 24.8653 113.206 24.8653 113.206 24.8208C113.161 24.7316 113.117 24.687 113.072 24.5979C113.072 24.5533 113.027 24.5088 112.983 24.5088C112.938 24.4196 112.894 24.3751 112.849 24.2859C112.805 24.2414 112.805 24.1968 112.76 24.1968C112.715 24.1077 112.626 24.0631 112.582 23.974C112.537 23.9294 112.537 23.8848 112.493 23.8848C112.403 23.7957 112.359 23.7511 112.27 23.662C112.225 23.6174 112.181 23.5728 112.136 23.5283C112.091 23.4837 112.091 23.4837 112.047 23.4391C112.047 23.4391 112.047 23.4391 112.002 23.4391C111.824 23.3054 111.69 23.2163 111.512 23.0826C111.468 23.0826 111.468 23.038 111.423 23.038C111.289 22.9489 111.111 22.9043 110.977 22.8152C110.933 22.8152 110.888 22.7706 110.844 22.7706C110.844 22.7706 110.799 22.7706 110.799 22.726C110.621 22.6815 110.487 22.6369 110.309 22.5923C110.264 22.5923 110.22 22.5923 110.22 22.5923C110.041 22.5478 109.863 22.5478 109.729 22.5032C109.685 22.5032 109.685 22.5032 109.64 22.5032C109.462 22.5032 109.239 22.5032 109.061 22.5032C109.016 22.5032 109.016 22.5032 108.972 22.5032C108.793 22.5032 108.615 22.5478 108.437 22.5923H108.392C108.214 22.6369 108.036 22.6815 107.857 22.7706C107.813 22.7706 107.768 22.8152 107.724 22.8152C107.546 22.9043 107.367 22.9935 107.234 23.0826L23.9798 75.1384C22.3754 76.1189 21.6623 78.0799 22.1525 79.8627C22.6874 81.6454 24.3364 82.8933 26.2083 82.8933H60.7933L44.615 128.13C43.8128 130.314 44.9715 132.721 47.1554 133.523C47.6456 133.701 48.0913 133.79 48.5816 133.79C50.3197 133.79 51.9242 132.721 52.5482 130.983L70.7766 80.1301C71.2223 78.8376 71.044 77.4114 70.2418 76.2972C69.4396 75.183 68.1917 74.5145 66.81 74.5145H40.9158L101.618 36.6314L69.4396 128.175C69.395 128.308 69.3504 128.442 69.3504 128.531C69.3504 128.576 69.3504 128.62 69.3059 128.665C69.3059 128.754 69.2613 128.843 69.2613 128.932C69.2613 128.977 69.2613 129.022 69.2613 129.066C69.2613 129.155 69.2613 129.244 69.2613 129.334C69.2613 129.378 69.2613 129.423 69.2613 129.467C69.2613 129.601 69.2613 129.69 69.2613 129.824C69.2613 129.868 69.2613 129.913 69.2613 129.958C69.2613 130.047 69.2613 130.091 69.3059 130.18C69.3059 130.225 69.3059 130.269 69.3504 130.314C69.3504 130.403 69.395 130.448 69.395 130.537C69.395 130.581 69.395 130.626 69.4396 130.671C69.4841 130.76 69.4841 130.893 69.5287 130.983V131.027C69.5733 131.161 69.6178 131.25 69.6624 131.384C69.6624 131.428 69.707 131.428 69.707 131.473C69.7515 131.562 69.7961 131.651 69.8407 131.696C69.8407 131.74 69.8852 131.785 69.8852 131.785C69.9298 131.874 69.9744 131.919 70.019 132.008C70.0635 132.052 70.0635 132.052 70.1081 132.097C70.1527 132.186 70.2418 132.275 70.2864 132.32C70.3309 132.364 70.3309 132.409 70.3755 132.409C70.4201 132.453 70.5092 132.542 70.5538 132.587C70.5983 132.632 70.6429 132.676 70.6875 132.721C70.732 132.765 70.732 132.765 70.7766 132.81C70.7766 132.81 70.8212 132.81 70.8212 132.854C70.9995 132.988 71.1332 133.077 71.3114 133.211C71.356 133.211 71.356 133.256 71.4006 133.256C71.5343 133.345 71.7126 133.389 71.8463 133.478C71.8908 133.478 71.9354 133.523 71.98 133.523C72.0245 133.523 72.0245 133.523 72.0691 133.568C72.2028 133.612 72.3811 133.657 72.5148 133.701C72.5594 133.701 72.5594 133.701 72.6039 133.701C72.7822 133.746 72.9605 133.746 73.1833 133.79H73.2279C73.317 133.79 73.3616 133.79 73.4507 133.79C73.5844 133.79 73.6736 133.79 73.8073 133.79C73.8073 133.79 73.8073 133.79 73.8518 133.79C74.0301 133.79 74.2529 133.746 74.4312 133.701H74.4758C74.6541 133.657 74.8769 133.612 75.0552 133.523C75.0552 133.523 75.0997 133.523 75.0997 133.478C75.278 133.389 75.4563 133.3 75.6346 133.211L158.309 82.3585C159.824 81.2889 160.582 79.3724 160.092 77.5451Z"/>
</mask>
<path d="M160.092 77.5451C159.601 75.7178 157.908 74.4699 156.036 74.4699H120.426L137.406 28.1188C138.209 25.935 137.094 23.5283 134.91 22.726C132.727 21.9238 130.32 23.038 129.518 25.2219L110.442 77.2331C109.952 78.5256 110.175 79.9518 110.933 81.066C111.735 82.1802 113.027 82.8488 114.364 82.8488H141.15L81.2502 119.707L113.473 28.0297C113.518 27.896 113.562 27.7623 113.562 27.6731C113.562 27.6286 113.562 27.584 113.607 27.5394C113.607 27.4503 113.651 27.3612 113.651 27.272C113.651 27.2274 113.651 27.1829 113.651 27.1383C113.651 27.0492 113.651 26.96 113.651 26.9155C113.651 26.8709 113.651 26.8263 113.651 26.7818C113.651 26.6481 113.651 26.5589 113.651 26.4252C113.651 26.3806 113.651 26.3361 113.651 26.2915C113.651 26.2024 113.651 26.1578 113.607 26.0687C113.607 26.0241 113.607 25.9795 113.562 25.935C113.562 25.8458 113.518 25.8013 113.518 25.7121C113.518 25.6676 113.518 25.623 113.473 25.5784C113.429 25.4893 113.429 25.4001 113.384 25.311V25.2664C113.339 25.1327 113.295 25.0436 113.25 24.9099C113.25 24.8653 113.206 24.8653 113.206 24.8208C113.161 24.7316 113.117 24.687 113.072 24.5979C113.072 24.5533 113.027 24.5088 112.983 24.5088C112.938 24.4196 112.894 24.3751 112.849 24.2859C112.805 24.2414 112.805 24.1968 112.76 24.1968C112.715 24.1077 112.626 24.0631 112.582 23.974C112.537 23.9294 112.537 23.8848 112.493 23.8848C112.403 23.7957 112.359 23.7511 112.27 23.662C112.225 23.6174 112.181 23.5728 112.136 23.5283C112.091 23.4837 112.091 23.4837 112.047 23.4391C112.047 23.4391 112.047 23.4391 112.002 23.4391C111.824 23.3054 111.69 23.2163 111.512 23.0826C111.468 23.0826 111.468 23.038 111.423 23.038C111.289 22.9489 111.111 22.9043 110.977 22.8152C110.933 22.8152 110.888 22.7706 110.844 22.7706C110.844 22.7706 110.799 22.7706 110.799 22.726C110.621 22.6815 110.487 22.6369 110.309 22.5923C110.264 22.5923 110.22 22.5923 110.22 22.5923C110.041 22.5478 109.863 22.5478 109.729 22.5032C109.685 22.5032 109.685 22.5032 109.64 22.5032C109.462 22.5032 109.239 22.5032 109.061 22.5032C109.016 22.5032 109.016 22.5032 108.972 22.5032C108.793 22.5032 108.615 22.5478 108.437 22.5923H108.392C108.214 22.6369 108.036 22.6815 107.857 22.7706C107.813 22.7706 107.768 22.8152 107.724 22.8152C107.546 22.9043 107.367 22.9935 107.234 23.0826L23.9798 75.1384C22.3754 76.1189 21.6623 78.0799 22.1525 79.8627C22.6874 81.6454 24.3364 82.8933 26.2083 82.8933H60.7933L44.615 128.13C43.8128 130.314 44.9715 132.721 47.1554 133.523C47.6456 133.701 48.0913 133.79 48.5816 133.79C50.3197 133.79 51.9242 132.721 52.5482 130.983L70.7766 80.1301C71.2223 78.8376 71.044 77.4114 70.2418 76.2972C69.4396 75.183 68.1917 74.5145 66.81 74.5145H40.9158L101.618 36.6314L69.4396 128.175C69.395 128.308 69.3504 128.442 69.3504 128.531C69.3504 128.576 69.3504 128.62 69.3059 128.665C69.3059 128.754 69.2613 128.843 69.2613 128.932C69.2613 128.977 69.2613 129.022 69.2613 129.066C69.2613 129.155 69.2613 129.244 69.2613 129.334C69.2613 129.378 69.2613 129.423 69.2613 129.467C69.2613 129.601 69.2613 129.69 69.2613 129.824C69.2613 129.868 69.2613 129.913 69.2613 129.958C69.2613 130.047 69.2613 130.091 69.3059 130.18C69.3059 130.225 69.3059 130.269 69.3504 130.314C69.3504 130.403 69.395 130.448 69.395 130.537C69.395 130.581 69.395 130.626 69.4396 130.671C69.4841 130.76 69.4841 130.893 69.5287 130.983V131.027C69.5733 131.161 69.6178 131.25 69.6624 131.384C69.6624 131.428 69.707 131.428 69.707 131.473C69.7515 131.562 69.7961 131.651 69.8407 131.696C69.8407 131.74 69.8852 131.785 69.8852 131.785C69.9298 131.874 69.9744 131.919 70.019 132.008C70.0635 132.052 70.0635 132.052 70.1081 132.097C70.1527 132.186 70.2418 132.275 70.2864 132.32C70.3309 132.364 70.3309 132.409 70.3755 132.409C70.4201 132.453 70.5092 132.542 70.5538 132.587C70.5983 132.632 70.6429 132.676 70.6875 132.721C70.732 132.765 70.732 132.765 70.7766 132.81C70.7766 132.81 70.8212 132.81 70.8212 132.854C70.9995 132.988 71.1332 133.077 71.3114 133.211C71.356 133.211 71.356 133.256 71.4006 133.256C71.5343 133.345 71.7126 133.389 71.8463 133.478C71.8908 133.478 71.9354 133.523 71.98 133.523C72.0245 133.523 72.0245 133.523 72.0691 133.568C72.2028 133.612 72.3811 133.657 72.5148 133.701C72.5594 133.701 72.5594 133.701 72.6039 133.701C72.7822 133.746 72.9605 133.746 73.1833 133.79H73.2279C73.317 133.79 73.3616 133.79 73.4507 133.79C73.5844 133.79 73.6736 133.79 73.8073 133.79C73.8073 133.79 73.8073 133.79 73.8518 133.79C74.0301 133.79 74.2529 133.746 74.4312 133.701H74.4758C74.6541 133.657 74.8769 133.612 75.0552 133.523C75.0552 133.523 75.0997 133.523 75.0997 133.478C75.278 133.389 75.4563 133.3 75.6346 133.211L158.309 82.3585C159.824 81.2889 160.582 79.3724 160.092 77.5451Z" stroke="#02A9F7" stroke-width="1.14158" mask="url(#path-1-outside-1_1_793)"/>
</g>
<g style="mix-blend-mode:hard-light" filter="url(#filter1_f_1_793)">
<mask id="path-2-outside-2_1_793" maskUnits="userSpaceOnUse" x="21" y="21.4658" width="140" height="114" fill="black">
<rect fill="white" x="21" y="21.4658" width="140" height="114"/>
<path d="M160.092 77.5451C159.601 75.7178 157.908 74.4699 156.036 74.4699H120.426L137.406 28.1188C138.209 25.935 137.094 23.5283 134.91 22.726C132.727 21.9238 130.32 23.038 129.518 25.2219L110.442 77.2331C109.952 78.5256 110.175 79.9518 110.933 81.066C111.735 82.1802 113.027 82.8488 114.364 82.8488H141.15L81.2502 119.707L113.473 28.0297C113.518 27.896 113.562 27.7623 113.562 27.6731C113.562 27.6286 113.562 27.584 113.607 27.5394C113.607 27.4503 113.651 27.3612 113.651 27.272C113.651 27.2274 113.651 27.1829 113.651 27.1383C113.651 27.0492 113.651 26.96 113.651 26.9155C113.651 26.8709 113.651 26.8263 113.651 26.7818C113.651 26.6481 113.651 26.5589 113.651 26.4252C113.651 26.3806 113.651 26.3361 113.651 26.2915C113.651 26.2024 113.651 26.1578 113.607 26.0687C113.607 26.0241 113.607 25.9795 113.562 25.935C113.562 25.8458 113.518 25.8013 113.518 25.7121C113.518 25.6676 113.518 25.623 113.473 25.5784C113.429 25.4893 113.429 25.4001 113.384 25.311V25.2664C113.339 25.1327 113.295 25.0436 113.25 24.9099C113.25 24.8653 113.206 24.8653 113.206 24.8208C113.161 24.7316 113.117 24.687 113.072 24.5979C113.072 24.5533 113.027 24.5088 112.983 24.5088C112.938 24.4196 112.894 24.3751 112.849 24.2859C112.805 24.2414 112.805 24.1968 112.76 24.1968C112.715 24.1077 112.626 24.0631 112.582 23.974C112.537 23.9294 112.537 23.8848 112.493 23.8848C112.403 23.7957 112.359 23.7511 112.27 23.662C112.225 23.6174 112.181 23.5728 112.136 23.5283C112.091 23.4837 112.091 23.4837 112.047 23.4391C112.047 23.4391 112.047 23.4391 112.002 23.4391C111.824 23.3054 111.69 23.2163 111.512 23.0826C111.468 23.0826 111.468 23.038 111.423 23.038C111.289 22.9489 111.111 22.9043 110.977 22.8152C110.933 22.8152 110.888 22.7706 110.844 22.7706C110.844 22.7706 110.799 22.7706 110.799 22.726C110.621 22.6815 110.487 22.6369 110.309 22.5923C110.264 22.5923 110.22 22.5923 110.22 22.5923C110.041 22.5478 109.863 22.5478 109.729 22.5032C109.685 22.5032 109.685 22.5032 109.64 22.5032C109.462 22.5032 109.239 22.5032 109.061 22.5032C109.016 22.5032 109.016 22.5032 108.972 22.5032C108.793 22.5032 108.615 22.5478 108.437 22.5923H108.392C108.214 22.6369 108.036 22.6815 107.857 22.7706C107.813 22.7706 107.768 22.8152 107.724 22.8152C107.546 22.9043 107.367 22.9935 107.234 23.0826L23.9798 75.1384C22.3754 76.1189 21.6623 78.0799 22.1525 79.8627C22.6874 81.6454 24.3364 82.8933 26.2083 82.8933H60.7933L44.615 128.13C43.8128 130.314 44.9715 132.721 47.1554 133.523C47.6456 133.701 48.0913 133.79 48.5816 133.79C50.3197 133.79 51.9242 132.721 52.5482 130.983L70.7766 80.1301C71.2223 78.8376 71.044 77.4114 70.2418 76.2972C69.4396 75.183 68.1917 74.5145 66.81 74.5145H40.9158L101.618 36.6314L69.4396 128.175C69.395 128.308 69.3504 128.442 69.3504 128.531C69.3504 128.576 69.3504 128.62 69.3059 128.665C69.3059 128.754 69.2613 128.843 69.2613 128.932C69.2613 128.977 69.2613 129.022 69.2613 129.066C69.2613 129.155 69.2613 129.244 69.2613 129.334C69.2613 129.378 69.2613 129.423 69.2613 129.467C69.2613 129.601 69.2613 129.69 69.2613 129.824C69.2613 129.868 69.2613 129.913 69.2613 129.958C69.2613 130.047 69.2613 130.091 69.3059 130.18C69.3059 130.225 69.3059 130.269 69.3504 130.314C69.3504 130.403 69.395 130.448 69.395 130.537C69.395 130.581 69.395 130.626 69.4396 130.671C69.4841 130.76 69.4841 130.893 69.5287 130.983V131.027C69.5733 131.161 69.6178 131.25 69.6624 131.384C69.6624 131.428 69.707 131.428 69.707 131.473C69.7515 131.562 69.7961 131.651 69.8407 131.696C69.8407 131.74 69.8852 131.785 69.8852 131.785C69.9298 131.874 69.9744 131.919 70.019 132.008C70.0635 132.052 70.0635 132.052 70.1081 132.097C70.1527 132.186 70.2418 132.275 70.2864 132.32C70.3309 132.364 70.3309 132.409 70.3755 132.409C70.4201 132.453 70.5092 132.542 70.5538 132.587C70.5983 132.632 70.6429 132.676 70.6875 132.721C70.732 132.765 70.732 132.765 70.7766 132.81C70.7766 132.81 70.8212 132.81 70.8212 132.854C70.9995 132.988 71.1332 133.077 71.3114 133.211C71.356 133.211 71.356 133.256 71.4006 133.256C71.5343 133.345 71.7126 133.389 71.8463 133.478C71.8908 133.478 71.9354 133.523 71.98 133.523C72.0245 133.523 72.0245 133.523 72.0691 133.568C72.2028 133.612 72.3811 133.657 72.5148 133.701C72.5594 133.701 72.5594 133.701 72.6039 133.701C72.7822 133.746 72.9605 133.746 73.1833 133.79H73.2279C73.317 133.79 73.3616 133.79 73.4507 133.79C73.5844 133.79 73.6736 133.79 73.8073 133.79C73.8073 133.79 73.8073 133.79 73.8518 133.79C74.0301 133.79 74.2529 133.746 74.4312 133.701H74.4758C74.6541 133.657 74.8769 133.612 75.0552 133.523C75.0552 133.523 75.0997 133.523 75.0997 133.478C75.278 133.389 75.4563 133.3 75.6346 133.211L158.309 82.3585C159.824 81.2889 160.582 79.3724 160.092 77.5451Z"/>
</mask>
<path d="M160.092 77.5451C159.601 75.7178 157.908 74.4699 156.036 74.4699H120.426L137.406 28.1188C138.209 25.935 137.094 23.5283 134.91 22.726C132.727 21.9238 130.32 23.038 129.518 25.2219L110.442 77.2331C109.952 78.5256 110.175 79.9518 110.933 81.066C111.735 82.1802 113.027 82.8488 114.364 82.8488H141.15L81.2502 119.707L113.473 28.0297C113.518 27.896 113.562 27.7623 113.562 27.6731C113.562 27.6286 113.562 27.584 113.607 27.5394C113.607 27.4503 113.651 27.3612 113.651 27.272C113.651 27.2274 113.651 27.1829 113.651 27.1383C113.651 27.0492 113.651 26.96 113.651 26.9155C113.651 26.8709 113.651 26.8263 113.651 26.7818C113.651 26.6481 113.651 26.5589 113.651 26.4252C113.651 26.3806 113.651 26.3361 113.651 26.2915C113.651 26.2024 113.651 26.1578 113.607 26.0687C113.607 26.0241 113.607 25.9795 113.562 25.935C113.562 25.8458 113.518 25.8013 113.518 25.7121C113.518 25.6676 113.518 25.623 113.473 25.5784C113.429 25.4893 113.429 25.4001 113.384 25.311V25.2664C113.339 25.1327 113.295 25.0436 113.25 24.9099C113.25 24.8653 113.206 24.8653 113.206 24.8208C113.161 24.7316 113.117 24.687 113.072 24.5979C113.072 24.5533 113.027 24.5088 112.983 24.5088C112.938 24.4196 112.894 24.3751 112.849 24.2859C112.805 24.2414 112.805 24.1968 112.76 24.1968C112.715 24.1077 112.626 24.0631 112.582 23.974C112.537 23.9294 112.537 23.8848 112.493 23.8848C112.403 23.7957 112.359 23.7511 112.27 23.662C112.225 23.6174 112.181 23.5728 112.136 23.5283C112.091 23.4837 112.091 23.4837 112.047 23.4391C112.047 23.4391 112.047 23.4391 112.002 23.4391C111.824 23.3054 111.69 23.2163 111.512 23.0826C111.468 23.0826 111.468 23.038 111.423 23.038C111.289 22.9489 111.111 22.9043 110.977 22.8152C110.933 22.8152 110.888 22.7706 110.844 22.7706C110.844 22.7706 110.799 22.7706 110.799 22.726C110.621 22.6815 110.487 22.6369 110.309 22.5923C110.264 22.5923 110.22 22.5923 110.22 22.5923C110.041 22.5478 109.863 22.5478 109.729 22.5032C109.685 22.5032 109.685 22.5032 109.64 22.5032C109.462 22.5032 109.239 22.5032 109.061 22.5032C109.016 22.5032 109.016 22.5032 108.972 22.5032C108.793 22.5032 108.615 22.5478 108.437 22.5923H108.392C108.214 22.6369 108.036 22.6815 107.857 22.7706C107.813 22.7706 107.768 22.8152 107.724 22.8152C107.546 22.9043 107.367 22.9935 107.234 23.0826L23.9798 75.1384C22.3754 76.1189 21.6623 78.0799 22.1525 79.8627C22.6874 81.6454 24.3364 82.8933 26.2083 82.8933H60.7933L44.615 128.13C43.8128 130.314 44.9715 132.721 47.1554 133.523C47.6456 133.701 48.0913 133.79 48.5816 133.79C50.3197 133.79 51.9242 132.721 52.5482 130.983L70.7766 80.1301C71.2223 78.8376 71.044 77.4114 70.2418 76.2972C69.4396 75.183 68.1917 74.5145 66.81 74.5145H40.9158L101.618 36.6314L69.4396 128.175C69.395 128.308 69.3504 128.442 69.3504 128.531C69.3504 128.576 69.3504 128.62 69.3059 128.665C69.3059 128.754 69.2613 128.843 69.2613 128.932C69.2613 128.977 69.2613 129.022 69.2613 129.066C69.2613 129.155 69.2613 129.244 69.2613 129.334C69.2613 129.378 69.2613 129.423 69.2613 129.467C69.2613 129.601 69.2613 129.69 69.2613 129.824C69.2613 129.868 69.2613 129.913 69.2613 129.958C69.2613 130.047 69.2613 130.091 69.3059 130.18C69.3059 130.225 69.3059 130.269 69.3504 130.314C69.3504 130.403 69.395 130.448 69.395 130.537C69.395 130.581 69.395 130.626 69.4396 130.671C69.4841 130.76 69.4841 130.893 69.5287 130.983V131.027C69.5733 131.161 69.6178 131.25 69.6624 131.384C69.6624 131.428 69.707 131.428 69.707 131.473C69.7515 131.562 69.7961 131.651 69.8407 131.696C69.8407 131.74 69.8852 131.785 69.8852 131.785C69.9298 131.874 69.9744 131.919 70.019 132.008C70.0635 132.052 70.0635 132.052 70.1081 132.097C70.1527 132.186 70.2418 132.275 70.2864 132.32C70.3309 132.364 70.3309 132.409 70.3755 132.409C70.4201 132.453 70.5092 132.542 70.5538 132.587C70.5983 132.632 70.6429 132.676 70.6875 132.721C70.732 132.765 70.732 132.765 70.7766 132.81C70.7766 132.81 70.8212 132.81 70.8212 132.854C70.9995 132.988 71.1332 133.077 71.3114 133.211C71.356 133.211 71.356 133.256 71.4006 133.256C71.5343 133.345 71.7126 133.389 71.8463 133.478C71.8908 133.478 71.9354 133.523 71.98 133.523C72.0245 133.523 72.0245 133.523 72.0691 133.568C72.2028 133.612 72.3811 133.657 72.5148 133.701C72.5594 133.701 72.5594 133.701 72.6039 133.701C72.7822 133.746 72.9605 133.746 73.1833 133.79H73.2279C73.317 133.79 73.3616 133.79 73.4507 133.79C73.5844 133.79 73.6736 133.79 73.8073 133.79C73.8073 133.79 73.8073 133.79 73.8518 133.79C74.0301 133.79 74.2529 133.746 74.4312 133.701H74.4758C74.6541 133.657 74.8769 133.612 75.0552 133.523C75.0552 133.523 75.0997 133.523 75.0997 133.478C75.278 133.389 75.4563 133.3 75.6346 133.211L158.309 82.3585C159.824 81.2889 160.582 79.3724 160.092 77.5451Z" stroke="#02A9F7" stroke-width="1.49284" mask="url(#path-2-outside-2_1_793)"/>
</g>
<g style="mix-blend-mode:hard-light" filter="url(#filter2_ddi_1_793)">
<mask id="path-3-outside-3_1_793" maskUnits="userSpaceOnUse" x="21" y="21.4658" width="140" height="113" fill="black">
<rect fill="white" x="21" y="21.4658" width="140" height="113"/>
<path d="M160.092 77.5451C159.601 75.7178 157.908 74.4699 156.036 74.4699H120.426L137.406 28.1188C138.209 25.935 137.094 23.5283 134.91 22.726C132.727 21.9238 130.32 23.038 129.518 25.2219L110.442 77.2331C109.952 78.5256 110.175 79.9518 110.933 81.066C111.735 82.1802 113.027 82.8488 114.364 82.8488H141.15L81.2502 119.707L113.473 28.0297C113.518 27.896 113.562 27.7623 113.562 27.6731C113.562 27.6286 113.562 27.584 113.607 27.5394C113.607 27.4503 113.651 27.3612 113.651 27.272C113.651 27.2274 113.651 27.1829 113.651 27.1383C113.651 27.0492 113.651 26.96 113.651 26.9155C113.651 26.8709 113.651 26.8263 113.651 26.7818C113.651 26.6481 113.651 26.5589 113.651 26.4252C113.651 26.3806 113.651 26.3361 113.651 26.2915C113.651 26.2024 113.651 26.1578 113.607 26.0687C113.607 26.0241 113.607 25.9795 113.562 25.935C113.562 25.8458 113.518 25.8013 113.518 25.7121C113.518 25.6676 113.518 25.623 113.473 25.5784C113.429 25.4893 113.429 25.4001 113.384 25.311V25.2664C113.339 25.1327 113.295 25.0436 113.25 24.9099C113.25 24.8653 113.206 24.8653 113.206 24.8208C113.161 24.7316 113.117 24.687 113.072 24.5979C113.072 24.5533 113.027 24.5088 112.983 24.5088C112.938 24.4196 112.894 24.3751 112.849 24.2859C112.805 24.2414 112.805 24.1968 112.76 24.1968C112.715 24.1077 112.626 24.0631 112.582 23.974C112.537 23.9294 112.537 23.8848 112.493 23.8848C112.403 23.7957 112.359 23.7511 112.27 23.662C112.225 23.6174 112.181 23.5728 112.136 23.5283C112.091 23.4837 112.091 23.4837 112.047 23.4391C112.047 23.4391 112.047 23.4391 112.002 23.4391C111.824 23.3054 111.69 23.2163 111.512 23.0826C111.468 23.0826 111.468 23.038 111.423 23.038C111.289 22.9489 111.111 22.9043 110.977 22.8152C110.933 22.8152 110.888 22.7706 110.844 22.7706C110.844 22.7706 110.799 22.7706 110.799 22.726C110.621 22.6815 110.487 22.6369 110.309 22.5923C110.264 22.5923 110.22 22.5923 110.22 22.5923C110.041 22.5478 109.863 22.5478 109.729 22.5032C109.685 22.5032 109.685 22.5032 109.64 22.5032C109.462 22.5032 109.239 22.5032 109.061 22.5032C109.016 22.5032 109.016 22.5032 108.972 22.5032C108.793 22.5032 108.615 22.5478 108.437 22.5923H108.392C108.214 22.6369 108.036 22.6815 107.857 22.7706C107.813 22.7706 107.768 22.8152 107.724 22.8152C107.546 22.9043 107.367 22.9935 107.234 23.0826L23.9798 75.1384C22.3754 76.1189 21.6623 78.0799 22.1525 79.8627C22.6874 81.6454 24.3364 82.8933 26.2083 82.8933H60.7933L44.615 128.13C43.8128 130.314 44.9715 132.721 47.1554 133.523C47.6456 133.701 48.0913 133.79 48.5816 133.79C50.3197 133.79 51.9242 132.721 52.5482 130.983L70.7766 80.1301C71.2223 78.8376 71.044 77.4114 70.2418 76.2972C69.4396 75.183 68.1917 74.5145 66.81 74.5145H40.9158L101.618 36.6314L69.4396 128.175C69.395 128.308 69.3504 128.442 69.3504 128.531C69.3504 128.576 69.3504 128.62 69.3059 128.665C69.3059 128.754 69.2613 128.843 69.2613 128.932C69.2613 128.977 69.2613 129.022 69.2613 129.066C69.2613 129.155 69.2613 129.244 69.2613 129.334C69.2613 129.378 69.2613 129.423 69.2613 129.467C69.2613 129.601 69.2613 129.69 69.2613 129.824C69.2613 129.868 69.2613 129.913 69.2613 129.958C69.2613 130.047 69.2613 130.091 69.3059 130.18C69.3059 130.225 69.3059 130.269 69.3504 130.314C69.3504 130.403 69.395 130.448 69.395 130.537C69.395 130.581 69.395 130.626 69.4396 130.671C69.4841 130.76 69.4841 130.893 69.5287 130.983V131.027C69.5733 131.161 69.6178 131.25 69.6624 131.384C69.6624 131.428 69.707 131.428 69.707 131.473C69.7515 131.562 69.7961 131.651 69.8407 131.696C69.8407 131.74 69.8852 131.785 69.8852 131.785C69.9298 131.874 69.9744 131.919 70.019 132.008C70.0635 132.052 70.0635 132.052 70.1081 132.097C70.1527 132.186 70.2418 132.275 70.2864 132.32C70.3309 132.364 70.3309 132.409 70.3755 132.409C70.4201 132.453 70.5092 132.542 70.5538 132.587C70.5983 132.632 70.6429 132.676 70.6875 132.721C70.732 132.765 70.732 132.765 70.7766 132.81C70.7766 132.81 70.8212 132.81 70.8212 132.854C70.9995 132.988 71.1332 133.077 71.3114 133.211C71.356 133.211 71.356 133.256 71.4006 133.256C71.5343 133.345 71.7126 133.389 71.8463 133.478C71.8908 133.478 71.9354 133.523 71.98 133.523C72.0245 133.523 72.0245 133.523 72.0691 133.568C72.2028 133.612 72.3811 133.657 72.5148 133.701C72.5594 133.701 72.5594 133.701 72.6039 133.701C72.7822 133.746 72.9605 133.746 73.1833 133.79H73.2279C73.317 133.79 73.3616 133.79 73.4507 133.79C73.5844 133.79 73.6736 133.79 73.8073 133.79C73.8073 133.79 73.8073 133.79 73.8518 133.79C74.0301 133.79 74.2529 133.746 74.4312 133.701H74.4758C74.6541 133.657 74.8769 133.612 75.0552 133.523C75.0552 133.523 75.0997 133.523 75.0997 133.478C75.278 133.389 75.4563 133.3 75.6346 133.211L158.309 82.3585C159.824 81.2889 160.582 79.3724 160.092 77.5451Z"/>
</mask>
<path d="M160.092 77.5451C159.601 75.7178 157.908 74.4699 156.036 74.4699H120.426L137.406 28.1188C138.209 25.935 137.094 23.5283 134.91 22.726C132.727 21.9238 130.32 23.038 129.518 25.2219L110.442 77.2331C109.952 78.5256 110.175 79.9518 110.933 81.066C111.735 82.1802 113.027 82.8488 114.364 82.8488H141.15L81.2502 119.707L113.473 28.0297C113.518 27.896 113.562 27.7623 113.562 27.6731C113.562 27.6286 113.562 27.584 113.607 27.5394C113.607 27.4503 113.651 27.3612 113.651 27.272C113.651 27.2274 113.651 27.1829 113.651 27.1383C113.651 27.0492 113.651 26.96 113.651 26.9155C113.651 26.8709 113.651 26.8263 113.651 26.7818C113.651 26.6481 113.651 26.5589 113.651 26.4252C113.651 26.3806 113.651 26.3361 113.651 26.2915C113.651 26.2024 113.651 26.1578 113.607 26.0687C113.607 26.0241 113.607 25.9795 113.562 25.935C113.562 25.8458 113.518 25.8013 113.518 25.7121C113.518 25.6676 113.518 25.623 113.473 25.5784C113.429 25.4893 113.429 25.4001 113.384 25.311V25.2664C113.339 25.1327 113.295 25.0436 113.25 24.9099C113.25 24.8653 113.206 24.8653 113.206 24.8208C113.161 24.7316 113.117 24.687 113.072 24.5979C113.072 24.5533 113.027 24.5088 112.983 24.5088C112.938 24.4196 112.894 24.3751 112.849 24.2859C112.805 24.2414 112.805 24.1968 112.76 24.1968C112.715 24.1077 112.626 24.0631 112.582 23.974C112.537 23.9294 112.537 23.8848 112.493 23.8848C112.403 23.7957 112.359 23.7511 112.27 23.662C112.225 23.6174 112.181 23.5728 112.136 23.5283C112.091 23.4837 112.091 23.4837 112.047 23.4391C112.047 23.4391 112.047 23.4391 112.002 23.4391C111.824 23.3054 111.69 23.2163 111.512 23.0826C111.468 23.0826 111.468 23.038 111.423 23.038C111.289 22.9489 111.111 22.9043 110.977 22.8152C110.933 22.8152 110.888 22.7706 110.844 22.7706C110.844 22.7706 110.799 22.7706 110.799 22.726C110.621 22.6815 110.487 22.6369 110.309 22.5923C110.264 22.5923 110.22 22.5923 110.22 22.5923C110.041 22.5478 109.863 22.5478 109.729 22.5032C109.685 22.5032 109.685 22.5032 109.64 22.5032C109.462 22.5032 109.239 22.5032 109.061 22.5032C109.016 22.5032 109.016 22.5032 108.972 22.5032C108.793 22.5032 108.615 22.5478 108.437 22.5923H108.392C108.214 22.6369 108.036 22.6815 107.857 22.7706C107.813 22.7706 107.768 22.8152 107.724 22.8152C107.546 22.9043 107.367 22.9935 107.234 23.0826L23.9798 75.1384C22.3754 76.1189 21.6623 78.0799 22.1525 79.8627C22.6874 81.6454 24.3364 82.8933 26.2083 82.8933H60.7933L44.615 128.13C43.8128 130.314 44.9715 132.721 47.1554 133.523C47.6456 133.701 48.0913 133.79 48.5816 133.79C50.3197 133.79 51.9242 132.721 52.5482 130.983L70.7766 80.1301C71.2223 78.8376 71.044 77.4114 70.2418 76.2972C69.4396 75.183 68.1917 74.5145 66.81 74.5145H40.9158L101.618 36.6314L69.4396 128.175C69.395 128.308 69.3504 128.442 69.3504 128.531C69.3504 128.576 69.3504 128.62 69.3059 128.665C69.3059 128.754 69.2613 128.843 69.2613 128.932C69.2613 128.977 69.2613 129.022 69.2613 129.066C69.2613 129.155 69.2613 129.244 69.2613 129.334C69.2613 129.378 69.2613 129.423 69.2613 129.467C69.2613 129.601 69.2613 129.69 69.2613 129.824C69.2613 129.868 69.2613 129.913 69.2613 129.958C69.2613 130.047 69.2613 130.091 69.3059 130.18C69.3059 130.225 69.3059 130.269 69.3504 130.314C69.3504 130.403 69.395 130.448 69.395 130.537C69.395 130.581 69.395 130.626 69.4396 130.671C69.4841 130.76 69.4841 130.893 69.5287 130.983V131.027C69.5733 131.161 69.6178 131.25 69.6624 131.384C69.6624 131.428 69.707 131.428 69.707 131.473C69.7515 131.562 69.7961 131.651 69.8407 131.696C69.8407 131.74 69.8852 131.785 69.8852 131.785C69.9298 131.874 69.9744 131.919 70.019 132.008C70.0635 132.052 70.0635 132.052 70.1081 132.097C70.1527 132.186 70.2418 132.275 70.2864 132.32C70.3309 132.364 70.3309 132.409 70.3755 132.409C70.4201 132.453 70.5092 132.542 70.5538 132.587C70.5983 132.632 70.6429 132.676 70.6875 132.721C70.732 132.765 70.732 132.765 70.7766 132.81C70.7766 132.81 70.8212 132.81 70.8212 132.854C70.9995 132.988 71.1332 133.077 71.3114 133.211C71.356 133.211 71.356 133.256 71.4006 133.256C71.5343 133.345 71.7126 133.389 71.8463 133.478C71.8908 133.478 71.9354 133.523 71.98 133.523C72.0245 133.523 72.0245 133.523 72.0691 133.568C72.2028 133.612 72.3811 133.657 72.5148 133.701C72.5594 133.701 72.5594 133.701 72.6039 133.701C72.7822 133.746 72.9605 133.746 73.1833 133.79H73.2279C73.317 133.79 73.3616 133.79 73.4507 133.79C73.5844 133.79 73.6736 133.79 73.8073 133.79C73.8073 133.79 73.8073 133.79 73.8518 133.79C74.0301 133.79 74.2529 133.746 74.4312 133.701H74.4758C74.6541 133.657 74.8769 133.612 75.0552 133.523C75.0552 133.523 75.0997 133.523 75.0997 133.478C75.278 133.389 75.4563 133.3 75.6346 133.211L158.309 82.3585C159.824 81.2889 160.582 79.3724 160.092 77.5451Z" stroke="#02A9F7" stroke-opacity="0.2" stroke-width="1.14158" mask="url(#path-3-outside-3_1_793)"/>
</g>
<g filter="url(#filter3_f_1_793)">
<mask id="path-4-outside-4_1_793" maskUnits="userSpaceOnUse" x="21" y="21.4658" width="140" height="113" fill="black">
<rect fill="white" x="21" y="21.4658" width="140" height="113"/>
<path d="M160.092 77.5451C159.601 75.7178 157.908 74.4699 156.036 74.4699H120.426L137.406 28.1188C138.209 25.935 137.094 23.5283 134.91 22.726C132.727 21.9238 130.32 23.038 129.518 25.2219L110.442 77.2331C109.952 78.5256 110.175 79.9518 110.933 81.066C111.735 82.1802 113.027 82.8488 114.364 82.8488H141.15L81.2502 119.707L113.473 28.0297C113.518 27.896 113.562 27.7623 113.562 27.6731C113.562 27.6286 113.562 27.584 113.607 27.5394C113.607 27.4503 113.651 27.3612 113.651 27.272C113.651 27.2274 113.651 27.1829 113.651 27.1383C113.651 27.0492 113.651 26.96 113.651 26.9155C113.651 26.8709 113.651 26.8263 113.651 26.7818C113.651 26.6481 113.651 26.5589 113.651 26.4252C113.651 26.3806 113.651 26.3361 113.651 26.2915C113.651 26.2024 113.651 26.1578 113.607 26.0687C113.607 26.0241 113.607 25.9795 113.562 25.935C113.562 25.8458 113.518 25.8013 113.518 25.7121C113.518 25.6676 113.518 25.623 113.473 25.5784C113.429 25.4893 113.429 25.4001 113.384 25.311V25.2664C113.339 25.1327 113.295 25.0436 113.25 24.9099C113.25 24.8653 113.206 24.8653 113.206 24.8208C113.161 24.7316 113.117 24.687 113.072 24.5979C113.072 24.5533 113.027 24.5088 112.983 24.5088C112.938 24.4196 112.894 24.3751 112.849 24.2859C112.805 24.2414 112.805 24.1968 112.76 24.1968C112.715 24.1077 112.626 24.0631 112.582 23.974C112.537 23.9294 112.537 23.8848 112.493 23.8848C112.403 23.7957 112.359 23.7511 112.27 23.662C112.225 23.6174 112.181 23.5728 112.136 23.5283C112.091 23.4837 112.091 23.4837 112.047 23.4391C112.047 23.4391 112.047 23.4391 112.002 23.4391C111.824 23.3054 111.69 23.2163 111.512 23.0826C111.468 23.0826 111.468 23.038 111.423 23.038C111.289 22.9489 111.111 22.9043 110.977 22.8152C110.933 22.8152 110.888 22.7706 110.844 22.7706C110.844 22.7706 110.799 22.7706 110.799 22.726C110.621 22.6815 110.487 22.6369 110.309 22.5923C110.264 22.5923 110.22 22.5923 110.22 22.5923C110.041 22.5478 109.863 22.5478 109.729 22.5032C109.685 22.5032 109.685 22.5032 109.64 22.5032C109.462 22.5032 109.239 22.5032 109.061 22.5032C109.016 22.5032 109.016 22.5032 108.972 22.5032C108.793 22.5032 108.615 22.5478 108.437 22.5923H108.392C108.214 22.6369 108.036 22.6815 107.857 22.7706C107.813 22.7706 107.768 22.8152 107.724 22.8152C107.546 22.9043 107.367 22.9935 107.234 23.0826L23.9798 75.1384C22.3754 76.1189 21.6623 78.0799 22.1525 79.8627C22.6874 81.6454 24.3364 82.8933 26.2083 82.8933H60.7933L44.615 128.13C43.8128 130.314 44.9715 132.721 47.1554 133.523C47.6456 133.701 48.0913 133.79 48.5816 133.79C50.3197 133.79 51.9242 132.721 52.5482 130.983L70.7766 80.1301C71.2223 78.8376 71.044 77.4114 70.2418 76.2972C69.4396 75.183 68.1917 74.5145 66.81 74.5145H40.9158L101.618 36.6314L69.4396 128.175C69.395 128.308 69.3504 128.442 69.3504 128.531C69.3504 128.576 69.3504 128.62 69.3059 128.665C69.3059 128.754 69.2613 128.843 69.2613 128.932C69.2613 128.977 69.2613 129.022 69.2613 129.066C69.2613 129.155 69.2613 129.244 69.2613 129.334C69.2613 129.378 69.2613 129.423 69.2613 129.467C69.2613 129.601 69.2613 129.69 69.2613 129.824C69.2613 129.868 69.2613 129.913 69.2613 129.958C69.2613 130.047 69.2613 130.091 69.3059 130.18C69.3059 130.225 69.3059 130.269 69.3504 130.314C69.3504 130.403 69.395 130.448 69.395 130.537C69.395 130.581 69.395 130.626 69.4396 130.671C69.4841 130.76 69.4841 130.893 69.5287 130.983V131.027C69.5733 131.161 69.6178 131.25 69.6624 131.384C69.6624 131.428 69.707 131.428 69.707 131.473C69.7515 131.562 69.7961 131.651 69.8407 131.696C69.8407 131.74 69.8852 131.785 69.8852 131.785C69.9298 131.874 69.9744 131.919 70.019 132.008C70.0635 132.052 70.0635 132.052 70.1081 132.097C70.1527 132.186 70.2418 132.275 70.2864 132.32C70.3309 132.364 70.3309 132.409 70.3755 132.409C70.4201 132.453 70.5092 132.542 70.5538 132.587C70.5983 132.632 70.6429 132.676 70.6875 132.721C70.732 132.765 70.732 132.765 70.7766 132.81C70.7766 132.81 70.8212 132.81 70.8212 132.854C70.9995 132.988 71.1332 133.077 71.3114 133.211C71.356 133.211 71.356 133.256 71.4006 133.256C71.5343 133.345 71.7126 133.389 71.8463 133.478C71.8908 133.478 71.9354 133.523 71.98 133.523C72.0245 133.523 72.0245 133.523 72.0691 133.568C72.2028 133.612 72.3811 133.657 72.5148 133.701C72.5594 133.701 72.5594 133.701 72.6039 133.701C72.7822 133.746 72.9605 133.746 73.1833 133.79H73.2279C73.317 133.79 73.3616 133.79 73.4507 133.79C73.5844 133.79 73.6736 133.79 73.8073 133.79C73.8073 133.79 73.8073 133.79 73.8518 133.79C74.0301 133.79 74.2529 133.746 74.4312 133.701H74.4758C74.6541 133.657 74.8769 133.612 75.0552 133.523C75.0552 133.523 75.0997 133.523 75.0997 133.478C75.278 133.389 75.4563 133.3 75.6346 133.211L158.309 82.3585C159.824 81.2889 160.582 79.3724 160.092 77.5451Z"/>
</mask>
<path d="M160.092 77.5451C159.601 75.7178 157.908 74.4699 156.036 74.4699H120.426L137.406 28.1188C138.209 25.935 137.094 23.5283 134.91 22.726C132.727 21.9238 130.32 23.038 129.518 25.2219L110.442 77.2331C109.952 78.5256 110.175 79.9518 110.933 81.066C111.735 82.1802 113.027 82.8488 114.364 82.8488H141.15L81.2502 119.707L113.473 28.0297C113.518 27.896 113.562 27.7623 113.562 27.6731C113.562 27.6286 113.562 27.584 113.607 27.5394C113.607 27.4503 113.651 27.3612 113.651 27.272C113.651 27.2274 113.651 27.1829 113.651 27.1383C113.651 27.0492 113.651 26.96 113.651 26.9155C113.651 26.8709 113.651 26.8263 113.651 26.7818C113.651 26.6481 113.651 26.5589 113.651 26.4252C113.651 26.3806 113.651 26.3361 113.651 26.2915C113.651 26.2024 113.651 26.1578 113.607 26.0687C113.607 26.0241 113.607 25.9795 113.562 25.935C113.562 25.8458 113.518 25.8013 113.518 25.7121C113.518 25.6676 113.518 25.623 113.473 25.5784C113.429 25.4893 113.429 25.4001 113.384 25.311V25.2664C113.339 25.1327 113.295 25.0436 113.25 24.9099C113.25 24.8653 113.206 24.8653 113.206 24.8208C113.161 24.7316 113.117 24.687 113.072 24.5979C113.072 24.5533 113.027 24.5088 112.983 24.5088C112.938 24.4196 112.894 24.3751 112.849 24.2859C112.805 24.2414 112.805 24.1968 112.76 24.1968C112.715 24.1077 112.626 24.0631 112.582 23.974C112.537 23.9294 112.537 23.8848 112.493 23.8848C112.403 23.7957 112.359 23.7511 112.27 23.662C112.225 23.6174 112.181 23.5728 112.136 23.5283C112.091 23.4837 112.091 23.4837 112.047 23.4391C112.047 23.4391 112.047 23.4391 112.002 23.4391C111.824 23.3054 111.69 23.2163 111.512 23.0826C111.468 23.0826 111.468 23.038 111.423 23.038C111.289 22.9489 111.111 22.9043 110.977 22.8152C110.933 22.8152 110.888 22.7706 110.844 22.7706C110.844 22.7706 110.799 22.7706 110.799 22.726C110.621 22.6815 110.487 22.6369 110.309 22.5923C110.264 22.5923 110.22 22.5923 110.22 22.5923C110.041 22.5478 109.863 22.5478 109.729 22.5032C109.685 22.5032 109.685 22.5032 109.64 22.5032C109.462 22.5032 109.239 22.5032 109.061 22.5032C109.016 22.5032 109.016 22.5032 108.972 22.5032C108.793 22.5032 108.615 22.5478 108.437 22.5923H108.392C108.214 22.6369 108.036 22.6815 107.857 22.7706C107.813 22.7706 107.768 22.8152 107.724 22.8152C107.546 22.9043 107.367 22.9935 107.234 23.0826L23.9798 75.1384C22.3754 76.1189 21.6623 78.0799 22.1525 79.8627C22.6874 81.6454 24.3364 82.8933 26.2083 82.8933H60.7933L44.615 128.13C43.8128 130.314 44.9715 132.721 47.1554 133.523C47.6456 133.701 48.0913 133.79 48.5816 133.79C50.3197 133.79 51.9242 132.721 52.5482 130.983L70.7766 80.1301C71.2223 78.8376 71.044 77.4114 70.2418 76.2972C69.4396 75.183 68.1917 74.5145 66.81 74.5145H40.9158L101.618 36.6314L69.4396 128.175C69.395 128.308 69.3504 128.442 69.3504 128.531C69.3504 128.576 69.3504 128.62 69.3059 128.665C69.3059 128.754 69.2613 128.843 69.2613 128.932C69.2613 128.977 69.2613 129.022 69.2613 129.066C69.2613 129.155 69.2613 129.244 69.2613 129.334C69.2613 129.378 69.2613 129.423 69.2613 129.467C69.2613 129.601 69.2613 129.69 69.2613 129.824C69.2613 129.868 69.2613 129.913 69.2613 129.958C69.2613 130.047 69.2613 130.091 69.3059 130.18C69.3059 130.225 69.3059 130.269 69.3504 130.314C69.3504 130.403 69.395 130.448 69.395 130.537C69.395 130.581 69.395 130.626 69.4396 130.671C69.4841 130.76 69.4841 130.893 69.5287 130.983V131.027C69.5733 131.161 69.6178 131.25 69.6624 131.384C69.6624 131.428 69.707 131.428 69.707 131.473C69.7515 131.562 69.7961 131.651 69.8407 131.696C69.8407 131.74 69.8852 131.785 69.8852 131.785C69.9298 131.874 69.9744 131.919 70.019 132.008C70.0635 132.052 70.0635 132.052 70.1081 132.097C70.1527 132.186 70.2418 132.275 70.2864 132.32C70.3309 132.364 70.3309 132.409 70.3755 132.409C70.4201 132.453 70.5092 132.542 70.5538 132.587C70.5983 132.632 70.6429 132.676 70.6875 132.721C70.732 132.765 70.732 132.765 70.7766 132.81C70.7766 132.81 70.8212 132.81 70.8212 132.854C70.9995 132.988 71.1332 133.077 71.3114 133.211C71.356 133.211 71.356 133.256 71.4006 133.256C71.5343 133.345 71.7126 133.389 71.8463 133.478C71.8908 133.478 71.9354 133.523 71.98 133.523C72.0245 133.523 72.0245 133.523 72.0691 133.568C72.2028 133.612 72.3811 133.657 72.5148 133.701C72.5594 133.701 72.5594 133.701 72.6039 133.701C72.7822 133.746 72.9605 133.746 73.1833 133.79H73.2279C73.317 133.79 73.3616 133.79 73.4507 133.79C73.5844 133.79 73.6736 133.79 73.8073 133.79C73.8073 133.79 73.8073 133.79 73.8518 133.79C74.0301 133.79 74.2529 133.746 74.4312 133.701H74.4758C74.6541 133.657 74.8769 133.612 75.0552 133.523C75.0552 133.523 75.0997 133.523 75.0997 133.478C75.278 133.389 75.4563 133.3 75.6346 133.211L158.309 82.3585C159.824 81.2889 160.582 79.3724 160.092 77.5451Z" stroke="#82D9FF" stroke-width="0.702514" mask="url(#path-4-outside-4_1_793)"/>
</g>
<g filter="url(#filter4_d_1_793)">
<mask id="path-5-inside-5_1_793" fill="white">
<path d="M160.092 77.5451C159.601 75.7178 157.908 74.4699 156.036 74.4699H120.426L137.406 28.1188C138.209 25.935 137.094 23.5283 134.91 22.726C132.727 21.9238 130.32 23.038 129.518 25.2219L110.442 77.2331C109.952 78.5256 110.175 79.9518 110.933 81.066C111.735 82.1802 113.027 82.8488 114.364 82.8488H141.15L81.2502 119.707L113.473 28.0297C113.518 27.896 113.562 27.7623 113.562 27.6731C113.562 27.6286 113.562 27.584 113.607 27.5394C113.607 27.4503 113.651 27.3612 113.651 27.272C113.651 27.2274 113.651 27.1829 113.651 27.1383C113.651 27.0492 113.651 26.96 113.651 26.9155C113.651 26.8709 113.651 26.8263 113.651 26.7818C113.651 26.6481 113.651 26.5589 113.651 26.4252C113.651 26.3806 113.651 26.3361 113.651 26.2915C113.651 26.2024 113.651 26.1578 113.607 26.0687C113.607 26.0241 113.607 25.9795 113.562 25.935C113.562 25.8458 113.518 25.8013 113.518 25.7121C113.518 25.6676 113.518 25.623 113.473 25.5784C113.429 25.4893 113.429 25.4001 113.384 25.311V25.2664C113.339 25.1327 113.295 25.0436 113.25 24.9099C113.25 24.8653 113.206 24.8653 113.206 24.8208C113.161 24.7316 113.117 24.687 113.072 24.5979C113.072 24.5533 113.027 24.5088 112.983 24.5088C112.938 24.4196 112.894 24.3751 112.849 24.2859C112.805 24.2414 112.805 24.1968 112.76 24.1968C112.715 24.1077 112.626 24.0631 112.582 23.974C112.537 23.9294 112.537 23.8848 112.493 23.8848C112.403 23.7957 112.359 23.7511 112.27 23.662C112.225 23.6174 112.181 23.5728 112.136 23.5283C112.091 23.4837 112.091 23.4837 112.047 23.4391C112.047 23.4391 112.047 23.4391 112.002 23.4391C111.824 23.3054 111.69 23.2163 111.512 23.0826C111.468 23.0826 111.468 23.038 111.423 23.038C111.289 22.9489 111.111 22.9043 110.977 22.8152C110.933 22.8152 110.888 22.7706 110.844 22.7706C110.844 22.7706 110.799 22.7706 110.799 22.726C110.621 22.6815 110.487 22.6369 110.309 22.5923C110.264 22.5923 110.22 22.5923 110.22 22.5923C110.041 22.5478 109.863 22.5478 109.729 22.5032C109.685 22.5032 109.685 22.5032 109.64 22.5032C109.462 22.5032 109.239 22.5032 109.061 22.5032C109.016 22.5032 109.016 22.5032 108.972 22.5032C108.793 22.5032 108.615 22.5478 108.437 22.5923H108.392C108.214 22.6369 108.036 22.6815 107.857 22.7706C107.813 22.7706 107.768 22.8152 107.724 22.8152C107.546 22.9043 107.367 22.9935 107.234 23.0826L23.9798 75.1384C22.3754 76.1189 21.6623 78.0799 22.1525 79.8627C22.6874 81.6454 24.3364 82.8933 26.2083 82.8933H60.7933L44.615 128.13C43.8128 130.314 44.9715 132.721 47.1554 133.523C47.6456 133.701 48.0913 133.79 48.5816 133.79C50.3197 133.79 51.9242 132.721 52.5482 130.983L70.7766 80.1301C71.2223 78.8376 71.044 77.4114 70.2418 76.2972C69.4396 75.183 68.1917 74.5145 66.81 74.5145H40.9158L101.618 36.6314L69.4396 128.175C69.395 128.308 69.3504 128.442 69.3504 128.531C69.3504 128.576 69.3504 128.62 69.3059 128.665C69.3059 128.754 69.2613 128.843 69.2613 128.932C69.2613 128.977 69.2613 129.022 69.2613 129.066C69.2613 129.155 69.2613 129.244 69.2613 129.334C69.2613 129.378 69.2613 129.423 69.2613 129.467C69.2613 129.601 69.2613 129.69 69.2613 129.824C69.2613 129.868 69.2613 129.913 69.2613 129.958C69.2613 130.047 69.2613 130.091 69.3059 130.18C69.3059 130.225 69.3059 130.269 69.3504 130.314C69.3504 130.403 69.395 130.448 69.395 130.537C69.395 130.581 69.395 130.626 69.4396 130.671C69.4841 130.76 69.4841 130.893 69.5287 130.983V131.027C69.5733 131.161 69.6178 131.25 69.6624 131.384C69.6624 131.428 69.707 131.428 69.707 131.473C69.7515 131.562 69.7961 131.651 69.8407 131.696C69.8407 131.74 69.8852 131.785 69.8852 131.785C69.9298 131.874 69.9744 131.919 70.019 132.008C70.0635 132.052 70.0635 132.052 70.1081 132.097C70.1527 132.186 70.2418 132.275 70.2864 132.32C70.3309 132.364 70.3309 132.409 70.3755 132.409C70.4201 132.453 70.5092 132.542 70.5538 132.587C70.5983 132.632 70.6429 132.676 70.6875 132.721C70.732 132.765 70.732 132.765 70.7766 132.81C70.7766 132.81 70.8212 132.81 70.8212 132.854C70.9995 132.988 71.1332 133.077 71.3114 133.211C71.356 133.211 71.356 133.256 71.4006 133.256C71.5343 133.345 71.7126 133.389 71.8463 133.478C71.8908 133.478 71.9354 133.523 71.98 133.523C72.0245 133.523 72.0245 133.523 72.0691 133.568C72.2028 133.612 72.3811 133.657 72.5148 133.701C72.5594 133.701 72.5594 133.701 72.6039 133.701C72.7822 133.746 72.9605 133.746 73.1833 133.79H73.2279C73.317 133.79 73.3616 133.79 73.4507 133.79C73.5844 133.79 73.6736 133.79 73.8073 133.79C73.8073 133.79 73.8073 133.79 73.8518 133.79C74.0301 133.79 74.2529 133.746 74.4312 133.701H74.4758C74.6541 133.657 74.8769 133.612 75.0552 133.523C75.0552 133.523 75.0997 133.523 75.0997 133.478C75.278 133.389 75.4563 133.3 75.6346 133.211L158.309 82.3585C159.824 81.2889 160.582 79.3724 160.092 77.5451Z"/>
</mask>
<path d="M160.092 77.5451C159.601 75.7178 157.908 74.4699 156.036 74.4699H120.426L137.406 28.1188C138.209 25.935 137.094 23.5283 134.91 22.726C132.727 21.9238 130.32 23.038 129.518 25.2219L110.442 77.2331C109.952 78.5256 110.175 79.9518 110.933 81.066C111.735 82.1802 113.027 82.8488 114.364 82.8488H141.15L81.2502 119.707L113.473 28.0297C113.518 27.896 113.562 27.7623 113.562 27.6731C113.562 27.6286 113.562 27.584 113.607 27.5394C113.607 27.4503 113.651 27.3612 113.651 27.272C113.651 27.2274 113.651 27.1829 113.651 27.1383C113.651 27.0492 113.651 26.96 113.651 26.9155C113.651 26.8709 113.651 26.8263 113.651 26.7818C113.651 26.6481 113.651 26.5589 113.651 26.4252C113.651 26.3806 113.651 26.3361 113.651 26.2915C113.651 26.2024 113.651 26.1578 113.607 26.0687C113.607 26.0241 113.607 25.9795 113.562 25.935C113.562 25.8458 113.518 25.8013 113.518 25.7121C113.518 25.6676 113.518 25.623 113.473 25.5784C113.429 25.4893 113.429 25.4001 113.384 25.311V25.2664C113.339 25.1327 113.295 25.0436 113.25 24.9099C113.25 24.8653 113.206 24.8653 113.206 24.8208C113.161 24.7316 113.117 24.687 113.072 24.5979C113.072 24.5533 113.027 24.5088 112.983 24.5088C112.938 24.4196 112.894 24.3751 112.849 24.2859C112.805 24.2414 112.805 24.1968 112.76 24.1968C112.715 24.1077 112.626 24.0631 112.582 23.974C112.537 23.9294 112.537 23.8848 112.493 23.8848C112.403 23.7957 112.359 23.7511 112.27 23.662C112.225 23.6174 112.181 23.5728 112.136 23.5283C112.091 23.4837 112.091 23.4837 112.047 23.4391C112.047 23.4391 112.047 23.4391 112.002 23.4391C111.824 23.3054 111.69 23.2163 111.512 23.0826C111.468 23.0826 111.468 23.038 111.423 23.038C111.289 22.9489 111.111 22.9043 110.977 22.8152C110.933 22.8152 110.888 22.7706 110.844 22.7706C110.844 22.7706 110.799 22.7706 110.799 22.726C110.621 22.6815 110.487 22.6369 110.309 22.5923C110.264 22.5923 110.22 22.5923 110.22 22.5923C110.041 22.5478 109.863 22.5478 109.729 22.5032C109.685 22.5032 109.685 22.5032 109.64 22.5032C109.462 22.5032 109.239 22.5032 109.061 22.5032C109.016 22.5032 109.016 22.5032 108.972 22.5032C108.793 22.5032 108.615 22.5478 108.437 22.5923H108.392C108.214 22.6369 108.036 22.6815 107.857 22.7706C107.813 22.7706 107.768 22.8152 107.724 22.8152C107.546 22.9043 107.367 22.9935 107.234 23.0826L23.9798 75.1384C22.3754 76.1189 21.6623 78.0799 22.1525 79.8627C22.6874 81.6454 24.3364 82.8933 26.2083 82.8933H60.7933L44.615 128.13C43.8128 130.314 44.9715 132.721 47.1554 133.523C47.6456 133.701 48.0913 133.79 48.5816 133.79C50.3197 133.79 51.9242 132.721 52.5482 130.983L70.7766 80.1301C71.2223 78.8376 71.044 77.4114 70.2418 76.2972C69.4396 75.183 68.1917 74.5145 66.81 74.5145H40.9158L101.618 36.6314L69.4396 128.175C69.395 128.308 69.3504 128.442 69.3504 128.531C69.3504 128.576 69.3504 128.62 69.3059 128.665C69.3059 128.754 69.2613 128.843 69.2613 128.932C69.2613 128.977 69.2613 129.022 69.2613 129.066C69.2613 129.155 69.2613 129.244 69.2613 129.334C69.2613 129.378 69.2613 129.423 69.2613 129.467C69.2613 129.601 69.2613 129.69 69.2613 129.824C69.2613 129.868 69.2613 129.913 69.2613 129.958C69.2613 130.047 69.2613 130.091 69.3059 130.18C69.3059 130.225 69.3059 130.269 69.3504 130.314C69.3504 130.403 69.395 130.448 69.395 130.537C69.395 130.581 69.395 130.626 69.4396 130.671C69.4841 130.76 69.4841 130.893 69.5287 130.983V131.027C69.5733 131.161 69.6178 131.25 69.6624 131.384C69.6624 131.428 69.707 131.428 69.707 131.473C69.7515 131.562 69.7961 131.651 69.8407 131.696C69.8407 131.74 69.8852 131.785 69.8852 131.785C69.9298 131.874 69.9744 131.919 70.019 132.008C70.0635 132.052 70.0635 132.052 70.1081 132.097C70.1527 132.186 70.2418 132.275 70.2864 132.32C70.3309 132.364 70.3309 132.409 70.3755 132.409C70.4201 132.453 70.5092 132.542 70.5538 132.587C70.5983 132.632 70.6429 132.676 70.6875 132.721C70.732 132.765 70.732 132.765 70.7766 132.81C70.7766 132.81 70.8212 132.81 70.8212 132.854C70.9995 132.988 71.1332 133.077 71.3114 133.211C71.356 133.211 71.356 133.256 71.4006 133.256C71.5343 133.345 71.7126 133.389 71.8463 133.478C71.8908 133.478 71.9354 133.523 71.98 133.523C72.0245 133.523 72.0245 133.523 72.0691 133.568C72.2028 133.612 72.3811 133.657 72.5148 133.701C72.5594 133.701 72.5594 133.701 72.6039 133.701C72.7822 133.746 72.9605 133.746 73.1833 133.79H73.2279C73.317 133.79 73.3616 133.79 73.4507 133.79C73.5844 133.79 73.6736 133.79 73.8073 133.79C73.8073 133.79 73.8073 133.79 73.8518 133.79C74.0301 133.79 74.2529 133.746 74.4312 133.701H74.4758C74.6541 133.657 74.8769 133.612 75.0552 133.523C75.0552 133.523 75.0997 133.523 75.0997 133.478C75.278 133.389 75.4563 133.3 75.6346 133.211L158.309 82.3585C159.824 81.2889 160.582 79.3724 160.092 77.5451Z" fill="#02A9F7"/>
<path d="M160.092 77.5451C159.601 75.7178 157.908 74.4699 156.036 74.4699H120.426L137.406 28.1188C138.209 25.935 137.094 23.5283 134.91 22.726C132.727 21.9238 130.32 23.038 129.518 25.2219L110.442 77.2331C109.952 78.5256 110.175 79.9518 110.933 81.066C111.735 82.1802 113.027 82.8488 114.364 82.8488H141.15L81.2502 119.707L113.473 28.0297C113.518 27.896 113.562 27.7623 113.562 27.6731C113.562 27.6286 113.562 27.584 113.607 27.5394C113.607 27.4503 113.651 27.3612 113.651 27.272C113.651 27.2274 113.651 27.1829 113.651 27.1383C113.651 27.0492 113.651 26.96 113.651 26.9155C113.651 26.8709 113.651 26.8263 113.651 26.7818C113.651 26.6481 113.651 26.5589 113.651 26.4252C113.651 26.3806 113.651 26.3361 113.651 26.2915C113.651 26.2024 113.651 26.1578 113.607 26.0687C113.607 26.0241 113.607 25.9795 113.562 25.935C113.562 25.8458 113.518 25.8013 113.518 25.7121C113.518 25.6676 113.518 25.623 113.473 25.5784C113.429 25.4893 113.429 25.4001 113.384 25.311V25.2664C113.339 25.1327 113.295 25.0436 113.25 24.9099C113.25 24.8653 113.206 24.8653 113.206 24.8208C113.161 24.7316 113.117 24.687 113.072 24.5979C113.072 24.5533 113.027 24.5088 112.983 24.5088C112.938 24.4196 112.894 24.3751 112.849 24.2859C112.805 24.2414 112.805 24.1968 112.76 24.1968C112.715 24.1077 112.626 24.0631 112.582 23.974C112.537 23.9294 112.537 23.8848 112.493 23.8848C112.403 23.7957 112.359 23.7511 112.27 23.662C112.225 23.6174 112.181 23.5728 112.136 23.5283C112.091 23.4837 112.091 23.4837 112.047 23.4391C112.047 23.4391 112.047 23.4391 112.002 23.4391C111.824 23.3054 111.69 23.2163 111.512 23.0826C111.468 23.0826 111.468 23.038 111.423 23.038C111.289 22.9489 111.111 22.9043 110.977 22.8152C110.933 22.8152 110.888 22.7706 110.844 22.7706C110.844 22.7706 110.799 22.7706 110.799 22.726C110.621 22.6815 110.487 22.6369 110.309 22.5923C110.264 22.5923 110.22 22.5923 110.22 22.5923C110.041 22.5478 109.863 22.5478 109.729 22.5032C109.685 22.5032 109.685 22.5032 109.64 22.5032C109.462 22.5032 109.239 22.5032 109.061 22.5032C109.016 22.5032 109.016 22.5032 108.972 22.5032C108.793 22.5032 108.615 22.5478 108.437 22.5923H108.392C108.214 22.6369 108.036 22.6815 107.857 22.7706C107.813 22.7706 107.768 22.8152 107.724 22.8152C107.546 22.9043 107.367 22.9935 107.234 23.0826L23.9798 75.1384C22.3754 76.1189 21.6623 78.0799 22.1525 79.8627C22.6874 81.6454 24.3364 82.8933 26.2083 82.8933H60.7933L44.615 128.13C43.8128 130.314 44.9715 132.721 47.1554 133.523C47.6456 133.701 48.0913 133.79 48.5816 133.79C50.3197 133.79 51.9242 132.721 52.5482 130.983L70.7766 80.1301C71.2223 78.8376 71.044 77.4114 70.2418 76.2972C69.4396 75.183 68.1917 74.5145 66.81 74.5145H40.9158L101.618 36.6314L69.4396 128.175C69.395 128.308 69.3504 128.442 69.3504 128.531C69.3504 128.576 69.3504 128.62 69.3059 128.665C69.3059 128.754 69.2613 128.843 69.2613 128.932C69.2613 128.977 69.2613 129.022 69.2613 129.066C69.2613 129.155 69.2613 129.244 69.2613 129.334C69.2613 129.378 69.2613 129.423 69.2613 129.467C69.2613 129.601 69.2613 129.69 69.2613 129.824C69.2613 129.868 69.2613 129.913 69.2613 129.958C69.2613 130.047 69.2613 130.091 69.3059 130.18C69.3059 130.225 69.3059 130.269 69.3504 130.314C69.3504 130.403 69.395 130.448 69.395 130.537C69.395 130.581 69.395 130.626 69.4396 130.671C69.4841 130.76 69.4841 130.893 69.5287 130.983V131.027C69.5733 131.161 69.6178 131.25 69.6624 131.384C69.6624 131.428 69.707 131.428 69.707 131.473C69.7515 131.562 69.7961 131.651 69.8407 131.696C69.8407 131.74 69.8852 131.785 69.8852 131.785C69.9298 131.874 69.9744 131.919 70.019 132.008C70.0635 132.052 70.0635 132.052 70.1081 132.097C70.1527 132.186 70.2418 132.275 70.2864 132.32C70.3309 132.364 70.3309 132.409 70.3755 132.409C70.4201 132.453 70.5092 132.542 70.5538 132.587C70.5983 132.632 70.6429 132.676 70.6875 132.721C70.732 132.765 70.732 132.765 70.7766 132.81C70.7766 132.81 70.8212 132.81 70.8212 132.854C70.9995 132.988 71.1332 133.077 71.3114 133.211C71.356 133.211 71.356 133.256 71.4006 133.256C71.5343 133.345 71.7126 133.389 71.8463 133.478C71.8908 133.478 71.9354 133.523 71.98 133.523C72.0245 133.523 72.0245 133.523 72.0691 133.568C72.2028 133.612 72.3811 133.657 72.5148 133.701C72.5594 133.701 72.5594 133.701 72.6039 133.701C72.7822 133.746 72.9605 133.746 73.1833 133.79H73.2279C73.317 133.79 73.3616 133.79 73.4507 133.79C73.5844 133.79 73.6736 133.79 73.8073 133.79C73.8073 133.79 73.8073 133.79 73.8518 133.79C74.0301 133.79 74.2529 133.746 74.4312 133.701H74.4758C74.6541 133.657 74.8769 133.612 75.0552 133.523C75.0552 133.523 75.0997 133.523 75.0997 133.478C75.278 133.389 75.4563 133.3 75.6346 133.211L158.309 82.3585C159.824 81.2889 160.582 79.3724 160.092 77.5451Z" stroke="#0E73A3" stroke-width="1.72216" mask="url(#path-5-inside-5_1_793)"/>
</g>
<defs>
<filter id="filter0_f_1_793" x="17.4777" y="17.9433" width="147.285" height="120.37" filterUnits="userSpaceOnUse" color-interpolation-filters="sRGB">
<feFlood flood-opacity="0" result="BackgroundImageFix"/>
<feBlend mode="normal" in="SourceGraphic" in2="BackgroundImageFix" result="shape"/>
<feGaussianBlur stdDeviation="1.97582" result="effect1_foregroundBlur_1_793"/>
</filter>
<filter id="filter1_f_1_793" x="19.9366" y="20.402" width="142.367" height="115.452" filterUnits="userSpaceOnUse" color-interpolation-filters="sRGB">
<feFlood flood-opacity="0" result="BackgroundImageFix"/>
<feBlend mode="normal" in="SourceGraphic" in2="BackgroundImageFix" result="shape"/>
<feGaussianBlur stdDeviation="0.658607" result="effect1_foregroundBlur_1_793"/>
</filter>
<filter id="filter2_ddi_1_793" x="19.717" y="21.4997" width="142.806" height="115.891" filterUnits="userSpaceOnUse" color-interpolation-filters="sRGB">
<feFlood flood-opacity="0" result="BackgroundImageFix"/>
<feColorMatrix in="SourceAlpha" type="matrix" values="0 0 0 0 0 0 0 0 0 0 0 0 0 0 0 0 0 0 127 0" result="hardAlpha"/>
<feOffset dy="0.570792"/>
<feGaussianBlur stdDeviation="0.219536"/>
<feColorMatrix type="matrix" values="0 0 0 0 0 0 0 0 0 0.051 0 0 0 0 0.082 0 0 0 0.7 0"/>
<feBlend mode="multiply" in2="BackgroundImageFix" result="effect1_dropShadow_1_793"/>
<feColorMatrix in="SourceAlpha" type="matrix" values="0 0 0 0 0 0 0 0 0 0 0 0 0 0 0 0 0 0 127 0" result="hardAlpha"/>
<feOffset dy="1.31721"/>
<feGaussianBlur stdDeviation="0.856189"/>
<feColorMatrix type="matrix" values="0 0 0 0 0 0 0 0 0 0.4 0 0 0 0 1 0 0 0 1 0"/>
<feBlend mode="color-dodge" in2="effect1_dropShadow_1_793" result="effect2_dropShadow_1_793"/>
<feBlend mode="normal" in="SourceGraphic" in2="effect2_dropShadow_1_793" result="shape"/>
<feColorMatrix in="SourceAlpha" type="matrix" values="0 0 0 0 0 0 0 0 0 0 0 0 0 0 0 0 0 0 127 0" result="hardAlpha"/>
<feOffset dx="-0.0570792" dy="0.114158"/>
<feGaussianBlur stdDeviation="0.0285396"/>
<feComposite in2="hardAlpha" operator="arithmetic" k2="-1" k3="1"/>
<feColorMatrix type="matrix" values="0 0 0 0 1 0 0 0 0 1 0 0 0 0 1 0 0 0 0.5 0"/>
<feBlend mode="normal" in2="shape" result="effect3_innerShadow_1_793"/>
</filter>
<filter id="filter3_f_1_793" x="21.5611" y="22.0267" width="139.118" height="112.203" filterUnits="userSpaceOnUse" color-interpolation-filters="sRGB">
<feFlood flood-opacity="0" result="BackgroundImageFix"/>
<feBlend mode="normal" in="SourceGraphic" in2="BackgroundImageFix" result="shape"/>
<feGaussianBlur stdDeviation="0.0439071" result="effect1_foregroundBlur_1_793"/>
</filter>
<filter id="filter4_d_1_793" x="0.473055" y="0.938875" width="181.294" height="154.378" filterUnits="userSpaceOnUse" color-interpolation-filters="sRGB">
<feFlood flood-opacity="0" result="BackgroundImageFix"/>
<feColorMatrix in="SourceAlpha" type="matrix" values="0 0 0 0 0 0 0 0 0 0 0 0 0 0 0 0 0 0 127 0" result="hardAlpha"/>
<feOffset/>
<feGaussianBlur stdDeviation="10.7635"/>
<feColorMatrix type="matrix" values="0 0 0 0 0.00784314 0 0 0 0 0.662745 0 0 0 0 0.882353 0 0 0 0.63 0"/>
<feBlend mode="normal" in2="BackgroundImageFix" result="effect1_dropShadow_1_793"/>
<feBlend mode="normal" in="SourceGraphic" in2="effect1_dropShadow_1_793" result="shape"/>
</filter>
</defs>
</svg>
